<svg width="370" height="80" viewBox="0 0 370 80" fill="none" xmlns="http://www.w3.org/2000/svg">
<rect x="8" width="80" height="80" rx="24" fill="#5964F6"/>
<path d="M63.3725 25.8716C68.526 33.2811 71.0711 41.6388 70.1197 51.2604C70.1157 51.3011 70.094 51.3385 70.0598 51.363C66.1572 54.1653 62.376 55.866 58.6479 56.9938C58.6189 57.0024 58.5878 57.0019 58.5591 56.9924C58.5304 56.9829 58.5054 56.9649 58.4876 56.9408C57.6264 55.7689 56.8438 54.5334 56.1582 53.2361C56.1188 53.1596 56.1547 53.0676 56.2357 53.0375C57.4786 52.5796 58.6605 52.0307 59.7973 51.3809C59.8868 51.3296 59.8925 51.2041 59.8098 51.1438C59.5685 50.9687 59.3295 50.7846 59.1008 50.6006C59.058 50.5665 59.0004 50.5598 58.952 50.5827C51.5716 53.9154 43.4869 53.9154 36.0193 50.5827C35.9708 50.5615 35.9132 50.5688 35.8715 50.6022C35.6434 50.7863 35.4038 50.9687 35.1648 51.1438C35.0821 51.2041 35.089 51.3296 35.1791 51.3809C36.3159 52.0184 37.4977 52.5796 38.7389 53.0397C38.8193 53.0698 38.8575 53.1596 38.8176 53.2361C38.1468 54.5351 37.3643 55.7706 36.487 56.9425C36.4488 56.9899 36.386 57.0116 36.3267 56.9938C32.6163 55.866 28.8352 54.1653 24.9325 51.363C24.9 51.3385 24.8766 51.2995 24.8732 51.2587C24.0781 42.9362 25.6986 34.5093 31.6141 25.8699C31.6284 25.847 31.65 25.8292 31.6751 25.8186C34.5859 24.5123 37.7042 23.5512 40.9634 23.0024C41.0228 22.9934 41.0821 23.0202 41.1129 23.0715C41.5156 23.7687 41.9759 24.6629 42.2873 25.3935C45.7228 24.8804 49.2119 24.8804 52.7193 25.3935C53.0307 24.6785 53.475 23.7687 53.876 23.0715C53.8903 23.0461 53.9124 23.0257 53.9393 23.0132C53.9661 23.0008 53.9963 22.997 54.0255 23.0024C57.2864 23.5529 60.4047 24.5139 63.3132 25.8186C63.3388 25.8292 63.36 25.847 63.3725 25.8716ZM44.0339 41.6957C44.0698 39.2353 42.2354 37.1994 39.9327 37.1994C37.6489 37.1994 35.8322 39.2175 35.8322 41.6957C35.8322 44.1733 37.6848 46.1913 39.9327 46.1913C42.2172 46.1913 44.0339 44.1733 44.0339 41.6957ZM59.1961 41.6957C59.232 39.2353 57.3976 37.1994 55.0955 37.1994C52.8111 37.1994 50.9944 39.2175 50.9944 41.6957C50.9944 44.1733 52.847 46.1913 55.0955 46.1913C57.3976 46.1913 59.1961 44.1733 59.1961 41.6957Z" fill="white"/>
<path d="M93 39.5L88 37.1132L88 42.8868L93 40.5L93 39.5ZM188 40.5L193 42.8868L193 37.1133L188 39.5L188 40.5ZM92.5 40.5L188.5 40.5L188.5 39.5L92.5 39.5L92.5 40.5Z" fill="#9EA3BF"/>
<rect x="145" width="80" height="80" rx="24" fill="#1A233D"/>
<g clip-path="url(#clip0_10707_4939)">
<path fill-rule="evenodd" clip-rule="evenodd" d="M184.603 23.141C184.47 21.5854 185.626 20.1188 187.383 20.0077C188.695 19.9188 189.74 20.5188 190.407 21.6743C190.734 22.2421 191.064 22.8099 191.395 23.379L191.396 23.38L191.396 23.3801L191.396 23.3802L191.396 23.3802C191.92 24.2807 192.446 25.1845 192.964 26.0965C193.156 26.4299 193.356 26.7583 193.557 27.0867L193.557 27.0867C193.957 27.7435 194.357 28.4003 194.698 29.0965C195.676 31.0743 194.498 33.2521 192.297 33.541C191.051 33.7188 189.829 33.0521 189.117 31.8521C188.661 31.0743 188.211 30.291 187.761 29.5076C187.31 28.7243 186.86 27.941 186.404 27.1632C186.193 26.7966 185.976 26.4354 185.76 26.0743C185.543 25.7132 185.326 25.3521 185.115 24.9854C184.781 24.4077 184.492 23.8077 184.581 23.1632L184.603 23.141ZM191.14 39.8744C191.274 42.9633 188.606 45.7411 185.404 45.8744C182.247 46.0077 179.356 43.3188 179.289 40.0966C179.245 36.9855 181.691 34.1855 185.115 34.0744C188.272 33.9633 191.029 36.6077 191.14 39.8744ZM179.578 58.3187C180.201 59.3854 181.09 60.0076 182.269 59.9854L182.291 60.0076C183.669 60.052 184.759 59.3409 185.248 58.1632C185.715 57.0965 185.493 56.0965 184.959 55.1409C184.184 53.7762 183.378 52.4115 182.58 51.0595C182.417 50.7824 182.253 50.5058 182.091 50.2298C181.96 50.0061 181.831 49.7824 181.703 49.5591L181.703 49.5591L181.703 49.559L181.703 49.559L181.703 49.559C181.372 48.984 181.042 48.4123 180.69 47.852C179.979 46.7632 178.667 46.2743 177.377 46.5632C176.11 46.852 175.22 47.8298 175.02 49.1409C174.887 49.9854 175.131 50.7187 175.554 51.4298C175.912 52.0449 176.271 52.6616 176.63 53.2791L176.63 53.2792L176.63 53.2794L176.63 53.2795L176.63 53.2796C177.607 54.9596 178.587 56.6451 179.578 58.3187ZM197.678 44.2298C195.387 44.3632 193.875 41.7854 194.898 39.9187C195.624 38.5654 196.384 37.2354 197.146 35.9034C197.435 35.3982 197.724 34.8926 198.011 34.3854L198.011 34.3852L198.011 34.3851C198.389 33.6963 198.767 33.0075 199.167 32.3409C199.901 31.0743 201.146 30.4965 202.502 30.7854C203.859 31.0743 204.882 32.1187 204.993 33.5409C205.037 34.1187 204.882 34.7854 204.615 35.2743C203.214 37.8076 201.769 40.3187 200.301 42.8298C199.723 43.8076 198.811 44.2743 197.678 44.2521V44.2298ZM165.415 44.6299C164.237 46.7632 165.704 49.2966 168.105 49.2966L168.083 49.2744C169.262 49.2744 170.218 48.7188 170.84 47.6299C172.196 45.2744 173.553 42.9188 174.887 40.541C175.154 40.0744 175.354 39.541 175.398 39.0077C175.532 37.6077 174.687 36.3632 173.419 35.9188C172.019 35.4299 170.596 35.8744 169.773 37.0966C169.416 37.6408 169.084 38.2241 168.759 38.7966L168.759 38.7968L168.759 38.7969C168.659 38.9723 168.56 39.1468 168.461 39.3188C168.187 39.795 167.913 40.2696 167.64 40.7435L167.639 40.7437C166.892 42.0388 166.147 43.3284 165.415 44.6299ZM194.209 47.6743C194.704 47.6743 195.203 47.6694 195.702 47.6645H195.702C196.702 47.6546 197.706 47.6447 198.7 47.6743C200.301 47.741 201.435 49.0299 201.502 50.6743C201.546 52.2521 200.501 53.4966 198.922 53.7188C198.859 53.7258 198.794 53.7351 198.727 53.7444L198.727 53.7444L198.727 53.7444C198.584 53.7647 198.437 53.7855 198.3 53.7855H189.806C188.983 53.7855 188.227 53.541 187.649 52.9188C186.76 51.9632 186.538 50.8299 187.005 49.6299C187.472 48.4299 188.405 47.7188 189.717 47.6743C190.711 47.6447 191.715 47.6546 192.715 47.6645H192.716C193.215 47.6694 193.713 47.6743 194.209 47.6743ZM168.617 30.0299C168.928 31.3632 170.017 32.3188 171.396 32.341V32.3632C172.028 32.3728 173.454 32.3659 174.982 32.3584C176.999 32.3486 179.194 32.3379 179.978 32.3632C181.224 32.4077 182.113 31.8743 182.78 30.8743C183.981 29.0965 182.869 26.5632 180.734 26.2743C180.067 26.1854 173.819 26.1854 171.396 26.2743C169.395 26.341 168.172 28.0743 168.617 30.0299Z" fill="#3A6EF2"/>
</g>
<path d="M230 39.5L225 37.1132L225 42.8868L230 40.5L230 39.5ZM325 40.5L330 42.8868L330 37.1133L325 39.5L325 40.5ZM229.5 40.5L325.5 40.5L325.5 39.5L229.5 39.5L229.5 40.5Z" fill="#9EA3BF"/>
<rect x="282" width="80" height="80" rx="24" fill="white"/>
<g clip-path="url(#clip1_10707_4939)">
<path fill-rule="evenodd" clip-rule="evenodd" d="M313.111 45.1934C313.111 42.8632 314.873 40.9873 317.062 40.9873C319.251 40.9873 321.013 42.8632 321.013 45.1934V55.5467C321.013 57.8768 319.251 59.7527 317.062 59.7527C314.873 59.7527 313.111 57.8768 313.111 55.5467V45.1934Z" fill="#E01E5A" stroke="#E01E5A" stroke-width="0.790123" stroke-linecap="round" stroke-linejoin="round"/>
<path fill-rule="evenodd" clip-rule="evenodd" d="M327.193 48.8885C324.863 48.8885 322.987 47.1266 322.987 44.9379C322.987 42.7493 324.863 40.9873 327.193 40.9873H337.547C339.877 40.9873 341.753 42.7493 341.753 44.9379C341.753 47.1266 339.877 48.8885 337.547 48.8885H327.193Z" fill="#ECB22D" stroke="#ECB22D" stroke-width="0.790123" stroke-linecap="round" stroke-linejoin="round"/>
<path fill-rule="evenodd" clip-rule="evenodd" d="M322.987 24.4531C322.987 22.123 324.749 20.2471 326.938 20.2471C329.127 20.2471 330.889 22.123 330.889 24.4531V34.8064C330.889 37.1366 329.127 39.0125 326.938 39.0125C324.749 39.0125 322.987 37.1366 322.987 34.8064V24.4531Z" fill="#2FB67C" stroke="#2FB67C" stroke-width="0.790123" stroke-linecap="round" stroke-linejoin="round"/>
<path fill-rule="evenodd" clip-rule="evenodd" d="M306.453 39.0126C304.123 39.0126 302.247 37.2506 302.247 35.0619C302.247 32.8733 304.123 31.1113 306.453 31.1113H316.806C319.137 31.1113 321.012 32.8733 321.012 35.0619C321.012 37.2506 319.137 39.0126 316.806 39.0126H306.453Z" fill="#36C5F1" stroke="#36C5F1" stroke-width="0.790123" stroke-linecap="round" stroke-linejoin="round"/>
<path fill-rule="evenodd" clip-rule="evenodd" d="M322.988 55.8022C322.987 56.3213 323.089 56.8355 323.287 57.3153C323.485 57.7951 323.776 58.2311 324.143 58.5982C324.51 58.9652 324.946 59.2562 325.426 59.4543C325.906 59.6525 326.42 59.7539 326.939 59.7528C329.128 59.7528 330.89 57.9908 330.89 55.8022C330.891 55.2831 330.789 54.7689 330.591 54.289C330.393 53.8092 330.102 53.3733 329.735 53.0062C329.368 52.6391 328.932 52.3482 328.452 52.15C327.972 51.9519 327.458 51.8505 326.939 51.8516H322.988V55.8022Z" fill="#ECB22D" stroke="#ECB22D" stroke-width="0.790123" stroke-linecap="round"/>
<path fill-rule="evenodd" clip-rule="evenodd" d="M337.802 39.0126H333.852V35.0619C333.852 32.8733 335.614 31.1113 337.802 31.1113C339.991 31.1113 341.753 32.8733 341.753 35.0619C341.753 37.2506 339.991 39.0126 337.802 39.0126Z" fill="#2FB67C" stroke="#2FB67C" stroke-width="0.790123" stroke-linecap="round"/>
<path fill-rule="evenodd" clip-rule="evenodd" d="M306.198 40.9883H310.148V44.9389C310.148 47.1275 308.386 48.8895 306.198 48.8895C305.679 48.8906 305.164 48.7892 304.685 48.591C304.205 48.3929 303.769 48.1019 303.402 47.7349C303.035 47.3678 302.744 46.9319 302.546 46.452C302.347 45.9722 302.246 45.458 302.247 44.9389C302.247 42.7503 304.009 40.9883 306.198 40.9883Z" fill="#E01E5A" stroke="#E01E5A" stroke-width="0.790123" stroke-linecap="round"/>
<path fill-rule="evenodd" clip-rule="evenodd" d="M321.013 24.1977V28.1483H317.062C316.543 28.1494 316.029 28.048 315.549 27.8498C315.069 27.6517 314.633 27.3607 314.266 26.9937C313.899 26.6266 313.608 26.1906 313.41 25.7108C313.212 25.231 313.11 24.7168 313.111 24.1977C313.111 22.0091 314.873 20.2471 317.062 20.2471C317.581 20.246 318.095 20.3474 318.575 20.5455C319.055 20.7437 319.491 21.0347 319.858 21.4017C320.225 21.7688 320.516 22.2047 320.714 22.6846C320.912 23.1644 321.014 23.6786 321.013 24.1977Z" fill="#36C5F1" stroke="#36C5F1" stroke-width="0.790123" stroke-linecap="round"/>
</g>
<defs>
<clipPath id="clip0_10707_4939">
<rect width="40" height="40" fill="white" transform="translate(165 20)"/>
</clipPath>
<clipPath id="clip1_10707_4939">
<rect width="40" height="40" fill="white" transform="translate(302 20)"/>
</clipPath>
</defs>
</svg>
