<svg width="8965" height="6335" viewBox="0 0 8965 6335" fill="none" xmlns="http://www.w3.org/2000/svg">
<rect x="0.701172" y="0.427734" width="8964.3" height="6257.57" rx="18" fill="white"/>
<g filter="url(#filter0_d_35_3064)">
<rect x="263.396" y="203.513" width="4088.11" height="2678.19" rx="10" fill="white"/>
</g>
<path d="M1005.37 2007.76C1005.37 2005.81 1004.7 2004.33 1003.39 2003.37C1002.08 2002.38 999.997 2001.55 997.181 2000.88C995.197 2000.4 993.821 1999.95 993.021 1999.5C992.253 1999.02 991.869 1998.25 991.869 1997.13C991.869 1994.99 993.501 1993.55 996.317 1993.55C999.005 1993.55 1000.77 1995.02 1000.89 1997.42L1004.77 1997.2C1004.64 1993.45 1002.01 1990.93 998.013 1990.38V1986.83H995.005V1990.32C992.733 1990.54 990.973 1991.28 989.757 1992.59C988.573 1993.87 987.965 1995.44 987.965 1997.26C987.965 1999.47 988.733 2001.01 990.301 2002.03C991.933 2003.05 993.245 2003.47 995.773 2004.11C997.853 2004.59 999.325 2005.1 1000.19 2005.61C1001.05 2006.09 1001.5 2006.89 1001.5 2008.01C1001.5 2010.41 999.645 2011.53 996.733 2011.53C993.693 2011.53 991.453 2009.87 991.293 2007.34L987.421 2007.57C987.549 2011.57 990.525 2014.22 995.005 2014.73V2018.29H998.013V2014.77C1002.4 2014.38 1005.37 2012.01 1005.37 2007.76ZM1022.79 1997.01C1022.79 1992.75 1020.19 1990.25 1015.71 1990.25C1011.23 1990.25 1008.61 1992.97 1008.51 1997.58L1012.32 1997.81C1012.35 1995.02 1013.54 1993.65 1015.81 1993.65C1017.83 1993.65 1018.98 1994.99 1018.98 1997.17C1018.98 1998.48 1018.72 1999.6 1018.24 2000.49C1017.76 2001.39 1016.83 2002.57 1015.46 2004.01L1008.58 2011.37V2014.51H1023.01V2011.12H1013.83L1018.27 2006.35C1019.71 2004.78 1020.83 2003.28 1021.6 2001.87C1022.4 2000.43 1022.79 1998.83 1022.79 1997.01ZM1035.49 1990.57L1027.24 2001.9C1026.12 2003.47 1025.54 2005.17 1025.54 2006.96C1025.54 2009.33 1026.31 2011.25 1027.84 2012.69C1029.41 2014.13 1031.36 2014.83 1033.76 2014.83C1036.13 2014.83 1038.08 2014.13 1039.62 2012.69C1041.19 2011.25 1041.96 2009.33 1041.96 2006.96C1041.96 2004.62 1041.19 2002.7 1039.65 2001.26C1038.15 1999.79 1036.2 1999.02 1033.86 1998.99L1040.04 1990.57H1035.49ZM1033.76 2011.44C1031.17 2011.44 1029.41 2009.65 1029.41 2006.83C1029.41 2005.65 1029.7 2004.65 1030.31 2003.85C1031.08 2002.83 1032.23 2002.32 1033.76 2002.32C1036.36 2002.32 1038.12 2004.01 1038.12 2006.83C1038.12 2009.65 1036.32 2011.44 1033.76 2011.44ZM1046.91 2010.22C1045.66 2010.22 1044.63 2011.25 1044.63 2012.56C1044.63 2013.81 1045.66 2014.83 1046.91 2014.83C1048.19 2014.83 1049.24 2013.81 1049.24 2012.56C1049.24 2011.25 1048.19 2010.22 1046.91 2010.22ZM1061.9 1990.57L1053.64 2001.9C1052.52 2003.47 1051.95 2005.17 1051.95 2006.96C1051.95 2009.33 1052.72 2011.25 1054.25 2012.69C1055.82 2014.13 1057.77 2014.83 1060.17 2014.83C1062.54 2014.83 1064.49 2014.13 1066.03 2012.69C1067.6 2011.25 1068.36 2009.33 1068.36 2006.96C1068.36 2004.62 1067.6 2002.7 1066.06 2001.26C1064.56 1999.79 1062.6 1999.02 1060.27 1998.99L1066.44 1990.57H1061.9ZM1060.17 2011.44C1057.58 2011.44 1055.82 2009.65 1055.82 2006.83C1055.82 2005.65 1056.11 2004.65 1056.72 2003.85C1057.48 2002.83 1058.64 2002.32 1060.17 2002.32C1062.76 2002.32 1064.52 2004.01 1064.52 2006.83C1064.52 2009.65 1062.73 2011.44 1060.17 2011.44ZM1084.35 1990.57H1081.15L1070.56 2006.35V2009.49H1080.61V2014.51H1084.35V2009.49H1088.1V2006.09H1084.35V1990.57ZM1080.58 1997.45V2006.09H1074.75L1080.58 1997.45Z" fill="#5C7BFF"/>
<path d="M987.229 1642.11H988.701V1637.39H991.917C993.005 1637.39 993.885 1637.07 994.573 1636.45C995.261 1635.82 995.597 1634.93 995.597 1633.78C995.597 1632.61 995.261 1631.71 994.573 1631.09C993.885 1630.46 993.005 1630.14 991.917 1630.14H987.229V1642.11ZM991.741 1631.44C993.101 1631.44 994.093 1632.26 994.093 1633.78C994.093 1635.26 993.101 1636.1 991.741 1636.1H988.685V1631.44H991.741ZM1001.32 1633.86C1000.05 1633.86 999.236 1634.43 998.916 1635.18V1633.95H997.572V1642.11H998.948V1637.42C998.948 1636.14 999.892 1635.18 1001.32 1635.18V1633.86ZM1004.63 1631.01C1004.63 1630.5 1004.21 1630.1 1003.71 1630.1C1003.22 1630.1 1002.8 1630.5 1002.8 1631.01C1002.8 1631.5 1003.2 1631.9 1003.71 1631.9C1004.21 1631.9 1004.63 1631.5 1004.63 1631.01ZM1004.39 1633.95H1003.01V1642.11H1004.39V1633.95ZM1010.65 1633.81C1009.47 1633.81 1008.51 1634.19 1007.76 1634.94C1007.01 1635.7 1006.64 1636.72 1006.64 1638.03C1006.64 1639.34 1007.01 1640.38 1007.76 1641.14C1008.51 1641.89 1009.49 1642.27 1010.65 1642.27C1012.62 1642.27 1014.03 1641.15 1014.33 1639.34L1012.99 1639.22C1012.8 1640.37 1011.93 1641.07 1010.65 1641.07C1009.12 1641.07 1008.05 1639.94 1008.05 1638.03C1008.05 1636.13 1009.1 1634.99 1010.65 1634.99C1011.89 1634.99 1012.83 1635.76 1012.97 1636.98L1014.32 1636.86C1014.21 1635.92 1013.81 1635.18 1013.12 1634.64C1012.45 1634.08 1011.63 1633.81 1010.65 1633.81ZM1023.65 1637.81C1023.65 1636.59 1023.31 1635.62 1022.64 1634.9C1021.98 1634.18 1021.07 1633.81 1019.9 1633.81C1018.72 1633.81 1017.76 1634.19 1017.01 1634.94C1016.26 1635.7 1015.89 1636.74 1015.89 1638.03C1015.89 1639.33 1016.26 1640.37 1017.01 1641.14C1017.76 1641.89 1018.74 1642.27 1019.94 1642.27C1020.86 1642.27 1021.66 1642.03 1022.32 1641.55C1022.98 1641.06 1023.39 1640.45 1023.57 1639.7L1022.19 1639.62C1021.92 1640.53 1021.1 1641.07 1019.9 1641.07C1018.45 1641.07 1017.42 1640.11 1017.34 1638.56H1023.65V1637.81ZM1019.89 1635.01C1021.41 1635.01 1022.22 1635.97 1022.27 1637.44H1017.34C1017.42 1635.89 1018.43 1635.01 1019.89 1635.01Z" fill="white"/>
<path d="M2013.53 639.598H2011.59L2008.74 644.204L2005.87 639.598H2003.94L2007.91 645.856V650.07H2009.56V645.856L2013.53 639.598ZM2019.66 646.304C2019.66 645.212 2019.35 644.344 2018.75 643.714C2018.14 643.084 2017.32 642.762 2016.3 642.762C2015.23 642.762 2014.36 643.098 2013.71 643.77C2013.05 644.428 2012.71 645.338 2012.71 646.486C2012.71 647.634 2013.05 648.544 2013.72 649.216C2014.39 649.874 2015.26 650.21 2016.34 650.21C2017.15 650.21 2017.86 649.986 2018.47 649.552C2019.07 649.118 2019.45 648.572 2019.59 647.914L2018 647.83C2017.79 648.516 2017.23 648.852 2016.3 648.852C2015.19 648.852 2014.45 648.152 2014.38 647.074H2019.66V646.304ZM2016.28 644.106C2017.42 644.106 2018.03 644.778 2018.07 645.842H2014.39C2014.46 644.736 2015.22 644.106 2016.28 644.106ZM2024.08 642.762C2023.22 642.762 2022.52 643.014 2022 643.532C2021.49 644.036 2021.22 644.624 2021.22 645.296L2022.8 645.352C2022.8 644.666 2023.25 644.134 2024.09 644.134C2024.94 644.134 2025.36 644.638 2025.36 645.632V645.842L2023.66 645.94C2021.91 646.038 2021.02 646.766 2021.02 648.11C2021.02 649.44 2021.96 650.21 2023.42 650.21C2024.16 650.21 2024.82 649.944 2025.36 649.426V650.07H2026.95V645.604C2026.95 643.77 2025.92 642.762 2024.08 642.762ZM2025.38 647.312C2025.38 648.362 2024.73 648.894 2023.68 648.894C2022.97 648.894 2022.61 648.628 2022.61 648.082C2022.61 647.508 2023.03 647.2 2023.88 647.158L2025.38 647.06V647.312ZM2032.71 642.804C2031.69 642.804 2031.02 643.168 2030.67 643.896V642.888H2029.14V650.07H2030.71V646.164C2030.71 645.1 2031.49 644.33 2032.71 644.33V642.804ZM2037.73 642.762C2036.74 642.762 2036.04 643.126 2035.63 643.84V642.888H2034.15V650.07H2035.71V645.968C2035.71 644.96 2036.39 644.218 2037.38 644.218C2038.33 644.218 2038.95 644.89 2038.95 645.954V650.07H2040.53V645.744C2040.53 644.834 2040.26 644.106 2039.75 643.574C2039.23 643.028 2038.56 642.762 2037.73 642.762ZM2043.18 648.194C2042.63 648.194 2042.19 648.642 2042.19 649.216C2042.19 649.762 2042.63 650.21 2043.18 650.21C2043.74 650.21 2044.2 649.762 2044.2 649.216C2044.2 648.642 2043.74 648.194 2043.18 648.194ZM2049 639.122C2047.32 639.122 2046.25 640.172 2046.25 641.894V642.888H2044.9V644.246H2046.25V650.07H2047.82V644.246H2049.59V642.888H2047.82V641.852C2047.82 641.012 2048.37 640.494 2049.17 640.494C2049.29 640.494 2049.45 640.508 2049.61 640.522V639.164C2049.43 639.136 2049.22 639.122 2049 639.122ZM2051.01 639.71C2050.64 640.088 2050.64 640.704 2051.01 641.096C2051.41 641.474 2052.02 641.474 2052.41 641.096C2052.81 640.704 2052.81 640.088 2052.41 639.71C2052.02 639.318 2051.41 639.318 2051.01 639.71ZM2052.5 642.888H2050.93V650.07H2052.5V642.888ZM2058.35 642.762C2057.35 642.762 2056.65 643.126 2056.25 643.84V642.888H2054.76V650.07H2056.33V645.968C2056.33 644.96 2057 644.218 2058 644.218C2058.95 644.218 2059.56 644.89 2059.56 645.954V650.07H2061.15V645.744C2061.15 644.834 2060.88 644.106 2060.36 643.574C2059.84 643.028 2059.17 642.762 2058.35 642.762ZM2065.95 642.762C2065.1 642.762 2064.4 643.014 2063.88 643.532C2063.36 644.036 2063.1 644.624 2063.1 645.296L2064.68 645.352C2064.68 644.666 2065.13 644.134 2065.97 644.134C2066.82 644.134 2067.24 644.638 2067.24 645.632V645.842L2065.53 645.94C2063.78 646.038 2062.9 646.766 2062.9 648.11C2062.9 649.44 2063.84 650.21 2065.29 650.21C2066.04 650.21 2066.69 649.944 2067.24 649.426V650.07H2068.82V645.604C2068.82 643.77 2067.8 642.762 2065.95 642.762ZM2067.25 647.312C2067.25 648.362 2066.61 648.894 2065.56 648.894C2064.85 648.894 2064.48 648.628 2064.48 648.082C2064.48 647.508 2064.9 647.2 2065.76 647.158L2067.25 647.06V647.312ZM2074.6 642.762C2073.61 642.762 2072.91 643.126 2072.5 643.84V642.888H2071.02V650.07H2072.59V645.968C2072.59 644.96 2073.26 644.218 2074.25 644.218C2075.2 644.218 2075.82 644.89 2075.82 645.954V650.07H2077.4V645.744C2077.4 644.834 2077.14 644.106 2076.62 643.574C2076.1 643.028 2075.43 642.762 2074.6 642.762ZM2082.75 642.762C2081.69 642.762 2080.82 643.098 2080.15 643.756C2079.49 644.414 2079.16 645.324 2079.16 646.486C2079.16 647.634 2079.49 648.544 2080.16 649.216C2080.84 649.874 2081.7 650.21 2082.75 650.21C2084.5 650.21 2085.79 649.188 2086.07 647.564L2084.53 647.424C2084.38 648.32 2083.72 648.852 2082.75 648.852C2081.58 648.852 2080.75 647.956 2080.75 646.486C2080.75 644.988 2081.56 644.106 2082.75 644.106C2083.71 644.106 2084.41 644.68 2084.52 645.618L2086.06 645.478C2085.82 643.798 2084.5 642.762 2082.75 642.762ZM2094.28 646.304C2094.28 645.212 2093.97 644.344 2093.37 643.714C2092.76 643.084 2091.94 642.762 2090.92 642.762C2089.85 642.762 2088.98 643.098 2088.33 643.77C2087.67 644.428 2087.33 645.338 2087.33 646.486C2087.33 647.634 2087.67 648.544 2088.34 649.216C2089.01 649.874 2089.88 650.21 2090.96 650.21C2091.77 650.21 2092.48 649.986 2093.09 649.552C2093.69 649.118 2094.07 648.572 2094.21 647.914L2092.62 647.83C2092.41 648.516 2091.85 648.852 2090.92 648.852C2089.81 648.852 2089.07 648.152 2089 647.074H2094.28V646.304ZM2090.9 644.106C2092.04 644.106 2092.65 644.778 2092.69 645.842H2089.01C2089.08 644.736 2089.84 644.106 2090.9 644.106ZM2098.4 642.762C2096.68 642.762 2095.67 643.63 2095.67 644.932C2095.67 645.618 2095.88 646.08 2096.39 646.402C2096.65 646.556 2096.9 646.668 2097.14 646.752C2097.38 646.836 2097.73 646.934 2098.16 647.032C2098.79 647.186 2099.2 647.312 2099.41 647.438C2099.62 647.564 2099.72 647.76 2099.72 648.04C2099.72 648.558 2099.23 648.852 2098.5 648.852C2097.65 648.852 2097.18 648.502 2097.1 647.816L2095.53 647.914C2095.7 649.356 2096.78 650.21 2098.47 650.21C2100.22 650.21 2101.29 649.356 2101.29 647.914C2101.29 646.724 2100.49 646.234 2098.81 645.8L2097.98 645.604C2097.77 645.548 2097.73 645.52 2097.58 645.464C2097.35 645.338 2097.24 645.17 2097.24 644.904C2097.24 644.372 2097.62 644.106 2098.36 644.106C2099.12 644.106 2099.52 644.442 2099.59 645.128L2101.16 645.044C2101.01 643.7 2100.04 642.762 2098.4 642.762Z" fill="#5C7BFF"/>
<ellipse opacity="0.1" cx="1346.99" cy="761.998" rx="361.199" ry="279.243" fill="#5C7BFF"/>
<path opacity="0.4" d="M1408.08 635.07H1285.93C1279.69 635.07 1274.43 639.132 1274.43 643.955C1274.43 648.779 1279.69 652.84 1285.93 652.84H1339.45L1362.43 676.449C1367.52 681.653 1368.18 682.415 1377.7 682.415H1438.78C1445.02 682.415 1451.09 683.049 1457 684.319C1457.66 686.603 1457.99 688.888 1457.99 691.3V695.742C1457.99 700.565 1463.24 704.627 1469.48 704.627C1475.72 704.627 1480.97 700.565 1480.97 695.742V691.173C1480.65 660.202 1448.14 635.07 1408.08 635.07Z" fill="white"/>
<path d="M1480.65 692.696C1473.59 688.761 1465.54 685.842 1456.84 684.192C1451.09 682.922 1444.85 682.288 1438.61 682.288H1377.54C1368.02 682.288 1367.36 681.526 1362.27 676.322L1339.29 652.713C1328.61 641.798 1320.24 635.07 1293.48 635.07H1255.39C1215.33 635.07 1182.82 660.202 1182.82 691.173V832.825C1182.82 863.795 1215.33 888.927 1255.39 888.927H1438.61C1478.67 888.927 1511.18 863.795 1511.18 832.825V738.39C1511.18 719.478 1499.2 702.85 1480.65 692.696ZM1385.26 812.77H1308.75C1302.34 812.77 1297.25 808.835 1297.25 803.885C1297.25 799.062 1302.34 795 1308.75 795H1385.09C1391.33 795 1396.58 799.062 1396.58 803.885C1396.58 808.835 1391.49 812.77 1385.26 812.77Z" fill="white"/>
<g filter="url(#filter1_d_35_3064)">
<rect x="4614.2" y="203.513" width="4088.11" height="2678.19" rx="10" fill="white"/>
</g>
<path d="M5356.18 2007.76C5356.18 2005.81 5355.51 2004.33 5354.19 2003.37C5352.88 2002.38 5350.8 2001.55 5347.99 2000.88C5346 2000.4 5344.63 1999.95 5343.83 1999.5C5343.06 1999.02 5342.67 1998.25 5342.67 1997.13C5342.67 1994.99 5344.31 1993.55 5347.12 1993.55C5349.81 1993.55 5351.57 1995.02 5351.7 1997.42L5355.57 1997.2C5355.44 1993.45 5352.82 1990.93 5348.82 1990.38V1986.83H5345.81V1990.32C5343.54 1990.54 5341.78 1991.28 5340.56 1992.59C5339.38 1993.87 5338.77 1995.44 5338.77 1997.26C5338.77 1999.47 5339.54 2001.01 5341.11 2002.03C5342.74 2003.05 5344.05 2003.47 5346.58 2004.11C5348.66 2004.59 5350.13 2005.1 5350.99 2005.61C5351.86 2006.09 5352.31 2006.89 5352.31 2008.01C5352.31 2010.41 5350.45 2011.53 5347.54 2011.53C5344.5 2011.53 5342.26 2009.87 5342.1 2007.34L5338.23 2007.57C5338.35 2011.57 5341.33 2014.22 5345.81 2014.73V2018.29H5348.82V2014.77C5353.2 2014.38 5356.18 2012.01 5356.18 2007.76ZM5373.59 1997.01C5373.59 1992.75 5371 1990.25 5366.52 1990.25C5362.04 1990.25 5359.42 1992.97 5359.32 1997.58L5363.13 1997.81C5363.16 1995.02 5364.34 1993.65 5366.62 1993.65C5368.63 1993.65 5369.78 1994.99 5369.78 1997.17C5369.78 1998.48 5369.53 1999.6 5369.05 2000.49C5368.57 2001.39 5367.64 2002.57 5366.26 2004.01L5359.38 2011.37V2014.51H5373.82V2011.12H5364.63L5369.08 2006.35C5370.52 2004.78 5371.64 2003.28 5372.41 2001.87C5373.21 2000.43 5373.59 1998.83 5373.59 1997.01ZM5386.3 1990.57L5378.04 2001.9C5376.92 2003.47 5376.35 2005.17 5376.35 2006.96C5376.35 2009.33 5377.11 2011.25 5378.65 2012.69C5380.22 2014.13 5382.17 2014.83 5384.57 2014.83C5386.94 2014.83 5388.89 2014.13 5390.43 2012.69C5391.99 2011.25 5392.76 2009.33 5392.76 2006.96C5392.76 2004.62 5391.99 2002.7 5390.46 2001.26C5388.95 1999.79 5387 1999.02 5384.67 1998.99L5390.84 1990.57H5386.3ZM5384.57 2011.44C5381.98 2011.44 5380.22 2009.65 5380.22 2006.83C5380.22 2005.65 5380.51 2004.65 5381.11 2003.85C5381.88 2002.83 5383.03 2002.32 5384.57 2002.32C5387.16 2002.32 5388.92 2004.01 5388.92 2006.83C5388.92 2009.65 5387.13 2011.44 5384.57 2011.44ZM5397.71 2010.22C5396.46 2010.22 5395.44 2011.25 5395.44 2012.56C5395.44 2013.81 5396.46 2014.83 5397.71 2014.83C5398.99 2014.83 5400.05 2013.81 5400.05 2012.56C5400.05 2011.25 5398.99 2010.22 5397.71 2010.22ZM5412.7 1990.57L5404.45 2001.9C5403.33 2003.47 5402.75 2005.17 5402.75 2006.96C5402.75 2009.33 5403.52 2011.25 5405.06 2012.69C5406.62 2014.13 5408.58 2014.83 5410.98 2014.83C5413.34 2014.83 5415.3 2014.13 5416.83 2012.69C5418.4 2011.25 5419.17 2009.33 5419.17 2006.96C5419.17 2004.62 5418.4 2002.7 5416.86 2001.26C5415.36 1999.79 5413.41 1999.02 5411.07 1998.99L5417.25 1990.57H5412.7ZM5410.98 2011.44C5408.38 2011.44 5406.62 2009.65 5406.62 2006.83C5406.62 2005.65 5406.91 2004.65 5407.52 2003.85C5408.29 2002.83 5409.44 2002.32 5410.98 2002.32C5413.57 2002.32 5415.33 2004.01 5415.33 2006.83C5415.33 2009.65 5413.54 2011.44 5410.98 2011.44ZM5435.16 1990.57H5431.96L5421.36 2006.35V2009.49H5431.41V2014.51H5435.16V2009.49H5438.9V2006.09H5435.16V1990.57ZM5431.38 1997.45V2006.09H5425.56L5431.38 1997.45Z" fill="#5C7BFF"/>
<path d="M5338.03 1642.11H5339.51V1637.39H5342.72C5343.81 1637.39 5344.69 1637.07 5345.38 1636.45C5346.07 1635.82 5346.4 1634.93 5346.4 1633.78C5346.4 1632.61 5346.07 1631.71 5345.38 1631.09C5344.69 1630.46 5343.81 1630.14 5342.72 1630.14H5338.03V1642.11ZM5342.55 1631.44C5343.91 1631.44 5344.9 1632.26 5344.9 1633.78C5344.9 1635.26 5343.91 1636.1 5342.55 1636.1H5339.49V1631.44H5342.55ZM5352.12 1633.86C5350.86 1633.86 5350.04 1634.43 5349.72 1635.18V1633.95H5348.38V1642.11H5349.75V1637.42C5349.75 1636.14 5350.7 1635.18 5352.12 1635.18V1633.86ZM5355.43 1631.01C5355.43 1630.5 5355.01 1630.1 5354.52 1630.1C5354.02 1630.1 5353.61 1630.5 5353.61 1631.01C5353.61 1631.5 5354.01 1631.9 5354.52 1631.9C5355.01 1631.9 5355.43 1631.5 5355.43 1631.01ZM5355.19 1633.95H5353.81V1642.11H5355.19V1633.95ZM5361.46 1633.81C5360.27 1633.81 5359.31 1634.19 5358.56 1634.94C5357.81 1635.7 5357.44 1636.72 5357.44 1638.03C5357.44 1639.34 5357.81 1640.38 5358.56 1641.14C5359.31 1641.89 5360.29 1642.27 5361.46 1642.27C5363.43 1642.27 5364.83 1641.15 5365.14 1639.34L5363.79 1639.22C5363.6 1640.37 5362.74 1641.07 5361.46 1641.07C5359.92 1641.07 5358.85 1639.94 5358.85 1638.03C5358.85 1636.13 5359.91 1634.99 5361.46 1634.99C5362.69 1634.99 5363.63 1635.76 5363.78 1636.98L5365.12 1636.86C5365.01 1635.92 5364.61 1635.18 5363.92 1634.64C5363.25 1634.08 5362.43 1633.81 5361.46 1633.81ZM5374.45 1637.81C5374.45 1636.59 5374.12 1635.62 5373.44 1634.9C5372.79 1634.18 5371.88 1633.81 5370.71 1633.81C5369.52 1633.81 5368.56 1634.19 5367.81 1634.94C5367.06 1635.7 5366.69 1636.74 5366.69 1638.03C5366.69 1639.33 5367.06 1640.37 5367.81 1641.14C5368.56 1641.89 5369.54 1642.27 5370.74 1642.27C5371.67 1642.27 5372.47 1642.03 5373.12 1641.55C5373.78 1641.06 5374.2 1640.45 5374.37 1639.7L5373 1639.62C5372.72 1640.53 5371.91 1641.07 5370.71 1641.07C5369.25 1641.07 5368.23 1640.11 5368.15 1638.56H5374.45V1637.81ZM5370.69 1635.01C5372.21 1635.01 5373.03 1635.97 5373.08 1637.44H5368.15C5368.23 1635.89 5369.24 1635.01 5370.69 1635.01Z" fill="#5C7BFF"/>
<path d="M6364.33 639.598H6362.4L6359.54 644.204L6356.67 639.598H6354.74L6358.71 645.856V650.07H6360.37V645.856L6364.33 639.598ZM6370.46 646.304C6370.46 645.212 6370.15 644.344 6369.55 643.714C6368.94 643.084 6368.12 642.762 6367.1 642.762C6366.03 642.762 6365.16 643.098 6364.51 643.77C6363.85 644.428 6363.51 645.338 6363.51 646.486C6363.51 647.634 6363.85 648.544 6364.52 649.216C6365.19 649.874 6366.06 650.21 6367.14 650.21C6367.95 650.21 6368.66 649.986 6369.27 649.552C6369.87 649.118 6370.25 648.572 6370.39 647.914L6368.8 647.83C6368.59 648.516 6368.03 648.852 6367.1 648.852C6365.99 648.852 6365.25 648.152 6365.18 647.074H6370.46V646.304ZM6367.08 644.106C6368.22 644.106 6368.83 644.778 6368.87 645.842H6365.19C6365.26 644.736 6366.02 644.106 6367.08 644.106ZM6374.88 642.762C6374.02 642.762 6373.32 643.014 6372.8 643.532C6372.29 644.036 6372.02 644.624 6372.02 645.296L6373.6 645.352C6373.6 644.666 6374.05 644.134 6374.89 644.134C6375.74 644.134 6376.16 644.638 6376.16 645.632V645.842L6374.46 645.94C6372.71 646.038 6371.82 646.766 6371.82 648.11C6371.82 649.44 6372.76 650.21 6374.22 650.21C6374.96 650.21 6375.62 649.944 6376.16 649.426V650.07H6377.75V645.604C6377.75 643.77 6376.72 642.762 6374.88 642.762ZM6376.18 647.312C6376.18 648.362 6375.53 648.894 6374.48 648.894C6373.77 648.894 6373.41 648.628 6373.41 648.082C6373.41 647.508 6373.83 647.2 6374.68 647.158L6376.18 647.06V647.312ZM6383.51 642.804C6382.49 642.804 6381.82 643.168 6381.47 643.896V642.888H6379.94V650.07H6381.51V646.164C6381.51 645.1 6382.29 644.33 6383.51 644.33V642.804ZM6388.53 642.762C6387.54 642.762 6386.84 643.126 6386.43 643.84V642.888H6384.95V650.07H6386.51V645.968C6386.51 644.96 6387.19 644.218 6388.18 644.218C6389.13 644.218 6389.75 644.89 6389.75 645.954V650.07H6391.33V645.744C6391.33 644.834 6391.06 644.106 6390.55 643.574C6390.03 643.028 6389.36 642.762 6388.53 642.762ZM6393.98 648.194C6393.43 648.194 6392.99 648.642 6392.99 649.216C6392.99 649.762 6393.43 650.21 6393.98 650.21C6394.54 650.21 6395 649.762 6395 649.216C6395 648.642 6394.54 648.194 6393.98 648.194ZM6399.8 639.122C6398.12 639.122 6397.05 640.172 6397.05 641.894V642.888H6395.7V644.246H6397.05V650.07H6398.62V644.246H6400.39V642.888H6398.62V641.852C6398.62 641.012 6399.17 640.494 6399.97 640.494C6400.09 640.494 6400.25 640.508 6400.41 640.522V639.164C6400.23 639.136 6400.02 639.122 6399.8 639.122ZM6401.81 639.71C6401.44 640.088 6401.44 640.704 6401.81 641.096C6402.21 641.474 6402.82 641.474 6403.21 641.096C6403.61 640.704 6403.61 640.088 6403.21 639.71C6402.82 639.318 6402.21 639.318 6401.81 639.71ZM6403.3 642.888H6401.73V650.07H6403.3V642.888ZM6409.15 642.762C6408.15 642.762 6407.45 643.126 6407.05 643.84V642.888H6405.56V650.07H6407.13V645.968C6407.13 644.96 6407.8 644.218 6408.8 644.218C6409.75 644.218 6410.37 644.89 6410.37 645.954V650.07H6411.95V645.744C6411.95 644.834 6411.68 644.106 6411.16 643.574C6410.65 643.028 6409.97 642.762 6409.15 642.762ZM6416.75 642.762C6415.9 642.762 6415.2 643.014 6414.68 643.532C6414.16 644.036 6413.9 644.624 6413.9 645.296L6415.48 645.352C6415.48 644.666 6415.93 644.134 6416.77 644.134C6417.62 644.134 6418.04 644.638 6418.04 645.632V645.842L6416.33 645.94C6414.58 646.038 6413.7 646.766 6413.7 648.11C6413.7 649.44 6414.64 650.21 6416.1 650.21C6416.84 650.21 6417.5 649.944 6418.04 649.426V650.07H6419.62V645.604C6419.62 643.77 6418.6 642.762 6416.75 642.762ZM6418.06 647.312C6418.06 648.362 6417.41 648.894 6416.36 648.894C6415.65 648.894 6415.28 648.628 6415.28 648.082C6415.28 647.508 6415.7 647.2 6416.56 647.158L6418.06 647.06V647.312ZM6425.4 642.762C6424.41 642.762 6423.71 643.126 6423.3 643.84V642.888H6421.82V650.07H6423.39V645.968C6423.39 644.96 6424.06 644.218 6425.05 644.218C6426.01 644.218 6426.62 644.89 6426.62 645.954V650.07H6428.2V645.744C6428.2 644.834 6427.94 644.106 6427.42 643.574C6426.9 643.028 6426.23 642.762 6425.4 642.762ZM6433.56 642.762C6432.49 642.762 6431.62 643.098 6430.95 643.756C6430.29 644.414 6429.96 645.324 6429.96 646.486C6429.96 647.634 6430.29 648.544 6430.97 649.216C6431.64 649.874 6432.51 650.21 6433.56 650.21C6435.31 650.21 6436.59 649.188 6436.87 647.564L6435.33 647.424C6435.18 648.32 6434.52 648.852 6433.56 648.852C6432.38 648.852 6431.55 647.956 6431.55 646.486C6431.55 644.988 6432.37 644.106 6433.56 644.106C6434.51 644.106 6435.21 644.68 6435.32 645.618L6436.86 645.478C6436.62 643.798 6435.31 642.762 6433.56 642.762ZM6445.08 646.304C6445.08 645.212 6444.77 644.344 6444.17 643.714C6443.57 643.084 6442.74 642.762 6441.72 642.762C6440.65 642.762 6439.79 643.098 6439.13 643.77C6438.47 644.428 6438.13 645.338 6438.13 646.486C6438.13 647.634 6438.47 648.544 6439.14 649.216C6439.81 649.874 6440.68 650.21 6441.76 650.21C6442.57 650.21 6443.29 649.986 6443.89 649.552C6444.49 649.118 6444.87 648.572 6445.01 647.914L6443.43 647.83C6443.22 648.516 6442.66 648.852 6441.72 648.852C6440.61 648.852 6439.87 648.152 6439.8 647.074H6445.08V646.304ZM6441.7 644.106C6442.84 644.106 6443.45 644.778 6443.5 645.842H6439.81C6439.88 644.736 6440.64 644.106 6441.7 644.106ZM6449.2 642.762C6447.48 642.762 6446.47 643.63 6446.47 644.932C6446.47 645.618 6446.68 646.08 6447.19 646.402C6447.45 646.556 6447.71 646.668 6447.94 646.752C6448.18 646.836 6448.53 646.934 6448.97 647.032C6449.6 647.186 6450 647.312 6450.21 647.438C6450.42 647.564 6450.52 647.76 6450.52 648.04C6450.52 648.558 6450.03 648.852 6449.3 648.852C6448.45 648.852 6447.99 648.502 6447.9 647.816L6446.33 647.914C6446.5 649.356 6447.58 650.21 6449.27 650.21C6451.02 650.21 6452.09 649.356 6452.09 647.914C6452.09 646.724 6451.29 646.234 6449.61 645.8L6448.78 645.604C6448.57 645.548 6448.53 645.52 6448.38 645.464C6448.15 645.338 6448.04 645.17 6448.04 644.904C6448.04 644.372 6448.42 644.106 6449.16 644.106C6449.92 644.106 6450.32 644.442 6450.39 645.128L6451.96 645.044C6451.81 643.7 6450.84 642.762 6449.2 642.762Z" fill="#5C7BFF"/>
<ellipse opacity="0.1" cx="5697.79" cy="761.998" rx="361.199" ry="279.243" fill="#5C7BFF"/>
<path opacity="0.4" d="M5758.88 635.07H5636.73C5630.49 635.07 5625.24 639.132 5625.24 643.955C5625.24 648.779 5630.49 652.84 5636.73 652.84H5690.25L5713.24 676.449C5718.33 681.653 5718.99 682.415 5728.51 682.415H5789.58C5795.82 682.415 5801.9 683.049 5807.81 684.319C5808.46 686.603 5808.79 688.888 5808.79 691.3V695.742C5808.79 700.565 5814.05 704.627 5820.29 704.627C5826.52 704.627 5831.78 700.565 5831.78 695.742V691.173C5831.45 660.202 5798.94 635.07 5758.88 635.07Z" fill="white"/>
<path d="M5831.45 692.696C5824.39 688.761 5816.35 685.842 5807.64 684.192C5801.9 682.922 5795.66 682.288 5789.42 682.288H5728.34C5718.82 682.288 5718.16 681.526 5713.08 676.322L5690.09 652.713C5679.42 641.798 5671.04 635.07 5644.28 635.07H5606.19C5566.13 635.07 5533.62 660.202 5533.62 691.173V832.825C5533.62 863.795 5566.13 888.927 5606.19 888.927H5789.42C5829.48 888.927 5861.99 863.795 5861.99 832.825V738.39C5861.99 719.478 5850 702.85 5831.45 692.696ZM5736.06 812.77H5659.55C5653.15 812.77 5648.06 808.835 5648.06 803.885C5648.06 799.062 5653.15 795 5659.55 795H5735.9C5742.14 795 5747.39 799.062 5747.39 803.885C5747.39 808.835 5742.3 812.77 5736.06 812.77Z" fill="white"/>
<g filter="url(#filter2_d_35_3064)">
<rect x="263.365" y="3084.79" width="6337.4" height="2970.13" rx="10" fill="white"/>
</g>
<g opacity="0.2">
<rect x="1072.46" y="3533.69" width="18.2791" height="1780.57" fill="#B9C1D9"/>
<rect x="1675.69" y="3533.69" width="18.2791" height="1780.57" fill="#B9C1D9"/>
<rect x="2278.86" y="3533.69" width="18.2791" height="1780.57" fill="#B9C1D9"/>
<rect x="2882.12" y="3533.69" width="18.2791" height="1780.57" fill="#B9C1D9"/>
<rect x="3485.29" y="3533.69" width="18.2791" height="1780.57" fill="#B9C1D9"/>
<rect x="4088.52" y="3533.69" width="18.2791" height="1780.57" fill="#B9C1D9"/>
<rect x="4691.69" y="3533.69" width="18.2791" height="1780.57" fill="#B9C1D9"/>
<rect x="5294.92" y="3533.69" width="18.2791" height="1780.57" fill="#B9C1D9"/>
<rect x="5900.09" y="5296.59" width="12.6255" height="4817.6" transform="rotate(90 5900.09 5296.59)" fill="#B9C1D9"/>
<rect x="5900.09" y="4829.45" width="12.6255" height="4817.6" transform="rotate(90 5900.09 4829.45)" fill="#B9C1D9"/>
<rect x="5900.09" y="4362.31" width="12.6255" height="4817.6" transform="rotate(90 5900.09 4362.31)" fill="#B9C1D9"/>
<rect x="5900.09" y="3895.17" width="12.6255" height="4817.6" transform="rotate(90 5900.09 3895.17)" fill="#B9C1D9"/>
<rect x="5900.09" y="3539.77" width="12.6255" height="4817.6" transform="rotate(90 5900.09 3539.77)" fill="#B9C1D9"/>
<rect x="5898.12" y="3533.69" width="18.2791" height="1780.57" fill="#B9C1D9"/>
</g>
<path d="M944.18 5291.76C943.433 5291.76 942.839 5292.07 942.398 5292.67C941.966 5293.27 941.75 5294.12 941.75 5295.22C941.75 5296.32 941.966 5297.17 942.398 5297.77C942.839 5298.38 943.433 5298.67 944.18 5298.67C944.918 5298.67 945.503 5298.38 945.935 5297.77C946.376 5297.17 946.592 5296.32 946.592 5295.22C946.592 5294.12 946.376 5293.27 945.935 5292.67C945.503 5292.07 944.918 5291.76 944.18 5291.76ZM945.35 5293.19C945.629 5293.65 945.764 5294.33 945.764 5295.22C945.764 5296.11 945.629 5296.78 945.35 5297.24C945.08 5297.7 944.684 5297.94 944.171 5297.94C943.658 5297.94 943.262 5297.7 942.992 5297.24C942.722 5296.78 942.587 5296.11 942.587 5295.22C942.587 5294.33 942.722 5293.65 942.992 5293.19C943.262 5292.73 943.658 5292.5 944.171 5292.5C944.684 5292.5 945.08 5292.73 945.35 5293.19ZM948.622 5291.59H947.848V5298.58H948.622V5297.05L949.117 5296.56L950.827 5298.58H951.817L949.666 5295.99L951.601 5293.99H950.638L948.622 5296.01V5291.59Z" fill="#B9C1D9"/>
<path d="M944.516 4824.62C943.292 4824.62 942.563 4825.34 942.518 4826.53L943.328 4826.58C943.391 4825.79 943.805 4825.36 944.516 4825.36C945.2 4825.36 945.623 4825.76 945.623 4826.47C945.623 4827.16 945.137 4827.6 944.444 4827.6H943.805V4828.33H944.462C945.263 4828.33 945.794 4828.75 945.794 4829.53C945.794 4830.32 945.317 4830.8 944.534 4830.8C943.751 4830.8 943.31 4830.34 943.238 4829.51L942.41 4829.56C942.491 4830.79 943.238 4831.54 944.534 4831.54C945.164 4831.54 945.668 4831.36 946.046 4831C946.433 4830.64 946.622 4830.15 946.622 4829.55C946.622 4828.69 946.163 4828.12 945.488 4827.96C946.055 4827.75 946.451 4827.23 946.451 4826.47C946.451 4825.34 945.713 4824.62 944.516 4824.62ZM948.599 4824.45H947.825V4831.45H948.599V4829.91L949.094 4829.42L950.804 4831.45H951.794L949.643 4828.85L951.578 4826.86H950.615L948.599 4828.87V4824.45Z" fill="#B9C1D9"/>
<path d="M944.398 4360.01C944.299 4360.01 944.218 4360.01 944.173 4360.02L945.991 4357.58H945.019L942.598 4360.82C942.292 4361.23 942.139 4361.7 942.139 4362.21C942.139 4362.87 942.346 4363.39 942.769 4363.8C943.192 4364.2 943.741 4364.4 944.398 4364.4C945.046 4364.4 945.586 4364.2 946.009 4363.8C946.432 4363.39 946.648 4362.87 946.648 4362.21C946.648 4361.56 946.432 4361.02 946.009 4360.62C945.586 4360.21 945.046 4360.01 944.398 4360.01ZM944.398 4363.66C943.561 4363.66 942.967 4363.09 942.967 4362.19C942.967 4361.8 943.066 4361.48 943.264 4361.23C943.525 4360.9 943.903 4360.73 944.398 4360.73C945.226 4360.73 945.82 4361.29 945.82 4362.19C945.82 4363.08 945.226 4363.66 944.398 4363.66ZM948.599 4357.32H947.825V4364.31H948.599V4362.77L949.094 4362.28L950.804 4364.31H951.794L949.643 4361.72L951.578 4359.72H950.615L948.599 4361.74V4357.32Z" fill="#B9C1D9"/>
<path d="M944.362 3890.35C943.714 3890.35 943.174 3890.55 942.751 3890.95C942.328 3891.36 942.112 3891.88 942.112 3892.54C942.112 3893.19 942.328 3893.73 942.751 3894.13C943.174 3894.54 943.714 3894.74 944.362 3894.74C944.461 3894.74 944.542 3894.74 944.587 3894.73L942.769 3897.17H943.741L946.162 3893.93C946.468 3893.52 946.621 3893.05 946.621 3892.54C946.621 3891.88 946.405 3891.36 945.982 3890.95C945.559 3890.55 945.019 3890.35 944.362 3890.35ZM944.362 3894.02C943.534 3894.02 942.94 3893.46 942.94 3892.56C942.94 3891.67 943.534 3891.09 944.362 3891.09C945.199 3891.09 945.793 3891.66 945.793 3892.56C945.793 3892.95 945.694 3893.27 945.496 3893.52C945.235 3893.85 944.857 3894.02 944.362 3894.02ZM948.599 3890.18H947.825V3897.17H948.599V3895.63L949.094 3895.15L950.804 3897.17H951.794L949.643 3894.58L951.578 3892.58H950.615L948.599 3894.6V3890.18Z" fill="#B9C1D9"/>
<path d="M944.362 3498.29C943.714 3498.29 943.174 3498.49 942.751 3498.89C942.328 3499.3 942.112 3499.82 942.112 3500.48C942.112 3501.13 942.328 3501.66 942.751 3502.07C943.174 3502.47 943.714 3502.68 944.362 3502.68C944.461 3502.68 944.542 3502.68 944.587 3502.67L942.769 3505.11H943.741L946.162 3501.87C946.468 3501.46 946.621 3500.99 946.621 3500.48C946.621 3499.82 946.405 3499.3 945.982 3498.89C945.559 3498.49 945.019 3498.29 944.362 3498.29ZM944.362 3501.96C943.534 3501.96 942.94 3501.39 942.94 3500.5C942.94 3499.61 943.534 3499.03 944.362 3499.03C945.199 3499.03 945.793 3499.6 945.793 3500.5C945.793 3500.89 945.694 3501.2 945.496 3501.46C945.235 3501.79 944.857 3501.96 944.362 3501.96ZM948.599 3498.12H947.825V3505.11H948.599V3503.57L949.094 3503.09L950.804 3505.11H951.794L949.643 3502.52L951.578 3500.52H950.615L948.599 3502.54V3498.12Z" fill="#B9C1D9"/>
<path d="M1366.32 5500.73H1365.61L1362.72 5506.22L1359.83 5500.73H1359.11V5507.47H1359.94V5502.6L1362.45 5507.42H1363L1365.5 5502.6V5507.47H1366.32V5500.73ZM1368.28 5503.45C1367.84 5503.88 1367.61 5504.46 1367.61 5505.17C1367.61 5505.88 1367.84 5506.46 1368.28 5506.9C1368.73 5507.34 1369.29 5507.56 1369.97 5507.56C1370.64 5507.56 1371.21 5507.34 1371.65 5506.9C1372.1 5506.46 1372.33 5505.88 1372.33 5505.17C1372.33 5504.46 1372.1 5503.88 1371.65 5503.45C1371.21 5503.01 1370.64 5502.8 1369.97 5502.8C1369.29 5502.8 1368.73 5503.01 1368.28 5503.45ZM1371.09 5503.93C1371.39 5504.24 1371.54 5504.65 1371.54 5505.17C1371.54 5505.69 1371.39 5506.11 1371.09 5506.42C1370.8 5506.73 1370.43 5506.88 1369.97 5506.88C1369.51 5506.88 1369.13 5506.73 1368.84 5506.42C1368.54 5506.11 1368.39 5505.69 1368.39 5505.17C1368.39 5504.65 1368.54 5504.24 1368.84 5503.93C1369.13 5503.62 1369.51 5503.47 1369.97 5503.47C1370.43 5503.47 1370.8 5503.62 1371.09 5503.93ZM1375.76 5502.8C1375.08 5502.8 1374.58 5503.12 1374.33 5503.56V5502.88H1373.6V5507.47H1374.37V5504.78C1374.37 5504.43 1374.49 5504.13 1374.71 5503.88C1374.95 5503.64 1375.24 5503.52 1375.6 5503.52C1376.3 5503.52 1376.76 5504.02 1376.76 5504.78V5507.47H1377.55V5504.68C1377.55 5504.11 1377.38 5503.65 1377.04 5503.31C1376.71 5502.97 1376.29 5502.8 1375.76 5502.8Z" fill="#B9C1D9"/>
<path d="M1360 5716.5H1359.19L1356.79 5718.33L1357.33 5719.19L1358.92 5717.97V5725.47H1360V5716.5ZM1364.57 5719.97C1364 5719.97 1363.49 5720.11 1363.03 5720.4V5717.47H1366.91V5716.5H1361.95V5721.48H1362.96C1363.4 5721.12 1363.91 5720.94 1364.46 5720.94C1365.48 5720.94 1366.15 5721.66 1366.15 5722.75C1366.15 5723.85 1365.53 5724.61 1364.44 5724.61C1363.39 5724.61 1362.83 5724.01 1362.73 5722.97L1361.63 5723.03C1361.74 5724.62 1362.74 5725.59 1364.42 5725.59C1365.3 5725.59 1365.98 5725.33 1366.49 5724.8C1366.99 5724.27 1367.24 5723.58 1367.24 5722.73C1367.24 5721.87 1366.99 5721.2 1366.5 5720.71C1366.01 5720.22 1365.36 5719.97 1364.57 5719.97Z" fill="#273052"/>
<path d="M1978.8 5500.73H1972.97V5501.46H1975.47V5507.47H1976.3V5501.46H1978.8V5500.73ZM1982.53 5502.88H1981.76V5505.56C1981.76 5506.27 1981.31 5506.83 1980.6 5506.83C1979.91 5506.83 1979.52 5506.36 1979.52 5505.6V5502.88H1978.74V5505.71C1978.74 5506.26 1978.89 5506.71 1979.19 5507.05C1979.5 5507.39 1979.9 5507.56 1980.42 5507.56C1981.13 5507.56 1981.6 5507.21 1981.79 5506.78V5507.47H1982.53V5502.88ZM1988.15 5505.05C1988.15 5504.36 1987.96 5503.81 1987.59 5503.41C1987.22 5503 1986.7 5502.8 1986.05 5502.8C1985.38 5502.8 1984.84 5503.01 1984.42 5503.43C1984 5503.86 1983.79 5504.44 1983.79 5505.17C1983.79 5505.9 1984 5506.49 1984.42 5506.92C1984.84 5507.34 1985.39 5507.56 1986.07 5507.56C1986.59 5507.56 1987.04 5507.42 1987.41 5507.15C1987.78 5506.87 1988.01 5506.53 1988.11 5506.11L1987.33 5506.06C1987.18 5506.58 1986.72 5506.88 1986.05 5506.88C1985.23 5506.88 1984.65 5506.34 1984.61 5505.47H1988.15V5505.05ZM1986.04 5503.47C1986.89 5503.47 1987.35 5504.01 1987.38 5504.84H1984.61C1984.65 5503.97 1985.22 5503.47 1986.04 5503.47Z" fill="#B9C1D9"/>
<path d="M1980.33 5716.5H1979.53L1977.13 5718.33L1977.67 5719.19L1979.25 5717.97V5725.47H1980.33V5716.5ZM1985.01 5719.74C1984.88 5719.74 1984.77 5719.74 1984.71 5719.75L1987.13 5716.5H1985.84L1982.61 5720.82C1982.2 5721.37 1982 5721.99 1982 5722.68C1982 5723.55 1982.27 5724.25 1982.84 5724.79C1983.4 5725.33 1984.13 5725.59 1985.01 5725.59C1985.87 5725.59 1986.59 5725.33 1987.16 5724.79C1987.72 5724.25 1988.01 5723.55 1988.01 5722.68C1988.01 5721.8 1987.72 5721.09 1987.16 5720.55C1986.59 5720.01 1985.87 5719.74 1985.01 5719.74ZM1985.01 5724.61C1983.89 5724.61 1983.1 5723.84 1983.1 5722.64C1983.1 5722.13 1983.23 5721.71 1983.5 5721.37C1983.85 5720.93 1984.35 5720.7 1985.01 5720.7C1986.11 5720.7 1986.91 5721.45 1986.91 5722.64C1986.91 5723.83 1986.11 5724.61 1985.01 5724.61Z" fill="#273052"/>
<path d="M2584.55 5500.73H2583.67L2581.85 5506.02L2580.04 5500.73H2579.37L2577.57 5506.02L2575.74 5500.73H2574.85L2577.21 5507.47H2577.9L2579.7 5502.25L2581.51 5507.47H2582.2L2584.55 5500.73ZM2588.86 5505.05C2588.86 5504.36 2588.68 5503.81 2588.3 5503.41C2587.93 5503 2587.42 5502.8 2586.76 5502.8C2586.09 5502.8 2585.55 5503.01 2585.13 5503.43C2584.71 5503.86 2584.5 5504.44 2584.5 5505.17C2584.5 5505.9 2584.71 5506.49 2585.13 5506.92C2585.55 5507.34 2586.1 5507.56 2586.78 5507.56C2587.3 5507.56 2587.75 5507.42 2588.12 5507.15C2588.49 5506.87 2588.72 5506.53 2588.82 5506.11L2588.05 5506.06C2587.89 5506.58 2587.43 5506.88 2586.76 5506.88C2585.94 5506.88 2585.36 5506.34 2585.32 5505.47H2588.86V5505.05ZM2586.75 5503.47C2587.6 5503.47 2588.06 5504.01 2588.09 5504.84H2585.32C2585.36 5503.97 2585.93 5503.47 2586.75 5503.47ZM2594.39 5500.47H2593.61V5503.57C2593.35 5503.11 2592.78 5502.8 2592.03 5502.8C2591.39 5502.8 2590.86 5503.01 2590.44 5503.44C2590.02 5503.88 2589.82 5504.45 2589.82 5505.18C2589.82 5505.91 2590.02 5506.49 2590.44 5506.92C2590.86 5507.34 2591.39 5507.56 2592.03 5507.56C2592.79 5507.56 2593.38 5507.21 2593.66 5506.72V5507.47H2594.39V5500.47ZM2592.14 5503.47C2593.01 5503.47 2593.61 5504.03 2593.61 5505.04V5505.31C2593.61 5506.31 2593.01 5506.88 2592.14 5506.88C2591.24 5506.88 2590.6 5506.25 2590.6 5505.17C2590.6 5504.1 2591.24 5503.47 2592.14 5503.47Z" fill="#B9C1D9"/>
<path d="M2592.33 5716.5H2591.52L2589.12 5718.33L2589.66 5719.19L2591.25 5717.97V5725.47H2592.33V5716.5ZM2599.61 5716.5H2593.71V5717.47H2598.4L2594.19 5725.47H2595.4L2599.61 5717.39V5716.5Z" fill="#273052"/>
<path d="M3194.9 5500.73H3189.07V5501.46H3191.57V5507.47H3192.4V5501.46H3194.9V5500.73ZM3195.83 5500.47V5507.47H3196.61V5504.78C3196.61 5504.43 3196.72 5504.13 3196.95 5503.88C3197.18 5503.64 3197.48 5503.52 3197.84 5503.52C3198.53 5503.52 3199 5504.02 3199 5504.78V5507.47H3199.78V5504.68C3199.78 5504.11 3199.61 5503.65 3199.28 5503.31C3198.95 5502.97 3198.52 5502.8 3198 5502.8C3197.34 5502.8 3196.83 5503.11 3196.61 5503.51V5500.47H3195.83ZM3205.01 5502.88H3204.23V5505.56C3204.23 5506.27 3203.78 5506.83 3203.07 5506.83C3202.39 5506.83 3201.99 5506.36 3201.99 5505.6V5502.88H3201.22V5505.71C3201.22 5506.26 3201.37 5506.71 3201.67 5507.05C3201.97 5507.39 3202.38 5507.56 3202.89 5507.56C3203.6 5507.56 3204.08 5507.21 3204.27 5506.78V5507.47H3205.01V5502.88Z" fill="#B9C1D9"/>
<path d="M3188.82 5716.5H3188.02L3185.62 5718.33L3186.16 5719.19L3187.74 5717.97V5725.47H3188.82V5716.5ZM3193.51 5716.38C3192.72 5716.38 3192.07 5716.59 3191.57 5717.03C3191.06 5717.46 3190.81 5718.05 3190.81 5718.79C3190.81 5719.71 3191.29 5720.42 3192.02 5720.75C3191.16 5721.12 3190.6 5721.91 3190.6 5722.97C3190.6 5723.77 3190.87 5724.41 3191.41 5724.89C3191.96 5725.35 3192.66 5725.59 3193.51 5725.59C3194.36 5725.59 3195.07 5725.35 3195.61 5724.89C3196.16 5724.41 3196.44 5723.77 3196.44 5722.97C3196.44 5721.9 3195.86 5721.11 3195 5720.73C3195.72 5720.4 3196.21 5719.7 3196.21 5718.79C3196.21 5718.06 3195.96 5717.47 3195.44 5717.04C3194.94 5716.59 3194.29 5716.38 3193.51 5716.38ZM3193.52 5717.36C3194.45 5717.36 3195.13 5717.93 3195.13 5718.85C3195.13 5719.75 3194.45 5720.3 3193.52 5720.3C3192.58 5720.3 3191.9 5719.75 3191.9 5718.85C3191.9 5717.93 3192.58 5717.36 3193.52 5717.36ZM3194.82 5721.72C3195.17 5722.02 3195.34 5722.41 3195.34 5722.93C3195.34 5723.45 3195.17 5723.85 3194.82 5724.15C3194.47 5724.45 3194.04 5724.61 3193.51 5724.61C3192.98 5724.61 3192.55 5724.45 3192.2 5724.15C3191.86 5723.85 3191.69 5723.45 3191.69 5722.93C3191.69 5722.41 3191.86 5722.02 3192.2 5721.72C3192.55 5721.42 3192.98 5721.26 3193.51 5721.26C3194.04 5721.26 3194.47 5721.42 3194.82 5721.72Z" fill="#273052"/>
<path d="M3784.95 5500.73H3780.78V5507.47H3781.61V5504.4H3784.39V5503.67H3781.61V5501.46H3784.95V5500.73ZM3788.05 5502.82C3787.34 5502.82 3786.88 5503.15 3786.7 5503.57V5502.88H3785.94V5507.47H3786.72V5504.83C3786.72 5504.11 3787.25 5503.57 3788.05 5503.57V5502.82ZM3789.91 5501.22C3789.91 5500.93 3789.68 5500.71 3789.4 5500.71C3789.12 5500.71 3788.89 5500.93 3788.89 5501.22C3788.89 5501.5 3789.11 5501.72 3789.4 5501.72C3789.68 5501.72 3789.91 5501.5 3789.91 5501.22ZM3789.78 5502.88H3789V5507.47H3789.78V5502.88Z" fill="#B9C1D9"/>
<path d="M3776.76 5716.5H3775.95L3773.55 5718.33L3774.09 5719.19L3775.68 5717.97V5725.47H3776.76V5716.5ZM3781.39 5716.38C3780.53 5716.38 3779.81 5716.64 3779.24 5717.18C3778.68 5717.72 3778.39 5718.42 3778.39 5719.29C3778.39 5720.17 3778.68 5720.88 3779.24 5721.42C3779.81 5721.96 3780.53 5722.23 3781.39 5722.23C3781.52 5722.23 3781.63 5722.23 3781.69 5722.22L3779.27 5725.47H3780.56L3783.79 5721.15C3784.2 5720.6 3784.4 5719.98 3784.4 5719.29C3784.4 5718.42 3784.12 5717.72 3783.55 5717.18C3782.99 5716.64 3782.27 5716.38 3781.39 5716.38ZM3781.39 5721.27C3780.29 5721.27 3779.5 5720.52 3779.5 5719.33C3779.5 5718.14 3780.29 5717.36 3781.39 5717.36C3782.51 5717.36 3783.3 5718.13 3783.3 5719.33C3783.3 5719.85 3783.17 5720.27 3782.9 5720.6C3782.56 5721.05 3782.05 5721.27 3781.39 5721.27Z" fill="#273052"/>
<path d="M4393.54 5500.64C4392.81 5500.64 4392.25 5500.82 4391.85 5501.19C4391.46 5501.55 4391.27 5502 4391.27 5502.55C4391.27 5503.16 4391.47 5503.59 4391.91 5503.87C4392.14 5504 4392.36 5504.11 4392.58 5504.19C4392.8 5504.26 4393.08 5504.34 4393.44 5504.42C4393.72 5504.49 4393.93 5504.54 4394.07 5504.59C4394.21 5504.62 4394.37 5504.68 4394.54 5504.75C4394.72 5504.82 4394.85 5504.89 4394.93 5504.97C4395.1 5505.12 4395.23 5505.36 4395.23 5505.68C4395.23 5506.46 4394.61 5506.84 4393.67 5506.84C4393.19 5506.84 4392.8 5506.72 4392.47 5506.49C4392.15 5506.25 4391.97 5505.94 4391.94 5505.55L4391.11 5505.59C4391.14 5506.21 4391.39 5506.68 4391.87 5507.03C4392.35 5507.39 4392.94 5507.56 4393.67 5507.56C4394.37 5507.56 4394.95 5507.39 4395.39 5507.07C4395.84 5506.74 4396.06 5506.25 4396.06 5505.61C4396.06 5505.04 4395.87 5504.63 4395.43 5504.35C4395 5504.06 4394.54 5503.91 4393.74 5503.72C4393.15 5503.59 4392.72 5503.45 4392.47 5503.3C4392.23 5503.15 4392.1 5502.89 4392.1 5502.53C4392.1 5501.84 4392.63 5501.36 4393.56 5501.36C4394.42 5501.36 4394.98 5501.81 4395.03 5502.57L4395.87 5502.52C4395.84 5501.93 4395.61 5501.48 4395.19 5501.15C4394.77 5500.82 4394.22 5500.64 4393.54 5500.64ZM4399.02 5502.8C4398.49 5502.8 4398.06 5502.96 4397.74 5503.28C4397.41 5503.61 4397.25 5503.97 4397.25 5504.4L4398.03 5504.43C4398.03 5503.9 4398.38 5503.48 4399.03 5503.48C4399.67 5503.48 4400 5503.85 4400 5504.6V5504.81L4398.81 5504.88C4397.68 5504.95 4397.12 5505.4 4397.12 5506.25C4397.12 5507.07 4397.72 5507.56 4398.63 5507.56C4399.19 5507.56 4399.64 5507.35 4400 5506.93V5507.47H4400.78V5504.58C4400.78 5503.43 4400.15 5502.8 4399.02 5502.8ZM4400 5505.62C4400 5506.49 4399.5 5506.89 4398.74 5506.89C4398.19 5506.89 4397.91 5506.67 4397.91 5506.23C4397.91 5505.79 4398.24 5505.55 4398.91 5505.5L4400 5505.43V5505.62ZM4404.07 5506.83C4403.53 5506.83 4403.26 5506.53 4403.26 5505.94L4403.28 5503.55H4404.51V5502.88H4403.28L4403.29 5501.29H4402.51L4402.5 5502.88H4401.64V5503.55H4402.5L4402.49 5506.09C4402.48 5507.06 4403.03 5507.53 4403.9 5507.53C4404.11 5507.53 4404.32 5507.51 4404.52 5507.48V5506.78C4404.34 5506.81 4404.19 5506.83 4404.07 5506.83Z" fill="#B9C1D9"/>
<path d="M4388.57 5716.39C4386.9 5716.39 4385.95 5717.39 4385.92 5719.1L4387.01 5719.16C4387.02 5718.01 4387.57 5717.36 4388.59 5717.36C4389.52 5717.36 4390.04 5717.97 4390.04 5718.95C4390.04 5719.49 4389.94 5719.97 4389.72 5720.36C4389.5 5720.76 4389.12 5721.24 4388.57 5721.81L4385.94 5724.59V5725.47H4391.26V5724.5H4387.44L4389.38 5722.46C4389.97 5721.85 4390.4 5721.29 4390.7 5720.75C4391 5720.21 4391.15 5719.58 4391.15 5718.9C4391.15 5717.33 4390.21 5716.39 4388.57 5716.39ZM4395.58 5716.38C4394.58 5716.38 4393.79 5716.79 4393.2 5717.59C4392.63 5718.39 4392.34 5719.52 4392.34 5720.99C4392.34 5722.45 4392.63 5723.59 4393.2 5724.39C4393.79 5725.2 4394.58 5725.59 4395.58 5725.59C4396.56 5725.59 4397.34 5725.2 4397.92 5724.39C4398.51 5723.59 4398.79 5722.45 4398.79 5720.99C4398.79 5719.52 4398.51 5718.39 4397.92 5717.59C4397.34 5716.79 4396.56 5716.38 4395.58 5716.38ZM4397.14 5718.29C4397.51 5718.9 4397.69 5719.8 4397.69 5720.99C4397.69 5722.17 4397.51 5723.07 4397.14 5723.69C4396.78 5724.3 4396.25 5724.61 4395.57 5724.61C4394.88 5724.61 4394.35 5724.3 4393.99 5723.69C4393.63 5723.07 4393.45 5722.17 4393.45 5720.99C4393.45 5719.8 4393.63 5718.9 4393.99 5718.29C4394.35 5717.67 4394.88 5717.36 4395.57 5717.36C4396.25 5717.36 4396.78 5717.67 4397.14 5718.29Z" fill="#273052"/>
<path d="M5004.65 5500.64C5003.92 5500.64 5003.35 5500.82 5002.96 5501.19C5002.57 5501.55 5002.37 5502 5002.37 5502.55C5002.37 5503.16 5002.58 5503.59 5003.02 5503.87C5003.25 5504 5003.47 5504.11 5003.69 5504.19C5003.9 5504.26 5004.19 5504.34 5004.55 5504.42C5004.83 5504.49 5005.04 5504.54 5005.17 5504.59C5005.32 5504.62 5005.48 5504.68 5005.65 5504.75C5005.83 5504.82 5005.96 5504.89 5006.04 5504.97C5006.21 5505.12 5006.33 5505.36 5006.33 5505.68C5006.33 5506.46 5005.72 5506.84 5004.78 5506.84C5004.3 5506.84 5003.9 5506.72 5003.58 5506.49C5003.26 5506.25 5003.08 5505.94 5003.05 5505.55L5002.22 5505.59C5002.25 5506.21 5002.5 5506.68 5002.98 5507.03C5003.45 5507.39 5004.05 5507.56 5004.78 5507.56C5005.48 5507.56 5006.05 5507.39 5006.5 5507.07C5006.95 5506.74 5007.17 5506.25 5007.17 5505.61C5007.17 5505.04 5006.98 5504.63 5006.54 5504.35C5006.11 5504.06 5005.65 5503.91 5004.85 5503.72C5004.25 5503.59 5003.83 5503.45 5003.58 5503.3C5003.34 5503.15 5003.21 5502.89 5003.21 5502.53C5003.21 5501.84 5003.73 5501.36 5004.67 5501.36C5005.52 5501.36 5006.09 5501.81 5006.14 5502.57L5006.97 5502.52C5006.95 5501.93 5006.72 5501.48 5006.3 5501.15C5005.87 5500.82 5005.33 5500.64 5004.65 5500.64ZM5012.16 5502.88H5011.38V5505.56C5011.38 5506.27 5010.93 5506.83 5010.22 5506.83C5009.54 5506.83 5009.14 5506.36 5009.14 5505.6V5502.88H5008.37V5505.71C5008.37 5506.26 5008.52 5506.71 5008.82 5507.05C5009.13 5507.39 5009.53 5507.56 5010.04 5507.56C5010.75 5507.56 5011.23 5507.21 5011.42 5506.78V5507.47H5012.16V5502.88ZM5015.89 5502.8C5015.21 5502.8 5014.7 5503.12 5014.46 5503.56V5502.88H5013.72V5507.47H5014.5V5504.78C5014.5 5504.43 5014.61 5504.13 5014.84 5503.88C5015.07 5503.64 5015.37 5503.52 5015.73 5503.52C5016.42 5503.52 5016.89 5504.02 5016.89 5504.78V5507.47H5017.67V5504.68C5017.67 5504.11 5017.5 5503.65 5017.17 5503.31C5016.84 5502.97 5016.41 5502.8 5015.89 5502.8Z" fill="#B9C1D9"/>
<path d="M5009.21 5716.39C5007.54 5716.39 5006.6 5717.39 5006.56 5719.1L5007.65 5719.16C5007.66 5718.01 5008.22 5717.36 5009.24 5717.36C5010.16 5717.36 5010.69 5717.97 5010.69 5718.95C5010.69 5719.49 5010.58 5719.97 5010.36 5720.36C5010.15 5720.76 5009.76 5721.24 5009.21 5721.81L5006.58 5724.59V5725.47H5011.9V5724.5H5008.08L5010.03 5722.46C5010.62 5721.85 5011.05 5721.29 5011.35 5720.75C5011.65 5720.21 5011.79 5719.58 5011.79 5718.9C5011.79 5717.33 5010.86 5716.39 5009.21 5716.39ZM5015.71 5716.5H5014.9L5012.5 5718.33L5013.04 5719.19L5014.63 5717.97V5725.47H5015.71V5716.5Z" fill="#273052"/>
<path d="M5595.97 5500.73H5595.25L5592.37 5506.22L5589.48 5500.73H5588.76V5507.47H5589.58V5502.6L5592.1 5507.42H5592.64L5595.15 5502.6V5507.47H5595.97V5500.73ZM5597.92 5503.45C5597.48 5503.88 5597.26 5504.46 5597.26 5505.17C5597.26 5505.88 5597.48 5506.46 5597.92 5506.9C5598.37 5507.34 5598.94 5507.56 5599.61 5507.56C5600.29 5507.56 5600.86 5507.34 5601.3 5506.9C5601.75 5506.46 5601.97 5505.88 5601.97 5505.17C5601.97 5504.46 5601.75 5503.88 5601.3 5503.45C5600.86 5503.01 5600.29 5502.8 5599.61 5502.8C5598.94 5502.8 5598.37 5503.01 5597.92 5503.45ZM5600.74 5503.93C5601.04 5504.24 5601.19 5504.65 5601.19 5505.17C5601.19 5505.69 5601.04 5506.11 5600.74 5506.42C5600.44 5506.73 5600.07 5506.88 5599.61 5506.88C5599.16 5506.88 5598.78 5506.73 5598.48 5506.42C5598.18 5506.11 5598.04 5505.69 5598.04 5505.17C5598.04 5504.65 5598.18 5504.24 5598.48 5503.93C5598.78 5503.62 5599.16 5503.47 5599.61 5503.47C5600.07 5503.47 5600.44 5503.62 5600.74 5503.93ZM5605.41 5502.8C5604.73 5502.8 5604.22 5503.12 5603.98 5503.56V5502.88H5603.24V5507.47H5604.01V5504.78C5604.01 5504.43 5604.13 5504.13 5604.36 5503.88C5604.59 5503.64 5604.89 5503.52 5605.25 5503.52C5605.94 5503.52 5606.41 5504.02 5606.41 5504.78V5507.47H5607.19V5504.68C5607.19 5504.11 5607.02 5503.65 5606.69 5503.31C5606.35 5502.97 5605.93 5502.8 5605.41 5502.8Z" fill="#B9C1D9"/>
<path d="M5597.75 5716.39C5596.08 5716.39 5595.13 5717.39 5595.1 5719.1L5596.19 5719.16C5596.2 5718.01 5596.75 5717.36 5597.77 5717.36C5598.7 5717.36 5599.22 5717.97 5599.22 5718.95C5599.22 5719.49 5599.12 5719.97 5598.9 5720.36C5598.68 5720.76 5598.3 5721.24 5597.75 5721.81L5595.12 5724.59V5725.47H5600.44V5724.5H5596.62L5598.56 5722.46C5599.15 5721.85 5599.58 5721.29 5599.88 5720.75C5600.18 5720.21 5600.33 5719.58 5600.33 5718.9C5600.33 5717.33 5599.39 5716.39 5597.75 5716.39ZM5604.18 5716.39C5602.51 5716.39 5601.57 5717.39 5601.53 5719.1L5602.62 5719.16C5602.63 5718.01 5603.19 5717.36 5604.21 5717.36C5605.13 5717.36 5605.66 5717.97 5605.66 5718.95C5605.66 5719.49 5605.55 5719.97 5605.33 5720.36C5605.12 5720.76 5604.73 5721.24 5604.18 5721.81L5601.55 5724.59V5725.47H5606.87V5724.5H5603.05L5605 5722.46C5605.59 5721.85 5606.02 5721.29 5606.32 5720.75C5606.62 5720.21 5606.76 5719.58 5606.76 5718.9C5606.76 5717.33 5605.83 5716.39 5604.18 5716.39Z" fill="#273052"/>
<path d="M1273.02 5028.33H1082.51V5295.59C1082.51 5296.14 1082.96 5296.59 1083.51 5296.59H5899.1C5899.66 5296.59 5900.1 5296.14 5900.1 5295.59V3600.43L5680.93 3831.27C5680.41 3831.81 5679.5 3831.61 5679.26 3830.9L5577.2 3529.72C5577.07 3529.31 5576.69 3529.04 5576.26 3529.04H5298.27C5298.03 3529.04 5297.81 3529.12 5297.63 3529.27L5107.41 3689.3C5107.14 3689.53 5106.75 3689.6 5106.42 3689.47L4872.91 3600.79C4872.39 3600.6 4871.8 3600.86 4871.61 3601.38L4696.26 4080.84C4696 4081.54 4695.11 4081.73 4694.6 4081.19L4490.97 3869.1C4490.52 3868.62 4489.74 3868.71 4489.4 3869.26L4446.54 3938.71C4446.25 3939.18 4445.63 3939.33 4445.16 3939.04L4329.32 3868.66C4328.87 3868.38 4328.28 3868.51 4327.98 3868.95L4182.01 4081.8C4181.78 4082.13 4181.38 4082.3 4180.98 4082.22L4006.23 4046.83C4005.74 4046.73 4005.26 4047 4005.09 4047.47L3829.29 4545.96C3829.19 4546.25 3828.96 4546.47 3828.67 4546.57L3565.47 4635.42C3565.04 4635.56 3564.57 4635.4 3564.32 4635.02L3374.67 4351.37C3374.27 4350.77 3373.37 4350.79 3372.99 4351.41L3285.88 4492.55C3285.75 4492.76 3285.55 4492.91 3285.32 4492.98L3109.88 4546.28C3109.59 4546.37 3109.36 4546.58 3109.24 4546.86L3006.81 4795.82C3006.68 4796.12 3006.42 4796.34 3006.1 4796.41L2771.91 4849.78C2771.71 4849.82 2771.53 4849.93 2771.39 4850.08L2610.73 5027.58C2610.35 5027.99 2609.7 5028.02 2609.3 5027.63L2478.38 4903.89C2478.06 4903.59 2477.59 4903.53 2477.21 4903.74L2111.15 5105.23C2110.84 5105.4 2110.47 5105.39 2110.17 5105.22L1978.98 5028.63C1978.66 5028.45 1978.27 5028.45 1977.96 5028.64L1861.2 5099.58C1861.05 5099.68 1860.87 5099.73 1860.68 5099.73H1626.32C1626.09 5099.73 1625.86 5099.65 1625.68 5099.5L1391.68 4904C1391.27 4903.66 1390.67 4903.69 1390.31 4904.08L1273.75 5028.02C1273.56 5028.22 1273.29 5028.33 1273.02 5028.33Z" fill="url(#paint0_linear_35_3064)"/>
<path d="M1111.19 5028.33H1272.59C1273.14 5028.33 1273.67 5028.1 1274.04 5027.7L1389.66 4904.77C1390.39 4903.99 1391.59 4903.92 1392.4 4904.6L1625.4 5099.26C1625.76 5099.56 1626.22 5099.73 1626.68 5099.73H1860.4C1860.77 5099.73 1861.13 5099.63 1861.44 5099.44L1977.16 5029.12C1977.93 5028.66 1978.92 5028.76 1979.57 5029.38L2109.49 5152.17C2110.17 5152.81 2111.21 5152.9 2111.99 5152.37L2476.52 4904.3C2477.3 4903.77 2478.34 4903.85 2479.02 4904.5L2608.56 5026.93C2609.37 5027.7 2610.66 5027.65 2611.41 5026.82L2771.18 4850.31C2771.46 4850.01 2771.82 4849.8 2772.22 4849.71L3005.6 4796.53C3006.23 4796.38 3006.76 4795.94 3007.01 4795.34L3109.07 4547.29C3109.29 4546.74 3109.76 4546.32 3110.33 4546.14L3284.96 4493.09C3285.42 4492.95 3285.82 4492.64 3286.08 4492.23L3372.17 4352.73C3372.94 4351.49 3374.73 4351.46 3375.54 4352.67L3563.9 4634.39C3564.4 4635.14 3565.34 4635.46 3566.2 4635.17L3828.21 4546.73C3828.79 4546.53 3829.25 4546.08 3829.45 4545.5L4004.8 4048.29C4005.13 4047.35 4006.11 4046.8 4007.09 4047L4180.34 4082.09C4181.12 4082.25 4181.93 4081.92 4182.38 4081.26L4327.44 3869.73C4328.04 3868.85 4329.22 3868.6 4330.13 3869.15L4444.32 3938.53C4445.26 3939.1 4446.48 3938.81 4447.06 3937.87L4488.72 3870.36C4489.41 3869.25 4490.96 3869.08 4491.87 3870.03L4693.49 4080.04C4694.51 4081.1 4696.3 4080.73 4696.81 4079.34L4871.27 3602.34C4871.65 3601.29 4872.81 3600.76 4873.85 3601.15L5105.87 3689.26C5106.55 3689.52 5107.31 3689.39 5107.86 3688.92L5297.35 3529.51C5297.71 3529.21 5298.16 3529.04 5298.64 3529.04H5575.54C5576.4 3529.04 5577.16 3529.59 5577.43 3530.4L5678.64 3829.07C5679.14 3830.55 5681.08 3830.91 5682.07 3829.7L5871.43 3600.43" stroke="white" stroke-width="2" stroke-linecap="round"/>
<rect x="6880.8" y="3091.67" width="1838.83" height="2970.13" rx="10" fill="white"/>
<path d="M7133.2 3290.39H7131.82L7129.78 3293.68L7127.73 3290.39H7126.35L7129.19 3294.86V3297.87H7130.37V3294.86L7133.2 3290.39ZM7134.22 3290.47C7133.95 3290.74 7133.95 3291.18 7134.22 3291.46C7134.5 3291.73 7134.94 3291.73 7135.22 3291.46C7135.5 3291.18 7135.5 3290.74 7135.22 3290.47C7134.94 3290.19 7134.5 3290.19 7134.22 3290.47ZM7135.28 3292.74H7134.16V3297.87H7135.28V3292.74ZM7141.55 3295.18C7141.55 3294.4 7141.33 3293.78 7140.9 3293.33C7140.47 3292.88 7139.88 3292.65 7139.15 3292.65C7138.39 3292.65 7137.77 3292.89 7137.3 3293.37C7136.83 3293.84 7136.59 3294.49 7136.59 3295.31C7136.59 3296.13 7136.83 3296.78 7137.31 3297.26C7137.79 3297.73 7138.41 3297.97 7139.18 3297.97C7139.76 3297.97 7140.27 3297.81 7140.7 3297.5C7141.13 3297.19 7141.4 3296.8 7141.5 3296.33L7140.37 3296.27C7140.22 3296.76 7139.82 3297 7139.15 3297C7138.36 3297 7137.83 3296.5 7137.78 3295.73H7141.55V3295.18ZM7139.14 3293.61C7139.95 3293.61 7140.39 3294.09 7140.42 3294.85H7137.79C7137.84 3294.06 7138.38 3293.61 7139.14 3293.61ZM7143.96 3290.1H7142.84V3297.87H7143.96V3290.1ZM7150.49 3290.1H7149.37V3293.36C7149.08 3292.93 7148.47 3292.65 7147.74 3292.65C7147.01 3292.65 7146.42 3292.89 7145.96 3293.38C7145.5 3293.86 7145.27 3294.5 7145.27 3295.31C7145.27 3296.12 7145.5 3296.76 7145.96 3297.25C7146.42 3297.73 7147.01 3297.97 7147.74 3297.97C7148.51 3297.97 7149.14 3297.64 7149.43 3297.16V3297.87H7150.49V3290.1ZM7147.92 3293.61C7148.79 3293.61 7149.37 3294.18 7149.37 3295.17V3295.44C7149.37 3296.43 7148.79 3297 7147.92 3297C7147.03 3297 7146.41 3296.38 7146.41 3295.31C7146.41 3294.24 7147.03 3293.61 7147.92 3293.61ZM7159.17 3290.39H7154.47V3297.87H7155.66V3294.58H7158.56V3293.53H7155.66V3291.44H7159.17V3290.39ZM7161.85 3292.65C7161.24 3292.65 7160.74 3292.83 7160.37 3293.2C7160 3293.56 7159.81 3293.98 7159.81 3294.46L7160.94 3294.5C7160.94 3294.01 7161.26 3293.63 7161.86 3293.63C7162.47 3293.63 7162.77 3293.99 7162.77 3294.7V3294.85L7161.55 3294.92C7160.3 3294.99 7159.67 3295.51 7159.67 3296.47C7159.67 3297.42 7160.34 3297.97 7161.38 3297.97C7161.91 3297.97 7162.38 3297.78 7162.77 3297.41V3297.87H7163.9V3294.68C7163.9 3293.37 7163.17 3292.65 7161.85 3292.65ZM7162.78 3295.9C7162.78 3296.65 7162.32 3297.03 7161.57 3297.03C7161.06 3297.03 7160.8 3296.84 7160.8 3296.45C7160.8 3296.04 7161.1 3295.82 7161.71 3295.79L7162.78 3295.72V3295.9ZM7168.02 3292.68C7167.29 3292.68 7166.81 3292.94 7166.56 3293.46V3292.74H7165.47V3297.87H7166.59V3295.08C7166.59 3294.32 7167.15 3293.77 7168.02 3293.77V3292.68ZM7174.88 3292.65C7174.12 3292.65 7173.56 3292.96 7173.21 3293.58C7172.87 3292.96 7172.33 3292.65 7171.58 3292.65C7170.89 3292.65 7170.39 3292.91 7170.1 3293.42V3292.74H7169.04V3297.87H7170.16V3294.94C7170.16 3294.22 7170.64 3293.69 7171.33 3293.69C7171.94 3293.69 7172.36 3294.17 7172.36 3294.93V3297.87H7173.49V3294.78V3294.75C7173.56 3294.12 7173.97 3293.69 7174.6 3293.69C7175.28 3293.69 7175.67 3294.16 7175.67 3294.93V3297.87H7176.8V3294.76C7176.8 3294.13 7176.62 3293.62 7176.27 3293.23C7175.92 3292.84 7175.45 3292.65 7174.88 3292.65ZM7178.43 3290.47C7178.16 3290.74 7178.16 3291.18 7178.43 3291.46C7178.71 3291.73 7179.15 3291.73 7179.43 3291.46C7179.71 3291.18 7179.71 3290.74 7179.43 3290.47C7179.15 3290.19 7178.71 3290.19 7178.43 3290.47ZM7179.49 3292.74H7178.37V3297.87H7179.49V3292.74ZM7183.67 3292.65C7182.96 3292.65 7182.46 3292.91 7182.17 3293.42V3292.74H7181.11V3297.87H7182.23V3294.94C7182.23 3294.22 7182.71 3293.69 7183.42 3293.69C7184.1 3293.69 7184.54 3294.17 7184.54 3294.93V3297.87H7185.67V3294.78C7185.67 3294.13 7185.48 3293.61 7185.11 3293.23C7184.74 3292.84 7184.26 3292.65 7183.67 3292.65ZM7189.4 3292.65C7188.67 3292.65 7188.08 3292.89 7187.62 3293.38C7187.16 3293.86 7186.93 3294.5 7186.93 3295.31C7186.93 3296.12 7187.16 3296.76 7187.62 3297.25C7188.08 3297.73 7188.67 3297.97 7189.4 3297.97C7190.13 3297.97 7190.74 3297.69 7191.03 3297.26V3298.2C7191.03 3299.07 7190.47 3299.56 7189.6 3299.56C7188.84 3299.56 7188.29 3299.19 7188.2 3298.59L7187.08 3298.63C7187.29 3299.79 7188.16 3300.51 7189.63 3300.51C7190.4 3300.51 7191.01 3300.29 7191.46 3299.86C7191.92 3299.43 7192.15 3298.85 7192.15 3298.12V3292.74H7191.09V3293.46C7190.8 3292.98 7190.17 3292.65 7189.4 3292.65ZM7189.58 3293.62C7190.45 3293.62 7191.03 3294.19 7191.03 3295.18V3295.45C7191.03 3296.44 7190.45 3297.01 7189.58 3297.01C7188.69 3297.01 7188.07 3296.38 7188.07 3295.31C7188.07 3294.24 7188.69 3293.62 7189.58 3293.62Z" fill="#5C7BFF"/>
<rect x="7140.2" y="3669.66" width="24" height="2" rx="1" fill="#5C7BFF"/>
<rect x="7140.2" y="3674.66" width="10" height="2" rx="1" fill="#5C7BFF"/>
<rect x="7151.2" y="3674.66" width="14" height="2" rx="1" fill="#5C7BFF"/>
<circle cx="7131.2" cy="3673.66" r="5" fill="#5C7BFF"/>
<path d="M7193.88 3674.39C7193.88 3674.03 7193.75 3673.75 7193.5 3673.57C7193.26 3673.39 7192.87 3673.23 7192.34 3673.1C7191.97 3673.01 7191.71 3672.93 7191.56 3672.85C7191.42 3672.76 7191.34 3672.61 7191.34 3672.4C7191.34 3672 7191.65 3671.73 7192.18 3671.73C7192.68 3671.73 7193.01 3672.01 7193.04 3672.46L7193.76 3672.41C7193.74 3671.71 7193.25 3671.24 7192.5 3671.14V3670.47H7191.93V3671.12C7191.51 3671.17 7191.18 3671.3 7190.95 3671.55C7190.73 3671.79 7190.61 3672.08 7190.61 3672.43C7190.61 3672.84 7190.76 3673.13 7191.05 3673.32C7191.36 3673.51 7191.6 3673.59 7192.08 3673.71C7192.47 3673.8 7192.74 3673.9 7192.9 3673.99C7193.07 3674.08 7193.15 3674.23 7193.15 3674.44C7193.15 3674.89 7192.8 3675.1 7192.26 3675.1C7191.69 3675.1 7191.27 3674.79 7191.24 3674.32L7190.51 3674.36C7190.53 3675.11 7191.09 3675.61 7191.93 3675.7V3676.37H7192.5V3675.71C7193.32 3675.64 7193.88 3675.19 7193.88 3674.39ZM7197.14 3672.38C7197.14 3671.58 7196.65 3671.11 7195.81 3671.11C7194.97 3671.11 7194.48 3671.62 7194.46 3672.49L7195.18 3672.53C7195.18 3672.01 7195.41 3671.75 7195.83 3671.75C7196.21 3671.75 7196.43 3672 7196.43 3672.41C7196.43 3672.65 7196.38 3672.86 7196.29 3673.03C7196.2 3673.2 7196.02 3673.42 7195.77 3673.69L7194.48 3675.07V3675.66H7197.18V3675.02H7195.46L7196.29 3674.13C7196.56 3673.84 7196.77 3673.55 7196.92 3673.29C7197.07 3673.02 7197.14 3672.72 7197.14 3672.38ZM7198.07 3674.86C7197.84 3674.86 7197.64 3675.05 7197.64 3675.29C7197.64 3675.53 7197.84 3675.72 7198.07 3675.72C7198.31 3675.72 7198.51 3675.53 7198.51 3675.29C7198.51 3675.05 7198.31 3674.86 7198.07 3674.86ZM7202.35 3673.42C7202.35 3672.68 7202.2 3672.12 7201.9 3671.72C7201.6 3671.32 7201.2 3671.11 7200.7 3671.11C7200.19 3671.11 7199.79 3671.32 7199.49 3671.72C7199.19 3672.12 7199.04 3672.68 7199.04 3673.42C7199.04 3674.14 7199.19 3674.71 7199.49 3675.11C7199.79 3675.52 7200.19 3675.72 7200.7 3675.72C7201.19 3675.72 7201.6 3675.52 7201.9 3675.11C7202.2 3674.71 7202.35 3674.14 7202.35 3673.42ZM7200.7 3671.75C7201.31 3671.75 7201.62 3672.31 7201.62 3673.42C7201.62 3674.53 7201.31 3675.08 7200.7 3675.08C7200.08 3675.08 7199.77 3674.53 7199.77 3673.42C7199.77 3672.31 7200.08 3671.75 7200.7 3671.75ZM7205.62 3672.38C7205.62 3671.58 7205.13 3671.11 7204.29 3671.11C7203.45 3671.11 7202.96 3671.62 7202.94 3672.49L7203.66 3672.53C7203.66 3672.01 7203.88 3671.75 7204.31 3671.75C7204.69 3671.75 7204.9 3672 7204.9 3672.41C7204.9 3672.65 7204.86 3672.86 7204.77 3673.03C7204.68 3673.2 7204.5 3673.42 7204.24 3673.69L7202.95 3675.07V3675.66H7205.66V3675.02H7203.94L7204.77 3674.13C7205.04 3673.84 7205.25 3673.55 7205.4 3673.29C7205.55 3673.02 7205.62 3672.72 7205.62 3672.38Z" fill="#5C7BFF"/>
<rect x="7140.2" y="3693.66" width="24" height="2" rx="1" fill="#5C7BFF"/>
<rect x="7140.2" y="3698.66" width="10" height="2" rx="1" fill="#5C7BFF"/>
<rect x="7151.2" y="3698.66" width="14" height="2" rx="1" fill="#5C7BFF"/>
<circle cx="7131.2" cy="3697.66" r="5" fill="#5C7BFF"/>
<path d="M7193.88 3698.39C7193.88 3698.03 7193.75 3697.75 7193.5 3697.57C7193.26 3697.39 7192.87 3697.23 7192.34 3697.1C7191.97 3697.01 7191.71 3696.93 7191.56 3696.85C7191.42 3696.76 7191.34 3696.61 7191.34 3696.4C7191.34 3696 7191.65 3695.73 7192.18 3695.73C7192.68 3695.73 7193.01 3696.01 7193.04 3696.46L7193.76 3696.41C7193.74 3695.71 7193.25 3695.24 7192.5 3695.14V3694.47H7191.93V3695.12C7191.51 3695.17 7191.18 3695.3 7190.95 3695.55C7190.73 3695.79 7190.61 3696.08 7190.61 3696.43C7190.61 3696.84 7190.76 3697.13 7191.05 3697.32C7191.36 3697.51 7191.6 3697.59 7192.08 3697.71C7192.47 3697.8 7192.74 3697.9 7192.9 3697.99C7193.07 3698.08 7193.15 3698.23 7193.15 3698.44C7193.15 3698.89 7192.8 3699.1 7192.26 3699.1C7191.69 3699.1 7191.27 3698.79 7191.24 3698.32L7190.51 3698.36C7190.53 3699.11 7191.09 3699.61 7191.93 3699.7V3700.37H7192.5V3699.71C7193.32 3699.64 7193.88 3699.19 7193.88 3698.39ZM7197.14 3696.38C7197.14 3695.58 7196.65 3695.11 7195.81 3695.11C7194.97 3695.11 7194.48 3695.62 7194.46 3696.49L7195.18 3696.53C7195.18 3696.01 7195.41 3695.75 7195.83 3695.75C7196.21 3695.75 7196.43 3696 7196.43 3696.41C7196.43 3696.65 7196.38 3696.86 7196.29 3697.03C7196.2 3697.2 7196.02 3697.42 7195.77 3697.69L7194.48 3699.07V3699.66H7197.18V3699.02H7195.46L7196.29 3698.13C7196.56 3697.84 7196.77 3697.55 7196.92 3697.29C7197.07 3697.02 7197.14 3696.72 7197.14 3696.38ZM7198.07 3698.86C7197.84 3698.86 7197.64 3699.05 7197.64 3699.29C7197.64 3699.53 7197.84 3699.72 7198.07 3699.72C7198.31 3699.72 7198.51 3699.53 7198.51 3699.29C7198.51 3699.05 7198.31 3698.86 7198.07 3698.86ZM7202.35 3697.42C7202.35 3696.68 7202.2 3696.12 7201.9 3695.72C7201.6 3695.32 7201.2 3695.11 7200.7 3695.11C7200.19 3695.11 7199.79 3695.32 7199.49 3695.72C7199.19 3696.12 7199.04 3696.68 7199.04 3697.42C7199.04 3698.14 7199.19 3698.71 7199.49 3699.11C7199.79 3699.52 7200.19 3699.72 7200.7 3699.72C7201.19 3699.72 7201.6 3699.52 7201.9 3699.11C7202.2 3698.71 7202.35 3698.14 7202.35 3697.42ZM7200.7 3695.75C7201.31 3695.75 7201.62 3696.31 7201.62 3697.42C7201.62 3698.53 7201.31 3699.08 7200.7 3699.08C7200.08 3699.08 7199.77 3698.53 7199.77 3697.42C7199.77 3696.31 7200.08 3695.75 7200.7 3695.75ZM7205.62 3696.38C7205.62 3695.58 7205.13 3695.11 7204.29 3695.11C7203.45 3695.11 7202.96 3695.62 7202.94 3696.49L7203.66 3696.53C7203.66 3696.01 7203.88 3695.75 7204.31 3695.75C7204.69 3695.75 7204.9 3696 7204.9 3696.41C7204.9 3696.65 7204.86 3696.86 7204.77 3697.03C7204.68 3697.2 7204.5 3697.42 7204.24 3697.69L7202.95 3699.07V3699.66H7205.66V3699.02H7203.94L7204.77 3698.13C7205.04 3697.84 7205.25 3697.55 7205.4 3697.29C7205.55 3697.02 7205.62 3696.72 7205.62 3696.38Z" fill="#5C7BFF"/>
<rect x="7140.2" y="3717.66" width="24" height="2" rx="1" fill="#5C7BFF"/>
<rect x="7140.2" y="3722.66" width="10" height="2" rx="1" fill="#5C7BFF"/>
<rect x="7151.2" y="3722.66" width="14" height="2" rx="1" fill="#5C7BFF"/>
<circle cx="7131.2" cy="3721.66" r="5" fill="#5C7BFF"/>
<path d="M7193.88 3722.39C7193.88 3722.03 7193.75 3721.75 7193.5 3721.57C7193.26 3721.39 7192.87 3721.23 7192.34 3721.1C7191.97 3721.01 7191.71 3720.93 7191.56 3720.85C7191.42 3720.76 7191.34 3720.61 7191.34 3720.4C7191.34 3720 7191.65 3719.73 7192.18 3719.73C7192.68 3719.73 7193.01 3720.01 7193.04 3720.46L7193.76 3720.41C7193.74 3719.71 7193.25 3719.24 7192.5 3719.14V3718.47H7191.93V3719.12C7191.51 3719.17 7191.18 3719.3 7190.95 3719.55C7190.73 3719.79 7190.61 3720.08 7190.61 3720.43C7190.61 3720.84 7190.76 3721.13 7191.05 3721.32C7191.36 3721.51 7191.6 3721.59 7192.08 3721.71C7192.47 3721.8 7192.74 3721.9 7192.9 3721.99C7193.07 3722.08 7193.15 3722.23 7193.15 3722.44C7193.15 3722.89 7192.8 3723.1 7192.26 3723.1C7191.69 3723.1 7191.27 3722.79 7191.24 3722.32L7190.51 3722.36C7190.53 3723.11 7191.09 3723.61 7191.93 3723.7V3724.37H7192.5V3723.71C7193.32 3723.64 7193.88 3723.19 7193.88 3722.39ZM7197.14 3720.38C7197.14 3719.58 7196.65 3719.11 7195.81 3719.11C7194.97 3719.11 7194.48 3719.62 7194.46 3720.49L7195.18 3720.53C7195.18 3720.01 7195.41 3719.75 7195.83 3719.75C7196.21 3719.75 7196.43 3720 7196.43 3720.41C7196.43 3720.65 7196.38 3720.86 7196.29 3721.03C7196.2 3721.2 7196.02 3721.42 7195.77 3721.69L7194.48 3723.07V3723.66H7197.18V3723.02H7195.46L7196.29 3722.13C7196.56 3721.84 7196.77 3721.55 7196.92 3721.29C7197.07 3721.02 7197.14 3720.72 7197.14 3720.38ZM7198.07 3722.86C7197.84 3722.86 7197.64 3723.05 7197.64 3723.29C7197.64 3723.53 7197.84 3723.72 7198.07 3723.72C7198.31 3723.72 7198.51 3723.53 7198.51 3723.29C7198.51 3723.05 7198.31 3722.86 7198.07 3722.86ZM7202.35 3721.42C7202.35 3720.68 7202.2 3720.12 7201.9 3719.72C7201.6 3719.32 7201.2 3719.11 7200.7 3719.11C7200.19 3719.11 7199.79 3719.32 7199.49 3719.72C7199.19 3720.12 7199.04 3720.68 7199.04 3721.42C7199.04 3722.14 7199.19 3722.71 7199.49 3723.11C7199.79 3723.52 7200.19 3723.72 7200.7 3723.72C7201.19 3723.72 7201.6 3723.52 7201.9 3723.11C7202.2 3722.71 7202.35 3722.14 7202.35 3721.42ZM7200.7 3719.75C7201.31 3719.75 7201.62 3720.31 7201.62 3721.42C7201.62 3722.53 7201.31 3723.08 7200.7 3723.08C7200.08 3723.08 7199.77 3722.53 7199.77 3721.42C7199.77 3720.31 7200.08 3719.75 7200.7 3719.75ZM7205.62 3720.38C7205.62 3719.58 7205.13 3719.11 7204.29 3719.11C7203.45 3719.11 7202.96 3719.62 7202.94 3720.49L7203.66 3720.53C7203.66 3720.01 7203.88 3719.75 7204.31 3719.75C7204.69 3719.75 7204.9 3720 7204.9 3720.41C7204.9 3720.65 7204.86 3720.86 7204.77 3721.03C7204.68 3721.2 7204.5 3721.42 7204.24 3721.69L7202.95 3723.07V3723.66H7205.66V3723.02H7203.94L7204.77 3722.13C7205.04 3721.84 7205.25 3721.55 7205.4 3721.29C7205.55 3721.02 7205.62 3720.72 7205.62 3720.38Z" fill="#5C7BFF"/>
<rect x="7140.2" y="3741.66" width="24" height="2" rx="1" fill="#5C7BFF"/>
<rect x="7140.2" y="3746.66" width="10" height="2" rx="1" fill="#5C7BFF"/>
<rect x="7151.2" y="3746.66" width="12" height="2" rx="1" fill="#5C7BFF"/>
<circle cx="7131.2" cy="3745.66" r="5" fill="#5C7BFF"/>
<path d="M7193.88 3746.39C7193.88 3746.03 7193.75 3745.75 7193.5 3745.57C7193.26 3745.39 7192.87 3745.23 7192.34 3745.1C7191.97 3745.01 7191.71 3744.93 7191.56 3744.85C7191.42 3744.76 7191.34 3744.61 7191.34 3744.4C7191.34 3744 7191.65 3743.73 7192.18 3743.73C7192.68 3743.73 7193.01 3744.01 7193.04 3744.46L7193.76 3744.41C7193.74 3743.71 7193.25 3743.24 7192.5 3743.14V3742.47H7191.93V3743.12C7191.51 3743.17 7191.18 3743.3 7190.95 3743.55C7190.73 3743.79 7190.61 3744.08 7190.61 3744.43C7190.61 3744.84 7190.76 3745.13 7191.05 3745.32C7191.36 3745.51 7191.6 3745.59 7192.08 3745.71C7192.47 3745.8 7192.74 3745.9 7192.9 3745.99C7193.07 3746.08 7193.15 3746.23 7193.15 3746.44C7193.15 3746.89 7192.8 3747.1 7192.26 3747.1C7191.69 3747.1 7191.27 3746.79 7191.24 3746.32L7190.51 3746.36C7190.53 3747.11 7191.09 3747.61 7191.93 3747.7V3748.37H7192.5V3747.71C7193.32 3747.64 7193.88 3747.19 7193.88 3746.39ZM7197.14 3744.38C7197.14 3743.58 7196.65 3743.11 7195.81 3743.11C7194.97 3743.11 7194.48 3743.62 7194.46 3744.49L7195.18 3744.53C7195.18 3744.01 7195.41 3743.75 7195.83 3743.75C7196.21 3743.75 7196.43 3744 7196.43 3744.41C7196.43 3744.65 7196.38 3744.86 7196.29 3745.03C7196.2 3745.2 7196.02 3745.42 7195.77 3745.69L7194.48 3747.07V3747.66H7197.18V3747.02H7195.46L7196.29 3746.13C7196.56 3745.84 7196.77 3745.55 7196.92 3745.29C7197.07 3745.02 7197.14 3744.72 7197.14 3744.38ZM7198.07 3746.86C7197.84 3746.86 7197.64 3747.05 7197.64 3747.29C7197.64 3747.53 7197.84 3747.72 7198.07 3747.72C7198.31 3747.72 7198.51 3747.53 7198.51 3747.29C7198.51 3747.05 7198.31 3746.86 7198.07 3746.86ZM7202.35 3745.42C7202.35 3744.68 7202.2 3744.12 7201.9 3743.72C7201.6 3743.32 7201.2 3743.11 7200.7 3743.11C7200.19 3743.11 7199.79 3743.32 7199.49 3743.72C7199.19 3744.12 7199.04 3744.68 7199.04 3745.42C7199.04 3746.14 7199.19 3746.71 7199.49 3747.11C7199.79 3747.52 7200.19 3747.72 7200.7 3747.72C7201.19 3747.72 7201.6 3747.52 7201.9 3747.11C7202.2 3746.71 7202.35 3746.14 7202.35 3745.42ZM7200.7 3743.75C7201.31 3743.75 7201.62 3744.31 7201.62 3745.42C7201.62 3746.53 7201.31 3747.08 7200.7 3747.08C7200.08 3747.08 7199.77 3746.53 7199.77 3745.42C7199.77 3744.31 7200.08 3743.75 7200.7 3743.75ZM7205.62 3744.38C7205.62 3743.58 7205.13 3743.11 7204.29 3743.11C7203.45 3743.11 7202.96 3743.62 7202.94 3744.49L7203.66 3744.53C7203.66 3744.01 7203.88 3743.75 7204.31 3743.75C7204.69 3743.75 7204.9 3744 7204.9 3744.41C7204.9 3744.65 7204.86 3744.86 7204.77 3745.03C7204.68 3745.2 7204.5 3745.42 7204.24 3745.69L7202.95 3747.07V3747.66H7205.66V3747.02H7203.94L7204.77 3746.13C7205.04 3745.84 7205.25 3745.55 7205.4 3745.29C7205.55 3745.02 7205.62 3744.72 7205.62 3744.38Z" fill="#5C7BFF"/>
<rect x="7140.2" y="3765.66" width="24" height="2" rx="1" fill="#5C7BFF"/>
<rect x="7140.2" y="3770.66" width="10" height="2" rx="1" fill="#5C7BFF"/>
<rect x="7151.2" y="3770.66" width="14" height="2" rx="1" fill="#5C7BFF"/>
<circle cx="7131.2" cy="3769.66" r="5" fill="#5C7BFF"/>
<path d="M7193.88 3770.39C7193.88 3770.03 7193.75 3769.75 7193.5 3769.57C7193.26 3769.39 7192.87 3769.23 7192.34 3769.1C7191.97 3769.01 7191.71 3768.93 7191.56 3768.85C7191.42 3768.76 7191.34 3768.61 7191.34 3768.4C7191.34 3768 7191.65 3767.73 7192.18 3767.73C7192.68 3767.73 7193.01 3768.01 7193.04 3768.46L7193.76 3768.41C7193.74 3767.71 7193.25 3767.24 7192.5 3767.14V3766.47H7191.93V3767.12C7191.51 3767.17 7191.18 3767.3 7190.95 3767.55C7190.73 3767.79 7190.61 3768.08 7190.61 3768.43C7190.61 3768.84 7190.76 3769.13 7191.05 3769.32C7191.36 3769.51 7191.6 3769.59 7192.08 3769.71C7192.47 3769.8 7192.74 3769.9 7192.9 3769.99C7193.07 3770.08 7193.15 3770.23 7193.15 3770.44C7193.15 3770.89 7192.8 3771.1 7192.26 3771.1C7191.69 3771.1 7191.27 3770.79 7191.24 3770.32L7190.51 3770.36C7190.53 3771.11 7191.09 3771.61 7191.93 3771.7V3772.37H7192.5V3771.71C7193.32 3771.64 7193.88 3771.19 7193.88 3770.39ZM7197.14 3768.38C7197.14 3767.58 7196.65 3767.11 7195.81 3767.11C7194.97 3767.11 7194.48 3767.62 7194.46 3768.49L7195.18 3768.53C7195.18 3768.01 7195.41 3767.75 7195.83 3767.75C7196.21 3767.75 7196.43 3768 7196.43 3768.41C7196.43 3768.65 7196.38 3768.86 7196.29 3769.03C7196.2 3769.2 7196.02 3769.42 7195.77 3769.69L7194.48 3771.07V3771.66H7197.18V3771.02H7195.46L7196.29 3770.13C7196.56 3769.84 7196.77 3769.55 7196.92 3769.29C7197.07 3769.02 7197.14 3768.72 7197.14 3768.38ZM7198.07 3770.86C7197.84 3770.86 7197.64 3771.05 7197.64 3771.29C7197.64 3771.53 7197.84 3771.72 7198.07 3771.72C7198.31 3771.72 7198.51 3771.53 7198.51 3771.29C7198.51 3771.05 7198.31 3770.86 7198.07 3770.86ZM7202.35 3769.42C7202.35 3768.68 7202.2 3768.12 7201.9 3767.72C7201.6 3767.32 7201.2 3767.11 7200.7 3767.11C7200.19 3767.11 7199.79 3767.32 7199.49 3767.72C7199.19 3768.12 7199.04 3768.68 7199.04 3769.42C7199.04 3770.14 7199.19 3770.71 7199.49 3771.11C7199.79 3771.52 7200.19 3771.72 7200.7 3771.72C7201.19 3771.72 7201.6 3771.52 7201.9 3771.11C7202.2 3770.71 7202.35 3770.14 7202.35 3769.42ZM7200.7 3767.75C7201.31 3767.75 7201.62 3768.31 7201.62 3769.42C7201.62 3770.53 7201.31 3771.08 7200.7 3771.08C7200.08 3771.08 7199.77 3770.53 7199.77 3769.42C7199.77 3768.31 7200.08 3767.75 7200.7 3767.75ZM7205.62 3768.38C7205.62 3767.58 7205.13 3767.11 7204.29 3767.11C7203.45 3767.11 7202.96 3767.62 7202.94 3768.49L7203.66 3768.53C7203.66 3768.01 7203.88 3767.75 7204.31 3767.75C7204.69 3767.75 7204.9 3768 7204.9 3768.41C7204.9 3768.65 7204.86 3768.86 7204.77 3769.03C7204.68 3769.2 7204.5 3769.42 7204.24 3769.69L7202.95 3771.07V3771.66H7205.66V3771.02H7203.94L7204.77 3770.13C7205.04 3769.84 7205.25 3769.55 7205.4 3769.29C7205.55 3769.02 7205.62 3768.72 7205.62 3768.38Z" fill="#5C7BFF"/>
<rect x="7140.2" y="3789.66" width="24" height="2" rx="1" fill="#5C7BFF"/>
<rect x="7140.2" y="3794.66" width="10" height="2" rx="1" fill="#5C7BFF"/>
<rect x="7151.2" y="3794.66" width="14" height="2" rx="1" fill="#5C7BFF"/>
<circle cx="7131.2" cy="3793.66" r="5" fill="#5C7BFF"/>
<path d="M7193.88 3794.39C7193.88 3794.03 7193.75 3793.75 7193.5 3793.57C7193.26 3793.39 7192.87 3793.23 7192.34 3793.1C7191.97 3793.01 7191.71 3792.93 7191.56 3792.85C7191.42 3792.76 7191.34 3792.61 7191.34 3792.4C7191.34 3792 7191.65 3791.73 7192.18 3791.73C7192.68 3791.73 7193.01 3792.01 7193.04 3792.46L7193.76 3792.41C7193.74 3791.71 7193.25 3791.24 7192.5 3791.14V3790.47H7191.93V3791.12C7191.51 3791.17 7191.18 3791.3 7190.95 3791.55C7190.73 3791.79 7190.61 3792.08 7190.61 3792.43C7190.61 3792.84 7190.76 3793.13 7191.05 3793.32C7191.36 3793.51 7191.6 3793.59 7192.08 3793.71C7192.47 3793.8 7192.74 3793.9 7192.9 3793.99C7193.07 3794.08 7193.15 3794.23 7193.15 3794.44C7193.15 3794.89 7192.8 3795.1 7192.26 3795.1C7191.69 3795.1 7191.27 3794.79 7191.24 3794.32L7190.51 3794.36C7190.53 3795.11 7191.09 3795.61 7191.93 3795.7V3796.37H7192.5V3795.71C7193.32 3795.64 7193.88 3795.19 7193.88 3794.39ZM7197.14 3792.38C7197.14 3791.58 7196.65 3791.11 7195.81 3791.11C7194.97 3791.11 7194.48 3791.62 7194.46 3792.49L7195.18 3792.53C7195.18 3792.01 7195.41 3791.75 7195.83 3791.75C7196.21 3791.75 7196.43 3792 7196.43 3792.41C7196.43 3792.65 7196.38 3792.86 7196.29 3793.03C7196.2 3793.2 7196.02 3793.42 7195.77 3793.69L7194.48 3795.07V3795.66H7197.18V3795.02H7195.46L7196.29 3794.13C7196.56 3793.84 7196.77 3793.55 7196.92 3793.29C7197.07 3793.02 7197.14 3792.72 7197.14 3792.38ZM7198.07 3794.86C7197.84 3794.86 7197.64 3795.05 7197.64 3795.29C7197.64 3795.53 7197.84 3795.72 7198.07 3795.72C7198.31 3795.72 7198.51 3795.53 7198.51 3795.29C7198.51 3795.05 7198.31 3794.86 7198.07 3794.86ZM7202.35 3793.42C7202.35 3792.68 7202.2 3792.12 7201.9 3791.72C7201.6 3791.32 7201.2 3791.11 7200.7 3791.11C7200.19 3791.11 7199.79 3791.32 7199.49 3791.72C7199.19 3792.12 7199.04 3792.68 7199.04 3793.42C7199.04 3794.14 7199.19 3794.71 7199.49 3795.11C7199.79 3795.52 7200.19 3795.72 7200.7 3795.72C7201.19 3795.72 7201.6 3795.52 7201.9 3795.11C7202.2 3794.71 7202.35 3794.14 7202.35 3793.42ZM7200.7 3791.75C7201.31 3791.75 7201.62 3792.31 7201.62 3793.42C7201.62 3794.53 7201.31 3795.08 7200.7 3795.08C7200.08 3795.08 7199.77 3794.53 7199.77 3793.42C7199.77 3792.31 7200.08 3791.75 7200.7 3791.75ZM7205.62 3792.38C7205.62 3791.58 7205.13 3791.11 7204.29 3791.11C7203.45 3791.11 7202.96 3791.62 7202.94 3792.49L7203.66 3792.53C7203.66 3792.01 7203.88 3791.75 7204.31 3791.75C7204.69 3791.75 7204.9 3792 7204.9 3792.41C7204.9 3792.65 7204.86 3792.86 7204.77 3793.03C7204.68 3793.2 7204.5 3793.42 7204.24 3793.69L7202.95 3795.07V3795.66H7205.66V3795.02H7203.94L7204.77 3794.13C7205.04 3793.84 7205.25 3793.55 7205.4 3793.29C7205.55 3793.02 7205.62 3792.72 7205.62 3792.38Z" fill="#5C7BFF"/>
<rect x="7140.2" y="3813.66" width="24" height="2" rx="1" fill="#5C7BFF"/>
<rect x="7140.2" y="3818.66" width="10" height="2" rx="1" fill="#5C7BFF"/>
<rect x="7151.2" y="3818.66" width="14" height="2" rx="1" fill="#5C7BFF"/>
<circle cx="7131.2" cy="3817.66" r="5" fill="#5C7BFF"/>
<path d="M7193.88 3818.39C7193.88 3818.03 7193.75 3817.75 7193.5 3817.57C7193.26 3817.39 7192.87 3817.23 7192.34 3817.1C7191.97 3817.01 7191.71 3816.93 7191.56 3816.85C7191.42 3816.76 7191.34 3816.61 7191.34 3816.4C7191.34 3816 7191.65 3815.73 7192.18 3815.73C7192.68 3815.73 7193.01 3816.01 7193.04 3816.46L7193.76 3816.41C7193.74 3815.71 7193.25 3815.24 7192.5 3815.14V3814.47H7191.93V3815.12C7191.51 3815.17 7191.18 3815.3 7190.95 3815.55C7190.73 3815.79 7190.61 3816.08 7190.61 3816.43C7190.61 3816.84 7190.76 3817.13 7191.05 3817.32C7191.36 3817.51 7191.6 3817.59 7192.08 3817.71C7192.47 3817.8 7192.74 3817.9 7192.9 3817.99C7193.07 3818.08 7193.15 3818.23 7193.15 3818.44C7193.15 3818.89 7192.8 3819.1 7192.26 3819.1C7191.69 3819.1 7191.27 3818.79 7191.24 3818.32L7190.51 3818.36C7190.53 3819.11 7191.09 3819.61 7191.93 3819.7V3820.37H7192.5V3819.71C7193.32 3819.64 7193.88 3819.19 7193.88 3818.39ZM7197.14 3816.38C7197.14 3815.58 7196.65 3815.11 7195.81 3815.11C7194.97 3815.11 7194.48 3815.62 7194.46 3816.49L7195.18 3816.53C7195.18 3816.01 7195.41 3815.75 7195.83 3815.75C7196.21 3815.75 7196.43 3816 7196.43 3816.41C7196.43 3816.65 7196.38 3816.86 7196.29 3817.03C7196.2 3817.2 7196.02 3817.42 7195.77 3817.69L7194.48 3819.07V3819.66H7197.18V3819.02H7195.46L7196.29 3818.13C7196.56 3817.84 7196.77 3817.55 7196.92 3817.29C7197.07 3817.02 7197.14 3816.72 7197.14 3816.38ZM7198.07 3818.86C7197.84 3818.86 7197.64 3819.05 7197.64 3819.29C7197.64 3819.53 7197.84 3819.72 7198.07 3819.72C7198.31 3819.72 7198.51 3819.53 7198.51 3819.29C7198.51 3819.05 7198.31 3818.86 7198.07 3818.86ZM7202.35 3817.42C7202.35 3816.68 7202.2 3816.12 7201.9 3815.72C7201.6 3815.32 7201.2 3815.11 7200.7 3815.11C7200.19 3815.11 7199.79 3815.32 7199.49 3815.72C7199.19 3816.12 7199.04 3816.68 7199.04 3817.42C7199.04 3818.14 7199.19 3818.71 7199.49 3819.11C7199.79 3819.52 7200.19 3819.72 7200.7 3819.72C7201.19 3819.72 7201.6 3819.52 7201.9 3819.11C7202.2 3818.71 7202.35 3818.14 7202.35 3817.42ZM7200.7 3815.75C7201.31 3815.75 7201.62 3816.31 7201.62 3817.42C7201.62 3818.53 7201.31 3819.08 7200.7 3819.08C7200.08 3819.08 7199.77 3818.53 7199.77 3817.42C7199.77 3816.31 7200.08 3815.75 7200.7 3815.75ZM7205.62 3816.38C7205.62 3815.58 7205.13 3815.11 7204.29 3815.11C7203.45 3815.11 7202.96 3815.62 7202.94 3816.49L7203.66 3816.53C7203.66 3816.01 7203.88 3815.75 7204.31 3815.75C7204.69 3815.75 7204.9 3816 7204.9 3816.41C7204.9 3816.65 7204.86 3816.86 7204.77 3817.03C7204.68 3817.2 7204.5 3817.42 7204.24 3817.69L7202.95 3819.07V3819.66H7205.66V3819.02H7203.94L7204.77 3818.13C7205.04 3817.84 7205.25 3817.55 7205.4 3817.29C7205.55 3817.02 7205.62 3816.72 7205.62 3816.38Z" fill="#5C7BFF"/>
<rect x="7140.2" y="3837.66" width="24" height="2" rx="1" fill="#5C7BFF"/>
<rect x="7140.2" y="3842.66" width="10" height="2" rx="1" fill="#5C7BFF"/>
<rect x="7151.2" y="3842.66" width="14" height="2" rx="1" fill="#5C7BFF"/>
<circle cx="7131.2" cy="3841.66" r="5" fill="#5C7BFF"/>
<path d="M7193.88 3842.39C7193.88 3842.03 7193.75 3841.75 7193.5 3841.57C7193.26 3841.39 7192.87 3841.23 7192.34 3841.1C7191.97 3841.01 7191.71 3840.93 7191.56 3840.85C7191.42 3840.76 7191.34 3840.61 7191.34 3840.4C7191.34 3840 7191.65 3839.73 7192.18 3839.73C7192.68 3839.73 7193.01 3840.01 7193.04 3840.46L7193.76 3840.41C7193.74 3839.71 7193.25 3839.24 7192.5 3839.14V3838.47H7191.93V3839.12C7191.51 3839.17 7191.18 3839.3 7190.95 3839.55C7190.73 3839.79 7190.61 3840.08 7190.61 3840.43C7190.61 3840.84 7190.76 3841.13 7191.05 3841.32C7191.36 3841.51 7191.6 3841.59 7192.08 3841.71C7192.47 3841.8 7192.74 3841.9 7192.9 3841.99C7193.07 3842.08 7193.15 3842.23 7193.15 3842.44C7193.15 3842.89 7192.8 3843.1 7192.26 3843.1C7191.69 3843.1 7191.27 3842.79 7191.24 3842.32L7190.51 3842.36C7190.53 3843.11 7191.09 3843.61 7191.93 3843.7V3844.37H7192.5V3843.71C7193.32 3843.64 7193.88 3843.19 7193.88 3842.39ZM7197.14 3840.38C7197.14 3839.58 7196.65 3839.11 7195.81 3839.11C7194.97 3839.11 7194.48 3839.62 7194.46 3840.49L7195.18 3840.53C7195.18 3840.01 7195.41 3839.75 7195.83 3839.75C7196.21 3839.75 7196.43 3840 7196.43 3840.41C7196.43 3840.65 7196.38 3840.86 7196.29 3841.03C7196.2 3841.2 7196.02 3841.42 7195.77 3841.69L7194.48 3843.07V3843.66H7197.18V3843.02H7195.46L7196.29 3842.13C7196.56 3841.84 7196.77 3841.55 7196.92 3841.29C7197.07 3841.02 7197.14 3840.72 7197.14 3840.38ZM7198.07 3842.86C7197.84 3842.86 7197.64 3843.05 7197.64 3843.29C7197.64 3843.53 7197.84 3843.72 7198.07 3843.72C7198.31 3843.72 7198.51 3843.53 7198.51 3843.29C7198.51 3843.05 7198.31 3842.86 7198.07 3842.86ZM7202.35 3841.42C7202.35 3840.68 7202.2 3840.12 7201.9 3839.72C7201.6 3839.32 7201.2 3839.11 7200.7 3839.11C7200.19 3839.11 7199.79 3839.32 7199.49 3839.72C7199.19 3840.12 7199.04 3840.68 7199.04 3841.42C7199.04 3842.14 7199.19 3842.71 7199.49 3843.11C7199.79 3843.52 7200.19 3843.72 7200.7 3843.72C7201.19 3843.72 7201.6 3843.52 7201.9 3843.11C7202.2 3842.71 7202.35 3842.14 7202.35 3841.42ZM7200.7 3839.75C7201.31 3839.75 7201.62 3840.31 7201.62 3841.42C7201.62 3842.53 7201.31 3843.08 7200.7 3843.08C7200.08 3843.08 7199.77 3842.53 7199.77 3841.42C7199.77 3840.31 7200.08 3839.75 7200.7 3839.75ZM7205.62 3840.38C7205.62 3839.58 7205.13 3839.11 7204.29 3839.11C7203.45 3839.11 7202.96 3839.62 7202.94 3840.49L7203.66 3840.53C7203.66 3840.01 7203.88 3839.75 7204.31 3839.75C7204.69 3839.75 7204.9 3840 7204.9 3840.41C7204.9 3840.65 7204.86 3840.86 7204.77 3841.03C7204.68 3841.2 7204.5 3841.42 7204.24 3841.69L7202.95 3843.07V3843.66H7205.66V3843.02H7203.94L7204.77 3842.13C7205.04 3841.84 7205.25 3841.55 7205.4 3841.29C7205.55 3841.02 7205.62 3840.72 7205.62 3840.38Z" fill="#5C7BFF"/>
<defs>
<filter id="filter0_d_35_3064" x="93.3965" y="83.5127" width="4488.12" height="3078.19" filterUnits="userSpaceOnUse" color-interpolation-filters="sRGB">
<feFlood flood-opacity="0" result="BackgroundImageFix"/>
<feColorMatrix in="SourceAlpha" type="matrix" values="0 0 0 0 0 0 0 0 0 0 0 0 0 0 0 0 0 0 127 0" result="hardAlpha"/>
<feOffset dx="30" dy="80"/>
<feGaussianBlur stdDeviation="100"/>
<feComposite in2="hardAlpha" operator="out"/>
<feColorMatrix type="matrix" values="0 0 0 0 0 0 0 0 0 0 0 0 0 0 0 0 0 0 0.1 0"/>
<feBlend mode="normal" in2="BackgroundImageFix" result="effect1_dropShadow_35_3064"/>
<feBlend mode="normal" in="SourceGraphic" in2="effect1_dropShadow_35_3064" result="shape"/>
</filter>
<filter id="filter1_d_35_3064" x="4444.2" y="83.5127" width="4488.11" height="3078.19" filterUnits="userSpaceOnUse" color-interpolation-filters="sRGB">
<feFlood flood-opacity="0" result="BackgroundImageFix"/>
<feColorMatrix in="SourceAlpha" type="matrix" values="0 0 0 0 0 0 0 0 0 0 0 0 0 0 0 0 0 0 127 0" result="hardAlpha"/>
<feOffset dx="30" dy="80"/>
<feGaussianBlur stdDeviation="100"/>
<feComposite in2="hardAlpha" operator="out"/>
<feColorMatrix type="matrix" values="0 0 0 0 0 0 0 0 0 0 0 0 0 0 0 0 0 0 0.1 0"/>
<feBlend mode="normal" in2="BackgroundImageFix" result="effect1_dropShadow_35_3064"/>
<feBlend mode="normal" in="SourceGraphic" in2="effect1_dropShadow_35_3064" result="shape"/>
</filter>
<filter id="filter2_d_35_3064" x="93.3652" y="2964.79" width="6737.4" height="3370.13" filterUnits="userSpaceOnUse" color-interpolation-filters="sRGB">
<feFlood flood-opacity="0" result="BackgroundImageFix"/>
<feColorMatrix in="SourceAlpha" type="matrix" values="0 0 0 0 0 0 0 0 0 0 0 0 0 0 0 0 0 0 127 0" result="hardAlpha"/>
<feOffset dx="30" dy="80"/>
<feGaussianBlur stdDeviation="100"/>
<feComposite in2="hardAlpha" operator="out"/>
<feColorMatrix type="matrix" values="0 0 0 0 0 0 0 0 0 0 0 0 0 0 0 0 0 0 0.1 0"/>
<feBlend mode="normal" in2="BackgroundImageFix" result="effect1_dropShadow_35_3064"/>
<feBlend mode="normal" in="SourceGraphic" in2="effect1_dropShadow_35_3064" result="shape"/>
</filter>
<linearGradient id="paint0_linear_35_3064" x1="2849.2" y1="2088.4" x2="3236.62" y2="5327.05" gradientUnits="userSpaceOnUse">
<stop stop-color="#5C7BFF"/>
<stop offset="1" stop-color="#FEF0EE" stop-opacity="0"/>
</linearGradient>
</defs>
</svg>
