<svg width="1700" height="1700" viewBox="0 0 1342 1336" fill="none" xmlns="http://www.w3.org/2000/svg">
<rect x="141" y="88" width="1000" height="1000" rx="18" fill="#1B1818"/>
<g filter="url(#filter0_d_35_3064)">
<rect x="170.305" y="120.454" width="456.044" height="427.992" rx="10" fill="black"/>
</g>
<path d="M270.475 431.678C270.475 429.726 269.803 428.254 268.491 427.294C267.179 426.302 265.099 425.47 262.283 424.798C260.299 424.318 258.923 423.87 258.123 423.422C257.355 422.942 256.971 422.174 256.971 421.054C256.971 418.91 258.603 417.47 261.419 417.47C264.107 417.47 265.867 418.942 265.995 421.342L269.867 421.118C269.739 417.374 267.115 414.846 263.115 414.302V410.75H260.107V414.238C257.835 414.462 256.075 415.198 254.859 416.51C253.675 417.79 253.067 419.358 253.067 421.182C253.067 423.39 253.835 424.926 255.403 425.95C257.035 426.974 258.347 427.39 260.875 428.03C262.955 428.51 264.427 429.022 265.291 429.534C266.155 430.014 266.603 430.814 266.603 431.934C266.603 434.334 264.747 435.454 261.835 435.454C258.795 435.454 256.555 433.79 256.395 431.262L252.523 431.486C252.651 435.486 255.627 438.142 260.107 438.654V442.206H263.115V438.686C267.499 438.302 270.475 435.934 270.475 431.678ZM287.888 420.926C287.888 416.67 285.296 414.174 280.816 414.174C276.336 414.174 273.712 416.894 273.616 421.502L277.424 421.726C277.456 418.942 278.64 417.566 280.912 417.566C282.928 417.566 284.08 418.91 284.08 421.086C284.08 422.398 283.824 423.518 283.344 424.414C282.864 425.31 281.936 426.494 280.56 427.934L273.68 435.294V438.43H288.112V435.038H278.928L283.376 430.27C284.816 428.702 285.936 427.198 286.704 425.79C287.504 424.35 287.888 422.75 287.888 420.926ZM300.594 414.494L292.338 425.822C291.218 427.39 290.642 429.086 290.642 430.878C290.642 433.246 291.41 435.166 292.946 436.606C294.514 438.046 296.466 438.75 298.866 438.75C301.234 438.75 303.186 438.046 304.722 436.606C306.29 435.166 307.058 433.246 307.058 430.878C307.058 428.542 306.29 426.622 304.754 425.182C303.25 423.71 301.298 422.942 298.962 422.91L305.138 414.494H300.594ZM298.866 435.358C296.274 435.358 294.514 433.566 294.514 430.75C294.514 429.566 294.802 428.574 295.41 427.774C296.178 426.75 297.33 426.238 298.866 426.238C301.458 426.238 303.218 427.934 303.218 430.75C303.218 433.566 301.426 435.358 298.866 435.358ZM312.007 434.142C310.759 434.142 309.735 435.166 309.735 436.478C309.735 437.726 310.759 438.75 312.007 438.75C313.287 438.75 314.343 437.726 314.343 436.478C314.343 435.166 313.287 434.142 312.007 434.142ZM327.001 414.494L318.745 425.822C317.625 427.39 317.049 429.086 317.049 430.878C317.049 433.246 317.817 435.166 319.353 436.606C320.921 438.046 322.873 438.75 325.273 438.75C327.641 438.75 329.593 438.046 331.129 436.606C332.697 435.166 333.465 433.246 333.465 430.878C333.465 428.542 332.697 426.622 331.161 425.182C329.657 423.71 327.705 422.942 325.369 422.91L331.545 414.494H327.001ZM325.273 435.358C322.681 435.358 320.921 433.566 320.921 430.75C320.921 429.566 321.209 428.574 321.817 427.774C322.585 426.75 323.737 426.238 325.273 426.238C327.865 426.238 329.625 427.934 329.625 430.75C329.625 433.566 327.833 435.358 325.273 435.358ZM349.453 414.494H346.253L335.661 430.27V433.406H345.709V438.43H349.453V433.406H353.197V430.014H349.453V414.494ZM345.677 421.374V430.014H339.853L345.677 421.374Z" fill="white"/>
<path d="M252.331 364.635H253.803V359.915H257.019C258.107 359.915 258.987 359.595 259.675 358.971C260.363 358.347 260.699 357.451 260.699 356.299C260.699 355.131 260.363 354.235 259.675 353.611C258.987 352.987 258.107 352.667 257.019 352.667H252.331V364.635ZM256.843 353.963C258.203 353.963 259.195 354.779 259.195 356.299C259.195 357.787 258.203 358.619 256.843 358.619H253.787V353.963H256.843ZM266.417 356.379C265.153 356.379 264.337 356.955 264.017 357.707V356.475H262.673V364.635H264.049V359.947C264.049 358.667 264.993 357.707 266.417 357.707V356.379ZM269.727 353.531C269.727 353.019 269.311 352.619 268.815 352.619C268.319 352.619 267.903 353.019 267.903 353.531C267.903 354.027 268.303 354.427 268.815 354.427C269.311 354.427 269.727 354.027 269.727 353.531ZM269.487 356.475H268.111V364.635H269.487V356.475ZM275.755 356.331C274.571 356.331 273.611 356.715 272.859 357.467C272.107 358.219 271.739 359.243 271.739 360.555C271.739 361.867 272.107 362.907 272.859 363.659C273.611 364.411 274.587 364.795 275.755 364.795C277.723 364.795 279.131 363.675 279.435 361.867L278.091 361.739C277.899 362.891 277.035 363.595 275.755 363.595C274.219 363.595 273.147 362.459 273.147 360.555C273.147 358.651 274.203 357.515 275.755 357.515C276.987 357.515 277.931 358.283 278.075 359.499L279.419 359.387C279.307 358.443 278.907 357.707 278.219 357.163C277.547 356.603 276.731 356.331 275.755 356.331ZM288.749 360.331C288.749 359.115 288.413 358.139 287.741 357.419C287.085 356.699 286.173 356.331 285.005 356.331C283.821 356.331 282.861 356.715 282.109 357.467C281.357 358.219 280.989 359.259 280.989 360.555C280.989 361.851 281.357 362.891 282.109 363.659C282.861 364.411 283.837 364.795 285.037 364.795C285.965 364.795 286.765 364.555 287.421 364.075C288.077 363.579 288.493 362.971 288.669 362.219L287.293 362.139C287.021 363.051 286.205 363.595 285.005 363.595C283.549 363.595 282.525 362.635 282.445 361.083H288.749V360.331ZM284.989 357.531C286.509 357.531 287.325 358.491 287.373 359.963H282.445C282.525 358.411 283.533 357.531 284.989 357.531Z" fill="white"/>
<path d="M374.245 193.948H372.313L369.457 198.554L366.587 193.948H364.655L368.631 200.206V204.42H370.283V200.206L374.245 193.948ZM380.374 200.654C380.374 199.562 380.066 198.694 379.464 198.064C378.862 197.434 378.036 197.112 377.014 197.112C375.95 197.112 375.082 197.448 374.424 198.12C373.766 198.778 373.43 199.688 373.43 200.836C373.43 201.984 373.766 202.894 374.438 203.566C375.11 204.224 375.978 204.56 377.056 204.56C377.868 204.56 378.582 204.336 379.184 203.902C379.786 203.468 380.164 202.922 380.304 202.264L378.722 202.18C378.512 202.866 377.952 203.202 377.014 203.202C375.908 203.202 375.166 202.502 375.096 201.424H380.374V200.654ZM377 198.456C378.134 198.456 378.75 199.128 378.792 200.192H375.11C375.18 199.086 375.936 198.456 377 198.456ZM384.795 197.112C383.941 197.112 383.241 197.364 382.723 197.882C382.205 198.386 381.939 198.974 381.939 199.646L383.521 199.702C383.521 199.016 383.969 198.484 384.809 198.484C385.663 198.484 386.083 198.988 386.083 199.982V200.192L384.375 200.29C382.625 200.388 381.743 201.116 381.743 202.46C381.743 203.79 382.681 204.56 384.137 204.56C384.879 204.56 385.537 204.294 386.083 203.776V204.42H387.665V199.954C387.665 198.12 386.643 197.112 384.795 197.112ZM386.097 201.662C386.097 202.712 385.453 203.244 384.403 203.244C383.689 203.244 383.325 202.978 383.325 202.432C383.325 201.858 383.745 201.55 384.599 201.508L386.097 201.41V201.662ZM393.431 197.154C392.409 197.154 391.737 197.518 391.387 198.246V197.238H389.861V204.42H391.429V200.514C391.429 199.45 392.213 198.68 393.431 198.68V197.154ZM398.448 197.112C397.454 197.112 396.754 197.476 396.348 198.19V197.238H394.864V204.42H396.432V200.318C396.432 199.31 397.104 198.568 398.098 198.568C399.05 198.568 399.666 199.24 399.666 200.304V204.42H401.248V200.094C401.248 199.184 400.982 198.456 400.464 197.924C399.946 197.378 399.274 197.112 398.448 197.112ZM403.898 202.544C403.352 202.544 402.904 202.992 402.904 203.566C402.904 204.112 403.352 204.56 403.898 204.56C404.458 204.56 404.92 204.112 404.92 203.566C404.92 202.992 404.458 202.544 403.898 202.544ZM409.716 193.472C408.036 193.472 406.972 194.522 406.972 196.244V197.238H405.614V198.596H406.972V204.42H408.54V198.596H410.304V197.238H408.54V196.202C408.54 195.362 409.086 194.844 409.884 194.844C410.01 194.844 410.164 194.858 410.332 194.872V193.514C410.15 193.486 409.94 193.472 409.716 193.472ZM411.732 194.06C411.354 194.438 411.354 195.054 411.732 195.446C412.124 195.824 412.74 195.824 413.132 195.446C413.524 195.054 413.524 194.438 413.132 194.06C412.74 193.668 412.124 193.668 411.732 194.06ZM413.216 197.238H411.648V204.42H413.216V197.238ZM419.066 197.112C418.072 197.112 417.372 197.476 416.966 198.19V197.238H415.482V204.42H417.05V200.318C417.05 199.31 417.722 198.568 418.716 198.568C419.668 198.568 420.284 199.24 420.284 200.304V204.42H421.866V200.094C421.866 199.184 421.6 198.456 421.082 197.924C420.564 197.378 419.892 197.112 419.066 197.112ZM426.672 197.112C425.818 197.112 425.118 197.364 424.6 197.882C424.082 198.386 423.816 198.974 423.816 199.646L425.398 199.702C425.398 199.016 425.846 198.484 426.686 198.484C427.54 198.484 427.96 198.988 427.96 199.982V200.192L426.252 200.29C424.502 200.388 423.62 201.116 423.62 202.46C423.62 203.79 424.558 204.56 426.014 204.56C426.756 204.56 427.414 204.294 427.96 203.776V204.42H429.542V199.954C429.542 198.12 428.52 197.112 426.672 197.112ZM427.974 201.662C427.974 202.712 427.33 203.244 426.28 203.244C425.566 203.244 425.202 202.978 425.202 202.432C425.202 201.858 425.622 201.55 426.476 201.508L427.974 201.41V201.662ZM435.322 197.112C434.328 197.112 433.628 197.476 433.222 198.19V197.238H431.738V204.42H433.306V200.318C433.306 199.31 433.978 198.568 434.972 198.568C435.924 198.568 436.54 199.24 436.54 200.304V204.42H438.122V200.094C438.122 199.184 437.856 198.456 437.338 197.924C436.82 197.378 436.148 197.112 435.322 197.112ZM443.473 197.112C442.409 197.112 441.541 197.448 440.869 198.106C440.211 198.764 439.875 199.674 439.875 200.836C439.875 201.984 440.211 202.894 440.883 203.566C441.555 204.224 442.423 204.56 443.473 204.56C445.223 204.56 446.511 203.538 446.791 201.914L445.251 201.774C445.097 202.67 444.439 203.202 443.473 203.202C442.297 203.202 441.471 202.306 441.471 200.836C441.471 199.338 442.283 198.456 443.473 198.456C444.425 198.456 445.125 199.03 445.237 199.968L446.777 199.828C446.539 198.148 445.223 197.112 443.473 197.112ZM454.995 200.654C454.995 199.562 454.687 198.694 454.085 198.064C453.483 197.434 452.657 197.112 451.635 197.112C450.571 197.112 449.703 197.448 449.045 198.12C448.387 198.778 448.051 199.688 448.051 200.836C448.051 201.984 448.387 202.894 449.059 203.566C449.731 204.224 450.599 204.56 451.677 204.56C452.489 204.56 453.203 204.336 453.805 203.902C454.407 203.468 454.785 202.922 454.925 202.264L453.343 202.18C453.133 202.866 452.573 203.202 451.635 203.202C450.529 203.202 449.787 202.502 449.717 201.424H454.995V200.654ZM451.621 198.456C452.755 198.456 453.371 199.128 453.413 200.192H449.731C449.801 199.086 450.557 198.456 451.621 198.456ZM459.122 197.112C457.4 197.112 456.392 197.98 456.392 199.282C456.392 199.968 456.602 200.43 457.106 200.752C457.372 200.906 457.624 201.018 457.862 201.102C458.1 201.186 458.45 201.284 458.884 201.382C459.514 201.536 459.92 201.662 460.13 201.788C460.34 201.914 460.438 202.11 460.438 202.39C460.438 202.908 459.948 203.202 459.22 203.202C458.366 203.202 457.904 202.852 457.82 202.166L456.252 202.264C456.42 203.706 457.498 204.56 459.192 204.56C460.942 204.56 462.006 203.706 462.006 202.264C462.006 201.074 461.208 200.584 459.528 200.15L458.702 199.954C458.492 199.898 458.45 199.87 458.296 199.814C458.072 199.688 457.96 199.52 457.96 199.254C457.96 198.722 458.338 198.456 459.08 198.456C459.836 198.456 460.242 198.792 460.312 199.478L461.88 199.394C461.726 198.05 460.76 197.112 459.122 197.112Z" fill="white"/>
<ellipse opacity="0.1" cx="291.184" cy="209.704" rx="40.293" ry="44.6247" fill="white"/>
<path opacity="0.4" d="M297.998 189.42H284.372C283.676 189.42 283.09 190.069 283.09 190.84C283.09 191.611 283.676 192.26 284.372 192.26H290.343L292.907 196.032C293.474 196.864 293.548 196.986 294.61 196.986H301.423C302.119 196.986 302.797 197.087 303.456 197.29C303.529 197.655 303.566 198.02 303.566 198.406V199.116C303.566 199.886 304.152 200.536 304.848 200.536C305.544 200.536 306.13 199.886 306.13 199.116V198.385C306.094 193.436 302.467 189.42 297.998 189.42Z" fill="white"/>
<path d="M306.095 198.629C305.307 198 304.41 197.534 303.439 197.27C302.798 197.067 302.102 196.966 301.406 196.966H294.593C293.53 196.966 293.457 196.844 292.889 196.012L290.325 192.239C289.135 190.495 288.201 189.42 285.215 189.42H280.966C276.497 189.42 272.871 193.436 272.871 198.385V221.022C272.871 225.972 276.497 229.988 280.966 229.988H301.406C305.875 229.988 309.501 225.972 309.501 221.022V205.931C309.501 202.909 308.164 200.252 306.095 198.629ZM295.454 217.817H286.919C286.204 217.817 285.637 217.189 285.637 216.398C285.637 215.627 286.204 214.978 286.919 214.978H295.435C296.131 214.978 296.717 215.627 296.717 216.398C296.717 217.189 296.149 217.817 295.454 217.817Z" fill="white"/>
<g filter="url(#filter1_d_35_3064)">
<rect x="655.652" y="120.454" width="456.044" height="427.992" rx="10" fill="black"/>
</g>
<path d="M755.822 431.678C755.822 429.726 755.15 428.254 753.838 427.294C752.526 426.302 750.446 425.47 747.63 424.798C745.646 424.318 744.27 423.87 743.47 423.422C742.702 422.942 742.318 422.174 742.318 421.054C742.318 418.91 743.95 417.47 746.766 417.47C749.454 417.47 751.214 418.942 751.342 421.342L755.214 421.118C755.086 417.374 752.462 414.846 748.462 414.302V410.75H745.454V414.238C743.182 414.462 741.422 415.198 740.206 416.51C739.022 417.79 738.414 419.358 738.414 421.182C738.414 423.39 739.182 424.926 740.75 425.95C742.382 426.974 743.694 427.39 746.222 428.03C748.302 428.51 749.774 429.022 750.638 429.534C751.502 430.014 751.95 430.814 751.95 431.934C751.95 434.334 750.094 435.454 747.182 435.454C744.142 435.454 741.902 433.79 741.742 431.262L737.87 431.486C737.998 435.486 740.974 438.142 745.454 438.654V442.206H748.462V438.686C752.846 438.302 755.822 435.934 755.822 431.678ZM773.236 420.926C773.236 416.67 770.644 414.174 766.164 414.174C761.684 414.174 759.06 416.894 758.964 421.502L762.772 421.726C762.804 418.942 763.988 417.566 766.26 417.566C768.276 417.566 769.428 418.91 769.428 421.086C769.428 422.398 769.172 423.518 768.692 424.414C768.212 425.31 767.284 426.494 765.908 427.934L759.028 435.294V438.43H773.46V435.038H764.276L768.724 430.27C770.164 428.702 771.284 427.198 772.052 425.79C772.852 424.35 773.236 422.75 773.236 420.926ZM785.942 414.494L777.686 425.822C776.566 427.39 775.99 429.086 775.99 430.878C775.99 433.246 776.758 435.166 778.294 436.606C779.862 438.046 781.814 438.75 784.214 438.75C786.582 438.75 788.534 438.046 790.07 436.606C791.638 435.166 792.406 433.246 792.406 430.878C792.406 428.542 791.638 426.622 790.102 425.182C788.598 423.71 786.646 422.942 784.31 422.91L790.486 414.494H785.942ZM784.214 435.358C781.622 435.358 779.862 433.566 779.862 430.75C779.862 429.566 780.15 428.574 780.758 427.774C781.526 426.75 782.678 426.238 784.214 426.238C786.806 426.238 788.566 427.934 788.566 430.75C788.566 433.566 786.774 435.358 784.214 435.358ZM797.354 434.142C796.106 434.142 795.082 435.166 795.082 436.478C795.082 437.726 796.106 438.75 797.354 438.75C798.634 438.75 799.69 437.726 799.69 436.478C799.69 435.166 798.634 434.142 797.354 434.142ZM812.348 414.494L804.092 425.822C802.972 427.39 802.396 429.086 802.396 430.878C802.396 433.246 803.164 435.166 804.7 436.606C806.268 438.046 808.22 438.75 810.62 438.75C812.988 438.75 814.94 438.046 816.476 436.606C818.044 435.166 818.812 433.246 818.812 430.878C818.812 428.542 818.044 426.622 816.508 425.182C815.004 423.71 813.052 422.942 810.716 422.91L816.892 414.494H812.348ZM810.62 435.358C808.028 435.358 806.268 433.566 806.268 430.75C806.268 429.566 806.556 428.574 807.164 427.774C807.932 426.75 809.084 426.238 810.62 426.238C813.212 426.238 814.972 427.934 814.972 430.75C814.972 433.566 813.18 435.358 810.62 435.358ZM834.801 414.494H831.601L821.009 430.27V433.406H831.057V438.43H834.801V433.406H838.545V430.014H834.801V414.494ZM831.025 421.374V430.014H825.201L831.025 421.374Z" fill="white"/>
<path d="M737.678 364.635H739.15V359.915H742.366C743.454 359.915 744.334 359.595 745.022 358.971C745.71 358.347 746.046 357.451 746.046 356.299C746.046 355.131 745.71 354.235 745.022 353.611C744.334 352.987 743.454 352.667 742.366 352.667H737.678V364.635ZM742.19 353.963C743.55 353.963 744.542 354.779 744.542 356.299C744.542 357.787 743.55 358.619 742.19 358.619H739.134V353.963H742.19ZM751.765 356.379C750.501 356.379 749.685 356.955 749.365 357.707V356.475H748.021V364.635H749.397V359.947C749.397 358.667 750.341 357.707 751.765 357.707V356.379ZM755.074 353.531C755.074 353.019 754.658 352.619 754.162 352.619C753.666 352.619 753.25 353.019 753.25 353.531C753.25 354.027 753.65 354.427 754.162 354.427C754.658 354.427 755.074 354.027 755.074 353.531ZM754.834 356.475H753.458V364.635H754.834V356.475ZM761.102 356.331C759.918 356.331 758.958 356.715 758.206 357.467C757.454 358.219 757.086 359.243 757.086 360.555C757.086 361.867 757.454 362.907 758.206 363.659C758.958 364.411 759.934 364.795 761.102 364.795C763.07 364.795 764.478 363.675 764.782 361.867L763.438 361.739C763.246 362.891 762.382 363.595 761.102 363.595C759.566 363.595 758.494 362.459 758.494 360.555C758.494 358.651 759.55 357.515 761.102 357.515C762.334 357.515 763.278 358.283 763.422 359.499L764.766 359.387C764.654 358.443 764.254 357.707 763.566 357.163C762.894 356.603 762.078 356.331 761.102 356.331ZM774.096 360.331C774.096 359.115 773.76 358.139 773.088 357.419C772.432 356.699 771.52 356.331 770.352 356.331C769.168 356.331 768.208 356.715 767.456 357.467C766.704 358.219 766.336 359.259 766.336 360.555C766.336 361.851 766.704 362.891 767.456 363.659C768.208 364.411 769.184 364.795 770.384 364.795C771.312 364.795 772.112 364.555 772.768 364.075C773.424 363.579 773.84 362.971 774.016 362.219L772.64 362.139C772.368 363.051 771.552 363.595 770.352 363.595C768.896 363.595 767.872 362.635 767.792 361.083H774.096V360.331ZM770.336 357.531C771.856 357.531 772.672 358.491 772.72 359.963H767.792C767.872 358.411 768.88 357.531 770.336 357.531Z" fill="white"/>
<path d="M859.593 193.948H857.661L854.805 198.554L851.935 193.948H850.003L853.979 200.206V204.42H855.631V200.206L859.593 193.948ZM865.722 200.654C865.722 199.562 865.414 198.694 864.812 198.064C864.21 197.434 863.384 197.112 862.362 197.112C861.298 197.112 860.43 197.448 859.772 198.12C859.114 198.778 858.778 199.688 858.778 200.836C858.778 201.984 859.114 202.894 859.786 203.566C860.458 204.224 861.326 204.56 862.404 204.56C863.216 204.56 863.93 204.336 864.532 203.902C865.134 203.468 865.512 202.922 865.652 202.264L864.07 202.18C863.86 202.866 863.3 203.202 862.362 203.202C861.256 203.202 860.514 202.502 860.444 201.424H865.722V200.654ZM862.348 198.456C863.482 198.456 864.098 199.128 864.14 200.192H860.458C860.528 199.086 861.284 198.456 862.348 198.456ZM870.142 197.112C869.288 197.112 868.588 197.364 868.07 197.882C867.552 198.386 867.286 198.974 867.286 199.646L868.868 199.702C868.868 199.016 869.316 198.484 870.156 198.484C871.01 198.484 871.43 198.988 871.43 199.982V200.192L869.722 200.29C867.972 200.388 867.09 201.116 867.09 202.46C867.09 203.79 868.028 204.56 869.484 204.56C870.226 204.56 870.884 204.294 871.43 203.776V204.42H873.012V199.954C873.012 198.12 871.99 197.112 870.142 197.112ZM871.444 201.662C871.444 202.712 870.8 203.244 869.75 203.244C869.036 203.244 868.672 202.978 868.672 202.432C868.672 201.858 869.092 201.55 869.946 201.508L871.444 201.41V201.662ZM878.778 197.154C877.756 197.154 877.084 197.518 876.734 198.246V197.238H875.208V204.42H876.776V200.514C876.776 199.45 877.56 198.68 878.778 198.68V197.154ZM883.796 197.112C882.802 197.112 882.102 197.476 881.696 198.19V197.238H880.212V204.42H881.78V200.318C881.78 199.31 882.452 198.568 883.446 198.568C884.398 198.568 885.014 199.24 885.014 200.304V204.42H886.596V200.094C886.596 199.184 886.33 198.456 885.812 197.924C885.294 197.378 884.622 197.112 883.796 197.112ZM889.246 202.544C888.7 202.544 888.252 202.992 888.252 203.566C888.252 204.112 888.7 204.56 889.246 204.56C889.806 204.56 890.268 204.112 890.268 203.566C890.268 202.992 889.806 202.544 889.246 202.544ZM895.064 193.472C893.384 193.472 892.32 194.522 892.32 196.244V197.238H890.962V198.596H892.32V204.42H893.888V198.596H895.652V197.238H893.888V196.202C893.888 195.362 894.434 194.844 895.232 194.844C895.358 194.844 895.512 194.858 895.68 194.872V193.514C895.498 193.486 895.288 193.472 895.064 193.472ZM897.08 194.06C896.702 194.438 896.702 195.054 897.08 195.446C897.472 195.824 898.088 195.824 898.48 195.446C898.872 195.054 898.872 194.438 898.48 194.06C898.088 193.668 897.472 193.668 897.08 194.06ZM898.564 197.238H896.996V204.42H898.564V197.238ZM904.413 197.112C903.419 197.112 902.719 197.476 902.313 198.19V197.238H900.829V204.42H902.397V200.318C902.397 199.31 903.069 198.568 904.063 198.568C905.015 198.568 905.631 199.24 905.631 200.304V204.42H907.213V200.094C907.213 199.184 906.947 198.456 906.429 197.924C905.911 197.378 905.239 197.112 904.413 197.112ZM912.019 197.112C911.165 197.112 910.465 197.364 909.947 197.882C909.429 198.386 909.163 198.974 909.163 199.646L910.745 199.702C910.745 199.016 911.193 198.484 912.033 198.484C912.887 198.484 913.307 198.988 913.307 199.982V200.192L911.599 200.29C909.849 200.388 908.967 201.116 908.967 202.46C908.967 203.79 909.905 204.56 911.361 204.56C912.103 204.56 912.761 204.294 913.307 203.776V204.42H914.889V199.954C914.889 198.12 913.867 197.112 912.019 197.112ZM913.321 201.662C913.321 202.712 912.677 203.244 911.627 203.244C910.913 203.244 910.549 202.978 910.549 202.432C910.549 201.858 910.969 201.55 911.823 201.508L913.321 201.41V201.662ZM920.669 197.112C919.675 197.112 918.975 197.476 918.569 198.19V197.238H917.085V204.42H918.653V200.318C918.653 199.31 919.325 198.568 920.319 198.568C921.271 198.568 921.887 199.24 921.887 200.304V204.42H923.469V200.094C923.469 199.184 923.203 198.456 922.685 197.924C922.167 197.378 921.495 197.112 920.669 197.112ZM928.821 197.112C927.757 197.112 926.889 197.448 926.217 198.106C925.559 198.764 925.223 199.674 925.223 200.836C925.223 201.984 925.559 202.894 926.231 203.566C926.903 204.224 927.771 204.56 928.821 204.56C930.571 204.56 931.859 203.538 932.139 201.914L930.599 201.774C930.445 202.67 929.787 203.202 928.821 203.202C927.645 203.202 926.819 202.306 926.819 200.836C926.819 199.338 927.631 198.456 928.821 198.456C929.773 198.456 930.473 199.03 930.585 199.968L932.125 199.828C931.887 198.148 930.571 197.112 928.821 197.112ZM940.343 200.654C940.343 199.562 940.035 198.694 939.433 198.064C938.831 197.434 938.005 197.112 936.983 197.112C935.919 197.112 935.051 197.448 934.393 198.12C933.735 198.778 933.399 199.688 933.399 200.836C933.399 201.984 933.735 202.894 934.407 203.566C935.079 204.224 935.947 204.56 937.025 204.56C937.837 204.56 938.551 204.336 939.153 203.902C939.755 203.468 940.133 202.922 940.273 202.264L938.691 202.18C938.481 202.866 937.921 203.202 936.983 203.202C935.877 203.202 935.135 202.502 935.065 201.424H940.343V200.654ZM936.969 198.456C938.103 198.456 938.719 199.128 938.761 200.192H935.079C935.149 199.086 935.905 198.456 936.969 198.456ZM944.469 197.112C942.747 197.112 941.739 197.98 941.739 199.282C941.739 199.968 941.949 200.43 942.453 200.752C942.719 200.906 942.971 201.018 943.209 201.102C943.447 201.186 943.797 201.284 944.231 201.382C944.861 201.536 945.267 201.662 945.477 201.788C945.687 201.914 945.785 202.11 945.785 202.39C945.785 202.908 945.295 203.202 944.567 203.202C943.713 203.202 943.251 202.852 943.167 202.166L941.599 202.264C941.767 203.706 942.845 204.56 944.539 204.56C946.289 204.56 947.353 203.706 947.353 202.264C947.353 201.074 946.555 200.584 944.875 200.15L944.049 199.954C943.839 199.898 943.797 199.87 943.643 199.814C943.419 199.688 943.307 199.52 943.307 199.254C943.307 198.722 943.685 198.456 944.427 198.456C945.183 198.456 945.589 198.792 945.659 199.478L947.227 199.394C947.073 198.05 946.107 197.112 944.469 197.112Z" fill="white"/>
<ellipse opacity="0.1" cx="776.531" cy="209.704" rx="40.293" ry="44.6247" fill="white"/>
<path opacity="0.4" d="M783.346 189.42H769.72C769.024 189.42 768.438 190.069 768.438 190.84C768.438 191.611 769.024 192.26 769.72 192.26H775.69L778.254 196.032C778.822 196.864 778.895 196.986 779.958 196.986H786.771C787.467 196.986 788.144 197.087 788.804 197.29C788.877 197.655 788.914 198.02 788.914 198.406V199.116C788.914 199.886 789.5 200.536 790.196 200.536C790.892 200.536 791.478 199.886 791.478 199.116V198.385C791.441 193.436 787.815 189.42 783.346 189.42Z" fill="white"/>
<path d="M791.442 198.629C790.655 198 789.757 197.534 788.787 197.27C788.145 197.067 787.45 196.966 786.754 196.966H779.94C778.878 196.966 778.805 196.844 778.237 196.012L775.673 192.239C774.482 190.495 773.548 189.42 770.563 189.42H766.314C761.845 189.42 758.219 193.436 758.219 198.385V221.022C758.219 225.972 761.845 229.988 766.314 229.988H786.754C791.222 229.988 794.849 225.972 794.849 221.022V205.931C794.849 202.909 793.512 200.252 791.442 198.629ZM780.801 217.817H772.266C771.552 217.817 770.984 217.189 770.984 216.398C770.984 215.627 771.552 214.978 772.266 214.978H780.783C781.479 214.978 782.065 215.627 782.065 216.398C782.065 217.189 781.497 217.817 780.801 217.817Z" fill="white"/>
<g filter="url(#filter2_d_35_3064)">
<rect x="170.301" y="580.901" width="706.96" height="474.645" rx="10" fill="black"/>
</g>
<g opacity="0.2">
<rect x="260.559" y="652.638" width="2.0391" height="284.547" fill="#B9C1D9"/>
<rect x="327.852" y="652.638" width="2.0391" height="284.547" fill="#B9C1D9"/>
<rect x="395.137" y="652.638" width="2.0391" height="284.547" fill="#B9C1D9"/>
<rect x="462.434" y="652.638" width="2.0391" height="284.547" fill="#B9C1D9"/>
<rect x="529.719" y="652.638" width="2.0391" height="284.547" fill="#B9C1D9"/>
<rect x="597.012" y="652.638" width="2.0391" height="284.547" fill="#B9C1D9"/>
<rect x="664.297" y="652.638" width="2.0391" height="284.547" fill="#B9C1D9"/>
<rect x="731.59" y="652.638" width="2.0391" height="284.547" fill="#B9C1D9"/>
<rect x="799.098" y="934.36" width="2.01764" height="537.42" transform="rotate(90 799.098 934.36)" fill="#B9C1D9"/>
<rect x="799.098" y="859.709" width="2.01764" height="537.42" transform="rotate(90 799.098 859.709)" fill="#B9C1D9"/>
<rect x="799.098" y="785.057" width="2.01764" height="537.42" transform="rotate(90 799.098 785.057)" fill="#B9C1D9"/>
<rect x="799.098" y="710.405" width="2.01764" height="537.42" transform="rotate(90 799.098 710.405)" fill="#B9C1D9"/>
<rect x="799.098" y="653.61" width="2.01764" height="537.42" transform="rotate(90 799.098 653.61)" fill="#B9C1D9"/>
<rect x="798.879" y="652.638" width="2.0391" height="284.547" fill="#B9C1D9"/>
</g>
<path d="M239.391 929.397C238.644 929.397 238.05 929.703 237.609 930.306C237.177 930.909 236.961 931.755 236.961 932.853C236.961 933.951 237.177 934.806 237.609 935.409C238.05 936.012 238.644 936.309 239.391 936.309C240.129 936.309 240.714 936.012 241.146 935.409C241.587 934.806 241.803 933.951 241.803 932.853C241.803 931.755 241.587 930.909 241.146 930.306C240.714 929.703 240.129 929.397 239.391 929.397ZM240.561 930.828C240.84 931.287 240.975 931.962 240.975 932.853C240.975 933.744 240.84 934.419 240.561 934.878C240.291 935.337 239.895 935.571 239.382 935.571C238.869 935.571 238.473 935.337 238.203 934.878C237.933 934.419 237.798 933.744 237.798 932.853C237.798 931.962 237.933 931.287 238.203 930.828C238.473 930.369 238.869 930.135 239.382 930.135C239.895 930.135 240.291 930.369 240.561 930.828ZM243.833 929.226H243.059V936.219H243.833V934.68L244.328 934.194L246.038 936.219H247.028L244.877 933.627L246.812 931.629H245.849L243.833 933.645V929.226Z" fill="#B9C1D9"/>
<path d="M239.748 854.746C238.524 854.746 237.795 855.466 237.75 856.654L238.56 856.699C238.623 855.916 239.037 855.484 239.748 855.484C240.432 855.484 240.855 855.88 240.855 856.591C240.855 857.284 240.369 857.725 239.676 857.725H239.037V858.454H239.694C240.495 858.454 241.026 858.868 241.026 859.651C241.026 860.443 240.549 860.92 239.766 860.92C238.983 860.92 238.542 860.461 238.47 859.633L237.642 859.678C237.723 860.911 238.47 861.658 239.766 861.658C240.396 861.658 240.9 861.478 241.278 861.118C241.665 860.758 241.854 860.272 241.854 859.669C241.854 858.814 241.395 858.238 240.72 858.085C241.287 857.869 241.683 857.347 241.683 856.591C241.683 855.466 240.945 854.746 239.748 854.746ZM243.83 854.575H243.056V861.568H243.83V860.029L244.325 859.543L246.035 861.568H247.025L244.874 858.976L246.809 856.978H245.846L243.83 858.994V854.575Z" fill="#B9C1D9"/>
<path d="M239.629 782.614C239.53 782.614 239.449 782.614 239.404 782.623L241.222 780.184H240.25L237.829 783.424C237.523 783.838 237.37 784.306 237.37 784.819C237.37 785.476 237.577 785.998 238 786.403C238.423 786.808 238.972 787.006 239.629 787.006C240.277 787.006 240.817 786.808 241.24 786.403C241.663 785.998 241.879 785.476 241.879 784.819C241.879 784.162 241.663 783.631 241.24 783.226C240.817 782.821 240.277 782.614 239.629 782.614ZM239.629 786.268C238.792 786.268 238.198 785.692 238.198 784.792C238.198 784.405 238.297 784.09 238.495 783.838C238.756 783.505 239.134 783.334 239.629 783.334C240.457 783.334 241.051 783.901 241.051 784.792C241.051 785.683 240.457 786.268 239.629 786.268ZM243.83 779.923H243.056V786.916H243.83V785.377L244.325 784.891L246.035 786.916H247.025L244.874 784.324L246.809 782.326H245.846L243.83 784.342V779.923Z" fill="#B9C1D9"/>
<path d="M239.593 705.443C238.945 705.443 238.405 705.641 237.982 706.046C237.559 706.451 237.343 706.973 237.343 707.63C237.343 708.287 237.559 708.818 237.982 709.223C238.405 709.628 238.945 709.835 239.593 709.835C239.692 709.835 239.773 709.835 239.818 709.826L238 712.265H238.972L241.393 709.025C241.699 708.611 241.852 708.143 241.852 707.63C241.852 706.973 241.636 706.451 241.213 706.046C240.79 705.641 240.25 705.443 239.593 705.443ZM239.593 709.115C238.765 709.115 238.171 708.548 238.171 707.657C238.171 706.766 238.765 706.181 239.593 706.181C240.43 706.181 241.024 706.757 241.024 707.657C241.024 708.044 240.925 708.359 240.727 708.611C240.466 708.944 240.088 709.115 239.593 709.115ZM243.83 705.272H243.056V712.265H243.83V710.726L244.325 710.24L246.035 712.265H247.025L244.874 709.673L246.809 707.675H245.846L243.83 709.691V705.272Z" fill="#B9C1D9"/>
<path d="M239.593 642.789C238.945 642.789 238.405 642.987 237.982 643.392C237.559 643.797 237.343 644.319 237.343 644.976C237.343 645.633 237.559 646.164 237.982 646.569C238.405 646.974 238.945 647.181 239.593 647.181C239.692 647.181 239.773 647.181 239.818 647.172L238 649.611H238.972L241.393 646.371C241.699 645.957 241.852 645.489 241.852 644.976C241.852 644.319 241.636 643.797 241.213 643.392C240.79 642.987 240.25 642.789 239.593 642.789ZM239.593 646.461C238.765 646.461 238.171 645.894 238.171 645.003C238.171 644.112 238.765 643.527 239.593 643.527C240.43 643.527 241.024 644.103 241.024 645.003C241.024 645.39 240.925 645.705 240.727 645.957C240.466 646.29 240.088 646.461 239.593 646.461ZM243.83 642.618H243.056V649.611H243.83V648.072L244.325 647.586L246.035 649.611H247.025L244.874 647.019L246.809 645.021H245.846L243.83 647.037V642.618Z" fill="#B9C1D9"/>
<path d="M291.583 962.822H290.872L287.983 968.312L285.094 962.822H284.374V969.554H285.202V964.685L287.713 969.509H288.262L290.764 964.685V969.554H291.583V962.822ZM293.54 965.54C293.099 965.972 292.874 966.548 292.874 967.259C292.874 967.97 293.099 968.546 293.54 968.987C293.99 969.428 294.557 969.644 295.232 969.644C295.907 969.644 296.474 969.428 296.915 968.987C297.365 968.546 297.59 967.97 297.59 967.259C297.59 966.548 297.365 965.972 296.915 965.54C296.474 965.099 295.907 964.883 295.232 964.883C294.557 964.883 293.99 965.099 293.54 965.54ZM296.357 966.017C296.654 966.323 296.807 966.737 296.807 967.259C296.807 967.781 296.654 968.195 296.357 968.51C296.06 968.816 295.691 968.969 295.232 968.969C294.773 968.969 294.395 968.816 294.098 968.51C293.801 968.195 293.657 967.781 293.657 967.259C293.657 966.737 293.801 966.323 294.098 966.017C294.395 965.711 294.773 965.558 295.232 965.558C295.691 965.558 296.06 965.711 296.357 966.017ZM301.026 964.883C300.342 964.883 299.838 965.207 299.595 965.648V964.964H298.857V969.554H299.631V966.872C299.631 966.521 299.748 966.215 299.973 965.972C300.207 965.729 300.504 965.603 300.864 965.603C301.557 965.603 302.025 966.107 302.025 966.863V969.554H302.808V966.764C302.808 966.197 302.637 965.738 302.304 965.396C301.971 965.054 301.548 964.883 301.026 964.883Z" fill="#B9C1D9"/>
<path d="M290.659 996.86H289.855L287.455 998.696L287.995 999.548L289.579 998.336V1005.84H290.659V996.86ZM295.231 1000.33C294.667 1000.33 294.151 1000.47 293.695 1000.76V997.832H297.571V996.86H292.615V1001.84H293.623C294.067 1001.48 294.571 1001.3 295.123 1001.3C296.143 1001.3 296.815 1002.02 296.815 1003.11C296.815 1004.22 296.191 1004.97 295.099 1004.97C294.055 1004.97 293.491 1004.37 293.395 1003.33L292.291 1003.39C292.399 1004.98 293.407 1005.96 295.087 1005.96C295.963 1005.96 296.647 1005.69 297.151 1005.16C297.655 1004.64 297.907 1003.94 297.907 1003.09C297.907 1002.24 297.655 1001.56 297.163 1001.07C296.671 1000.58 296.023 1000.33 295.231 1000.33Z" fill="#273052"/>
<path d="M359.958 962.822H354.126V963.551H356.628V969.554H357.456V963.551H359.958V962.822ZM363.686 964.964H362.912V967.646C362.912 968.357 362.462 968.915 361.751 968.915C361.067 968.915 360.671 968.447 360.671 967.691V964.964H359.897V967.799C359.897 968.348 360.05 968.798 360.347 969.14C360.653 969.473 361.058 969.644 361.571 969.644C362.282 969.644 362.759 969.293 362.948 968.87V969.554H363.686V964.964ZM369.31 967.133C369.31 966.449 369.121 965.9 368.743 965.495C368.374 965.09 367.861 964.883 367.204 964.883C366.538 964.883 365.998 965.099 365.575 965.522C365.152 965.945 364.945 966.53 364.945 967.259C364.945 967.988 365.152 968.573 365.575 969.005C365.998 969.428 366.547 969.644 367.222 969.644C367.744 969.644 368.194 969.509 368.563 969.239C368.932 968.96 369.166 968.618 369.265 968.195L368.491 968.15C368.338 968.663 367.879 968.969 367.204 968.969C366.385 968.969 365.809 968.429 365.764 967.556H369.31V967.133ZM367.195 965.558C368.05 965.558 368.509 966.098 368.536 966.926H365.764C365.809 966.053 366.376 965.558 367.195 965.558Z" fill="#B9C1D9"/>
<path d="M359.682 996.86H358.878L356.478 998.696L357.018 999.548L358.602 998.336V1005.84H359.682V996.86ZM364.363 1000.1C364.231 1000.1 364.123 1000.1 364.063 1000.11L366.487 996.86H365.191L361.963 1001.18C361.555 1001.73 361.351 1002.36 361.351 1003.04C361.351 1003.92 361.627 1004.61 362.191 1005.15C362.755 1005.69 363.487 1005.96 364.363 1005.96C365.227 1005.96 365.947 1005.69 366.511 1005.15C367.075 1004.61 367.363 1003.92 367.363 1003.04C367.363 1002.16 367.075 1001.46 366.511 1000.92C365.947 1000.38 365.227 1000.1 364.363 1000.1ZM364.363 1004.97C363.247 1004.97 362.455 1004.2 362.455 1003C362.455 1002.49 362.587 1002.07 362.851 1001.73C363.199 1001.29 363.703 1001.06 364.363 1001.06C365.467 1001.06 366.259 1001.82 366.259 1003C366.259 1004.19 365.467 1004.97 364.363 1004.97Z" fill="#273052"/>
<path d="M428.906 962.822H428.024L426.206 968.105L424.397 962.822H423.722L421.922 968.105L420.095 962.822H419.204L421.562 969.554H422.255L424.055 964.334L425.864 969.554H426.557L428.906 962.822ZM433.217 967.133C433.217 966.449 433.028 965.9 432.65 965.495C432.281 965.09 431.768 964.883 431.111 964.883C430.445 964.883 429.905 965.099 429.482 965.522C429.059 965.945 428.852 966.53 428.852 967.259C428.852 967.988 429.059 968.573 429.482 969.005C429.905 969.428 430.454 969.644 431.129 969.644C431.651 969.644 432.101 969.509 432.47 969.239C432.839 968.96 433.073 968.618 433.172 968.195L432.398 968.15C432.245 968.663 431.786 968.969 431.111 968.969C430.292 968.969 429.716 968.429 429.671 967.556H433.217V967.133ZM431.102 965.558C431.957 965.558 432.416 966.098 432.443 966.926H429.671C429.716 966.053 430.283 965.558 431.102 965.558ZM438.742 962.561H437.968V965.657C437.707 965.198 437.131 964.883 436.384 964.883C435.745 964.883 435.214 965.099 434.791 965.531C434.377 965.963 434.17 966.539 434.17 967.268C434.17 967.997 434.377 968.573 434.791 969.005C435.214 969.428 435.745 969.644 436.384 969.644C437.14 969.644 437.734 969.302 438.013 968.807V969.554H438.742V962.561ZM436.492 965.558C437.365 965.558 437.968 966.116 437.968 967.124V967.394C437.968 968.402 437.365 968.969 436.492 968.969C435.592 968.969 434.953 968.339 434.953 967.259C434.953 966.188 435.592 965.558 436.492 965.558Z" fill="#B9C1D9"/>
<path d="M428.234 996.86H427.43L425.03 998.696L425.57 999.548L427.154 998.336V1005.84H428.234V996.86ZM435.519 996.86H429.615V997.832H434.307L430.095 1005.84H431.307L435.519 997.748V996.86Z" fill="#273052"/>
<path d="M495.146 962.822H489.314V963.551H491.816V969.554H492.644V963.551H495.146V962.822ZM496.079 962.561V969.554H496.853V966.872C496.853 966.521 496.97 966.215 497.195 965.972C497.429 965.729 497.726 965.603 498.086 965.603C498.779 965.603 499.247 966.107 499.247 966.863V969.554H500.03V966.764C500.03 966.197 499.859 965.738 499.526 965.396C499.193 965.054 498.77 964.883 498.248 964.883C497.591 964.883 497.078 965.198 496.853 965.594V962.561H496.079ZM505.255 964.964H504.481V967.646C504.481 968.357 504.031 968.915 503.32 968.915C502.636 968.915 502.24 968.447 502.24 967.691V964.964H501.466V967.799C501.466 968.348 501.619 968.798 501.916 969.14C502.222 969.473 502.627 969.644 503.14 969.644C503.851 969.644 504.328 969.293 504.517 968.87V969.554H505.255V964.964Z" fill="#B9C1D9"/>
<path d="M494.457 996.86H493.653L491.253 998.696L491.793 999.548L493.377 998.336V1005.84H494.457V996.86ZM499.15 996.74C498.358 996.74 497.71 996.956 497.206 997.388C496.702 997.82 496.45 998.408 496.45 999.152C496.45 1000.08 496.93 1000.78 497.662 1001.11C496.798 1001.48 496.234 1002.27 496.234 1003.33C496.234 1004.13 496.51 1004.77 497.05 1005.25C497.602 1005.72 498.298 1005.96 499.15 1005.96C500.002 1005.96 500.71 1005.72 501.25 1005.25C501.802 1004.77 502.078 1004.13 502.078 1003.33C502.078 1002.26 501.502 1001.47 500.638 1001.1C501.358 1000.76 501.85 1000.06 501.85 999.152C501.85 998.42 501.598 997.832 501.082 997.4C500.578 996.956 499.93 996.74 499.15 996.74ZM499.162 997.724C500.086 997.724 500.77 998.288 500.77 999.212C500.77 1000.11 500.086 1000.66 499.162 1000.66C498.214 1000.66 497.542 1000.11 497.542 999.212C497.542 998.288 498.214 997.724 499.162 997.724ZM500.458 1002.08C500.806 1002.38 500.974 1002.78 500.974 1003.29C500.974 1003.81 500.806 1004.22 500.458 1004.52C500.11 1004.82 499.678 1004.97 499.15 1004.97C498.622 1004.97 498.19 1004.82 497.842 1004.52C497.494 1004.22 497.326 1003.81 497.326 1003.29C497.326 1002.78 497.494 1002.38 497.842 1002.08C498.19 1001.78 498.622 1001.62 499.15 1001.62C499.678 1001.62 500.11 1001.78 500.458 1002.08Z" fill="#273052"/>
<path d="M562.864 962.822H558.697V969.554H559.525V966.485H562.306V965.756H559.525V963.551H562.864V962.822ZM565.962 964.91C565.251 964.91 564.792 965.234 564.612 965.657V964.964H563.856V969.554H564.63V966.917C564.63 966.197 565.161 965.657 565.962 965.657V964.91ZM567.823 963.308C567.823 963.02 567.589 962.795 567.31 962.795C567.031 962.795 566.797 963.02 566.797 963.308C566.797 963.587 567.022 963.812 567.31 963.812C567.589 963.812 567.823 963.587 567.823 963.308ZM567.688 964.964H566.914V969.554H567.688V964.964Z" fill="#B9C1D9"/>
<path d="M560.08 996.86H559.276L556.876 998.696L557.416 999.548L559 998.336V1005.84H560.08V996.86ZM564.713 996.74C563.849 996.74 563.129 997.004 562.565 997.544C562.001 998.084 561.713 998.78 561.713 999.656C561.713 1000.53 562.001 1001.24 562.565 1001.78C563.129 1002.32 563.849 1002.6 564.713 1002.6C564.845 1002.6 564.953 1002.6 565.013 1002.58L562.589 1005.84H563.885L567.113 1001.52C567.521 1000.96 567.725 1000.34 567.725 999.656C567.725 998.78 567.437 998.084 566.873 997.544C566.309 997.004 565.589 996.74 564.713 996.74ZM564.713 1001.64C563.609 1001.64 562.817 1000.88 562.817 999.692C562.817 998.504 563.609 997.724 564.713 997.724C565.829 997.724 566.621 998.492 566.621 999.692C566.621 1000.21 566.489 1000.63 566.225 1000.96C565.877 1001.41 565.373 1001.64 564.713 1001.64Z" fill="#273052"/>
<path d="M627.366 962.732C626.637 962.732 626.07 962.912 625.674 963.281C625.287 963.641 625.089 964.091 625.089 964.64C625.089 965.252 625.296 965.675 625.737 965.954C625.962 966.089 626.187 966.197 626.403 966.278C626.619 966.35 626.907 966.431 627.267 966.512C627.546 966.575 627.753 966.629 627.888 966.674C628.032 966.71 628.194 966.764 628.365 966.836C628.545 966.908 628.671 966.98 628.752 967.061C628.923 967.205 629.049 967.448 629.049 967.763C629.049 968.546 628.437 968.924 627.492 968.924C627.015 968.924 626.619 968.807 626.295 968.573C625.971 968.339 625.791 968.024 625.764 967.637L624.936 967.682C624.963 968.294 625.215 968.771 625.692 969.122C626.169 969.473 626.763 969.644 627.492 969.644C628.194 969.644 628.77 969.482 629.211 969.158C629.661 968.825 629.886 968.339 629.886 967.7C629.886 967.124 629.697 966.719 629.256 966.44C628.824 966.152 628.365 965.999 627.564 965.81C626.97 965.675 626.547 965.54 626.295 965.387C626.052 965.234 625.926 964.982 625.926 964.613C625.926 963.929 626.448 963.452 627.384 963.452C628.239 963.452 628.806 963.902 628.851 964.658L629.688 964.604C629.661 964.019 629.436 963.569 629.013 963.236C628.59 962.903 628.041 962.732 627.366 962.732ZM632.847 964.883C632.316 964.883 631.884 965.045 631.56 965.369C631.236 965.693 631.074 966.062 631.074 966.485L631.857 966.521C631.857 965.99 632.208 965.567 632.856 965.567C633.495 965.567 633.819 965.936 633.819 966.683V966.899L632.631 966.971C631.506 967.034 630.948 967.484 630.948 968.339C630.948 969.158 631.542 969.644 632.451 969.644C633.009 969.644 633.468 969.437 633.819 969.014V969.554H634.602V966.665C634.602 965.522 633.972 964.883 632.847 964.883ZM633.828 967.709C633.828 968.573 633.324 968.978 632.568 968.978C632.01 968.978 631.731 968.762 631.731 968.321C631.731 967.88 632.064 967.637 632.73 967.592L633.828 967.52V967.709ZM637.895 968.915C637.355 968.915 637.085 968.618 637.085 968.024L637.103 965.639H638.336V964.964H637.103L637.112 963.38H636.329L636.32 964.964H635.465V965.639H636.32L636.311 968.177C636.302 969.149 636.851 969.617 637.724 969.617C637.931 969.617 638.138 969.599 638.345 969.563V968.87C638.165 968.897 638.012 968.915 637.895 968.915Z" fill="#B9C1D9"/>
<path d="M627.127 996.752C625.459 996.752 624.511 997.748 624.475 999.464L625.567 999.524C625.579 998.372 626.131 997.724 627.151 997.724C628.075 997.724 628.603 998.336 628.603 999.308C628.603 999.848 628.495 1000.33 628.279 1000.72C628.063 1001.12 627.679 1001.6 627.127 1002.18L624.499 1004.95V1005.84H629.815V1004.86H625.999L627.943 1002.82C628.531 1002.21 628.963 1001.65 629.263 1001.11C629.563 1000.57 629.707 999.944 629.707 999.26C629.707 997.688 628.771 996.752 627.127 996.752ZM634.136 996.74C633.14 996.74 632.348 997.148 631.76 997.952C631.184 998.756 630.896 999.884 630.896 1001.35C630.896 1002.81 631.184 1003.95 631.76 1004.76C632.348 1005.56 633.14 1005.96 634.136 1005.96C635.12 1005.96 635.9 1005.56 636.476 1004.76C637.064 1003.95 637.352 1002.81 637.352 1001.35C637.352 999.884 637.064 998.756 636.476 997.952C635.9 997.148 635.12 996.74 634.136 996.74ZM635.696 998.648C636.068 999.26 636.248 1000.16 636.248 1001.35C636.248 1002.54 636.068 1003.44 635.696 1004.05C635.336 1004.66 634.808 1004.97 634.124 1004.97C633.44 1004.97 632.912 1004.66 632.552 1004.05C632.192 1003.44 632.012 1002.54 632.012 1001.35C632.012 1000.16 632.192 999.26 632.552 998.648C632.912 998.036 633.44 997.724 634.124 997.724C634.808 997.724 635.336 998.036 635.696 998.648Z" fill="#273052"/>
<path d="M694.394 962.732C693.665 962.732 693.098 962.912 692.702 963.281C692.315 963.641 692.117 964.091 692.117 964.64C692.117 965.252 692.324 965.675 692.765 965.954C692.99 966.089 693.215 966.197 693.431 966.278C693.647 966.35 693.935 966.431 694.295 966.512C694.574 966.575 694.781 966.629 694.916 966.674C695.06 966.71 695.222 966.764 695.393 966.836C695.573 966.908 695.699 966.98 695.78 967.061C695.951 967.205 696.077 967.448 696.077 967.763C696.077 968.546 695.465 968.924 694.52 968.924C694.043 968.924 693.647 968.807 693.323 968.573C692.999 968.339 692.819 968.024 692.792 967.637L691.964 967.682C691.991 968.294 692.243 968.771 692.72 969.122C693.197 969.473 693.791 969.644 694.52 969.644C695.222 969.644 695.798 969.482 696.239 969.158C696.689 968.825 696.914 968.339 696.914 967.7C696.914 967.124 696.725 966.719 696.284 966.44C695.852 966.152 695.393 965.999 694.592 965.81C693.998 965.675 693.575 965.54 693.323 965.387C693.08 965.234 692.954 964.982 692.954 964.613C692.954 963.929 693.476 963.452 694.412 963.452C695.267 963.452 695.834 963.902 695.879 964.658L696.716 964.604C696.689 964.019 696.464 963.569 696.041 963.236C695.618 962.903 695.069 962.732 694.394 962.732ZM701.902 964.964H701.128V967.646C701.128 968.357 700.678 968.915 699.967 968.915C699.283 968.915 698.887 968.447 698.887 967.691V964.964H698.113V967.799C698.113 968.348 698.266 968.798 698.563 969.14C698.869 969.473 699.274 969.644 699.787 969.644C700.498 969.644 700.975 969.293 701.164 968.87V969.554H701.902V964.964ZM705.635 964.883C704.951 964.883 704.447 965.207 704.204 965.648V964.964H703.466V969.554H704.24V966.872C704.24 966.521 704.357 966.215 704.582 965.972C704.816 965.729 705.113 965.603 705.473 965.603C706.166 965.603 706.634 966.107 706.634 966.863V969.554H707.417V966.764C707.417 966.197 707.246 965.738 706.913 965.396C706.58 965.054 706.157 964.883 705.635 964.883Z" fill="#B9C1D9"/>
<path d="M697.809 996.752C696.141 996.752 695.193 997.748 695.157 999.464L696.249 999.524C696.261 998.372 696.813 997.724 697.833 997.724C698.757 997.724 699.285 998.336 699.285 999.308C699.285 999.848 699.177 1000.33 698.961 1000.72C698.745 1001.12 698.361 1001.6 697.809 1002.18L695.181 1004.95V1005.84H700.497V1004.86H696.681L698.625 1002.82C699.213 1002.21 699.645 1001.65 699.945 1001.11C700.245 1000.57 700.389 999.944 700.389 999.26C700.389 997.688 699.453 996.752 697.809 996.752ZM704.302 996.86H703.498L701.098 998.696L701.638 999.548L703.222 998.336V1005.84H704.302V996.86Z" fill="#273052"/>
<path d="M763.415 962.822H762.704L759.815 968.312L756.926 962.822H756.206V969.554H757.034V964.685L759.545 969.509H760.094L762.596 964.685V969.554H763.415V962.822ZM765.372 965.54C764.931 965.972 764.706 966.548 764.706 967.259C764.706 967.97 764.931 968.546 765.372 968.987C765.822 969.428 766.389 969.644 767.064 969.644C767.739 969.644 768.306 969.428 768.747 968.987C769.197 968.546 769.422 967.97 769.422 967.259C769.422 966.548 769.197 965.972 768.747 965.54C768.306 965.099 767.739 964.883 767.064 964.883C766.389 964.883 765.822 965.099 765.372 965.54ZM768.189 966.017C768.486 966.323 768.639 966.737 768.639 967.259C768.639 967.781 768.486 968.195 768.189 968.51C767.892 968.816 767.523 968.969 767.064 968.969C766.605 968.969 766.227 968.816 765.93 968.51C765.633 968.195 765.489 967.781 765.489 967.259C765.489 966.737 765.633 966.323 765.93 966.017C766.227 965.711 766.605 965.558 767.064 965.558C767.523 965.558 767.892 965.711 768.189 966.017ZM772.858 964.883C772.174 964.883 771.67 965.207 771.427 965.648V964.964H770.689V969.554H771.463V966.872C771.463 966.521 771.58 966.215 771.805 965.972C772.039 965.729 772.336 965.603 772.696 965.603C773.389 965.603 773.857 966.107 773.857 966.863V969.554H774.64V966.764C774.64 966.197 774.469 965.738 774.136 965.396C773.803 965.054 773.38 964.883 772.858 964.883Z" fill="#B9C1D9"/>
<path d="M762.588 996.752C760.92 996.752 759.972 997.748 759.936 999.464L761.028 999.524C761.04 998.372 761.592 997.724 762.612 997.724C763.536 997.724 764.064 998.336 764.064 999.308C764.064 999.848 763.956 1000.33 763.74 1000.72C763.524 1001.12 763.14 1001.6 762.588 1002.18L759.96 1004.95V1005.84H765.276V1004.86H761.46L763.404 1002.82C763.992 1002.21 764.424 1001.65 764.724 1001.11C765.024 1000.57 765.168 999.944 765.168 999.26C765.168 997.688 764.232 996.752 762.588 996.752ZM769.021 996.752C767.353 996.752 766.405 997.748 766.369 999.464L767.461 999.524C767.473 998.372 768.025 997.724 769.045 997.724C769.969 997.724 770.497 998.336 770.497 999.308C770.497 999.848 770.389 1000.33 770.173 1000.72C769.957 1001.12 769.573 1001.6 769.021 1002.18L766.393 1004.95V1005.84H771.709V1004.86H767.893L769.837 1002.82C770.425 1002.21 770.857 1001.65 771.157 1001.11C771.457 1000.57 771.601 999.944 771.601 999.26C771.601 997.688 770.665 996.752 769.021 996.752Z" fill="#273052"/>
<path d="M282.44 891.491H261.68V933.36C261.68 933.913 262.127 934.36 262.68 934.36H798.1C798.652 934.36 799.1 933.913 799.1 933.36V663.304L775.798 698.46C775.314 699.19 774.193 698.99 773.991 698.138L763.236 652.664C763.129 652.213 762.726 651.895 762.262 651.895H732.392C732.094 651.895 731.812 652.027 731.622 652.256L711.147 676.933C710.842 677.3 710.32 677.401 709.9 677.173L685.535 663.918C684.963 663.606 684.25 663.917 684.089 664.549L665.298 738.149C665.085 738.986 663.98 739.176 663.499 738.458L642.829 707.615C642.388 706.957 641.393 707.048 641.079 707.776L637.433 716.241C637.165 716.863 636.369 717.044 635.858 716.599L624.774 706.952C624.276 706.518 623.501 706.678 623.216 707.274L607.764 739.552C607.553 739.993 607.054 740.217 606.584 740.081L588.737 734.903C588.191 734.744 587.623 735.072 587.487 735.624L568.187 814.021C568.116 814.311 567.92 814.553 567.651 814.683L539.495 828.298C538.993 828.541 538.389 828.326 538.153 827.821L518.225 785.122C517.86 784.34 516.742 784.357 516.4 785.149L507.608 805.558C507.507 805.791 507.321 805.977 507.088 806.079L488.221 814.29C487.948 814.409 487.742 814.644 487.659 814.931L476.467 853.901C476.375 854.22 476.131 854.472 475.816 854.575L450.447 862.856C450.226 862.928 450.036 863.076 449.912 863.272L432.862 890.255C432.487 890.85 431.63 890.881 431.213 890.315L417.948 872.355C417.613 871.901 416.968 871.814 416.524 872.164L377.011 903.321C376.639 903.614 376.113 903.606 375.75 903.302L362.281 892.039C361.904 891.723 361.354 891.729 360.983 892.051L348.801 902.655C348.619 902.813 348.386 902.901 348.145 902.901H322.771C322.475 902.901 322.193 902.769 322.003 902.542L296.952 872.559C296.521 872.044 295.716 872.09 295.348 872.651L283.276 891.04C283.091 891.322 282.777 891.491 282.44 891.491Z" fill="url(#paint0_linear_35_3064)"/>
<path d="M264.879 891.491H281.901C282.575 891.491 283.203 891.152 283.573 890.589L294.609 873.778C295.346 872.656 296.956 872.563 297.816 873.593L321.704 902.183C322.084 902.638 322.646 902.901 323.239 902.901H347.771C348.254 902.901 348.72 902.726 349.084 902.409L359.993 892.914C360.873 892.147 362.221 892.295 362.915 893.234L375.011 909.613C375.731 910.588 377.147 910.703 378.016 909.857L415.693 873.126C416.561 872.279 417.977 872.394 418.698 873.37L430.344 889.139C431.18 890.271 432.892 890.208 433.644 889.019L449.72 863.577C449.969 863.183 450.347 862.889 450.79 862.744L475.312 854.74C475.943 854.534 476.43 854.029 476.613 853.391L487.53 815.384C487.694 814.81 488.107 814.34 488.654 814.102L506.726 806.237C507.192 806.034 507.564 805.661 507.765 805.194L515.519 787.196C516.202 785.611 518.438 785.577 519.168 787.142L537.725 826.902C538.197 827.913 539.404 828.343 540.408 827.857L567.229 814.887C567.765 814.628 568.158 814.143 568.3 813.565L587.239 736.636C587.511 735.532 588.646 734.876 589.738 735.193L605.77 739.845C606.709 740.117 607.708 739.67 608.131 738.787L622.649 708.46C623.219 707.267 624.769 706.947 625.766 707.814L634.825 715.7C635.847 716.589 637.439 716.227 637.975 714.983L640.353 709.462C640.98 708.007 642.969 707.824 643.851 709.14L662.253 736.599C663.216 738.035 665.425 737.656 665.853 735.98L683.771 665.794C684.094 664.531 685.519 663.909 686.665 664.532L709.178 676.78C710.017 677.236 711.063 677.035 711.673 676.3L731.323 652.617C731.703 652.159 732.267 651.895 732.862 651.895H761.472C762.399 651.895 763.205 652.532 763.418 653.434L773.363 695.478C773.779 697.24 776.137 697.585 777.042 696.016L795.901 663.304" stroke="#3B82F6" stroke-width="2" stroke-linecap="round"/>
<rect x="906.57" y="580.901" width="205.128" height="474.645" rx="10" fill="black"/>
<path d="M942.875 615.875H941.495L939.455 619.165L937.405 615.875H936.025L938.865 620.345V623.355H940.045V620.345L942.875 615.875ZM943.893 615.955C943.623 616.225 943.623 616.665 943.893 616.945C944.173 617.215 944.613 617.215 944.893 616.945C945.173 616.665 945.173 616.225 944.893 615.955C944.613 615.675 944.173 615.675 943.893 615.955ZM944.953 618.225H943.833V623.355H944.953V618.225ZM951.218 620.665C951.218 619.885 950.998 619.265 950.568 618.815C950.138 618.365 949.548 618.135 948.818 618.135C948.058 618.135 947.438 618.375 946.968 618.855C946.498 619.325 946.258 619.975 946.258 620.795C946.258 621.615 946.498 622.265 946.978 622.745C947.458 623.215 948.078 623.455 948.848 623.455C949.428 623.455 949.938 623.295 950.368 622.985C950.798 622.675 951.068 622.285 951.168 621.815L950.038 621.755C949.888 622.245 949.488 622.485 948.818 622.485C948.028 622.485 947.498 621.985 947.448 621.215H951.218V620.665ZM948.808 619.095C949.618 619.095 950.058 619.575 950.088 620.335H947.458C947.508 619.545 948.048 619.095 948.808 619.095ZM953.635 615.585H952.515V623.355H953.635V615.585ZM960.159 615.585H959.039V618.845C958.749 618.415 958.139 618.135 957.409 618.135C956.679 618.135 956.089 618.375 955.629 618.865C955.169 619.345 954.939 619.985 954.939 620.795C954.939 621.605 955.169 622.245 955.629 622.735C956.089 623.215 956.679 623.455 957.409 623.455C958.179 623.455 958.809 623.125 959.099 622.645V623.355H960.159V615.585ZM957.589 619.095C958.459 619.095 959.039 619.665 959.039 620.655V620.925C959.039 621.915 958.459 622.485 957.589 622.485C956.699 622.485 956.079 621.865 956.079 620.795C956.079 619.725 956.699 619.095 957.589 619.095ZM968.847 615.875H964.147V623.355H965.337V620.065H968.237V619.015H965.337V616.925H968.847V615.875ZM971.524 618.135C970.914 618.135 970.414 618.315 970.044 618.685C969.674 619.045 969.484 619.465 969.484 619.945L970.614 619.985C970.614 619.495 970.934 619.115 971.534 619.115C972.144 619.115 972.444 619.475 972.444 620.185V620.335L971.224 620.405C969.974 620.475 969.344 620.995 969.344 621.955C969.344 622.905 970.014 623.455 971.054 623.455C971.584 623.455 972.054 623.265 972.444 622.895V623.355H973.574V620.165C973.574 618.855 972.844 618.135 971.524 618.135ZM972.454 621.385C972.454 622.135 971.994 622.515 971.244 622.515C970.734 622.515 970.474 622.325 970.474 621.935C970.474 621.525 970.774 621.305 971.384 621.275L972.454 621.205V621.385ZM977.692 618.165C976.962 618.165 976.482 618.425 976.232 618.945V618.225H975.142V623.355H976.262V620.565C976.262 619.805 976.822 619.255 977.692 619.255V618.165ZM984.556 618.135C983.796 618.135 983.236 618.445 982.886 619.065C982.546 618.445 982.006 618.135 981.256 618.135C980.566 618.135 980.066 618.395 979.776 618.905V618.225H978.716V623.355H979.836V620.425C979.836 619.705 980.316 619.175 981.006 619.175C981.616 619.175 982.036 619.655 982.036 620.415V623.355H983.166V620.265V620.235C983.236 619.605 983.646 619.175 984.276 619.175C984.956 619.175 985.346 619.645 985.346 620.415V623.355H986.476V620.245C986.476 619.615 986.296 619.105 985.946 618.715C985.596 618.325 985.126 618.135 984.556 618.135ZM988.102 615.955C987.832 616.225 987.832 616.665 988.102 616.945C988.382 617.215 988.822 617.215 989.102 616.945C989.382 616.665 989.382 616.225 989.102 615.955C988.822 615.675 988.382 615.675 988.102 615.955ZM989.162 618.225H988.042V623.355H989.162V618.225ZM993.347 618.135C992.637 618.135 992.137 618.395 991.847 618.905V618.225H990.787V623.355H991.907V620.425C991.907 619.705 992.387 619.175 993.097 619.175C993.777 619.175 994.217 619.655 994.217 620.415V623.355H995.347V620.265C995.347 619.615 995.157 619.095 994.787 618.715C994.417 618.325 993.937 618.135 993.347 618.135ZM999.069 618.135C998.339 618.135 997.749 618.375 997.289 618.865C996.829 619.345 996.599 619.985 996.599 620.795C996.599 621.605 996.829 622.245 997.289 622.735C997.749 623.215 998.339 623.455 999.069 623.455C999.799 623.455 1000.41 623.175 1000.7 622.745V623.685C1000.7 624.555 1000.14 625.045 999.269 625.045C998.509 625.045 997.959 624.675 997.869 624.075L996.749 624.115C996.959 625.275 997.829 625.995 999.299 625.995C1000.07 625.995 1000.68 625.775 1001.13 625.345C1001.59 624.915 1001.82 624.335 1001.82 623.605V618.225H1000.76V618.945C1000.47 618.465 999.839 618.135 999.069 618.135ZM999.249 619.105C1000.12 619.105 1000.7 619.675 1000.7 620.665V620.935C1000.7 621.925 1000.12 622.495 999.249 622.495C998.359 622.495 997.739 621.865 997.739 620.795C997.739 619.725 998.359 619.105 999.249 619.105Z" fill="white"/>
<rect x="949.875" y="675.207" width="24" height="2" rx="1" fill="#C4C4C4"/>
<rect x="949.875" y="680.207" width="10" height="2" rx="1" fill="#C4C4C4"/>
<rect x="960.875" y="680.207" width="14" height="2" rx="1" fill="#C4C4C4"/>
<circle cx="940.875" cy="679.207" r="5" fill="#C4C4C4"/>
<path d="M1003.55 679.941C1003.55 679.575 1003.42 679.299 1003.18 679.119C1002.93 678.933 1002.54 678.777 1002.01 678.651C1001.64 678.561 1001.38 678.477 1001.23 678.393C1001.09 678.303 1001.02 678.159 1001.02 677.949C1001.02 677.547 1001.32 677.277 1001.85 677.277C1002.35 677.277 1002.68 677.553 1002.71 678.003L1003.43 677.961C1003.41 677.259 1002.92 676.785 1002.17 676.683V676.017H1001.6V676.671C1001.18 676.713 1000.85 676.851 1000.62 677.097C1000.4 677.337 1000.28 677.631 1000.28 677.973C1000.28 678.387 1000.43 678.675 1000.72 678.867C1001.03 679.059 1001.27 679.137 1001.75 679.257C1002.14 679.347 1002.41 679.443 1002.58 679.539C1002.74 679.629 1002.82 679.779 1002.82 679.989C1002.82 680.439 1002.47 680.649 1001.93 680.649C1001.36 680.649 1000.94 680.337 1000.91 679.863L1000.18 679.905C1000.21 680.655 1000.76 681.153 1001.6 681.249V681.915H1002.17V681.255C1002.99 681.183 1003.55 680.739 1003.55 679.941ZM1006.81 677.925C1006.81 677.127 1006.33 676.659 1005.49 676.659C1004.65 676.659 1004.15 677.169 1004.14 678.033L1004.85 678.075C1004.86 677.553 1005.08 677.295 1005.5 677.295C1005.88 677.295 1006.1 677.547 1006.1 677.955C1006.1 678.201 1006.05 678.411 1005.96 678.579C1005.87 678.747 1005.7 678.969 1005.44 679.239L1004.15 680.619V681.207H1006.85V680.571H1005.13L1005.97 679.677C1006.24 679.383 1006.45 679.101 1006.59 678.837C1006.74 678.567 1006.81 678.267 1006.81 677.925ZM1007.74 680.403C1007.51 680.403 1007.32 680.595 1007.32 680.841C1007.32 681.075 1007.51 681.267 1007.74 681.267C1007.98 681.267 1008.18 681.075 1008.18 680.841C1008.18 680.595 1007.98 680.403 1007.74 680.403ZM1012.02 678.963C1012.02 678.231 1011.87 677.667 1011.57 677.265C1011.27 676.863 1010.87 676.659 1010.37 676.659C1009.86 676.659 1009.46 676.863 1009.16 677.265C1008.86 677.667 1008.71 678.231 1008.71 678.963C1008.71 679.689 1008.86 680.259 1009.16 680.661C1009.46 681.063 1009.86 681.267 1010.37 681.267C1010.87 681.267 1011.27 681.063 1011.57 680.661C1011.87 680.259 1012.02 679.689 1012.02 678.963ZM1010.37 677.295C1010.99 677.295 1011.29 677.853 1011.29 678.963C1011.29 680.073 1010.99 680.631 1010.37 680.631C1009.75 680.631 1009.44 680.073 1009.44 678.963C1009.44 677.853 1009.75 677.295 1010.37 677.295ZM1015.29 677.925C1015.29 677.127 1014.8 676.659 1013.96 676.659C1013.12 676.659 1012.63 677.169 1012.61 678.033L1013.33 678.075C1013.33 677.553 1013.56 677.295 1013.98 677.295C1014.36 677.295 1014.58 677.547 1014.58 677.955C1014.58 678.201 1014.53 678.411 1014.44 678.579C1014.35 678.747 1014.17 678.969 1013.92 679.239L1012.63 680.619V681.207H1015.33V680.571H1013.61L1014.44 679.677C1014.71 679.383 1014.92 679.101 1015.07 678.837C1015.22 678.567 1015.29 678.267 1015.29 677.925Z" fill="#BEBEBE"/>
<rect x="949.875" y="699.207" width="24" height="2" rx="1" fill="#C4C4C4"/>
<rect x="949.875" y="704.207" width="10" height="2" rx="1" fill="#C4C4C4"/>
<rect x="960.875" y="704.207" width="14" height="2" rx="1" fill="#C4C4C4"/>
<circle cx="940.875" cy="703.207" r="5" fill="#C4C4C4"/>
<path d="M1003.55 703.941C1003.55 703.575 1003.42 703.299 1003.18 703.119C1002.93 702.933 1002.54 702.777 1002.01 702.651C1001.64 702.561 1001.38 702.477 1001.23 702.393C1001.09 702.303 1001.02 702.159 1001.02 701.949C1001.02 701.547 1001.32 701.277 1001.85 701.277C1002.35 701.277 1002.68 701.553 1002.71 702.003L1003.43 701.961C1003.41 701.259 1002.92 700.785 1002.17 700.683V700.017H1001.6V700.671C1001.18 700.713 1000.85 700.851 1000.62 701.097C1000.4 701.337 1000.28 701.631 1000.28 701.973C1000.28 702.387 1000.43 702.675 1000.72 702.867C1001.03 703.059 1001.27 703.137 1001.75 703.257C1002.14 703.347 1002.41 703.443 1002.58 703.539C1002.74 703.629 1002.82 703.779 1002.82 703.989C1002.82 704.439 1002.47 704.649 1001.93 704.649C1001.36 704.649 1000.94 704.337 1000.91 703.863L1000.18 703.905C1000.21 704.655 1000.76 705.153 1001.6 705.249V705.915H1002.17V705.255C1002.99 705.183 1003.55 704.739 1003.55 703.941ZM1006.81 701.925C1006.81 701.127 1006.33 700.659 1005.49 700.659C1004.65 700.659 1004.15 701.169 1004.14 702.033L1004.85 702.075C1004.86 701.553 1005.08 701.295 1005.5 701.295C1005.88 701.295 1006.1 701.547 1006.1 701.955C1006.1 702.201 1006.05 702.411 1005.96 702.579C1005.87 702.747 1005.7 702.969 1005.44 703.239L1004.15 704.619V705.207H1006.85V704.571H1005.13L1005.97 703.677C1006.24 703.383 1006.45 703.101 1006.59 702.837C1006.74 702.567 1006.81 702.267 1006.81 701.925ZM1007.74 704.403C1007.51 704.403 1007.32 704.595 1007.32 704.841C1007.32 705.075 1007.51 705.267 1007.74 705.267C1007.98 705.267 1008.18 705.075 1008.18 704.841C1008.18 704.595 1007.98 704.403 1007.74 704.403ZM1012.02 702.963C1012.02 702.231 1011.87 701.667 1011.57 701.265C1011.27 700.863 1010.87 700.659 1010.37 700.659C1009.86 700.659 1009.46 700.863 1009.16 701.265C1008.86 701.667 1008.71 702.231 1008.71 702.963C1008.71 703.689 1008.86 704.259 1009.16 704.661C1009.46 705.063 1009.86 705.267 1010.37 705.267C1010.87 705.267 1011.27 705.063 1011.57 704.661C1011.87 704.259 1012.02 703.689 1012.02 702.963ZM1010.37 701.295C1010.99 701.295 1011.29 701.853 1011.29 702.963C1011.29 704.073 1010.99 704.631 1010.37 704.631C1009.75 704.631 1009.44 704.073 1009.44 702.963C1009.44 701.853 1009.75 701.295 1010.37 701.295ZM1015.29 701.925C1015.29 701.127 1014.8 700.659 1013.96 700.659C1013.12 700.659 1012.63 701.169 1012.61 702.033L1013.33 702.075C1013.33 701.553 1013.56 701.295 1013.98 701.295C1014.36 701.295 1014.58 701.547 1014.58 701.955C1014.58 702.201 1014.53 702.411 1014.44 702.579C1014.35 702.747 1014.17 702.969 1013.92 703.239L1012.63 704.619V705.207H1015.33V704.571H1013.61L1014.44 703.677C1014.71 703.383 1014.92 703.101 1015.07 702.837C1015.22 702.567 1015.29 702.267 1015.29 701.925Z" fill="#BEBEBE"/>
<rect x="949.875" y="723.207" width="24" height="2" rx="1" fill="#C4C4C4"/>
<rect x="949.875" y="728.207" width="10" height="2" rx="1" fill="#C4C4C4"/>
<rect x="960.875" y="728.207" width="14" height="2" rx="1" fill="#C4C4C4"/>
<circle cx="940.875" cy="727.207" r="5" fill="#C4C4C4"/>
<path d="M1003.55 727.941C1003.55 727.575 1003.42 727.299 1003.18 727.119C1002.93 726.933 1002.54 726.777 1002.01 726.651C1001.64 726.561 1001.38 726.477 1001.23 726.393C1001.09 726.303 1001.02 726.159 1001.02 725.949C1001.02 725.547 1001.32 725.277 1001.85 725.277C1002.35 725.277 1002.68 725.553 1002.71 726.003L1003.43 725.961C1003.41 725.259 1002.92 724.785 1002.17 724.683V724.017H1001.6V724.671C1001.18 724.713 1000.85 724.851 1000.62 725.097C1000.4 725.337 1000.28 725.631 1000.28 725.973C1000.28 726.387 1000.43 726.675 1000.72 726.867C1001.03 727.059 1001.27 727.137 1001.75 727.257C1002.14 727.347 1002.41 727.443 1002.58 727.539C1002.74 727.629 1002.82 727.779 1002.82 727.989C1002.82 728.439 1002.47 728.649 1001.93 728.649C1001.36 728.649 1000.94 728.337 1000.91 727.863L1000.18 727.905C1000.21 728.655 1000.76 729.153 1001.6 729.249V729.915H1002.17V729.255C1002.99 729.183 1003.55 728.739 1003.55 727.941ZM1006.81 725.925C1006.81 725.127 1006.33 724.659 1005.49 724.659C1004.65 724.659 1004.15 725.169 1004.14 726.033L1004.85 726.075C1004.86 725.553 1005.08 725.295 1005.5 725.295C1005.88 725.295 1006.1 725.547 1006.1 725.955C1006.1 726.201 1006.05 726.411 1005.96 726.579C1005.87 726.747 1005.7 726.969 1005.44 727.239L1004.15 728.619V729.207H1006.85V728.571H1005.13L1005.97 727.677C1006.24 727.383 1006.45 727.101 1006.59 726.837C1006.74 726.567 1006.81 726.267 1006.81 725.925ZM1007.74 728.403C1007.51 728.403 1007.32 728.595 1007.32 728.841C1007.32 729.075 1007.51 729.267 1007.74 729.267C1007.98 729.267 1008.18 729.075 1008.18 728.841C1008.18 728.595 1007.98 728.403 1007.74 728.403ZM1012.02 726.963C1012.02 726.231 1011.87 725.667 1011.57 725.265C1011.27 724.863 1010.87 724.659 1010.37 724.659C1009.86 724.659 1009.46 724.863 1009.16 725.265C1008.86 725.667 1008.71 726.231 1008.71 726.963C1008.71 727.689 1008.86 728.259 1009.16 728.661C1009.46 729.063 1009.86 729.267 1010.37 729.267C1010.87 729.267 1011.27 729.063 1011.57 728.661C1011.87 728.259 1012.02 727.689 1012.02 726.963ZM1010.37 725.295C1010.99 725.295 1011.29 725.853 1011.29 726.963C1011.29 728.073 1010.99 728.631 1010.37 728.631C1009.75 728.631 1009.44 728.073 1009.44 726.963C1009.44 725.853 1009.75 725.295 1010.37 725.295ZM1015.29 725.925C1015.29 725.127 1014.8 724.659 1013.96 724.659C1013.12 724.659 1012.63 725.169 1012.61 726.033L1013.33 726.075C1013.33 725.553 1013.56 725.295 1013.98 725.295C1014.36 725.295 1014.58 725.547 1014.58 725.955C1014.58 726.201 1014.53 726.411 1014.44 726.579C1014.35 726.747 1014.17 726.969 1013.92 727.239L1012.63 728.619V729.207H1015.33V728.571H1013.61L1014.44 727.677C1014.71 727.383 1014.92 727.101 1015.07 726.837C1015.22 726.567 1015.29 726.267 1015.29 725.925Z" fill="#BEBEBE"/>
<rect x="949.875" y="747.207" width="24" height="2" rx="1" fill="#C4C4C4"/>
<rect x="949.875" y="752.207" width="10" height="2" rx="1" fill="#C4C4C4"/>
<rect x="960.875" y="752.207" width="12" height="2" rx="1" fill="#C4C4C4"/>
<circle cx="940.875" cy="751.207" r="5" fill="#C4C4C4"/>
<path d="M1003.55 751.941C1003.55 751.575 1003.42 751.299 1003.18 751.119C1002.93 750.933 1002.54 750.777 1002.01 750.651C1001.64 750.561 1001.38 750.477 1001.23 750.393C1001.09 750.303 1001.02 750.159 1001.02 749.949C1001.02 749.547 1001.32 749.277 1001.85 749.277C1002.35 749.277 1002.68 749.553 1002.71 750.003L1003.43 749.961C1003.41 749.259 1002.92 748.785 1002.17 748.683V748.017H1001.6V748.671C1001.18 748.713 1000.85 748.851 1000.62 749.097C1000.4 749.337 1000.28 749.631 1000.28 749.973C1000.28 750.387 1000.43 750.675 1000.72 750.867C1001.03 751.059 1001.27 751.137 1001.75 751.257C1002.14 751.347 1002.41 751.443 1002.58 751.539C1002.74 751.629 1002.82 751.779 1002.82 751.989C1002.82 752.439 1002.47 752.649 1001.93 752.649C1001.36 752.649 1000.94 752.337 1000.91 751.863L1000.18 751.905C1000.21 752.655 1000.76 753.153 1001.6 753.249V753.915H1002.17V753.255C1002.99 753.183 1003.55 752.739 1003.55 751.941ZM1006.81 749.925C1006.81 749.127 1006.33 748.659 1005.49 748.659C1004.65 748.659 1004.15 749.169 1004.14 750.033L1004.85 750.075C1004.86 749.553 1005.08 749.295 1005.5 749.295C1005.88 749.295 1006.1 749.547 1006.1 749.955C1006.1 750.201 1006.05 750.411 1005.96 750.579C1005.87 750.747 1005.7 750.969 1005.44 751.239L1004.15 752.619V753.207H1006.85V752.571H1005.13L1005.97 751.677C1006.24 751.383 1006.45 751.101 1006.59 750.837C1006.74 750.567 1006.81 750.267 1006.81 749.925ZM1007.74 752.403C1007.51 752.403 1007.32 752.595 1007.32 752.841C1007.32 753.075 1007.51 753.267 1007.74 753.267C1007.98 753.267 1008.18 753.075 1008.18 752.841C1008.18 752.595 1007.98 752.403 1007.74 752.403ZM1012.02 750.963C1012.02 750.231 1011.87 749.667 1011.57 749.265C1011.27 748.863 1010.87 748.659 1010.37 748.659C1009.86 748.659 1009.46 748.863 1009.16 749.265C1008.86 749.667 1008.71 750.231 1008.71 750.963C1008.71 751.689 1008.86 752.259 1009.16 752.661C1009.46 753.063 1009.86 753.267 1010.37 753.267C1010.87 753.267 1011.27 753.063 1011.57 752.661C1011.87 752.259 1012.02 751.689 1012.02 750.963ZM1010.37 749.295C1010.99 749.295 1011.29 749.853 1011.29 750.963C1011.29 752.073 1010.99 752.631 1010.37 752.631C1009.75 752.631 1009.44 752.073 1009.44 750.963C1009.44 749.853 1009.75 749.295 1010.37 749.295ZM1015.29 749.925C1015.29 749.127 1014.8 748.659 1013.96 748.659C1013.12 748.659 1012.63 749.169 1012.61 750.033L1013.33 750.075C1013.33 749.553 1013.56 749.295 1013.98 749.295C1014.36 749.295 1014.58 749.547 1014.58 749.955C1014.58 750.201 1014.53 750.411 1014.44 750.579C1014.35 750.747 1014.17 750.969 1013.92 751.239L1012.63 752.619V753.207H1015.33V752.571H1013.61L1014.44 751.677C1014.71 751.383 1014.92 751.101 1015.07 750.837C1015.22 750.567 1015.29 750.267 1015.29 749.925Z" fill="#BEBEBE"/>
<rect x="949.875" y="771.207" width="24" height="2" rx="1" fill="#C4C4C4"/>
<rect x="949.875" y="776.207" width="10" height="2" rx="1" fill="#C4C4C4"/>
<rect x="960.875" y="776.207" width="14" height="2" rx="1" fill="#C4C4C4"/>
<circle cx="940.875" cy="775.207" r="5" fill="#C4C4C4"/>
<path d="M1003.55 775.941C1003.55 775.575 1003.42 775.299 1003.18 775.119C1002.93 774.933 1002.54 774.777 1002.01 774.651C1001.64 774.561 1001.38 774.477 1001.23 774.393C1001.09 774.303 1001.02 774.159 1001.02 773.949C1001.02 773.547 1001.32 773.277 1001.85 773.277C1002.35 773.277 1002.68 773.553 1002.71 774.003L1003.43 773.961C1003.41 773.259 1002.92 772.785 1002.17 772.683V772.017H1001.6V772.671C1001.18 772.713 1000.85 772.851 1000.62 773.097C1000.4 773.337 1000.28 773.631 1000.28 773.973C1000.28 774.387 1000.43 774.675 1000.72 774.867C1001.03 775.059 1001.27 775.137 1001.75 775.257C1002.14 775.347 1002.41 775.443 1002.58 775.539C1002.74 775.629 1002.82 775.779 1002.82 775.989C1002.82 776.439 1002.47 776.649 1001.93 776.649C1001.36 776.649 1000.94 776.337 1000.91 775.863L1000.18 775.905C1000.21 776.655 1000.76 777.153 1001.6 777.249V777.915H1002.17V777.255C1002.99 777.183 1003.55 776.739 1003.55 775.941ZM1006.81 773.925C1006.81 773.127 1006.33 772.659 1005.49 772.659C1004.65 772.659 1004.15 773.169 1004.14 774.033L1004.85 774.075C1004.86 773.553 1005.08 773.295 1005.5 773.295C1005.88 773.295 1006.1 773.547 1006.1 773.955C1006.1 774.201 1006.05 774.411 1005.96 774.579C1005.87 774.747 1005.7 774.969 1005.44 775.239L1004.15 776.619V777.207H1006.85V776.571H1005.13L1005.97 775.677C1006.24 775.383 1006.45 775.101 1006.59 774.837C1006.74 774.567 1006.81 774.267 1006.81 773.925ZM1007.74 776.403C1007.51 776.403 1007.32 776.595 1007.32 776.841C1007.32 777.075 1007.51 777.267 1007.74 777.267C1007.98 777.267 1008.18 777.075 1008.18 776.841C1008.18 776.595 1007.98 776.403 1007.74 776.403ZM1012.02 774.963C1012.02 774.231 1011.87 773.667 1011.57 773.265C1011.27 772.863 1010.87 772.659 1010.37 772.659C1009.86 772.659 1009.46 772.863 1009.16 773.265C1008.86 773.667 1008.71 774.231 1008.71 774.963C1008.71 775.689 1008.86 776.259 1009.16 776.661C1009.46 777.063 1009.86 777.267 1010.37 777.267C1010.87 777.267 1011.27 777.063 1011.57 776.661C1011.87 776.259 1012.02 775.689 1012.02 774.963ZM1010.37 773.295C1010.99 773.295 1011.29 773.853 1011.29 774.963C1011.29 776.073 1010.99 776.631 1010.37 776.631C1009.75 776.631 1009.44 776.073 1009.44 774.963C1009.44 773.853 1009.75 773.295 1010.37 773.295ZM1015.29 773.925C1015.29 773.127 1014.8 772.659 1013.96 772.659C1013.12 772.659 1012.63 773.169 1012.61 774.033L1013.33 774.075C1013.33 773.553 1013.56 773.295 1013.98 773.295C1014.36 773.295 1014.58 773.547 1014.58 773.955C1014.58 774.201 1014.53 774.411 1014.44 774.579C1014.35 774.747 1014.17 774.969 1013.92 775.239L1012.63 776.619V777.207H1015.33V776.571H1013.61L1014.44 775.677C1014.71 775.383 1014.92 775.101 1015.07 774.837C1015.22 774.567 1015.29 774.267 1015.29 773.925Z" fill="#BEBEBE"/>
<rect x="949.875" y="795.207" width="24" height="2" rx="1" fill="#C4C4C4"/>
<rect x="949.875" y="800.207" width="10" height="2" rx="1" fill="#C4C4C4"/>
<rect x="960.875" y="800.207" width="14" height="2" rx="1" fill="#C4C4C4"/>
<circle cx="940.875" cy="799.207" r="5" fill="#C4C4C4"/>
<path d="M1003.55 799.941C1003.55 799.575 1003.42 799.299 1003.18 799.119C1002.93 798.933 1002.54 798.777 1002.01 798.651C1001.64 798.561 1001.38 798.477 1001.23 798.393C1001.09 798.303 1001.02 798.159 1001.02 797.949C1001.02 797.547 1001.32 797.277 1001.85 797.277C1002.35 797.277 1002.68 797.553 1002.71 798.003L1003.43 797.961C1003.41 797.259 1002.92 796.785 1002.17 796.683V796.017H1001.6V796.671C1001.18 796.713 1000.85 796.851 1000.62 797.097C1000.4 797.337 1000.28 797.631 1000.28 797.973C1000.28 798.387 1000.43 798.675 1000.72 798.867C1001.03 799.059 1001.27 799.137 1001.75 799.257C1002.14 799.347 1002.41 799.443 1002.58 799.539C1002.74 799.629 1002.82 799.779 1002.82 799.989C1002.82 800.439 1002.47 800.649 1001.93 800.649C1001.36 800.649 1000.94 800.337 1000.91 799.863L1000.18 799.905C1000.21 800.655 1000.76 801.153 1001.6 801.249V801.915H1002.17V801.255C1002.99 801.183 1003.55 800.739 1003.55 799.941ZM1006.81 797.925C1006.81 797.127 1006.33 796.659 1005.49 796.659C1004.65 796.659 1004.15 797.169 1004.14 798.033L1004.85 798.075C1004.86 797.553 1005.08 797.295 1005.5 797.295C1005.88 797.295 1006.1 797.547 1006.1 797.955C1006.1 798.201 1006.05 798.411 1005.96 798.579C1005.87 798.747 1005.7 798.969 1005.44 799.239L1004.15 800.619V801.207H1006.85V800.571H1005.13L1005.97 799.677C1006.24 799.383 1006.45 799.101 1006.59 798.837C1006.74 798.567 1006.81 798.267 1006.81 797.925ZM1007.74 800.403C1007.51 800.403 1007.32 800.595 1007.32 800.841C1007.32 801.075 1007.51 801.267 1007.74 801.267C1007.98 801.267 1008.18 801.075 1008.18 800.841C1008.18 800.595 1007.98 800.403 1007.74 800.403ZM1012.02 798.963C1012.02 798.231 1011.87 797.667 1011.57 797.265C1011.27 796.863 1010.87 796.659 1010.37 796.659C1009.86 796.659 1009.46 796.863 1009.16 797.265C1008.86 797.667 1008.71 798.231 1008.71 798.963C1008.71 799.689 1008.86 800.259 1009.16 800.661C1009.46 801.063 1009.86 801.267 1010.37 801.267C1010.87 801.267 1011.27 801.063 1011.57 800.661C1011.87 800.259 1012.02 799.689 1012.02 798.963ZM1010.37 797.295C1010.99 797.295 1011.29 797.853 1011.29 798.963C1011.29 800.073 1010.99 800.631 1010.37 800.631C1009.75 800.631 1009.44 800.073 1009.44 798.963C1009.44 797.853 1009.75 797.295 1010.37 797.295ZM1015.29 797.925C1015.29 797.127 1014.8 796.659 1013.96 796.659C1013.12 796.659 1012.63 797.169 1012.61 798.033L1013.33 798.075C1013.33 797.553 1013.56 797.295 1013.98 797.295C1014.36 797.295 1014.58 797.547 1014.58 797.955C1014.58 798.201 1014.53 798.411 1014.44 798.579C1014.35 798.747 1014.17 798.969 1013.92 799.239L1012.63 800.619V801.207H1015.33V800.571H1013.61L1014.44 799.677C1014.71 799.383 1014.92 799.101 1015.07 798.837C1015.22 798.567 1015.29 798.267 1015.29 797.925Z" fill="#BEBEBE"/>
<rect x="949.875" y="819.207" width="24" height="2" rx="1" fill="#C4C4C4"/>
<rect x="949.875" y="824.207" width="10" height="2" rx="1" fill="#C4C4C4"/>
<rect x="960.875" y="824.207" width="14" height="2" rx="1" fill="#C4C4C4"/>
<circle cx="940.875" cy="823.207" r="5" fill="#C4C4C4"/>
<path d="M1003.55 823.941C1003.55 823.575 1003.42 823.299 1003.18 823.119C1002.93 822.933 1002.54 822.777 1002.01 822.651C1001.64 822.561 1001.38 822.477 1001.23 822.393C1001.09 822.303 1001.02 822.159 1001.02 821.949C1001.02 821.547 1001.32 821.277 1001.85 821.277C1002.35 821.277 1002.68 821.553 1002.71 822.003L1003.43 821.961C1003.41 821.259 1002.92 820.785 1002.17 820.683V820.017H1001.6V820.671C1001.18 820.713 1000.85 820.851 1000.62 821.097C1000.4 821.337 1000.28 821.631 1000.28 821.973C1000.28 822.387 1000.43 822.675 1000.72 822.867C1001.03 823.059 1001.27 823.137 1001.75 823.257C1002.14 823.347 1002.41 823.443 1002.58 823.539C1002.74 823.629 1002.82 823.779 1002.82 823.989C1002.82 824.439 1002.47 824.649 1001.93 824.649C1001.36 824.649 1000.94 824.337 1000.91 823.863L1000.18 823.905C1000.21 824.655 1000.76 825.153 1001.6 825.249V825.915H1002.17V825.255C1002.99 825.183 1003.55 824.739 1003.55 823.941ZM1006.81 821.925C1006.81 821.127 1006.33 820.659 1005.49 820.659C1004.65 820.659 1004.15 821.169 1004.14 822.033L1004.85 822.075C1004.86 821.553 1005.08 821.295 1005.5 821.295C1005.88 821.295 1006.1 821.547 1006.1 821.955C1006.1 822.201 1006.05 822.411 1005.96 822.579C1005.87 822.747 1005.7 822.969 1005.44 823.239L1004.15 824.619V825.207H1006.85V824.571H1005.13L1005.97 823.677C1006.24 823.383 1006.45 823.101 1006.59 822.837C1006.74 822.567 1006.81 822.267 1006.81 821.925ZM1007.74 824.403C1007.51 824.403 1007.32 824.595 1007.32 824.841C1007.32 825.075 1007.51 825.267 1007.74 825.267C1007.98 825.267 1008.18 825.075 1008.18 824.841C1008.18 824.595 1007.98 824.403 1007.74 824.403ZM1012.02 822.963C1012.02 822.231 1011.87 821.667 1011.57 821.265C1011.27 820.863 1010.87 820.659 1010.37 820.659C1009.86 820.659 1009.46 820.863 1009.16 821.265C1008.86 821.667 1008.71 822.231 1008.71 822.963C1008.71 823.689 1008.86 824.259 1009.16 824.661C1009.46 825.063 1009.86 825.267 1010.37 825.267C1010.87 825.267 1011.27 825.063 1011.57 824.661C1011.87 824.259 1012.02 823.689 1012.02 822.963ZM1010.37 821.295C1010.99 821.295 1011.29 821.853 1011.29 822.963C1011.29 824.073 1010.99 824.631 1010.37 824.631C1009.75 824.631 1009.44 824.073 1009.44 822.963C1009.44 821.853 1009.75 821.295 1010.37 821.295ZM1015.29 821.925C1015.29 821.127 1014.8 820.659 1013.96 820.659C1013.12 820.659 1012.63 821.169 1012.61 822.033L1013.33 822.075C1013.33 821.553 1013.56 821.295 1013.98 821.295C1014.36 821.295 1014.58 821.547 1014.58 821.955C1014.58 822.201 1014.53 822.411 1014.44 822.579C1014.35 822.747 1014.17 822.969 1013.92 823.239L1012.63 824.619V825.207H1015.33V824.571H1013.61L1014.44 823.677C1014.71 823.383 1014.92 823.101 1015.07 822.837C1015.22 822.567 1015.29 822.267 1015.29 821.925Z" fill="#BEBEBE"/>
<rect x="949.875" y="843.207" width="24" height="2" rx="1" fill="#C4C4C4"/>
<rect x="949.875" y="848.207" width="10" height="2" rx="1" fill="#C4C4C4"/>
<rect x="960.875" y="848.207" width="14" height="2" rx="1" fill="#C4C4C4"/>
<circle cx="940.875" cy="847.207" r="5" fill="#C4C4C4"/>
<path d="M1003.55 847.941C1003.55 847.575 1003.42 847.299 1003.18 847.119C1002.93 846.933 1002.54 846.777 1002.01 846.651C1001.64 846.561 1001.38 846.477 1001.23 846.393C1001.09 846.303 1001.02 846.159 1001.02 845.949C1001.02 845.547 1001.32 845.277 1001.85 845.277C1002.35 845.277 1002.68 845.553 1002.71 846.003L1003.43 845.961C1003.41 845.259 1002.92 844.785 1002.17 844.683V844.017H1001.6V844.671C1001.18 844.713 1000.85 844.851 1000.62 845.097C1000.4 845.337 1000.28 845.631 1000.28 845.973C1000.28 846.387 1000.43 846.675 1000.72 846.867C1001.03 847.059 1001.27 847.137 1001.75 847.257C1002.14 847.347 1002.41 847.443 1002.58 847.539C1002.74 847.629 1002.82 847.779 1002.82 847.989C1002.82 848.439 1002.47 848.649 1001.93 848.649C1001.36 848.649 1000.94 848.337 1000.91 847.863L1000.18 847.905C1000.21 848.655 1000.76 849.153 1001.6 849.249V849.915H1002.17V849.255C1002.99 849.183 1003.55 848.739 1003.55 847.941ZM1006.81 845.925C1006.81 845.127 1006.33 844.659 1005.49 844.659C1004.65 844.659 1004.15 845.169 1004.14 846.033L1004.85 846.075C1004.86 845.553 1005.08 845.295 1005.5 845.295C1005.88 845.295 1006.1 845.547 1006.1 845.955C1006.1 846.201 1006.05 846.411 1005.96 846.579C1005.87 846.747 1005.7 846.969 1005.44 847.239L1004.15 848.619V849.207H1006.85V848.571H1005.13L1005.97 847.677C1006.24 847.383 1006.45 847.101 1006.59 846.837C1006.74 846.567 1006.81 846.267 1006.81 845.925ZM1007.74 848.403C1007.51 848.403 1007.32 848.595 1007.32 848.841C1007.32 849.075 1007.51 849.267 1007.74 849.267C1007.98 849.267 1008.18 849.075 1008.18 848.841C1008.18 848.595 1007.98 848.403 1007.74 848.403ZM1012.02 846.963C1012.02 846.231 1011.87 845.667 1011.57 845.265C1011.27 844.863 1010.87 844.659 1010.37 844.659C1009.86 844.659 1009.46 844.863 1009.16 845.265C1008.86 845.667 1008.71 846.231 1008.71 846.963C1008.71 847.689 1008.86 848.259 1009.16 848.661C1009.46 849.063 1009.86 849.267 1010.37 849.267C1010.87 849.267 1011.27 849.063 1011.57 848.661C1011.87 848.259 1012.02 847.689 1012.02 846.963ZM1010.37 845.295C1010.99 845.295 1011.29 845.853 1011.29 846.963C1011.29 848.073 1010.99 848.631 1010.37 848.631C1009.75 848.631 1009.44 848.073 1009.44 846.963C1009.44 845.853 1009.75 845.295 1010.37 845.295ZM1015.29 845.925C1015.29 845.127 1014.8 844.659 1013.96 844.659C1013.12 844.659 1012.63 845.169 1012.61 846.033L1013.33 846.075C1013.33 845.553 1013.56 845.295 1013.98 845.295C1014.36 845.295 1014.58 845.547 1014.58 845.955C1014.58 846.201 1014.53 846.411 1014.44 846.579C1014.35 846.747 1014.17 846.969 1013.92 847.239L1012.63 848.619V849.207H1015.33V848.571H1013.61L1014.44 847.677C1014.71 847.383 1014.92 847.101 1015.07 846.837C1015.22 846.567 1015.29 846.267 1015.29 845.925Z" fill="#BEBEBE"/>
<defs>
<filter id="filter0_d_35_3064" x="0.304688" y="0.454346" width="856.043" height="827.992" filterUnits="userSpaceOnUse" color-interpolation-filters="sRGB">
<feFlood flood-opacity="0" result="BackgroundImageFix"/>
<feColorMatrix in="SourceAlpha" type="matrix" values="0 0 0 0 0 0 0 0 0 0 0 0 0 0 0 0 0 0 127 0" result="hardAlpha"/>
<feOffset dx="30" dy="80"/>
<feGaussianBlur stdDeviation="100"/>
<feComposite in2="hardAlpha" operator="out"/>
<feColorMatrix type="matrix" values="0 0 0 0 0 0 0 0 0 0 0 0 0 0 0 0 0 0 0.1 0"/>
<feBlend mode="normal" in2="BackgroundImageFix" result="effect1_dropShadow_35_3064"/>
<feBlend mode="normal" in="SourceGraphic" in2="effect1_dropShadow_35_3064" result="shape"/>
</filter>
<filter id="filter1_d_35_3064" x="485.652" y="0.454346" width="856.043" height="827.992" filterUnits="userSpaceOnUse" color-interpolation-filters="sRGB">
<feFlood flood-opacity="0" result="BackgroundImageFix"/>
<feColorMatrix in="SourceAlpha" type="matrix" values="0 0 0 0 0 0 0 0 0 0 0 0 0 0 0 0 0 0 127 0" result="hardAlpha"/>
<feOffset dx="30" dy="80"/>
<feGaussianBlur stdDeviation="100"/>
<feComposite in2="hardAlpha" operator="out"/>
<feColorMatrix type="matrix" values="0 0 0 0 0 0 0 0 0 0 0 0 0 0 0 0 0 0 0.1 0"/>
<feBlend mode="normal" in2="BackgroundImageFix" result="effect1_dropShadow_35_3064"/>
<feBlend mode="normal" in="SourceGraphic" in2="effect1_dropShadow_35_3064" result="shape"/>
</filter>
<filter id="filter2_d_35_3064" x="0.300781" y="460.901" width="1106.96" height="874.645" filterUnits="userSpaceOnUse" color-interpolation-filters="sRGB">
<feFlood flood-opacity="0" result="BackgroundImageFix"/>
<feColorMatrix in="SourceAlpha" type="matrix" values="0 0 0 0 0 0 0 0 0 0 0 0 0 0 0 0 0 0 127 0" result="hardAlpha"/>
<feOffset dx="30" dy="80"/>
<feGaussianBlur stdDeviation="100"/>
<feComposite in2="hardAlpha" operator="out"/>
<feColorMatrix type="matrix" values="0 0 0 0 0 0 0 0 0 0 0 0 0 0 0 0 0 0 0.1 0"/>
<feBlend mode="normal" in2="BackgroundImageFix" result="effect1_dropShadow_35_3064"/>
<feBlend mode="normal" in="SourceGraphic" in2="effect1_dropShadow_35_3064" result="shape"/>
</filter>
<linearGradient id="paint0_linear_35_3064" x1="458.761" y1="421.671" x2="546.156" y2="931.658" gradientUnits="userSpaceOnUse">
<stop stop-color="#EE6855"/>
<stop offset="1" stop-color="#FEF0EE" stop-opacity="0"/>
</linearGradient>
</defs>
</svg>
