<svg width="5108" height="5118" viewBox="0 0 5108 5118" fill="none" xmlns="http://www.w3.org/2000/svg">
<rect x="24" width="5000" height="5000" rx="18" fill="white"/>
<g filter="url(#filter0_d_35_3064)">
<rect x="170.523" y="162.271" width="2280.22" height="2139.96" rx="10" fill="white"/>
</g>
<path d="M593.037 1609.4C593.037 1607.45 592.365 1605.97 591.053 1605.01C589.741 1604.02 587.661 1603.19 584.845 1602.52C582.861 1602.04 581.485 1601.59 580.685 1601.14C579.917 1600.66 579.533 1599.89 579.533 1598.77C579.533 1596.63 581.165 1595.19 583.981 1595.19C586.669 1595.19 588.429 1596.66 588.557 1599.06L592.429 1598.84C592.301 1595.09 589.677 1592.57 585.677 1592.02V1588.47H582.669V1591.96C580.397 1592.18 578.637 1592.92 577.421 1594.23C576.237 1595.51 575.629 1597.08 575.629 1598.9C575.629 1601.11 576.397 1602.65 577.965 1603.67C579.597 1604.69 580.909 1605.11 583.437 1605.75C585.517 1606.23 586.989 1606.74 587.853 1607.25C588.717 1607.73 589.165 1608.53 589.165 1609.65C589.165 1612.05 587.309 1613.17 584.397 1613.17C581.357 1613.17 579.117 1611.51 578.957 1608.98L575.085 1609.21C575.213 1613.21 578.189 1615.86 582.669 1616.37V1619.93H585.677V1616.41C590.061 1616.02 593.037 1613.65 593.037 1609.4ZM610.451 1598.65C610.451 1594.39 607.859 1591.89 603.379 1591.89C598.899 1591.89 596.275 1594.61 596.179 1599.22L599.987 1599.45C600.019 1596.66 601.203 1595.29 603.475 1595.29C605.491 1595.29 606.643 1596.63 606.643 1598.81C606.643 1600.12 606.387 1601.24 605.907 1602.13C605.427 1603.03 604.499 1604.21 603.123 1605.65L596.243 1613.01V1616.15H610.675V1612.76H601.491L605.939 1607.99C607.379 1606.42 608.499 1604.92 609.267 1603.51C610.067 1602.07 610.451 1600.47 610.451 1598.65ZM623.157 1592.21L614.901 1603.54C613.781 1605.11 613.205 1606.81 613.205 1608.6C613.205 1610.97 613.973 1612.89 615.509 1614.33C617.077 1615.77 619.029 1616.47 621.429 1616.47C623.797 1616.47 625.749 1615.77 627.285 1614.33C628.853 1612.89 629.621 1610.97 629.621 1608.6C629.621 1606.26 628.853 1604.34 627.317 1602.9C625.813 1601.43 623.861 1600.66 621.525 1600.63L627.701 1592.21H623.157ZM621.429 1613.08C618.837 1613.08 617.077 1611.29 617.077 1608.47C617.077 1607.29 617.365 1606.29 617.973 1605.49C618.741 1604.47 619.893 1603.96 621.429 1603.96C624.021 1603.96 625.781 1605.65 625.781 1608.47C625.781 1611.29 623.989 1613.08 621.429 1613.08ZM634.569 1611.86C633.321 1611.86 632.297 1612.89 632.297 1614.2C632.297 1615.45 633.321 1616.47 634.569 1616.47C635.849 1616.47 636.905 1615.45 636.905 1614.2C636.905 1612.89 635.849 1611.86 634.569 1611.86ZM649.563 1592.21L641.307 1603.54C640.187 1605.11 639.611 1606.81 639.611 1608.6C639.611 1610.97 640.379 1612.89 641.915 1614.33C643.483 1615.77 645.435 1616.47 647.835 1616.47C650.203 1616.47 652.155 1615.77 653.691 1614.33C655.259 1612.89 656.027 1610.97 656.027 1608.6C656.027 1606.26 655.259 1604.34 653.723 1602.9C652.219 1601.43 650.267 1600.66 647.931 1600.63L654.107 1592.21H649.563ZM647.835 1613.08C645.243 1613.08 643.483 1611.29 643.483 1608.47C643.483 1607.29 643.771 1606.29 644.379 1605.49C645.147 1604.47 646.299 1603.96 647.835 1603.96C650.427 1603.96 652.187 1605.65 652.187 1608.47C652.187 1611.29 650.395 1613.08 647.835 1613.08ZM672.015 1592.21H668.815L658.223 1607.99V1611.13H668.271V1616.15H672.015V1611.13H675.759V1607.73H672.015V1592.21ZM668.239 1599.09V1607.73H662.415L668.239 1599.09Z" fill="#5C7BFF"/>
<path d="M574.893 1315.17H576.365V1310.45H579.581C580.669 1310.45 581.549 1310.13 582.237 1309.51C582.925 1308.89 583.261 1307.99 583.261 1306.84C583.261 1305.67 582.925 1304.77 582.237 1304.15C581.549 1303.53 580.669 1303.21 579.581 1303.21H574.893V1315.17ZM579.405 1304.5C580.765 1304.5 581.757 1305.32 581.757 1306.84C581.757 1308.33 580.765 1309.16 579.405 1309.16H576.349V1304.5H579.405ZM588.98 1306.92C587.716 1306.92 586.9 1307.49 586.58 1308.25V1307.01H585.236V1315.17H586.612V1310.49C586.612 1309.21 587.556 1308.25 588.98 1308.25V1306.92ZM592.289 1304.07C592.289 1303.56 591.873 1303.16 591.377 1303.16C590.881 1303.16 590.465 1303.56 590.465 1304.07C590.465 1304.57 590.865 1304.97 591.377 1304.97C591.873 1304.97 592.289 1304.57 592.289 1304.07ZM592.049 1307.01H590.673V1315.17H592.049V1307.01ZM598.317 1306.87C597.133 1306.87 596.173 1307.25 595.421 1308.01C594.669 1308.76 594.301 1309.78 594.301 1311.09C594.301 1312.41 594.669 1313.45 595.421 1314.2C596.173 1314.95 597.149 1315.33 598.317 1315.33C600.285 1315.33 601.693 1314.21 601.997 1312.41L600.653 1312.28C600.461 1313.43 599.597 1314.13 598.317 1314.13C596.781 1314.13 595.709 1313 595.709 1311.09C595.709 1309.19 596.765 1308.05 598.317 1308.05C599.549 1308.05 600.493 1308.82 600.637 1310.04L601.981 1309.93C601.869 1308.98 601.469 1308.25 600.781 1307.7C600.109 1307.14 599.293 1306.87 598.317 1306.87ZM611.311 1310.87C611.311 1309.65 610.975 1308.68 610.303 1307.96C609.647 1307.24 608.735 1306.87 607.567 1306.87C606.383 1306.87 605.423 1307.25 604.671 1308.01C603.919 1308.76 603.551 1309.8 603.551 1311.09C603.551 1312.39 603.919 1313.43 604.671 1314.2C605.423 1314.95 606.399 1315.33 607.599 1315.33C608.527 1315.33 609.327 1315.09 609.983 1314.61C610.639 1314.12 611.055 1313.51 611.231 1312.76L609.855 1312.68C609.583 1313.59 608.767 1314.13 607.567 1314.13C606.111 1314.13 605.087 1313.17 605.007 1311.62H611.311V1310.87ZM607.551 1308.07C609.071 1308.07 609.887 1309.03 609.935 1310.5H605.007C605.087 1308.95 606.095 1308.07 607.551 1308.07Z" fill="white"/>
<path d="M1151.03 511.628H1149.09L1146.24 516.234L1143.37 511.628H1141.44L1145.41 517.886V522.1H1147.06V517.886L1151.03 511.628ZM1157.16 518.334C1157.16 517.242 1156.85 516.374 1156.25 515.744C1155.64 515.114 1154.82 514.792 1153.8 514.792C1152.73 514.792 1151.86 515.128 1151.21 515.8C1150.55 516.458 1150.21 517.368 1150.21 518.516C1150.21 519.664 1150.55 520.574 1151.22 521.246C1151.89 521.904 1152.76 522.24 1153.84 522.24C1154.65 522.24 1155.36 522.016 1155.97 521.582C1156.57 521.148 1156.95 520.602 1157.09 519.944L1155.5 519.86C1155.29 520.546 1154.73 520.882 1153.8 520.882C1152.69 520.882 1151.95 520.182 1151.88 519.104H1157.16V518.334ZM1153.78 516.136C1154.92 516.136 1155.53 516.808 1155.57 517.872H1151.89C1151.96 516.766 1152.72 516.136 1153.78 516.136ZM1161.58 514.792C1160.72 514.792 1160.02 515.044 1159.5 515.562C1158.99 516.066 1158.72 516.654 1158.72 517.326L1160.3 517.382C1160.3 516.696 1160.75 516.164 1161.59 516.164C1162.44 516.164 1162.86 516.668 1162.86 517.662V517.872L1161.16 517.97C1159.41 518.068 1158.52 518.796 1158.52 520.14C1158.52 521.47 1159.46 522.24 1160.92 522.24C1161.66 522.24 1162.32 521.974 1162.86 521.456V522.1H1164.45V517.634C1164.45 515.8 1163.42 514.792 1161.58 514.792ZM1162.88 519.342C1162.88 520.392 1162.23 520.924 1161.18 520.924C1160.47 520.924 1160.11 520.658 1160.11 520.112C1160.11 519.538 1160.53 519.23 1161.38 519.188L1162.88 519.09V519.342ZM1170.21 514.834C1169.19 514.834 1168.52 515.198 1168.17 515.926V514.918H1166.64V522.1H1168.21V518.194C1168.21 517.13 1168.99 516.36 1170.21 516.36V514.834ZM1175.23 514.792C1174.24 514.792 1173.54 515.156 1173.13 515.87V514.918H1171.65V522.1H1173.21V517.998C1173.21 516.99 1173.89 516.248 1174.88 516.248C1175.83 516.248 1176.45 516.92 1176.45 517.984V522.1H1178.03V517.774C1178.03 516.864 1177.76 516.136 1177.25 515.604C1176.73 515.058 1176.06 514.792 1175.23 514.792ZM1180.68 520.224C1180.13 520.224 1179.69 520.672 1179.69 521.246C1179.69 521.792 1180.13 522.24 1180.68 522.24C1181.24 522.24 1181.7 521.792 1181.7 521.246C1181.7 520.672 1181.24 520.224 1180.68 520.224ZM1186.5 511.152C1184.82 511.152 1183.75 512.202 1183.75 513.924V514.918H1182.4V516.276H1183.75V522.1H1185.32V516.276H1187.09V514.918H1185.32V513.882C1185.32 513.042 1185.87 512.524 1186.67 512.524C1186.79 512.524 1186.95 512.538 1187.11 512.552V511.194C1186.93 511.166 1186.72 511.152 1186.5 511.152ZM1188.51 511.74C1188.14 512.118 1188.14 512.734 1188.51 513.126C1188.91 513.504 1189.52 513.504 1189.91 513.126C1190.31 512.734 1190.31 512.118 1189.91 511.74C1189.52 511.348 1188.91 511.348 1188.51 511.74ZM1190 514.918H1188.43V522.1H1190V514.918ZM1195.85 514.792C1194.85 514.792 1194.15 515.156 1193.75 515.87V514.918H1192.26V522.1H1193.83V517.998C1193.83 516.99 1194.5 516.248 1195.5 516.248C1196.45 516.248 1197.06 516.92 1197.06 517.984V522.1H1198.65V517.774C1198.65 516.864 1198.38 516.136 1197.86 515.604C1197.34 515.058 1196.67 514.792 1195.85 514.792ZM1203.45 514.792C1202.6 514.792 1201.9 515.044 1201.38 515.562C1200.86 516.066 1200.6 516.654 1200.6 517.326L1202.18 517.382C1202.18 516.696 1202.63 516.164 1203.47 516.164C1204.32 516.164 1204.74 516.668 1204.74 517.662V517.872L1203.03 517.97C1201.28 518.068 1200.4 518.796 1200.4 520.14C1200.4 521.47 1201.34 522.24 1202.79 522.24C1203.54 522.24 1204.19 521.974 1204.74 521.456V522.1H1206.32V517.634C1206.32 515.8 1205.3 514.792 1203.45 514.792ZM1204.75 519.342C1204.75 520.392 1204.11 520.924 1203.06 520.924C1202.35 520.924 1201.98 520.658 1201.98 520.112C1201.98 519.538 1202.4 519.23 1203.26 519.188L1204.75 519.09V519.342ZM1212.1 514.792C1211.11 514.792 1210.41 515.156 1210 515.87V514.918H1208.52V522.1H1210.09V517.998C1210.09 516.99 1210.76 516.248 1211.75 516.248C1212.7 516.248 1213.32 516.92 1213.32 517.984V522.1H1214.9V517.774C1214.9 516.864 1214.64 516.136 1214.12 515.604C1213.6 515.058 1212.93 514.792 1212.1 514.792ZM1220.25 514.792C1219.19 514.792 1218.32 515.128 1217.65 515.786C1216.99 516.444 1216.66 517.354 1216.66 518.516C1216.66 519.664 1216.99 520.574 1217.66 521.246C1218.34 521.904 1219.2 522.24 1220.25 522.24C1222 522.24 1223.29 521.218 1223.57 519.594L1222.03 519.454C1221.88 520.35 1221.22 520.882 1220.25 520.882C1219.08 520.882 1218.25 519.986 1218.25 518.516C1218.25 517.018 1219.06 516.136 1220.25 516.136C1221.21 516.136 1221.91 516.71 1222.02 517.648L1223.56 517.508C1223.32 515.828 1222 514.792 1220.25 514.792ZM1231.78 518.334C1231.78 517.242 1231.47 516.374 1230.87 515.744C1230.26 515.114 1229.44 514.792 1228.42 514.792C1227.35 514.792 1226.48 515.128 1225.83 515.8C1225.17 516.458 1224.83 517.368 1224.83 518.516C1224.83 519.664 1225.17 520.574 1225.84 521.246C1226.51 521.904 1227.38 522.24 1228.46 522.24C1229.27 522.24 1229.98 522.016 1230.59 521.582C1231.19 521.148 1231.57 520.602 1231.71 519.944L1230.12 519.86C1229.91 520.546 1229.35 520.882 1228.42 520.882C1227.31 520.882 1226.57 520.182 1226.5 519.104H1231.78V518.334ZM1228.4 516.136C1229.54 516.136 1230.15 516.808 1230.19 517.872H1226.51C1226.58 516.766 1227.34 516.136 1228.4 516.136ZM1235.9 514.792C1234.18 514.792 1233.17 515.66 1233.17 516.962C1233.17 517.648 1233.38 518.11 1233.89 518.432C1234.15 518.586 1234.4 518.698 1234.64 518.782C1234.88 518.866 1235.23 518.964 1235.66 519.062C1236.29 519.216 1236.7 519.342 1236.91 519.468C1237.12 519.594 1237.22 519.79 1237.22 520.07C1237.22 520.588 1236.73 520.882 1236 520.882C1235.15 520.882 1234.68 520.532 1234.6 519.846L1233.03 519.944C1233.2 521.386 1234.28 522.24 1235.97 522.24C1237.72 522.24 1238.79 521.386 1238.79 519.944C1238.79 518.754 1237.99 518.264 1236.31 517.83L1235.48 517.634C1235.27 517.578 1235.23 517.55 1235.08 517.494C1234.85 517.368 1234.74 517.2 1234.74 516.934C1234.74 516.402 1235.12 516.136 1235.86 516.136C1236.62 516.136 1237.02 516.472 1237.09 517.158L1238.66 517.074C1238.51 515.73 1237.54 514.792 1235.9 514.792Z" fill="#5C7BFF"/>
<ellipse opacity="0.1" cx="774.918" cy="608.519" rx="201.465" ry="223.124" fill="#5C7BFF"/>
<path opacity="0.4" d="M808.991 507.1H740.859C737.38 507.1 734.449 510.345 734.449 514.199C734.449 518.053 737.38 521.298 740.859 521.298H770.713L783.533 540.162C786.372 544.321 786.739 544.929 792.05 544.929H826.116C829.596 544.929 832.984 545.436 836.281 546.451C836.647 548.276 836.83 550.102 836.83 552.029V555.578C836.83 559.432 839.761 562.678 843.24 562.678C846.72 562.678 849.651 559.432 849.651 555.578V551.927C849.468 527.181 831.336 507.1 808.991 507.1Z" fill="white"/>
<path d="M849.469 553.144C845.531 550 841.044 547.668 836.19 546.349C832.985 545.335 829.505 544.828 826.026 544.828H791.96C786.648 544.828 786.282 544.219 783.443 540.061L770.623 521.197C764.67 512.475 760 507.1 745.073 507.1H723.828C701.483 507.1 683.352 527.181 683.352 551.927V665.112C683.352 689.858 701.483 709.939 723.828 709.939H826.026C848.37 709.939 866.502 689.858 866.502 665.112V589.655C866.502 574.544 859.817 561.258 849.469 553.144ZM796.264 649.087H753.59C750.018 649.087 747.179 645.943 747.179 641.988C747.179 638.134 750.018 634.889 753.59 634.889H796.172C799.652 634.889 802.582 638.134 802.582 641.988C802.582 645.943 799.743 649.087 796.264 649.087Z" fill="white"/>
<g filter="url(#filter1_d_35_3064)">
<rect x="2597.26" y="162.271" width="2280.22" height="2139.96" rx="10" fill="white"/>
</g>
<path d="M3019.78 1609.4C3019.78 1607.45 3019.1 1605.97 3017.79 1605.01C3016.48 1604.02 3014.4 1603.19 3011.58 1602.52C3009.6 1602.04 3008.22 1601.59 3007.42 1601.14C3006.66 1600.66 3006.27 1599.89 3006.27 1598.77C3006.27 1596.63 3007.9 1595.19 3010.72 1595.19C3013.41 1595.19 3015.17 1596.66 3015.3 1599.06L3019.17 1598.84C3019.04 1595.09 3016.42 1592.57 3012.42 1592.02V1588.47H3009.41V1591.96C3007.14 1592.18 3005.38 1592.92 3004.16 1594.23C3002.98 1595.51 3002.37 1597.08 3002.37 1598.9C3002.37 1601.11 3003.14 1602.65 3004.7 1603.67C3006.34 1604.69 3007.65 1605.11 3010.18 1605.75C3012.26 1606.23 3013.73 1606.74 3014.59 1607.25C3015.46 1607.73 3015.9 1608.53 3015.9 1609.65C3015.9 1612.05 3014.05 1613.17 3011.14 1613.17C3008.1 1613.17 3005.86 1611.51 3005.7 1608.98L3001.82 1609.21C3001.95 1613.21 3004.93 1615.86 3009.41 1616.37V1619.93H3012.42V1616.41C3016.8 1616.02 3019.78 1613.65 3019.78 1609.4ZM3037.19 1598.65C3037.19 1594.39 3034.6 1591.89 3030.12 1591.89C3025.64 1591.89 3023.01 1594.61 3022.92 1599.22L3026.73 1599.45C3026.76 1596.66 3027.94 1595.29 3030.21 1595.29C3032.23 1595.29 3033.38 1596.63 3033.38 1598.81C3033.38 1600.12 3033.13 1601.24 3032.65 1602.13C3032.17 1603.03 3031.24 1604.21 3029.86 1605.65L3022.98 1613.01V1616.15H3037.41V1612.76H3028.23L3032.68 1607.99C3034.12 1606.42 3035.24 1604.92 3036.01 1603.51C3036.81 1602.07 3037.19 1600.47 3037.19 1598.65ZM3049.9 1592.21L3041.64 1603.54C3040.52 1605.11 3039.94 1606.81 3039.94 1608.6C3039.94 1610.97 3040.71 1612.89 3042.25 1614.33C3043.82 1615.77 3045.77 1616.47 3048.17 1616.47C3050.54 1616.47 3052.49 1615.77 3054.02 1614.33C3055.59 1612.89 3056.36 1610.97 3056.36 1608.6C3056.36 1606.26 3055.59 1604.34 3054.06 1602.9C3052.55 1601.43 3050.6 1600.66 3048.26 1600.63L3054.44 1592.21H3049.9ZM3048.17 1613.08C3045.58 1613.08 3043.82 1611.29 3043.82 1608.47C3043.82 1607.29 3044.1 1606.29 3044.71 1605.49C3045.48 1604.47 3046.63 1603.96 3048.17 1603.96C3050.76 1603.96 3052.52 1605.65 3052.52 1608.47C3052.52 1611.29 3050.73 1613.08 3048.17 1613.08ZM3061.31 1611.86C3060.06 1611.86 3059.04 1612.89 3059.04 1614.2C3059.04 1615.45 3060.06 1616.47 3061.31 1616.47C3062.59 1616.47 3063.64 1615.45 3063.64 1614.2C3063.64 1612.89 3062.59 1611.86 3061.31 1611.86ZM3076.3 1592.21L3068.05 1603.54C3066.93 1605.11 3066.35 1606.81 3066.35 1608.6C3066.35 1610.97 3067.12 1612.89 3068.65 1614.33C3070.22 1615.77 3072.17 1616.47 3074.57 1616.47C3076.94 1616.47 3078.89 1615.77 3080.43 1614.33C3082 1612.89 3082.77 1610.97 3082.77 1608.6C3082.77 1606.26 3082 1604.34 3080.46 1602.9C3078.96 1601.43 3077.01 1600.66 3074.67 1600.63L3080.85 1592.21H3076.3ZM3074.57 1613.08C3071.98 1613.08 3070.22 1611.29 3070.22 1608.47C3070.22 1607.29 3070.51 1606.29 3071.12 1605.49C3071.89 1604.47 3073.04 1603.96 3074.57 1603.96C3077.17 1603.96 3078.93 1605.65 3078.93 1608.47C3078.93 1611.29 3077.13 1613.08 3074.57 1613.08ZM3098.75 1592.21H3095.55L3084.96 1607.99V1611.13H3095.01V1616.15H3098.75V1611.13H3102.5V1607.73H3098.75V1592.21ZM3094.98 1599.09V1607.73H3089.15L3094.98 1599.09Z" fill="#5C7BFF"/>
<path d="M3001.63 1315.17H3003.1V1310.45H3006.32C3007.41 1310.45 3008.29 1310.13 3008.98 1309.51C3009.66 1308.89 3010 1307.99 3010 1306.84C3010 1305.67 3009.66 1304.77 3008.98 1304.15C3008.29 1303.53 3007.41 1303.21 3006.32 1303.21H3001.63V1315.17ZM3006.14 1304.5C3007.5 1304.5 3008.5 1305.32 3008.5 1306.84C3008.5 1308.33 3007.5 1309.16 3006.14 1309.16H3003.09V1304.5H3006.14ZM3015.72 1306.92C3014.45 1306.92 3013.64 1307.49 3013.32 1308.25V1307.01H3011.97V1315.17H3013.35V1310.49C3013.35 1309.21 3014.29 1308.25 3015.72 1308.25V1306.92ZM3019.03 1304.07C3019.03 1303.56 3018.61 1303.16 3018.12 1303.16C3017.62 1303.16 3017.2 1303.56 3017.2 1304.07C3017.2 1304.57 3017.6 1304.97 3018.12 1304.97C3018.61 1304.97 3019.03 1304.57 3019.03 1304.07ZM3018.79 1307.01H3017.41V1315.17H3018.79V1307.01ZM3025.06 1306.87C3023.87 1306.87 3022.91 1307.25 3022.16 1308.01C3021.41 1308.76 3021.04 1309.78 3021.04 1311.09C3021.04 1312.41 3021.41 1313.45 3022.16 1314.2C3022.91 1314.95 3023.89 1315.33 3025.06 1315.33C3027.02 1315.33 3028.43 1314.21 3028.74 1312.41L3027.39 1312.28C3027.2 1313.43 3026.34 1314.13 3025.06 1314.13C3023.52 1314.13 3022.45 1313 3022.45 1311.09C3022.45 1309.19 3023.5 1308.05 3025.06 1308.05C3026.29 1308.05 3027.23 1308.82 3027.38 1310.04L3028.72 1309.93C3028.61 1308.98 3028.21 1308.25 3027.52 1307.7C3026.85 1307.14 3026.03 1306.87 3025.06 1306.87ZM3038.05 1310.87C3038.05 1309.65 3037.71 1308.68 3037.04 1307.96C3036.39 1307.24 3035.47 1306.87 3034.31 1306.87C3033.12 1306.87 3032.16 1307.25 3031.41 1308.01C3030.66 1308.76 3030.29 1309.8 3030.29 1311.09C3030.29 1312.39 3030.66 1313.43 3031.41 1314.2C3032.16 1314.95 3033.14 1315.33 3034.34 1315.33C3035.27 1315.33 3036.07 1315.09 3036.72 1314.61C3037.38 1314.12 3037.79 1313.51 3037.97 1312.76L3036.59 1312.68C3036.32 1313.59 3035.51 1314.13 3034.31 1314.13C3032.85 1314.13 3031.83 1313.17 3031.75 1311.62H3038.05V1310.87ZM3034.29 1308.07C3035.81 1308.07 3036.63 1309.03 3036.67 1310.5H3031.75C3031.83 1308.95 3032.83 1308.07 3034.29 1308.07Z" fill="#5C7BFF"/>
<path d="M3577.76 511.628H3575.83L3572.98 516.234L3570.11 511.628H3568.17L3572.15 517.886V522.1H3573.8V517.886L3577.76 511.628ZM3583.89 518.334C3583.89 517.242 3583.59 516.374 3582.98 515.744C3582.38 515.114 3581.56 514.792 3580.53 514.792C3579.47 514.792 3578.6 515.128 3577.94 515.8C3577.29 516.458 3576.95 517.368 3576.95 518.516C3576.95 519.664 3577.29 520.574 3577.96 521.246C3578.63 521.904 3579.5 522.24 3580.58 522.24C3581.39 522.24 3582.1 522.016 3582.7 521.582C3583.31 521.148 3583.68 520.602 3583.82 519.944L3582.24 519.86C3582.03 520.546 3581.47 520.882 3580.53 520.882C3579.43 520.882 3578.69 520.182 3578.62 519.104H3583.89V518.334ZM3580.52 516.136C3581.65 516.136 3582.27 516.808 3582.31 517.872H3578.63C3578.7 516.766 3579.46 516.136 3580.52 516.136ZM3588.31 514.792C3587.46 514.792 3586.76 515.044 3586.24 515.562C3585.72 516.066 3585.46 516.654 3585.46 517.326L3587.04 517.382C3587.04 516.696 3587.49 516.164 3588.33 516.164C3589.18 516.164 3589.6 516.668 3589.6 517.662V517.872L3587.89 517.97C3586.14 518.068 3585.26 518.796 3585.26 520.14C3585.26 521.47 3586.2 522.24 3587.66 522.24C3588.4 522.24 3589.06 521.974 3589.6 521.456V522.1H3591.18V517.634C3591.18 515.8 3590.16 514.792 3588.31 514.792ZM3589.62 519.342C3589.62 520.392 3588.97 520.924 3587.92 520.924C3587.21 520.924 3586.84 520.658 3586.84 520.112C3586.84 519.538 3587.26 519.23 3588.12 519.188L3589.62 519.09V519.342ZM3596.95 514.834C3595.93 514.834 3595.26 515.198 3594.91 515.926V514.918H3593.38V522.1H3594.95V518.194C3594.95 517.13 3595.73 516.36 3596.95 516.36V514.834ZM3601.97 514.792C3600.97 514.792 3600.27 515.156 3599.87 515.87V514.918H3598.38V522.1H3599.95V517.998C3599.95 516.99 3600.62 516.248 3601.62 516.248C3602.57 516.248 3603.19 516.92 3603.19 517.984V522.1H3604.77V517.774C3604.77 516.864 3604.5 516.136 3603.98 515.604C3603.47 515.058 3602.79 514.792 3601.97 514.792ZM3607.42 520.224C3606.87 520.224 3606.42 520.672 3606.42 521.246C3606.42 521.792 3606.87 522.24 3607.42 522.24C3607.98 522.24 3608.44 521.792 3608.44 521.246C3608.44 520.672 3607.98 520.224 3607.42 520.224ZM3613.24 511.152C3611.56 511.152 3610.49 512.202 3610.49 513.924V514.918H3609.13V516.276H3610.49V522.1H3612.06V516.276H3613.82V514.918H3612.06V513.882C3612.06 513.042 3612.61 512.524 3613.4 512.524C3613.53 512.524 3613.68 512.538 3613.85 512.552V511.194C3613.67 511.166 3613.46 511.152 3613.24 511.152ZM3615.25 511.74C3614.87 512.118 3614.87 512.734 3615.25 513.126C3615.64 513.504 3616.26 513.504 3616.65 513.126C3617.04 512.734 3617.04 512.118 3616.65 511.74C3616.26 511.348 3615.64 511.348 3615.25 511.74ZM3616.74 514.918H3615.17V522.1H3616.74V514.918ZM3622.59 514.792C3621.59 514.792 3620.89 515.156 3620.49 515.87V514.918H3619V522.1H3620.57V517.998C3620.57 516.99 3621.24 516.248 3622.24 516.248C3623.19 516.248 3623.8 516.92 3623.8 517.984V522.1H3625.39V517.774C3625.39 516.864 3625.12 516.136 3624.6 515.604C3624.08 515.058 3623.41 514.792 3622.59 514.792ZM3630.19 514.792C3629.34 514.792 3628.64 515.044 3628.12 515.562C3627.6 516.066 3627.34 516.654 3627.34 517.326L3628.92 517.382C3628.92 516.696 3629.37 516.164 3630.21 516.164C3631.06 516.164 3631.48 516.668 3631.48 517.662V517.872L3629.77 517.97C3628.02 518.068 3627.14 518.796 3627.14 520.14C3627.14 521.47 3628.08 522.24 3629.53 522.24C3630.28 522.24 3630.93 521.974 3631.48 521.456V522.1H3633.06V517.634C3633.06 515.8 3632.04 514.792 3630.19 514.792ZM3631.49 519.342C3631.49 520.392 3630.85 520.924 3629.8 520.924C3629.09 520.924 3628.72 520.658 3628.72 520.112C3628.72 519.538 3629.14 519.23 3630 519.188L3631.49 519.09V519.342ZM3638.84 514.792C3637.85 514.792 3637.15 515.156 3636.74 515.87V514.918H3635.26V522.1H3636.83V517.998C3636.83 516.99 3637.5 516.248 3638.49 516.248C3639.44 516.248 3640.06 516.92 3640.06 517.984V522.1H3641.64V517.774C3641.64 516.864 3641.38 516.136 3640.86 515.604C3640.34 515.058 3639.67 514.792 3638.84 514.792ZM3646.99 514.792C3645.93 514.792 3645.06 515.128 3644.39 515.786C3643.73 516.444 3643.39 517.354 3643.39 518.516C3643.39 519.664 3643.73 520.574 3644.4 521.246C3645.07 521.904 3645.94 522.24 3646.99 522.24C3648.74 522.24 3650.03 521.218 3650.31 519.594L3648.77 519.454C3648.62 520.35 3647.96 520.882 3646.99 520.882C3645.82 520.882 3644.99 519.986 3644.99 518.516C3644.99 517.018 3645.8 516.136 3646.99 516.136C3647.94 516.136 3648.64 516.71 3648.76 517.648L3650.3 517.508C3650.06 515.828 3648.74 514.792 3646.99 514.792ZM3658.51 518.334C3658.51 517.242 3658.21 516.374 3657.6 515.744C3657 515.114 3656.18 514.792 3655.15 514.792C3654.09 514.792 3653.22 515.128 3652.56 515.8C3651.91 516.458 3651.57 517.368 3651.57 518.516C3651.57 519.664 3651.91 520.574 3652.58 521.246C3653.25 521.904 3654.12 522.24 3655.2 522.24C3656.01 522.24 3656.72 522.016 3657.32 521.582C3657.93 521.148 3658.3 520.602 3658.44 519.944L3656.86 519.86C3656.65 520.546 3656.09 520.882 3655.15 520.882C3654.05 520.882 3653.31 520.182 3653.24 519.104H3658.51V518.334ZM3655.14 516.136C3656.27 516.136 3656.89 516.808 3656.93 517.872H3653.25C3653.32 516.766 3654.08 516.136 3655.14 516.136ZM3662.64 514.792C3660.92 514.792 3659.91 515.66 3659.91 516.962C3659.91 517.648 3660.12 518.11 3660.63 518.432C3660.89 518.586 3661.14 518.698 3661.38 518.782C3661.62 518.866 3661.97 518.964 3662.4 519.062C3663.03 519.216 3663.44 519.342 3663.65 519.468C3663.86 519.594 3663.96 519.79 3663.96 520.07C3663.96 520.588 3663.47 520.882 3662.74 520.882C3661.89 520.882 3661.42 520.532 3661.34 519.846L3659.77 519.944C3659.94 521.386 3661.02 522.24 3662.71 522.24C3664.46 522.24 3665.53 521.386 3665.53 519.944C3665.53 518.754 3664.73 518.264 3663.05 517.83L3662.22 517.634C3662.01 517.578 3661.97 517.55 3661.82 517.494C3661.59 517.368 3661.48 517.2 3661.48 516.934C3661.48 516.402 3661.86 516.136 3662.6 516.136C3663.36 516.136 3663.76 516.472 3663.83 517.158L3665.4 517.074C3665.25 515.73 3664.28 514.792 3662.64 514.792Z" fill="#5C7BFF"/>
<ellipse opacity="0.1" cx="3201.66" cy="608.519" rx="201.465" ry="223.124" fill="#5C7BFF"/>
<path opacity="0.4" d="M3235.73 507.1H3167.6C3164.12 507.1 3161.19 510.345 3161.19 514.199C3161.19 518.053 3164.12 521.298 3167.6 521.298H3197.45L3210.27 540.162C3213.11 544.321 3213.48 544.929 3218.79 544.929H3252.85C3256.33 544.929 3259.72 545.436 3263.02 546.451C3263.39 548.276 3263.57 550.102 3263.57 552.029V555.578C3263.57 559.432 3266.5 562.678 3269.98 562.678C3273.46 562.678 3276.39 559.432 3276.39 555.578V551.927C3276.21 527.181 3258.07 507.1 3235.73 507.1Z" fill="white"/>
<path d="M3276.21 553.144C3272.27 550 3267.78 547.668 3262.93 546.349C3259.72 545.335 3256.24 544.828 3252.76 544.828H3218.7C3213.39 544.828 3213.02 544.219 3210.18 540.061L3197.36 521.197C3191.41 512.475 3186.74 507.1 3171.81 507.1H3150.57C3128.22 507.1 3110.09 527.181 3110.09 551.927V665.112C3110.09 689.858 3128.22 709.939 3150.57 709.939H3252.76C3275.11 709.939 3293.24 689.858 3293.24 665.112V589.655C3293.24 574.544 3286.56 561.258 3276.21 553.144ZM3223 649.087H3180.33C3176.76 649.087 3173.92 645.943 3173.92 641.988C3173.92 638.134 3176.76 634.889 3180.33 634.889H3222.91C3226.39 634.889 3229.32 638.134 3229.32 641.988C3229.32 645.943 3226.48 649.087 3223 649.087Z" fill="white"/>
<g filter="url(#filter2_d_35_3064)">
<rect x="170.504" y="2464.5" width="3534.8" height="2373.23" rx="10" fill="white"/>
</g>
<g opacity="0.2">
<rect x="621.793" y="2823.19" width="10.1955" height="1422.74" fill="#B9C1D9"/>
<rect x="958.258" y="2823.19" width="10.1955" height="1422.74" fill="#B9C1D9"/>
<rect x="1294.68" y="2823.19" width="10.1955" height="1422.74" fill="#B9C1D9"/>
<rect x="1631.17" y="2823.19" width="10.1955" height="1422.74" fill="#B9C1D9"/>
<rect x="1967.59" y="2823.19" width="10.1955" height="1422.74" fill="#B9C1D9"/>
<rect x="2304.06" y="2823.19" width="10.1955" height="1422.74" fill="#B9C1D9"/>
<rect x="2640.48" y="2823.19" width="10.1955" height="1422.74" fill="#B9C1D9"/>
<rect x="2976.95" y="2823.19" width="10.1955" height="1422.74" fill="#B9C1D9"/>
<rect x="3314.49" y="4231.8" width="10.0882" height="2687.1" transform="rotate(90 3314.49 4231.8)" fill="#B9C1D9"/>
<rect x="3314.49" y="3858.54" width="10.0882" height="2687.1" transform="rotate(90 3314.49 3858.54)" fill="#B9C1D9"/>
<rect x="3314.49" y="3485.29" width="10.0882" height="2687.1" transform="rotate(90 3314.49 3485.29)" fill="#B9C1D9"/>
<rect x="3314.49" y="3112.02" width="10.0882" height="2687.1" transform="rotate(90 3314.49 3112.02)" fill="#B9C1D9"/>
<rect x="3314.49" y="2828.05" width="10.0882" height="2687.1" transform="rotate(90 3314.49 2828.05)" fill="#B9C1D9"/>
<rect x="3313.39" y="2823.19" width="10.1955" height="1422.74" fill="#B9C1D9"/>
</g>
<path d="M546.83 4227.27C546.083 4227.27 545.489 4227.58 545.048 4228.18C544.616 4228.79 544.4 4229.63 544.4 4230.73C544.4 4231.83 544.616 4232.68 545.048 4233.29C545.489 4233.89 546.083 4234.19 546.83 4234.19C547.568 4234.19 548.153 4233.89 548.585 4233.29C549.026 4232.68 549.242 4231.83 549.242 4230.73C549.242 4229.63 549.026 4228.79 548.585 4228.18C548.153 4227.58 547.568 4227.27 546.83 4227.27ZM548 4228.7C548.279 4229.16 548.414 4229.84 548.414 4230.73C548.414 4231.62 548.279 4232.3 548 4232.75C547.73 4233.21 547.334 4233.45 546.821 4233.45C546.308 4233.45 545.912 4233.21 545.642 4232.75C545.372 4232.3 545.237 4231.62 545.237 4230.73C545.237 4229.84 545.372 4229.16 545.642 4228.7C545.912 4228.25 546.308 4228.01 546.821 4228.01C547.334 4228.01 547.73 4228.25 548 4228.7ZM551.272 4227.1H550.498V4234.1H551.272V4232.56L551.767 4232.07L553.477 4234.1H554.467L552.316 4231.5L554.251 4229.51H553.288L551.272 4231.52V4227.1Z" fill="#B9C1D9"/>
<path d="M547.177 3854.02C545.953 3854.02 545.224 3854.74 545.179 3855.92L545.989 3855.97C546.052 3855.19 546.466 3854.75 547.177 3854.75C547.861 3854.75 548.284 3855.15 548.284 3855.86C548.284 3856.55 547.798 3856.99 547.105 3856.99H546.466V3857.72H547.123C547.924 3857.72 548.455 3858.14 548.455 3858.92C548.455 3859.71 547.978 3860.19 547.195 3860.19C546.412 3860.19 545.971 3859.73 545.899 3858.9L545.071 3858.95C545.152 3860.18 545.899 3860.93 547.195 3860.93C547.825 3860.93 548.329 3860.75 548.707 3860.39C549.094 3860.03 549.283 3859.54 549.283 3858.94C549.283 3858.08 548.824 3857.51 548.149 3857.35C548.716 3857.14 549.112 3856.62 549.112 3855.86C549.112 3854.74 548.374 3854.02 547.177 3854.02ZM551.259 3853.84H550.485V3860.84H551.259V3859.3L551.754 3858.81L553.464 3860.84H554.454L552.303 3858.25L554.238 3856.25H553.275L551.259 3858.26V3853.84Z" fill="#B9C1D9"/>
<path d="M547.058 3483.28C546.959 3483.28 546.878 3483.28 546.833 3483.29L548.651 3480.85H547.679L545.258 3484.09C544.952 3484.5 544.799 3484.97 544.799 3485.48C544.799 3486.14 545.006 3486.66 545.429 3487.07C545.852 3487.47 546.401 3487.67 547.058 3487.67C547.706 3487.67 548.246 3487.47 548.669 3487.07C549.092 3486.66 549.308 3486.14 549.308 3485.48C549.308 3484.83 549.092 3484.3 548.669 3483.89C548.246 3483.49 547.706 3483.28 547.058 3483.28ZM547.058 3486.93C546.221 3486.93 545.627 3486.36 545.627 3485.46C545.627 3485.07 545.726 3484.75 545.924 3484.5C546.185 3484.17 546.563 3484 547.058 3484C547.886 3484 548.48 3484.57 548.48 3485.46C548.48 3486.35 547.886 3486.93 547.058 3486.93ZM551.259 3480.59H550.485V3487.58H551.259V3486.04L551.754 3485.56L553.464 3487.58H554.454L552.303 3484.99L554.238 3482.99H553.275L551.259 3485.01V3480.59Z" fill="#B9C1D9"/>
<path d="M547.022 3107.5C546.374 3107.5 545.834 3107.7 545.411 3108.1C544.988 3108.51 544.772 3109.03 544.772 3109.69C544.772 3110.35 544.988 3110.88 545.411 3111.28C545.834 3111.69 546.374 3111.89 547.022 3111.89C547.121 3111.89 547.202 3111.89 547.247 3111.88L545.429 3114.32H546.401L548.822 3111.08C549.128 3110.67 549.281 3110.2 549.281 3109.69C549.281 3109.03 549.065 3108.51 548.642 3108.1C548.219 3107.7 547.679 3107.5 547.022 3107.5ZM547.022 3111.17C546.194 3111.17 545.6 3110.61 545.6 3109.72C545.6 3108.82 546.194 3108.24 547.022 3108.24C547.859 3108.24 548.453 3108.82 548.453 3109.72C548.453 3110.1 548.354 3110.42 548.156 3110.67C547.895 3111 547.517 3111.17 547.022 3111.17ZM551.259 3107.33H550.485V3114.32H551.259V3112.78L551.754 3112.3L553.464 3114.32H554.454L552.303 3111.73L554.238 3109.73H553.275L551.259 3111.75V3107.33Z" fill="#B9C1D9"/>
<path d="M547.022 2794.23C546.374 2794.23 545.834 2794.43 545.411 2794.83C544.988 2795.24 544.772 2795.76 544.772 2796.42C544.772 2797.07 544.988 2797.61 545.411 2798.01C545.834 2798.42 546.374 2798.62 547.022 2798.62C547.121 2798.62 547.202 2798.62 547.247 2798.61L545.429 2801.05H546.401L548.822 2797.81C549.128 2797.4 549.281 2796.93 549.281 2796.42C549.281 2795.76 549.065 2795.24 548.642 2794.83C548.219 2794.43 547.679 2794.23 547.022 2794.23ZM547.022 2797.9C546.194 2797.9 545.6 2797.34 545.6 2796.44C545.6 2795.55 546.194 2794.97 547.022 2794.97C547.859 2794.97 548.453 2795.54 548.453 2796.44C548.453 2796.83 548.354 2797.15 548.156 2797.4C547.895 2797.73 547.517 2797.9 547.022 2797.9ZM551.259 2794.06H550.485V2801.05H551.259V2799.51L551.754 2799.03L553.464 2801.05H554.454L552.303 2798.46L554.238 2796.46H553.275L551.259 2798.48V2794.06Z" fill="#B9C1D9"/>
<path d="M784.827 4394.04H784.116L781.227 4399.53L778.338 4394.04H777.618V4400.77H778.446V4395.9L780.957 4400.72H781.506L784.008 4395.9V4400.77H784.827V4394.04ZM786.784 4396.76C786.343 4397.19 786.118 4397.76 786.118 4398.47C786.118 4399.19 786.343 4399.76 786.784 4400.2C787.234 4400.64 787.801 4400.86 788.476 4400.86C789.151 4400.86 789.718 4400.64 790.159 4400.2C790.609 4399.76 790.834 4399.19 790.834 4398.47C790.834 4397.76 790.609 4397.19 790.159 4396.76C789.718 4396.31 789.151 4396.1 788.476 4396.1C787.801 4396.1 787.234 4396.31 786.784 4396.76ZM789.601 4397.23C789.898 4397.54 790.051 4397.95 790.051 4398.47C790.051 4399 789.898 4399.41 789.601 4399.73C789.304 4400.03 788.935 4400.18 788.476 4400.18C788.017 4400.18 787.639 4400.03 787.342 4399.73C787.045 4399.41 786.901 4399 786.901 4398.47C786.901 4397.95 787.045 4397.54 787.342 4397.23C787.639 4396.93 788.017 4396.77 788.476 4396.77C788.935 4396.77 789.304 4396.93 789.601 4397.23ZM794.271 4396.1C793.587 4396.1 793.083 4396.42 792.84 4396.86V4396.18H792.102V4400.77H792.876V4398.09C792.876 4397.74 792.993 4397.43 793.218 4397.19C793.452 4396.94 793.749 4396.82 794.109 4396.82C794.802 4396.82 795.27 4397.32 795.27 4398.08V4400.77H796.053V4397.98C796.053 4397.41 795.882 4396.95 795.549 4396.61C795.216 4396.27 794.793 4396.1 794.271 4396.1Z" fill="#B9C1D9"/>
<path d="M781.188 4566.2H780.384L777.984 4568.04L778.524 4568.89L780.108 4567.68V4575.18H781.188V4566.2ZM785.761 4569.67C785.197 4569.67 784.681 4569.81 784.225 4570.1V4567.17H788.101V4566.2H783.145V4571.18H784.153C784.597 4570.82 785.101 4570.64 785.653 4570.64C786.673 4570.64 787.345 4571.36 787.345 4572.45C787.345 4573.56 786.721 4574.31 785.629 4574.31C784.585 4574.31 784.021 4573.71 783.925 4572.67L782.821 4572.73C782.929 4574.33 783.937 4575.3 785.617 4575.3C786.493 4575.3 787.177 4575.03 787.681 4574.51C788.185 4573.98 788.437 4573.28 788.437 4572.43C788.437 4571.58 788.185 4570.91 787.693 4570.41C787.201 4569.92 786.553 4569.67 785.761 4569.67Z" fill="#273052"/>
<path d="M1126.48 4394.04H1120.64V4394.77H1123.15V4400.77H1123.97V4394.77H1126.48V4394.04ZM1130.2 4396.18H1129.43V4398.86C1129.43 4399.57 1128.98 4400.13 1128.27 4400.13C1127.58 4400.13 1127.19 4399.66 1127.19 4398.91V4396.18H1126.41V4399.01C1126.41 4399.56 1126.57 4400.01 1126.86 4400.36C1127.17 4400.69 1127.58 4400.86 1128.09 4400.86C1128.8 4400.86 1129.28 4400.51 1129.47 4400.09V4400.77H1130.2V4396.18ZM1135.83 4398.35C1135.83 4397.66 1135.64 4397.12 1135.26 4396.71C1134.89 4396.31 1134.38 4396.1 1133.72 4396.1C1133.05 4396.1 1132.51 4396.31 1132.09 4396.74C1131.67 4397.16 1131.46 4397.75 1131.46 4398.47C1131.46 4399.2 1131.67 4399.79 1132.09 4400.22C1132.51 4400.64 1133.06 4400.86 1133.74 4400.86C1134.26 4400.86 1134.71 4400.72 1135.08 4400.45C1135.45 4400.18 1135.68 4399.83 1135.78 4399.41L1135.01 4399.37C1134.85 4399.88 1134.4 4400.18 1133.72 4400.18C1132.9 4400.18 1132.33 4399.64 1132.28 4398.77H1135.83V4398.35ZM1133.71 4396.77C1134.57 4396.77 1135.03 4397.31 1135.05 4398.14H1132.28C1132.33 4397.27 1132.89 4396.77 1133.71 4396.77Z" fill="#B9C1D9"/>
<path d="M1127.1 4566.2H1126.3L1123.9 4568.04L1124.44 4568.89L1126.02 4567.68V4575.18H1127.1V4566.2ZM1131.78 4569.44C1131.65 4569.44 1131.54 4569.44 1131.48 4569.45L1133.91 4566.2H1132.61L1129.38 4570.52C1128.98 4571.07 1128.77 4571.7 1128.77 4572.38C1128.77 4573.26 1129.05 4573.95 1129.61 4574.49C1130.18 4575.03 1130.91 4575.3 1131.78 4575.3C1132.65 4575.3 1133.37 4575.03 1133.93 4574.49C1134.5 4573.95 1134.78 4573.26 1134.78 4572.38C1134.78 4571.51 1134.5 4570.8 1133.93 4570.26C1133.37 4569.72 1132.65 4569.44 1131.78 4569.44ZM1131.78 4574.31C1130.67 4574.31 1129.88 4573.55 1129.88 4572.35C1129.88 4571.83 1130.01 4571.41 1130.27 4571.07C1130.62 4570.63 1131.12 4570.4 1131.78 4570.4C1132.89 4570.4 1133.68 4571.16 1133.68 4572.35C1133.68 4573.53 1132.89 4574.31 1131.78 4574.31Z" fill="#273052"/>
<path d="M1465.03 4394.04H1464.15L1462.33 4399.32L1460.52 4394.04H1459.84L1458.04 4399.32L1456.22 4394.04H1455.33L1457.68 4400.77H1458.38L1460.18 4395.55L1461.99 4400.77H1462.68L1465.03 4394.04ZM1469.34 4398.35C1469.34 4397.66 1469.15 4397.12 1468.77 4396.71C1468.4 4396.31 1467.89 4396.1 1467.23 4396.1C1466.57 4396.1 1466.03 4396.31 1465.6 4396.74C1465.18 4397.16 1464.97 4397.75 1464.97 4398.47C1464.97 4399.2 1465.18 4399.79 1465.6 4400.22C1466.03 4400.64 1466.58 4400.86 1467.25 4400.86C1467.77 4400.86 1468.22 4400.72 1468.59 4400.45C1468.96 4400.18 1469.2 4399.83 1469.29 4399.41L1468.52 4399.37C1468.37 4399.88 1467.91 4400.18 1467.23 4400.18C1466.41 4400.18 1465.84 4399.64 1465.79 4398.77H1469.34V4398.35ZM1467.22 4396.77C1468.08 4396.77 1468.54 4397.31 1468.57 4398.14H1465.79C1465.84 4397.27 1466.41 4396.77 1467.22 4396.77ZM1474.86 4393.78H1474.09V4396.87C1473.83 4396.41 1473.25 4396.1 1472.51 4396.1C1471.87 4396.1 1471.34 4396.31 1470.91 4396.75C1470.5 4397.18 1470.29 4397.75 1470.29 4398.48C1470.29 4399.21 1470.5 4399.79 1470.91 4400.22C1471.34 4400.64 1471.87 4400.86 1472.51 4400.86C1473.26 4400.86 1473.86 4400.52 1474.14 4400.02V4400.77H1474.86V4393.78ZM1472.61 4396.77C1473.49 4396.77 1474.09 4397.33 1474.09 4398.34V4398.61C1474.09 4399.62 1473.49 4400.18 1472.61 4400.18C1471.71 4400.18 1471.08 4399.55 1471.08 4398.47C1471.08 4397.4 1471.71 4396.77 1472.61 4396.77Z" fill="#B9C1D9"/>
<path d="M1468.6 4566.2H1467.79L1465.39 4568.04L1465.93 4568.89L1467.52 4567.68V4575.18H1468.6V4566.2ZM1475.88 4566.2H1469.98V4567.17H1474.67L1470.46 4575.18H1471.67L1475.88 4567.09V4566.2Z" fill="#273052"/>
<path d="M1804.54 4394.04H1798.71V4394.77H1801.21V4400.77H1802.04V4394.77H1804.54V4394.04ZM1805.47 4393.78V4400.77H1806.25V4398.09C1806.25 4397.74 1806.36 4397.43 1806.59 4397.19C1806.82 4396.94 1807.12 4396.82 1807.48 4396.82C1808.17 4396.82 1808.64 4397.32 1808.64 4398.08V4400.77H1809.42V4397.98C1809.42 4397.41 1809.25 4396.95 1808.92 4396.61C1808.59 4396.27 1808.16 4396.1 1807.64 4396.1C1806.99 4396.1 1806.47 4396.41 1806.25 4396.81V4393.78H1805.47ZM1814.65 4396.18H1813.88V4398.86C1813.88 4399.57 1813.43 4400.13 1812.71 4400.13C1812.03 4400.13 1811.63 4399.66 1811.63 4398.91V4396.18H1810.86V4399.01C1810.86 4399.56 1811.01 4400.01 1811.31 4400.36C1811.62 4400.69 1812.02 4400.86 1812.53 4400.86C1813.25 4400.86 1813.72 4400.51 1813.91 4400.09V4400.77H1814.65V4396.18Z" fill="#B9C1D9"/>
<path d="M1801.14 4566.2H1800.34L1797.94 4568.04L1798.48 4568.89L1800.06 4567.68V4575.18H1801.14V4566.2ZM1805.84 4566.08C1805.04 4566.08 1804.4 4566.3 1803.89 4566.73C1803.39 4567.16 1803.14 4567.75 1803.14 4568.49C1803.14 4569.42 1803.62 4570.13 1804.35 4570.45C1803.48 4570.82 1802.92 4571.61 1802.92 4572.67C1802.92 4573.47 1803.2 4574.11 1803.74 4574.59C1804.29 4575.06 1804.98 4575.3 1805.84 4575.3C1806.69 4575.3 1807.4 4575.06 1807.94 4574.59C1808.49 4574.11 1808.76 4573.47 1808.76 4572.67C1808.76 4571.6 1808.19 4570.81 1807.32 4570.44C1808.04 4570.1 1808.54 4569.41 1808.54 4568.49C1808.54 4567.76 1808.28 4567.17 1807.77 4566.74C1807.26 4566.3 1806.62 4566.08 1805.84 4566.08ZM1805.85 4567.07C1806.77 4567.07 1807.46 4567.63 1807.46 4568.55C1807.46 4569.45 1806.77 4570.01 1805.85 4570.01C1804.9 4570.01 1804.23 4569.45 1804.23 4568.55C1804.23 4567.63 1804.9 4567.07 1805.85 4567.07ZM1807.14 4571.42C1807.49 4571.72 1807.66 4572.12 1807.66 4572.63C1807.66 4573.15 1807.49 4573.56 1807.14 4573.86C1806.8 4574.16 1806.36 4574.31 1805.84 4574.31C1805.31 4574.31 1804.88 4574.16 1804.53 4573.86C1804.18 4573.56 1804.01 4573.15 1804.01 4572.63C1804.01 4572.12 1804.18 4571.72 1804.53 4571.42C1804.88 4571.12 1805.31 4570.97 1805.84 4570.97C1806.36 4570.97 1806.8 4571.12 1807.14 4571.42Z" fill="#273052"/>
<path d="M2134.6 4394.04H2130.43V4400.77H2131.26V4397.7H2134.04V4396.97H2131.26V4394.77H2134.6V4394.04ZM2137.69 4396.13C2136.98 4396.13 2136.52 4396.45 2136.34 4396.87V4396.18H2135.59V4400.77H2136.36V4398.13C2136.36 4397.41 2136.89 4396.87 2137.69 4396.87V4396.13ZM2139.55 4394.52C2139.55 4394.24 2139.32 4394.01 2139.04 4394.01C2138.76 4394.01 2138.53 4394.24 2138.53 4394.52C2138.53 4394.8 2138.75 4395.03 2139.04 4395.03C2139.32 4395.03 2139.55 4394.8 2139.55 4394.52ZM2139.42 4396.18H2138.65V4400.77H2139.42V4396.18Z" fill="#B9C1D9"/>
<path d="M2129.09 4566.2H2128.29L2125.89 4568.04L2126.43 4568.89L2128.01 4567.68V4575.18H2129.09V4566.2ZM2133.73 4566.08C2132.86 4566.08 2132.14 4566.35 2131.58 4566.89C2131.02 4567.43 2130.73 4568.12 2130.73 4569C2130.73 4569.87 2131.02 4570.58 2131.58 4571.12C2132.14 4571.66 2132.86 4571.94 2133.73 4571.94C2133.86 4571.94 2133.97 4571.94 2134.03 4571.93L2131.6 4575.18H2132.9L2136.13 4570.86C2136.54 4570.31 2136.74 4569.68 2136.74 4569C2136.74 4568.12 2136.45 4567.43 2135.89 4566.89C2135.32 4566.35 2134.6 4566.08 2133.73 4566.08ZM2133.73 4570.98C2132.62 4570.98 2131.83 4570.22 2131.83 4569.03C2131.83 4567.85 2132.62 4567.07 2133.73 4567.07C2134.84 4567.07 2135.64 4567.83 2135.64 4569.03C2135.64 4569.55 2135.5 4569.97 2135.24 4570.31C2134.89 4570.75 2134.39 4570.98 2133.73 4570.98Z" fill="#273052"/>
<path d="M2472.36 4393.95C2471.63 4393.95 2471.07 4394.13 2470.67 4394.5C2470.28 4394.86 2470.09 4395.31 2470.09 4395.86C2470.09 4396.47 2470.29 4396.89 2470.73 4397.17C2470.96 4397.3 2471.18 4397.41 2471.4 4397.49C2471.62 4397.57 2471.9 4397.65 2472.26 4397.73C2472.54 4397.79 2472.75 4397.84 2472.88 4397.89C2473.03 4397.93 2473.19 4397.98 2473.36 4398.05C2473.54 4398.12 2473.67 4398.2 2473.75 4398.28C2473.92 4398.42 2474.05 4398.66 2474.05 4398.98C2474.05 4399.76 2473.43 4400.14 2472.49 4400.14C2472.01 4400.14 2471.62 4400.02 2471.29 4399.79C2470.97 4399.55 2470.79 4399.24 2470.76 4398.85L2469.93 4398.9C2469.96 4399.51 2470.21 4399.99 2470.69 4400.34C2471.17 4400.69 2471.76 4400.86 2472.49 4400.86C2473.19 4400.86 2473.77 4400.7 2474.21 4400.37C2474.66 4400.04 2474.88 4399.55 2474.88 4398.92C2474.88 4398.34 2474.69 4397.93 2474.25 4397.66C2473.82 4397.37 2473.36 4397.21 2472.56 4397.03C2471.97 4396.89 2471.54 4396.76 2471.29 4396.6C2471.05 4396.45 2470.92 4396.2 2470.92 4395.83C2470.92 4395.14 2471.44 4394.67 2472.38 4394.67C2473.24 4394.67 2473.8 4395.12 2473.85 4395.87L2474.68 4395.82C2474.66 4395.23 2474.43 4394.78 2474.01 4394.45C2473.59 4394.12 2473.04 4393.95 2472.36 4393.95ZM2477.84 4396.1C2477.31 4396.1 2476.88 4396.26 2476.56 4396.58C2476.23 4396.91 2476.07 4397.28 2476.07 4397.7L2476.85 4397.74C2476.85 4397.21 2477.2 4396.78 2477.85 4396.78C2478.49 4396.78 2478.81 4397.15 2478.81 4397.9V4398.11L2477.63 4398.19C2476.5 4398.25 2475.94 4398.7 2475.94 4399.55C2475.94 4400.37 2476.54 4400.86 2477.45 4400.86C2478 4400.86 2478.46 4400.65 2478.81 4400.23V4400.77H2479.6V4397.88C2479.6 4396.74 2478.97 4396.1 2477.84 4396.1ZM2478.82 4398.92C2478.82 4399.79 2478.32 4400.19 2477.56 4400.19C2477.01 4400.19 2476.73 4399.98 2476.73 4399.54C2476.73 4399.1 2477.06 4398.85 2477.73 4398.81L2478.82 4398.74V4398.92ZM2482.89 4400.13C2482.35 4400.13 2482.08 4399.83 2482.08 4399.24L2482.1 4396.85H2483.33V4396.18H2482.1L2482.11 4394.6H2481.33L2481.32 4396.18H2480.46V4396.85H2481.32L2481.31 4399.39C2481.3 4400.36 2481.85 4400.83 2482.72 4400.83C2482.93 4400.83 2483.13 4400.81 2483.34 4400.78V4400.09C2483.16 4400.11 2483.01 4400.13 2482.89 4400.13Z" fill="#B9C1D9"/>
<path d="M2469.75 4566.09C2468.08 4566.09 2467.13 4567.09 2467.09 4568.81L2468.19 4568.87C2468.2 4567.71 2468.75 4567.07 2469.77 4567.07C2470.69 4567.07 2471.22 4567.68 2471.22 4568.65C2471.22 4569.19 2471.11 4569.67 2470.9 4570.07C2470.68 4570.46 2470.3 4570.94 2469.75 4571.52L2467.12 4574.29V4575.18H2472.43V4574.21H2468.62L2470.56 4572.17C2471.15 4571.55 2471.58 4570.99 2471.88 4570.45C2472.18 4569.91 2472.33 4569.29 2472.33 4568.6C2472.33 4567.03 2471.39 4566.09 2469.75 4566.09ZM2476.75 4566.08C2475.76 4566.08 2474.97 4566.49 2474.38 4567.29C2473.8 4568.1 2473.51 4569.23 2473.51 4570.69C2473.51 4572.15 2473.8 4573.29 2474.38 4574.1C2474.97 4574.9 2475.76 4575.3 2476.75 4575.3C2477.74 4575.3 2478.52 4574.9 2479.09 4574.1C2479.68 4573.29 2479.97 4572.15 2479.97 4570.69C2479.97 4569.23 2479.68 4568.1 2479.09 4567.29C2478.52 4566.49 2477.74 4566.08 2476.75 4566.08ZM2478.31 4567.99C2478.69 4568.6 2478.87 4569.5 2478.87 4570.69C2478.87 4571.88 2478.69 4572.78 2478.31 4573.39C2477.95 4574 2477.43 4574.31 2476.74 4574.31C2476.06 4574.31 2475.53 4574 2475.17 4573.39C2474.81 4572.78 2474.63 4571.88 2474.63 4570.69C2474.63 4569.5 2474.81 4568.6 2475.17 4567.99C2475.53 4567.38 2476.06 4567.07 2476.74 4567.07C2477.43 4567.07 2477.95 4567.38 2478.31 4567.99Z" fill="#273052"/>
<path d="M2812.65 4393.95C2811.92 4393.95 2811.35 4394.13 2810.96 4394.5C2810.57 4394.86 2810.37 4395.31 2810.37 4395.86C2810.37 4396.47 2810.58 4396.89 2811.02 4397.17C2811.24 4397.3 2811.47 4397.41 2811.68 4397.49C2811.9 4397.57 2812.19 4397.65 2812.55 4397.73C2812.83 4397.79 2813.03 4397.84 2813.17 4397.89C2813.31 4397.93 2813.48 4397.98 2813.65 4398.05C2813.83 4398.12 2813.95 4398.2 2814.03 4398.28C2814.2 4398.42 2814.33 4398.66 2814.33 4398.98C2814.33 4399.76 2813.72 4400.14 2812.77 4400.14C2812.3 4400.14 2811.9 4400.02 2811.58 4399.79C2811.25 4399.55 2811.07 4399.24 2811.05 4398.85L2810.22 4398.9C2810.24 4399.51 2810.5 4399.99 2810.97 4400.34C2811.45 4400.69 2812.04 4400.86 2812.77 4400.86C2813.48 4400.86 2814.05 4400.7 2814.49 4400.37C2814.94 4400.04 2815.17 4399.55 2815.17 4398.92C2815.17 4398.34 2814.98 4397.93 2814.54 4397.66C2814.11 4397.37 2813.65 4397.21 2812.85 4397.03C2812.25 4396.89 2811.83 4396.76 2811.58 4396.6C2811.33 4396.45 2811.21 4396.2 2811.21 4395.83C2811.21 4395.14 2811.73 4394.67 2812.67 4394.67C2813.52 4394.67 2814.09 4395.12 2814.13 4395.87L2814.97 4395.82C2814.94 4395.23 2814.72 4394.78 2814.29 4394.45C2813.87 4394.12 2813.32 4393.95 2812.65 4393.95ZM2820.16 4396.18H2819.38V4398.86C2819.38 4399.57 2818.93 4400.13 2818.22 4400.13C2817.54 4400.13 2817.14 4399.66 2817.14 4398.91V4396.18H2816.37V4399.01C2816.37 4399.56 2816.52 4400.01 2816.82 4400.36C2817.12 4400.69 2817.53 4400.86 2818.04 4400.86C2818.75 4400.86 2819.23 4400.51 2819.42 4400.09V4400.77H2820.16V4396.18ZM2823.89 4396.1C2823.21 4396.1 2822.7 4396.42 2822.46 4396.86V4396.18H2821.72V4400.77H2822.49V4398.09C2822.49 4397.74 2822.61 4397.43 2822.84 4397.19C2823.07 4396.94 2823.37 4396.82 2823.73 4396.82C2824.42 4396.82 2824.89 4397.32 2824.89 4398.08V4400.77H2825.67V4397.98C2825.67 4397.41 2825.5 4396.95 2825.17 4396.61C2824.83 4396.27 2824.41 4396.1 2823.89 4396.1Z" fill="#B9C1D9"/>
<path d="M2816.64 4566.09C2814.97 4566.09 2814.02 4567.09 2813.99 4568.81L2815.08 4568.87C2815.09 4567.71 2815.64 4567.07 2816.66 4567.07C2817.59 4567.07 2818.12 4567.68 2818.12 4568.65C2818.12 4569.19 2818.01 4569.67 2817.79 4570.07C2817.58 4570.46 2817.19 4570.94 2816.64 4571.52L2814.01 4574.29V4575.18H2819.33V4574.21H2815.51L2817.46 4572.17C2818.04 4571.55 2818.48 4570.99 2818.78 4570.45C2819.08 4569.91 2819.22 4569.29 2819.22 4568.6C2819.22 4567.03 2818.28 4566.09 2816.64 4566.09ZM2823.13 4566.2H2822.33L2819.93 4568.04L2820.47 4568.89L2822.05 4567.68V4575.18H2823.13V4566.2Z" fill="#273052"/>
<path d="M3143.99 4394.04H3143.28L3140.39 4399.53L3137.5 4394.04H3136.78V4400.77H3137.61V4395.9L3140.12 4400.72H3140.67L3143.17 4395.9V4400.77H3143.99V4394.04ZM3145.94 4396.76C3145.5 4397.19 3145.28 4397.76 3145.28 4398.47C3145.28 4399.19 3145.5 4399.76 3145.94 4400.2C3146.39 4400.64 3146.96 4400.86 3147.64 4400.86C3148.31 4400.86 3148.88 4400.64 3149.32 4400.2C3149.77 4399.76 3149.99 4399.19 3149.99 4398.47C3149.99 4397.76 3149.77 4397.19 3149.32 4396.76C3148.88 4396.31 3148.31 4396.1 3147.64 4396.1C3146.96 4396.1 3146.39 4396.31 3145.94 4396.76ZM3148.76 4397.23C3149.06 4397.54 3149.21 4397.95 3149.21 4398.47C3149.21 4399 3149.06 4399.41 3148.76 4399.73C3148.46 4400.03 3148.1 4400.18 3147.64 4400.18C3147.18 4400.18 3146.8 4400.03 3146.5 4399.73C3146.21 4399.41 3146.06 4399 3146.06 4398.47C3146.06 4397.95 3146.21 4397.54 3146.5 4397.23C3146.8 4396.93 3147.18 4396.77 3147.64 4396.77C3148.1 4396.77 3148.46 4396.93 3148.76 4397.23ZM3153.43 4396.1C3152.75 4396.1 3152.24 4396.42 3152 4396.86V4396.18H3151.26V4400.77H3152.04V4398.09C3152.04 4397.74 3152.15 4397.43 3152.38 4397.19C3152.61 4396.94 3152.91 4396.82 3153.27 4396.82C3153.96 4396.82 3154.43 4397.32 3154.43 4398.08V4400.77H3155.21V4397.98C3155.21 4397.41 3155.04 4396.95 3154.71 4396.61C3154.38 4396.27 3153.95 4396.1 3153.43 4396.1Z" fill="#B9C1D9"/>
<path d="M3144.47 4566.09C3142.8 4566.09 3141.86 4567.09 3141.82 4568.81L3142.91 4568.87C3142.92 4567.71 3143.48 4567.07 3144.5 4567.07C3145.42 4567.07 3145.95 4567.68 3145.95 4568.65C3145.95 4569.19 3145.84 4569.67 3145.62 4570.07C3145.41 4570.46 3145.02 4570.94 3144.47 4571.52L3141.84 4574.29V4575.18H3147.16V4574.21H3143.34L3145.29 4572.17C3145.88 4571.55 3146.31 4570.99 3146.61 4570.45C3146.91 4569.91 3147.05 4569.29 3147.05 4568.6C3147.05 4567.03 3146.12 4566.09 3144.47 4566.09ZM3150.91 4566.09C3149.24 4566.09 3148.29 4567.09 3148.25 4568.81L3149.35 4568.87C3149.36 4567.71 3149.91 4567.07 3150.93 4567.07C3151.85 4567.07 3152.38 4567.68 3152.38 4568.65C3152.38 4569.19 3152.27 4569.67 3152.06 4570.07C3151.84 4570.46 3151.46 4570.94 3150.91 4571.52L3148.28 4574.29V4575.18H3153.59V4574.21H3149.78L3151.72 4572.17C3152.31 4571.55 3152.74 4570.99 3153.04 4570.45C3153.34 4569.91 3153.49 4569.29 3153.49 4568.6C3153.49 4567.03 3152.55 4566.09 3150.91 4566.09Z" fill="#273052"/>
<path d="M733.36 4017.46H627.398V4230.8C627.398 4231.35 627.846 4231.8 628.398 4231.8H3313.5C3314.05 4231.8 3314.5 4231.35 3314.5 4230.8V2876.52L3192.89 3060C3192.41 3060.73 3191.28 3060.53 3191.08 3059.68L3134.45 2820.24C3134.34 2819.79 3133.94 2819.47 3133.48 2819.47H2979.08C2978.78 2819.47 2978.5 2819.61 2978.31 2819.83L2872.64 2947.2C2872.33 2947.56 2871.81 2947.66 2871.39 2947.44L2742.16 2877.13C2741.59 2876.82 2740.88 2877.13 2740.71 2877.76L2643.28 3259.42C2643.06 3260.25 2641.96 3260.44 2641.48 3259.73L2529.05 3091.97C2528.61 3091.31 2527.62 3091.4 2527.3 3092.13L2504 3146.23C2503.73 3146.86 2502.93 3147.04 2502.42 3146.59L2438.91 3091.31C2438.41 3090.87 2437.63 3091.03 2437.35 3091.63L2356.36 3260.82C2356.15 3261.26 2355.65 3261.49 2355.18 3261.35L2258.68 3233.35C2258.14 3233.19 2257.57 3233.52 2257.43 3234.07L2159.49 3631.93C2159.41 3632.22 2159.22 3632.47 2158.95 3632.59L2012.82 3703.26C2012.32 3703.5 2011.72 3703.29 2011.48 3702.78L1906.35 3477.53C1905.99 3476.75 1904.87 3476.77 1904.53 3477.56L1856.41 3589.24C1856.31 3589.47 1856.13 3589.66 1855.89 3589.76L1758.38 3632.2C1758.11 3632.32 1757.9 3632.56 1757.82 3632.84L1700.75 3831.54C1700.66 3831.86 1700.41 3832.12 1700.1 3832.22L1569.86 3874.73C1569.64 3874.8 1569.45 3874.95 1569.33 3875.14L1480.19 4016.22C1479.81 4016.81 1478.96 4016.85 1478.54 4016.28L1406.29 3918.45C1405.95 3918 1405.31 3917.91 1404.86 3918.26L1201.5 4078.61C1201.13 4078.91 1200.61 4078.9 1200.24 4078.6L1127.79 4018C1127.41 4017.69 1126.86 4017.69 1126.49 4018.02L1061.88 4074.26C1061.69 4074.42 1061.46 4074.5 1061.22 4074.5H930.984C930.688 4074.5 930.407 4074.37 930.217 4074.14L800.302 3918.66C799.872 3918.14 799.067 3918.19 798.699 3918.75L734.196 4017C734.011 4017.29 733.697 4017.46 733.36 4017.46Z" fill="url(#paint0_linear_35_3064)"/>
<path d="M643.395 4017.46H732.822C733.496 4017.46 734.124 4017.12 734.494 4016.55L797.962 3919.88C798.698 3918.76 800.308 3918.66 801.169 3919.69L929.919 4073.79C930.299 4074.24 930.861 4074.5 931.454 4074.5H1060.85C1061.33 4074.5 1061.8 4074.33 1062.16 4074.01L1125.5 4018.88C1126.38 4018.11 1127.73 4018.26 1128.42 4019.2L1199.5 4115.44C1200.23 4116.42 1201.64 4116.53 1202.51 4115.69L1404.03 3919.23C1404.9 3918.38 1406.32 3918.49 1407.04 3919.47L1477.67 4015.1C1478.51 4016.24 1480.22 4016.17 1480.97 4014.98L1569.14 3875.45C1569.39 3875.05 1569.77 3874.76 1570.21 3874.62L1699.59 3832.38C1700.22 3832.18 1700.71 3831.67 1700.9 3831.03L1757.69 3633.3C1757.85 3632.72 1758.27 3632.25 1758.81 3632.01L1855.53 3589.92C1856 3589.72 1856.37 3589.35 1856.57 3588.88L1903.65 3479.61C1904.33 3478.02 1906.57 3477.99 1907.3 3479.55L2011.06 3701.86C2011.53 3702.87 2012.73 3703.3 2013.74 3702.82L2158.53 3632.8C2159.07 3632.54 2159.46 3632.06 2159.6 3631.48L2257.19 3235.09C2257.46 3233.98 2258.59 3233.33 2259.69 3233.64L2354.36 3261.11C2355.3 3261.39 2356.3 3260.94 2356.73 3260.06L2436.78 3092.82C2437.35 3091.62 2438.9 3091.3 2439.9 3092.17L2501.39 3145.69C2502.41 3146.58 2504 3146.22 2504.54 3144.98L2526.58 3093.82C2527.21 3092.36 2529.2 3092.18 2530.08 3093.5L2640.23 3257.87C2641.2 3259.3 2643.41 3258.92 2643.83 3257.25L2740.4 2879.01C2740.72 2877.75 2742.15 2877.12 2743.29 2877.75L2870.67 2947.04C2871.51 2947.5 2872.55 2947.3 2873.16 2946.56L2978.01 2820.2C2978.39 2819.74 2978.96 2819.47 2979.55 2819.47H3132.69C3133.61 2819.47 3134.42 2820.11 3134.63 2821.01L3190.46 3057.02C3190.87 3058.78 3193.23 3059.12 3194.13 3057.55L3298.51 2876.52" stroke="white" stroke-width="2" stroke-linecap="round"/>
<rect x="3861.5" y="2470" width="1025.64" height="2373.23" rx="10" fill="white"/>
<path d="M4005.38 2629.29H4004L4001.96 2632.58L3999.91 2629.29H3998.53L4001.37 2633.76V2636.77H4002.55V2633.76L4005.38 2629.29ZM4006.39 2629.37C4006.12 2629.64 4006.12 2630.08 4006.39 2630.36C4006.67 2630.63 4007.11 2630.63 4007.39 2630.36C4007.67 2630.08 4007.67 2629.64 4007.39 2629.37C4007.11 2629.09 4006.67 2629.09 4006.39 2629.37ZM4007.45 2631.64H4006.33V2636.77H4007.45V2631.64ZM4013.72 2634.08C4013.72 2633.3 4013.5 2632.68 4013.07 2632.23C4012.64 2631.78 4012.05 2631.55 4011.32 2631.55C4010.56 2631.55 4009.94 2631.79 4009.47 2632.27C4009 2632.74 4008.76 2633.39 4008.76 2634.21C4008.76 2635.03 4009 2635.68 4009.48 2636.16C4009.96 2636.63 4010.58 2636.87 4011.35 2636.87C4011.93 2636.87 4012.44 2636.71 4012.87 2636.4C4013.3 2636.09 4013.57 2635.7 4013.67 2635.23L4012.54 2635.17C4012.39 2635.66 4011.99 2635.9 4011.32 2635.9C4010.53 2635.9 4010 2635.4 4009.95 2634.63H4013.72V2634.08ZM4011.31 2632.51C4012.12 2632.51 4012.56 2632.99 4012.59 2633.75H4009.96C4010.01 2632.96 4010.55 2632.51 4011.31 2632.51ZM4016.14 2629H4015.02V2636.77H4016.14V2629ZM4022.66 2629H4021.54V2632.26C4021.25 2631.83 4020.64 2631.55 4019.91 2631.55C4019.18 2631.55 4018.59 2631.79 4018.13 2632.28C4017.67 2632.76 4017.44 2633.4 4017.44 2634.21C4017.44 2635.02 4017.67 2635.66 4018.13 2636.15C4018.59 2636.63 4019.18 2636.87 4019.91 2636.87C4020.68 2636.87 4021.31 2636.54 4021.6 2636.06V2636.77H4022.66V2629ZM4020.09 2632.51C4020.96 2632.51 4021.54 2633.08 4021.54 2634.07V2634.34C4021.54 2635.33 4020.96 2635.9 4020.09 2635.9C4019.2 2635.9 4018.58 2635.28 4018.58 2634.21C4018.58 2633.14 4019.2 2632.51 4020.09 2632.51ZM4031.35 2629.29H4026.65V2636.77H4027.84V2633.48H4030.74V2632.43H4027.84V2630.34H4031.35V2629.29ZM4034.02 2631.55C4033.41 2631.55 4032.91 2631.73 4032.54 2632.1C4032.17 2632.46 4031.98 2632.88 4031.98 2633.36L4033.11 2633.4C4033.11 2632.91 4033.43 2632.53 4034.03 2632.53C4034.64 2632.53 4034.94 2632.89 4034.94 2633.6V2633.75L4033.72 2633.82C4032.47 2633.89 4031.84 2634.41 4031.84 2635.37C4031.84 2636.32 4032.51 2636.87 4033.55 2636.87C4034.08 2636.87 4034.55 2636.68 4034.94 2636.31V2636.77H4036.07V2633.58C4036.07 2632.27 4035.34 2631.55 4034.02 2631.55ZM4034.95 2634.8C4034.95 2635.55 4034.49 2635.93 4033.74 2635.93C4033.23 2635.93 4032.97 2635.74 4032.97 2635.35C4032.97 2634.94 4033.27 2634.72 4033.88 2634.69L4034.95 2634.62V2634.8ZM4040.19 2631.58C4039.46 2631.58 4038.98 2631.84 4038.73 2632.36V2631.64H4037.64V2636.77H4038.76V2633.98C4038.76 2633.22 4039.32 2632.67 4040.19 2632.67V2631.58ZM4047.06 2631.55C4046.3 2631.55 4045.74 2631.86 4045.39 2632.48C4045.05 2631.86 4044.51 2631.55 4043.76 2631.55C4043.07 2631.55 4042.57 2631.81 4042.28 2632.32V2631.64H4041.22V2636.77H4042.34V2633.84C4042.34 2633.12 4042.82 2632.59 4043.51 2632.59C4044.12 2632.59 4044.54 2633.07 4044.54 2633.83V2636.77H4045.67V2633.68V2633.65C4045.74 2633.02 4046.15 2632.59 4046.78 2632.59C4047.46 2632.59 4047.85 2633.06 4047.85 2633.83V2636.77H4048.98V2633.66C4048.98 2633.03 4048.8 2632.52 4048.45 2632.13C4048.1 2631.74 4047.63 2631.55 4047.06 2631.55ZM4050.6 2629.37C4050.33 2629.64 4050.33 2630.08 4050.6 2630.36C4050.88 2630.63 4051.32 2630.63 4051.6 2630.36C4051.88 2630.08 4051.88 2629.64 4051.6 2629.37C4051.32 2629.09 4050.88 2629.09 4050.6 2629.37ZM4051.66 2631.64H4050.54V2636.77H4051.66V2631.64ZM4055.85 2631.55C4055.14 2631.55 4054.64 2631.81 4054.35 2632.32V2631.64H4053.29V2636.77H4054.41V2633.84C4054.41 2633.12 4054.89 2632.59 4055.6 2632.59C4056.28 2632.59 4056.72 2633.07 4056.72 2633.83V2636.77H4057.85V2633.68C4057.85 2633.03 4057.66 2632.51 4057.29 2632.13C4056.92 2631.74 4056.44 2631.55 4055.85 2631.55ZM4061.57 2631.55C4060.84 2631.55 4060.25 2631.79 4059.79 2632.28C4059.33 2632.76 4059.1 2633.4 4059.1 2634.21C4059.1 2635.02 4059.33 2635.66 4059.79 2636.15C4060.25 2636.63 4060.84 2636.87 4061.57 2636.87C4062.3 2636.87 4062.91 2636.59 4063.2 2636.16V2637.1C4063.2 2637.97 4062.64 2638.46 4061.77 2638.46C4061.01 2638.46 4060.46 2638.09 4060.37 2637.49L4059.25 2637.53C4059.46 2638.69 4060.33 2639.41 4061.8 2639.41C4062.57 2639.41 4063.18 2639.19 4063.63 2638.76C4064.09 2638.33 4064.32 2637.75 4064.32 2637.02V2631.64H4063.26V2632.36C4062.97 2631.88 4062.34 2631.55 4061.57 2631.55ZM4061.75 2632.52C4062.62 2632.52 4063.2 2633.09 4063.2 2634.08V2634.35C4063.2 2635.34 4062.62 2635.91 4061.75 2635.91C4060.86 2635.91 4060.24 2635.28 4060.24 2634.21C4060.24 2633.14 4060.86 2632.52 4061.75 2632.52Z" fill="#5C7BFF"/>
<rect x="4012.38" y="2932.03" width="24" height="2" rx="1" fill="#5C7BFF"/>
<rect x="4012.38" y="2937.03" width="10" height="2" rx="1" fill="#5C7BFF"/>
<rect x="4023.38" y="2937.03" width="14" height="2" rx="1" fill="#5C7BFF"/>
<circle cx="4003.38" cy="2936.03" r="5" fill="#5C7BFF"/>
<path d="M4066.05 2936.77C4066.05 2936.4 4065.92 2936.13 4065.68 2935.95C4065.43 2935.76 4065.04 2935.6 4064.51 2935.48C4064.14 2935.39 4063.88 2935.3 4063.73 2935.22C4063.59 2935.13 4063.52 2934.99 4063.52 2934.78C4063.52 2934.37 4063.82 2934.1 4064.35 2934.1C4064.85 2934.1 4065.18 2934.38 4065.21 2934.83L4065.93 2934.79C4065.91 2934.09 4065.42 2933.61 4064.67 2933.51V2932.84H4064.1V2933.5C4063.68 2933.54 4063.35 2933.68 4063.12 2933.92C4062.9 2934.16 4062.78 2934.46 4062.78 2934.8C4062.78 2935.21 4062.93 2935.5 4063.22 2935.69C4063.53 2935.89 4063.77 2935.96 4064.25 2936.08C4064.64 2936.17 4064.91 2936.27 4065.08 2936.37C4065.24 2936.46 4065.32 2936.61 4065.32 2936.82C4065.32 2937.27 4064.97 2937.48 4064.43 2937.48C4063.86 2937.48 4063.44 2937.16 4063.41 2936.69L4062.68 2936.73C4062.71 2937.48 4063.26 2937.98 4064.1 2938.08V2938.74H4064.67V2938.08C4065.49 2938.01 4066.05 2937.57 4066.05 2936.77ZM4069.31 2934.75C4069.31 2933.95 4068.83 2933.49 4067.99 2933.49C4067.15 2933.49 4066.65 2934 4066.64 2934.86L4067.35 2934.9C4067.36 2934.38 4067.58 2934.12 4068 2934.12C4068.38 2934.12 4068.6 2934.37 4068.6 2934.78C4068.6 2935.03 4068.55 2935.24 4068.46 2935.41C4068.37 2935.57 4068.2 2935.8 4067.94 2936.07L4066.65 2937.45V2938.03H4069.35V2937.4H4067.63L4068.47 2936.5C4068.74 2936.21 4068.95 2935.93 4069.09 2935.66C4069.24 2935.39 4069.31 2935.09 4069.31 2934.75ZM4070.24 2937.23C4070.01 2937.23 4069.82 2937.42 4069.82 2937.67C4069.82 2937.9 4070.01 2938.09 4070.24 2938.09C4070.48 2938.09 4070.68 2937.9 4070.68 2937.67C4070.68 2937.42 4070.48 2937.23 4070.24 2937.23ZM4074.52 2935.79C4074.52 2935.06 4074.37 2934.49 4074.07 2934.09C4073.77 2933.69 4073.37 2933.49 4072.87 2933.49C4072.36 2933.49 4071.96 2933.69 4071.66 2934.09C4071.36 2934.49 4071.21 2935.06 4071.21 2935.79C4071.21 2936.52 4071.36 2937.09 4071.66 2937.49C4071.96 2937.89 4072.36 2938.09 4072.87 2938.09C4073.37 2938.09 4073.77 2937.89 4074.07 2937.49C4074.37 2937.09 4074.52 2936.52 4074.52 2935.79ZM4072.87 2934.12C4073.49 2934.12 4073.79 2934.68 4073.79 2935.79C4073.79 2936.9 4073.49 2937.46 4072.87 2937.46C4072.25 2937.46 4071.94 2936.9 4071.94 2935.79C4071.94 2934.68 4072.25 2934.12 4072.87 2934.12ZM4077.79 2934.75C4077.79 2933.95 4077.3 2933.49 4076.46 2933.49C4075.62 2933.49 4075.13 2934 4075.11 2934.86L4075.83 2934.9C4075.83 2934.38 4076.06 2934.12 4076.48 2934.12C4076.86 2934.12 4077.08 2934.37 4077.08 2934.78C4077.08 2935.03 4077.03 2935.24 4076.94 2935.41C4076.85 2935.57 4076.67 2935.8 4076.42 2936.07L4075.13 2937.45V2938.03H4077.83V2937.4H4076.11L4076.94 2936.5C4077.21 2936.21 4077.42 2935.93 4077.57 2935.66C4077.72 2935.39 4077.79 2935.09 4077.79 2934.75Z" fill="#5C7BFF"/>
<rect x="4012.38" y="2956.03" width="24" height="2" rx="1" fill="#5C7BFF"/>
<rect x="4012.38" y="2961.03" width="10" height="2" rx="1" fill="#5C7BFF"/>
<rect x="4023.38" y="2961.03" width="14" height="2" rx="1" fill="#5C7BFF"/>
<circle cx="4003.38" cy="2960.03" r="5" fill="#5C7BFF"/>
<path d="M4066.05 2960.77C4066.05 2960.4 4065.92 2960.13 4065.68 2959.95C4065.43 2959.76 4065.04 2959.6 4064.51 2959.48C4064.14 2959.39 4063.88 2959.3 4063.73 2959.22C4063.59 2959.13 4063.52 2958.99 4063.52 2958.78C4063.52 2958.37 4063.82 2958.1 4064.35 2958.1C4064.85 2958.1 4065.18 2958.38 4065.21 2958.83L4065.93 2958.79C4065.91 2958.09 4065.42 2957.61 4064.67 2957.51V2956.84H4064.1V2957.5C4063.68 2957.54 4063.35 2957.68 4063.12 2957.92C4062.9 2958.16 4062.78 2958.46 4062.78 2958.8C4062.78 2959.21 4062.93 2959.5 4063.22 2959.69C4063.53 2959.89 4063.77 2959.96 4064.25 2960.08C4064.64 2960.17 4064.91 2960.27 4065.08 2960.37C4065.24 2960.46 4065.32 2960.61 4065.32 2960.82C4065.32 2961.27 4064.97 2961.48 4064.43 2961.48C4063.86 2961.48 4063.44 2961.16 4063.41 2960.69L4062.68 2960.73C4062.71 2961.48 4063.26 2961.98 4064.1 2962.08V2962.74H4064.67V2962.08C4065.49 2962.01 4066.05 2961.57 4066.05 2960.77ZM4069.31 2958.75C4069.31 2957.95 4068.83 2957.49 4067.99 2957.49C4067.15 2957.49 4066.65 2958 4066.64 2958.86L4067.35 2958.9C4067.36 2958.38 4067.58 2958.12 4068 2958.12C4068.38 2958.12 4068.6 2958.37 4068.6 2958.78C4068.6 2959.03 4068.55 2959.24 4068.46 2959.41C4068.37 2959.57 4068.2 2959.8 4067.94 2960.07L4066.65 2961.45V2962.03H4069.35V2961.4H4067.63L4068.47 2960.5C4068.74 2960.21 4068.95 2959.93 4069.09 2959.66C4069.24 2959.39 4069.31 2959.09 4069.31 2958.75ZM4070.24 2961.23C4070.01 2961.23 4069.82 2961.42 4069.82 2961.67C4069.82 2961.9 4070.01 2962.09 4070.24 2962.09C4070.48 2962.09 4070.68 2961.9 4070.68 2961.67C4070.68 2961.42 4070.48 2961.23 4070.24 2961.23ZM4074.52 2959.79C4074.52 2959.06 4074.37 2958.49 4074.07 2958.09C4073.77 2957.69 4073.37 2957.49 4072.87 2957.49C4072.36 2957.49 4071.96 2957.69 4071.66 2958.09C4071.36 2958.49 4071.21 2959.06 4071.21 2959.79C4071.21 2960.52 4071.36 2961.09 4071.66 2961.49C4071.96 2961.89 4072.36 2962.09 4072.87 2962.09C4073.37 2962.09 4073.77 2961.89 4074.07 2961.49C4074.37 2961.09 4074.52 2960.52 4074.52 2959.79ZM4072.87 2958.12C4073.49 2958.12 4073.79 2958.68 4073.79 2959.79C4073.79 2960.9 4073.49 2961.46 4072.87 2961.46C4072.25 2961.46 4071.94 2960.9 4071.94 2959.79C4071.94 2958.68 4072.25 2958.12 4072.87 2958.12ZM4077.79 2958.75C4077.79 2957.95 4077.3 2957.49 4076.46 2957.49C4075.62 2957.49 4075.13 2958 4075.11 2958.86L4075.83 2958.9C4075.83 2958.38 4076.06 2958.12 4076.48 2958.12C4076.86 2958.12 4077.08 2958.37 4077.08 2958.78C4077.08 2959.03 4077.03 2959.24 4076.94 2959.41C4076.85 2959.57 4076.67 2959.8 4076.42 2960.07L4075.13 2961.45V2962.03H4077.83V2961.4H4076.11L4076.94 2960.5C4077.21 2960.21 4077.42 2959.93 4077.57 2959.66C4077.72 2959.39 4077.79 2959.09 4077.79 2958.75Z" fill="#5C7BFF"/>
<rect x="4012.38" y="2980.03" width="24" height="2" rx="1" fill="#5C7BFF"/>
<rect x="4012.38" y="2985.03" width="10" height="2" rx="1" fill="#5C7BFF"/>
<rect x="4023.38" y="2985.03" width="14" height="2" rx="1" fill="#5C7BFF"/>
<circle cx="4003.38" cy="2984.03" r="5" fill="#5C7BFF"/>
<path d="M4066.05 2984.77C4066.05 2984.4 4065.92 2984.13 4065.68 2983.95C4065.43 2983.76 4065.04 2983.6 4064.51 2983.48C4064.14 2983.39 4063.88 2983.3 4063.73 2983.22C4063.59 2983.13 4063.52 2982.99 4063.52 2982.78C4063.52 2982.37 4063.82 2982.1 4064.35 2982.1C4064.85 2982.1 4065.18 2982.38 4065.21 2982.83L4065.93 2982.79C4065.91 2982.09 4065.42 2981.61 4064.67 2981.51V2980.84H4064.1V2981.5C4063.68 2981.54 4063.35 2981.68 4063.12 2981.92C4062.9 2982.16 4062.78 2982.46 4062.78 2982.8C4062.78 2983.21 4062.93 2983.5 4063.22 2983.69C4063.53 2983.89 4063.77 2983.96 4064.25 2984.08C4064.64 2984.17 4064.91 2984.27 4065.08 2984.37C4065.24 2984.46 4065.32 2984.61 4065.32 2984.82C4065.32 2985.27 4064.97 2985.48 4064.43 2985.48C4063.86 2985.48 4063.44 2985.16 4063.41 2984.69L4062.68 2984.73C4062.71 2985.48 4063.26 2985.98 4064.1 2986.08V2986.74H4064.67V2986.08C4065.49 2986.01 4066.05 2985.57 4066.05 2984.77ZM4069.31 2982.75C4069.31 2981.95 4068.83 2981.49 4067.99 2981.49C4067.15 2981.49 4066.65 2982 4066.64 2982.86L4067.35 2982.9C4067.36 2982.38 4067.58 2982.12 4068 2982.12C4068.38 2982.12 4068.6 2982.37 4068.6 2982.78C4068.6 2983.03 4068.55 2983.24 4068.46 2983.41C4068.37 2983.57 4068.2 2983.8 4067.94 2984.07L4066.65 2985.45V2986.03H4069.35V2985.4H4067.63L4068.47 2984.5C4068.74 2984.21 4068.95 2983.93 4069.09 2983.66C4069.24 2983.39 4069.31 2983.09 4069.31 2982.75ZM4070.24 2985.23C4070.01 2985.23 4069.82 2985.42 4069.82 2985.67C4069.82 2985.9 4070.01 2986.09 4070.24 2986.09C4070.48 2986.09 4070.68 2985.9 4070.68 2985.67C4070.68 2985.42 4070.48 2985.23 4070.24 2985.23ZM4074.52 2983.79C4074.52 2983.06 4074.37 2982.49 4074.07 2982.09C4073.77 2981.69 4073.37 2981.49 4072.87 2981.49C4072.36 2981.49 4071.96 2981.69 4071.66 2982.09C4071.36 2982.49 4071.21 2983.06 4071.21 2983.79C4071.21 2984.52 4071.36 2985.09 4071.66 2985.49C4071.96 2985.89 4072.36 2986.09 4072.87 2986.09C4073.37 2986.09 4073.77 2985.89 4074.07 2985.49C4074.37 2985.09 4074.52 2984.52 4074.52 2983.79ZM4072.87 2982.12C4073.49 2982.12 4073.79 2982.68 4073.79 2983.79C4073.79 2984.9 4073.49 2985.46 4072.87 2985.46C4072.25 2985.46 4071.94 2984.9 4071.94 2983.79C4071.94 2982.68 4072.25 2982.12 4072.87 2982.12ZM4077.79 2982.75C4077.79 2981.95 4077.3 2981.49 4076.46 2981.49C4075.62 2981.49 4075.13 2982 4075.11 2982.86L4075.83 2982.9C4075.83 2982.38 4076.06 2982.12 4076.48 2982.12C4076.86 2982.12 4077.08 2982.37 4077.08 2982.78C4077.08 2983.03 4077.03 2983.24 4076.94 2983.41C4076.85 2983.57 4076.67 2983.8 4076.42 2984.07L4075.13 2985.45V2986.03H4077.83V2985.4H4076.11L4076.94 2984.5C4077.21 2984.21 4077.42 2983.93 4077.57 2983.66C4077.72 2983.39 4077.79 2983.09 4077.79 2982.75Z" fill="#5C7BFF"/>
<rect x="4012.38" y="3004.03" width="24" height="2" rx="1" fill="#5C7BFF"/>
<rect x="4012.38" y="3009.03" width="10" height="2" rx="1" fill="#5C7BFF"/>
<rect x="4023.38" y="3009.03" width="12" height="2" rx="1" fill="#5C7BFF"/>
<circle cx="4003.38" cy="3008.03" r="5" fill="#5C7BFF"/>
<path d="M4066.05 3008.77C4066.05 3008.4 4065.92 3008.13 4065.68 3007.95C4065.43 3007.76 4065.04 3007.6 4064.51 3007.48C4064.14 3007.39 4063.88 3007.3 4063.73 3007.22C4063.59 3007.13 4063.52 3006.99 4063.52 3006.78C4063.52 3006.37 4063.82 3006.1 4064.35 3006.1C4064.85 3006.1 4065.18 3006.38 4065.21 3006.83L4065.93 3006.79C4065.91 3006.09 4065.42 3005.61 4064.67 3005.51V3004.84H4064.1V3005.5C4063.68 3005.54 4063.35 3005.68 4063.12 3005.92C4062.9 3006.16 4062.78 3006.46 4062.78 3006.8C4062.78 3007.21 4062.93 3007.5 4063.22 3007.69C4063.53 3007.89 4063.77 3007.96 4064.25 3008.08C4064.64 3008.17 4064.91 3008.27 4065.08 3008.37C4065.24 3008.46 4065.32 3008.61 4065.32 3008.82C4065.32 3009.27 4064.97 3009.48 4064.43 3009.48C4063.86 3009.48 4063.44 3009.16 4063.41 3008.69L4062.68 3008.73C4062.71 3009.48 4063.26 3009.98 4064.1 3010.08V3010.74H4064.67V3010.08C4065.49 3010.01 4066.05 3009.57 4066.05 3008.77ZM4069.31 3006.75C4069.31 3005.95 4068.83 3005.49 4067.99 3005.49C4067.15 3005.49 4066.65 3006 4066.64 3006.86L4067.35 3006.9C4067.36 3006.38 4067.58 3006.12 4068 3006.12C4068.38 3006.12 4068.6 3006.37 4068.6 3006.78C4068.6 3007.03 4068.55 3007.24 4068.46 3007.41C4068.37 3007.57 4068.2 3007.8 4067.94 3008.07L4066.65 3009.45V3010.03H4069.35V3009.4H4067.63L4068.47 3008.5C4068.74 3008.21 4068.95 3007.93 4069.09 3007.66C4069.24 3007.39 4069.31 3007.09 4069.31 3006.75ZM4070.24 3009.23C4070.01 3009.23 4069.82 3009.42 4069.82 3009.67C4069.82 3009.9 4070.01 3010.09 4070.24 3010.09C4070.48 3010.09 4070.68 3009.9 4070.68 3009.67C4070.68 3009.42 4070.48 3009.23 4070.24 3009.23ZM4074.52 3007.79C4074.52 3007.06 4074.37 3006.49 4074.07 3006.09C4073.77 3005.69 4073.37 3005.49 4072.87 3005.49C4072.36 3005.49 4071.96 3005.69 4071.66 3006.09C4071.36 3006.49 4071.21 3007.06 4071.21 3007.79C4071.21 3008.52 4071.36 3009.09 4071.66 3009.49C4071.96 3009.89 4072.36 3010.09 4072.87 3010.09C4073.37 3010.09 4073.77 3009.89 4074.07 3009.49C4074.37 3009.09 4074.52 3008.52 4074.52 3007.79ZM4072.87 3006.12C4073.49 3006.12 4073.79 3006.68 4073.79 3007.79C4073.79 3008.9 4073.49 3009.46 4072.87 3009.46C4072.25 3009.46 4071.94 3008.9 4071.94 3007.79C4071.94 3006.68 4072.25 3006.12 4072.87 3006.12ZM4077.79 3006.75C4077.79 3005.95 4077.3 3005.49 4076.46 3005.49C4075.62 3005.49 4075.13 3006 4075.11 3006.86L4075.83 3006.9C4075.83 3006.38 4076.06 3006.12 4076.48 3006.12C4076.86 3006.12 4077.08 3006.37 4077.08 3006.78C4077.08 3007.03 4077.03 3007.24 4076.94 3007.41C4076.85 3007.57 4076.67 3007.8 4076.42 3008.07L4075.13 3009.45V3010.03H4077.83V3009.4H4076.11L4076.94 3008.5C4077.21 3008.21 4077.42 3007.93 4077.57 3007.66C4077.72 3007.39 4077.79 3007.09 4077.79 3006.75Z" fill="#5C7BFF"/>
<rect x="4012.38" y="3028.03" width="24" height="2" rx="1" fill="#5C7BFF"/>
<rect x="4012.38" y="3033.03" width="10" height="2" rx="1" fill="#5C7BFF"/>
<rect x="4023.38" y="3033.03" width="14" height="2" rx="1" fill="#5C7BFF"/>
<circle cx="4003.38" cy="3032.03" r="5" fill="#5C7BFF"/>
<path d="M4066.05 3032.77C4066.05 3032.4 4065.92 3032.13 4065.68 3031.95C4065.43 3031.76 4065.04 3031.6 4064.51 3031.48C4064.14 3031.39 4063.88 3031.3 4063.73 3031.22C4063.59 3031.13 4063.52 3030.99 4063.52 3030.78C4063.52 3030.37 4063.82 3030.1 4064.35 3030.1C4064.85 3030.1 4065.18 3030.38 4065.21 3030.83L4065.93 3030.79C4065.91 3030.09 4065.42 3029.61 4064.67 3029.51V3028.84H4064.1V3029.5C4063.68 3029.54 4063.35 3029.68 4063.12 3029.92C4062.9 3030.16 4062.78 3030.46 4062.78 3030.8C4062.78 3031.21 4062.93 3031.5 4063.22 3031.69C4063.53 3031.89 4063.77 3031.96 4064.25 3032.08C4064.64 3032.17 4064.91 3032.27 4065.08 3032.37C4065.24 3032.46 4065.32 3032.61 4065.32 3032.82C4065.32 3033.27 4064.97 3033.48 4064.43 3033.48C4063.86 3033.48 4063.44 3033.16 4063.41 3032.69L4062.68 3032.73C4062.71 3033.48 4063.26 3033.98 4064.1 3034.08V3034.74H4064.67V3034.08C4065.49 3034.01 4066.05 3033.57 4066.05 3032.77ZM4069.31 3030.75C4069.31 3029.95 4068.83 3029.49 4067.99 3029.49C4067.15 3029.49 4066.65 3030 4066.64 3030.86L4067.35 3030.9C4067.36 3030.38 4067.58 3030.12 4068 3030.12C4068.38 3030.12 4068.6 3030.37 4068.6 3030.78C4068.6 3031.03 4068.55 3031.24 4068.46 3031.41C4068.37 3031.57 4068.2 3031.8 4067.94 3032.07L4066.65 3033.45V3034.03H4069.35V3033.4H4067.63L4068.47 3032.5C4068.74 3032.21 4068.95 3031.93 4069.09 3031.66C4069.24 3031.39 4069.31 3031.09 4069.31 3030.75ZM4070.24 3033.23C4070.01 3033.23 4069.82 3033.42 4069.82 3033.67C4069.82 3033.9 4070.01 3034.09 4070.24 3034.09C4070.48 3034.09 4070.68 3033.9 4070.68 3033.67C4070.68 3033.42 4070.48 3033.23 4070.24 3033.23ZM4074.52 3031.79C4074.52 3031.06 4074.37 3030.49 4074.07 3030.09C4073.77 3029.69 4073.37 3029.49 4072.87 3029.49C4072.36 3029.49 4071.96 3029.69 4071.66 3030.09C4071.36 3030.49 4071.21 3031.06 4071.21 3031.79C4071.21 3032.52 4071.36 3033.09 4071.66 3033.49C4071.96 3033.89 4072.36 3034.09 4072.87 3034.09C4073.37 3034.09 4073.77 3033.89 4074.07 3033.49C4074.37 3033.09 4074.52 3032.52 4074.52 3031.79ZM4072.87 3030.12C4073.49 3030.12 4073.79 3030.68 4073.79 3031.79C4073.79 3032.9 4073.49 3033.46 4072.87 3033.46C4072.25 3033.46 4071.94 3032.9 4071.94 3031.79C4071.94 3030.68 4072.25 3030.12 4072.87 3030.12ZM4077.79 3030.75C4077.79 3029.95 4077.3 3029.49 4076.46 3029.49C4075.62 3029.49 4075.13 3030 4075.11 3030.86L4075.83 3030.9C4075.83 3030.38 4076.06 3030.12 4076.48 3030.12C4076.86 3030.12 4077.08 3030.37 4077.08 3030.78C4077.08 3031.03 4077.03 3031.24 4076.94 3031.41C4076.85 3031.57 4076.67 3031.8 4076.42 3032.07L4075.13 3033.45V3034.03H4077.83V3033.4H4076.11L4076.94 3032.5C4077.21 3032.21 4077.42 3031.93 4077.57 3031.66C4077.72 3031.39 4077.79 3031.09 4077.79 3030.75Z" fill="#5C7BFF"/>
<rect x="4012.38" y="3052.03" width="24" height="2" rx="1" fill="#5C7BFF"/>
<rect x="4012.38" y="3057.03" width="10" height="2" rx="1" fill="#5C7BFF"/>
<rect x="4023.38" y="3057.03" width="14" height="2" rx="1" fill="#5C7BFF"/>
<circle cx="4003.38" cy="3056.03" r="5" fill="#5C7BFF"/>
<path d="M4066.05 3056.77C4066.05 3056.4 4065.92 3056.13 4065.68 3055.95C4065.43 3055.76 4065.04 3055.6 4064.51 3055.48C4064.14 3055.39 4063.88 3055.3 4063.73 3055.22C4063.59 3055.13 4063.52 3054.99 4063.52 3054.78C4063.52 3054.37 4063.82 3054.1 4064.35 3054.1C4064.85 3054.1 4065.18 3054.38 4065.21 3054.83L4065.93 3054.79C4065.91 3054.09 4065.42 3053.61 4064.67 3053.51V3052.84H4064.1V3053.5C4063.68 3053.54 4063.35 3053.68 4063.12 3053.92C4062.9 3054.16 4062.78 3054.46 4062.78 3054.8C4062.78 3055.21 4062.93 3055.5 4063.22 3055.69C4063.53 3055.89 4063.77 3055.96 4064.25 3056.08C4064.64 3056.17 4064.91 3056.27 4065.08 3056.37C4065.24 3056.46 4065.32 3056.61 4065.32 3056.82C4065.32 3057.27 4064.97 3057.48 4064.43 3057.48C4063.86 3057.48 4063.44 3057.16 4063.41 3056.69L4062.68 3056.73C4062.71 3057.48 4063.26 3057.98 4064.1 3058.08V3058.74H4064.67V3058.08C4065.49 3058.01 4066.05 3057.57 4066.05 3056.77ZM4069.31 3054.75C4069.31 3053.95 4068.83 3053.49 4067.99 3053.49C4067.15 3053.49 4066.65 3054 4066.64 3054.86L4067.35 3054.9C4067.36 3054.38 4067.58 3054.12 4068 3054.12C4068.38 3054.12 4068.6 3054.37 4068.6 3054.78C4068.6 3055.03 4068.55 3055.24 4068.46 3055.41C4068.37 3055.57 4068.2 3055.8 4067.94 3056.07L4066.65 3057.45V3058.03H4069.35V3057.4H4067.63L4068.47 3056.5C4068.74 3056.21 4068.95 3055.93 4069.09 3055.66C4069.24 3055.39 4069.31 3055.09 4069.31 3054.75ZM4070.24 3057.23C4070.01 3057.23 4069.82 3057.42 4069.82 3057.67C4069.82 3057.9 4070.01 3058.09 4070.24 3058.09C4070.48 3058.09 4070.68 3057.9 4070.68 3057.67C4070.68 3057.42 4070.48 3057.23 4070.24 3057.23ZM4074.52 3055.79C4074.52 3055.06 4074.37 3054.49 4074.07 3054.09C4073.77 3053.69 4073.37 3053.49 4072.87 3053.49C4072.36 3053.49 4071.96 3053.69 4071.66 3054.09C4071.36 3054.49 4071.21 3055.06 4071.21 3055.79C4071.21 3056.52 4071.36 3057.09 4071.66 3057.49C4071.96 3057.89 4072.36 3058.09 4072.87 3058.09C4073.37 3058.09 4073.77 3057.89 4074.07 3057.49C4074.37 3057.09 4074.52 3056.52 4074.52 3055.79ZM4072.87 3054.12C4073.49 3054.12 4073.79 3054.68 4073.79 3055.79C4073.79 3056.9 4073.49 3057.46 4072.87 3057.46C4072.25 3057.46 4071.94 3056.9 4071.94 3055.79C4071.94 3054.68 4072.25 3054.12 4072.87 3054.12ZM4077.79 3054.75C4077.79 3053.95 4077.3 3053.49 4076.46 3053.49C4075.62 3053.49 4075.13 3054 4075.11 3054.86L4075.83 3054.9C4075.83 3054.38 4076.06 3054.12 4076.48 3054.12C4076.86 3054.12 4077.08 3054.37 4077.08 3054.78C4077.08 3055.03 4077.03 3055.24 4076.94 3055.41C4076.85 3055.57 4076.67 3055.8 4076.42 3056.07L4075.13 3057.45V3058.03H4077.83V3057.4H4076.11L4076.94 3056.5C4077.21 3056.21 4077.42 3055.93 4077.57 3055.66C4077.72 3055.39 4077.79 3055.09 4077.79 3054.75Z" fill="#5C7BFF"/>
<rect x="4012.38" y="3076.03" width="24" height="2" rx="1" fill="#5C7BFF"/>
<rect x="4012.38" y="3081.03" width="10" height="2" rx="1" fill="#5C7BFF"/>
<rect x="4023.38" y="3081.03" width="14" height="2" rx="1" fill="#5C7BFF"/>
<circle cx="4003.38" cy="3080.03" r="5" fill="#5C7BFF"/>
<path d="M4066.05 3080.77C4066.05 3080.4 4065.92 3080.13 4065.68 3079.95C4065.43 3079.76 4065.04 3079.6 4064.51 3079.48C4064.14 3079.39 4063.88 3079.3 4063.73 3079.22C4063.59 3079.13 4063.52 3078.99 4063.52 3078.78C4063.52 3078.37 4063.82 3078.1 4064.35 3078.1C4064.85 3078.1 4065.18 3078.38 4065.21 3078.83L4065.93 3078.79C4065.91 3078.09 4065.42 3077.61 4064.67 3077.51V3076.84H4064.1V3077.5C4063.68 3077.54 4063.35 3077.68 4063.12 3077.92C4062.9 3078.16 4062.78 3078.46 4062.78 3078.8C4062.78 3079.21 4062.93 3079.5 4063.22 3079.69C4063.53 3079.89 4063.77 3079.96 4064.25 3080.08C4064.64 3080.17 4064.91 3080.27 4065.08 3080.37C4065.24 3080.46 4065.32 3080.61 4065.32 3080.82C4065.32 3081.27 4064.97 3081.48 4064.43 3081.48C4063.86 3081.48 4063.44 3081.16 4063.41 3080.69L4062.68 3080.73C4062.71 3081.48 4063.26 3081.98 4064.1 3082.08V3082.74H4064.67V3082.08C4065.49 3082.01 4066.05 3081.57 4066.05 3080.77ZM4069.31 3078.75C4069.31 3077.95 4068.83 3077.49 4067.99 3077.49C4067.15 3077.49 4066.65 3078 4066.64 3078.86L4067.35 3078.9C4067.36 3078.38 4067.58 3078.12 4068 3078.12C4068.38 3078.12 4068.6 3078.37 4068.6 3078.78C4068.6 3079.03 4068.55 3079.24 4068.46 3079.41C4068.37 3079.57 4068.2 3079.8 4067.94 3080.07L4066.65 3081.45V3082.03H4069.35V3081.4H4067.63L4068.47 3080.5C4068.74 3080.21 4068.95 3079.93 4069.09 3079.66C4069.24 3079.39 4069.31 3079.09 4069.31 3078.75ZM4070.24 3081.23C4070.01 3081.23 4069.82 3081.42 4069.82 3081.67C4069.82 3081.9 4070.01 3082.09 4070.24 3082.09C4070.48 3082.09 4070.68 3081.9 4070.68 3081.67C4070.68 3081.42 4070.48 3081.23 4070.24 3081.23ZM4074.52 3079.79C4074.52 3079.06 4074.37 3078.49 4074.07 3078.09C4073.77 3077.69 4073.37 3077.49 4072.87 3077.49C4072.36 3077.49 4071.96 3077.69 4071.66 3078.09C4071.36 3078.49 4071.21 3079.06 4071.21 3079.79C4071.21 3080.52 4071.36 3081.09 4071.66 3081.49C4071.96 3081.89 4072.36 3082.09 4072.87 3082.09C4073.37 3082.09 4073.77 3081.89 4074.07 3081.49C4074.37 3081.09 4074.52 3080.52 4074.52 3079.79ZM4072.87 3078.12C4073.49 3078.12 4073.79 3078.68 4073.79 3079.79C4073.79 3080.9 4073.49 3081.46 4072.87 3081.46C4072.25 3081.46 4071.94 3080.9 4071.94 3079.79C4071.94 3078.68 4072.25 3078.12 4072.87 3078.12ZM4077.79 3078.75C4077.79 3077.95 4077.3 3077.49 4076.46 3077.49C4075.62 3077.49 4075.13 3078 4075.11 3078.86L4075.83 3078.9C4075.83 3078.38 4076.06 3078.12 4076.48 3078.12C4076.86 3078.12 4077.08 3078.37 4077.08 3078.78C4077.08 3079.03 4077.03 3079.24 4076.94 3079.41C4076.85 3079.57 4076.67 3079.8 4076.42 3080.07L4075.13 3081.45V3082.03H4077.83V3081.4H4076.11L4076.94 3080.5C4077.21 3080.21 4077.42 3079.93 4077.57 3079.66C4077.72 3079.39 4077.79 3079.09 4077.79 3078.75Z" fill="#5C7BFF"/>
<rect x="4012.38" y="3100.03" width="24" height="2" rx="1" fill="#5C7BFF"/>
<rect x="4012.38" y="3105.03" width="10" height="2" rx="1" fill="#5C7BFF"/>
<rect x="4023.38" y="3105.03" width="14" height="2" rx="1" fill="#5C7BFF"/>
<circle cx="4003.38" cy="3104.03" r="5" fill="#5C7BFF"/>
<path d="M4066.05 3104.77C4066.05 3104.4 4065.92 3104.13 4065.68 3103.95C4065.43 3103.76 4065.04 3103.6 4064.51 3103.48C4064.14 3103.39 4063.88 3103.3 4063.73 3103.22C4063.59 3103.13 4063.52 3102.99 4063.52 3102.78C4063.52 3102.37 4063.82 3102.1 4064.35 3102.1C4064.85 3102.1 4065.18 3102.38 4065.21 3102.83L4065.93 3102.79C4065.91 3102.09 4065.42 3101.61 4064.67 3101.51V3100.84H4064.1V3101.5C4063.68 3101.54 4063.35 3101.68 4063.12 3101.92C4062.9 3102.16 4062.78 3102.46 4062.78 3102.8C4062.78 3103.21 4062.93 3103.5 4063.22 3103.69C4063.53 3103.89 4063.77 3103.96 4064.25 3104.08C4064.64 3104.17 4064.91 3104.27 4065.08 3104.37C4065.24 3104.46 4065.32 3104.61 4065.32 3104.82C4065.32 3105.27 4064.97 3105.48 4064.43 3105.48C4063.86 3105.48 4063.44 3105.16 4063.41 3104.69L4062.68 3104.73C4062.71 3105.48 4063.26 3105.98 4064.1 3106.08V3106.74H4064.67V3106.08C4065.49 3106.01 4066.05 3105.57 4066.05 3104.77ZM4069.31 3102.75C4069.31 3101.95 4068.83 3101.49 4067.99 3101.49C4067.15 3101.49 4066.65 3102 4066.64 3102.86L4067.35 3102.9C4067.36 3102.38 4067.58 3102.12 4068 3102.12C4068.38 3102.12 4068.6 3102.37 4068.6 3102.78C4068.6 3103.03 4068.55 3103.24 4068.46 3103.41C4068.37 3103.57 4068.2 3103.8 4067.94 3104.07L4066.65 3105.45V3106.03H4069.35V3105.4H4067.63L4068.47 3104.5C4068.74 3104.21 4068.95 3103.93 4069.09 3103.66C4069.24 3103.39 4069.31 3103.09 4069.31 3102.75ZM4070.24 3105.23C4070.01 3105.23 4069.82 3105.42 4069.82 3105.67C4069.82 3105.9 4070.01 3106.09 4070.24 3106.09C4070.48 3106.09 4070.68 3105.9 4070.68 3105.67C4070.68 3105.42 4070.48 3105.23 4070.24 3105.23ZM4074.52 3103.79C4074.52 3103.06 4074.37 3102.49 4074.07 3102.09C4073.77 3101.69 4073.37 3101.49 4072.87 3101.49C4072.36 3101.49 4071.96 3101.69 4071.66 3102.09C4071.36 3102.49 4071.21 3103.06 4071.21 3103.79C4071.21 3104.52 4071.36 3105.09 4071.66 3105.49C4071.96 3105.89 4072.36 3106.09 4072.87 3106.09C4073.37 3106.09 4073.77 3105.89 4074.07 3105.49C4074.37 3105.09 4074.52 3104.52 4074.52 3103.79ZM4072.87 3102.12C4073.49 3102.12 4073.79 3102.68 4073.79 3103.79C4073.79 3104.9 4073.49 3105.46 4072.87 3105.46C4072.25 3105.46 4071.94 3104.9 4071.94 3103.79C4071.94 3102.68 4072.25 3102.12 4072.87 3102.12ZM4077.79 3102.75C4077.79 3101.95 4077.3 3101.49 4076.46 3101.49C4075.62 3101.49 4075.13 3102 4075.11 3102.86L4075.83 3102.9C4075.83 3102.38 4076.06 3102.12 4076.48 3102.12C4076.86 3102.12 4077.08 3102.37 4077.08 3102.78C4077.08 3103.03 4077.03 3103.24 4076.94 3103.41C4076.85 3103.57 4076.67 3103.8 4076.42 3104.07L4075.13 3105.45V3106.03H4077.83V3105.4H4076.11L4076.94 3104.5C4077.21 3104.21 4077.42 3103.93 4077.57 3103.66C4077.72 3103.39 4077.79 3103.09 4077.79 3102.75Z" fill="#5C7BFF"/>
<defs>
<filter id="filter0_d_35_3064" x="0.523438" y="42.2715" width="2680.22" height="2539.96" filterUnits="userSpaceOnUse" color-interpolation-filters="sRGB">
<feFlood flood-opacity="0" result="BackgroundImageFix"/>
<feColorMatrix in="SourceAlpha" type="matrix" values="0 0 0 0 0 0 0 0 0 0 0 0 0 0 0 0 0 0 127 0" result="hardAlpha"/>
<feOffset dx="30" dy="80"/>
<feGaussianBlur stdDeviation="100"/>
<feComposite in2="hardAlpha" operator="out"/>
<feColorMatrix type="matrix" values="0 0 0 0 0 0 0 0 0 0 0 0 0 0 0 0 0 0 0.1 0"/>
<feBlend mode="normal" in2="BackgroundImageFix" result="effect1_dropShadow_35_3064"/>
<feBlend mode="normal" in="SourceGraphic" in2="effect1_dropShadow_35_3064" result="shape"/>
</filter>
<filter id="filter1_d_35_3064" x="2427.26" y="42.2715" width="2680.22" height="2539.96" filterUnits="userSpaceOnUse" color-interpolation-filters="sRGB">
<feFlood flood-opacity="0" result="BackgroundImageFix"/>
<feColorMatrix in="SourceAlpha" type="matrix" values="0 0 0 0 0 0 0 0 0 0 0 0 0 0 0 0 0 0 127 0" result="hardAlpha"/>
<feOffset dx="30" dy="80"/>
<feGaussianBlur stdDeviation="100"/>
<feComposite in2="hardAlpha" operator="out"/>
<feColorMatrix type="matrix" values="0 0 0 0 0 0 0 0 0 0 0 0 0 0 0 0 0 0 0.1 0"/>
<feBlend mode="normal" in2="BackgroundImageFix" result="effect1_dropShadow_35_3064"/>
<feBlend mode="normal" in="SourceGraphic" in2="effect1_dropShadow_35_3064" result="shape"/>
</filter>
<filter id="filter2_d_35_3064" x="0.503906" y="2344.5" width="3934.8" height="2773.23" filterUnits="userSpaceOnUse" color-interpolation-filters="sRGB">
<feFlood flood-opacity="0" result="BackgroundImageFix"/>
<feColorMatrix in="SourceAlpha" type="matrix" values="0 0 0 0 0 0 0 0 0 0 0 0 0 0 0 0 0 0 127 0" result="hardAlpha"/>
<feOffset dx="30" dy="80"/>
<feGaussianBlur stdDeviation="100"/>
<feComposite in2="hardAlpha" operator="out"/>
<feColorMatrix type="matrix" values="0 0 0 0 0 0 0 0 0 0 0 0 0 0 0 0 0 0 0.1 0"/>
<feBlend mode="normal" in2="BackgroundImageFix" result="effect1_dropShadow_35_3064"/>
<feBlend mode="normal" in="SourceGraphic" in2="effect1_dropShadow_35_3064" result="shape"/>
</filter>
<linearGradient id="paint0_linear_35_3064" x1="1612.8" y1="1668.36" x2="2049.78" y2="4218.29" gradientUnits="userSpaceOnUse">
<stop stop-color="#5C7BFF"/>
<stop offset="1" stop-color="#FEF0EE" stop-opacity="0"/>
</linearGradient>
</defs>
</svg>
