<svg width="2284" height="2272" viewBox="0 0 2284 2272" fill="none" xmlns="http://www.w3.org/2000/svg">
<rect x="112" y="56" width="2000" height="2000" rx="18" fill="#1B1818"/>
<g filter="url(#filter0_d_35_3064)">
<rect x="170.609" y="120.909" width="912.088" height="855.984" rx="10" fill="black"/>
</g>
<path d="M351.365 716.108C351.365 714.156 350.693 712.684 349.381 711.724C348.069 710.732 345.989 709.9 343.173 709.228C341.189 708.748 339.813 708.3 339.013 707.852C338.245 707.372 337.861 706.604 337.861 705.484C337.861 703.34 339.493 701.9 342.309 701.9C344.997 701.9 346.757 703.372 346.885 705.772L350.757 705.548C350.629 701.804 348.005 699.276 344.005 698.732V695.18H340.997V698.668C338.725 698.892 336.965 699.628 335.749 700.94C334.565 702.22 333.957 703.788 333.957 705.612C333.957 707.82 334.725 709.356 336.293 710.38C337.925 711.404 339.237 711.82 341.765 712.46C343.845 712.94 345.317 713.452 346.181 713.964C347.045 714.444 347.493 715.244 347.493 716.364C347.493 718.764 345.637 719.884 342.725 719.884C339.685 719.884 337.445 718.22 337.285 715.692L333.413 715.916C333.541 719.916 336.517 722.572 340.997 723.084V726.636H344.005V723.116C348.389 722.732 351.365 720.364 351.365 716.108ZM368.779 705.356C368.779 701.1 366.187 698.604 361.707 698.604C357.227 698.604 354.603 701.324 354.507 705.932L358.315 706.156C358.347 703.372 359.531 701.996 361.803 701.996C363.819 701.996 364.971 703.34 364.971 705.516C364.971 706.828 364.715 707.948 364.235 708.844C363.755 709.74 362.827 710.924 361.451 712.364L354.571 719.724V722.86H369.003V719.468H359.819L364.267 714.7C365.707 713.132 366.827 711.628 367.595 710.22C368.395 708.78 368.779 707.18 368.779 705.356ZM381.485 698.924L373.229 710.252C372.109 711.82 371.533 713.516 371.533 715.308C371.533 717.676 372.301 719.596 373.837 721.036C375.405 722.476 377.357 723.18 379.757 723.18C382.125 723.18 384.077 722.476 385.613 721.036C387.181 719.596 387.949 717.676 387.949 715.308C387.949 712.972 387.181 711.052 385.645 709.612C384.141 708.14 382.189 707.372 379.853 707.34L386.029 698.924H381.485ZM379.757 719.788C377.165 719.788 375.405 717.996 375.405 715.18C375.405 713.996 375.693 713.004 376.301 712.204C377.069 711.18 378.221 710.668 379.757 710.668C382.349 710.668 384.109 712.364 384.109 715.18C384.109 717.996 382.317 719.788 379.757 719.788ZM392.897 718.572C391.649 718.572 390.625 719.596 390.625 720.908C390.625 722.156 391.649 723.18 392.897 723.18C394.177 723.18 395.233 722.156 395.233 720.908C395.233 719.596 394.177 718.572 392.897 718.572ZM407.891 698.924L399.635 710.252C398.515 711.82 397.939 713.516 397.939 715.308C397.939 717.676 398.707 719.596 400.243 721.036C401.811 722.476 403.763 723.18 406.163 723.18C408.531 723.18 410.483 722.476 412.019 721.036C413.587 719.596 414.355 717.676 414.355 715.308C414.355 712.972 413.587 711.052 412.051 709.612C410.547 708.14 408.595 707.372 406.259 707.34L412.435 698.924H407.891ZM406.163 719.788C403.571 719.788 401.811 717.996 401.811 715.18C401.811 713.996 402.099 713.004 402.707 712.204C403.475 711.18 404.627 710.668 406.163 710.668C408.755 710.668 410.515 712.364 410.515 715.18C410.515 717.996 408.723 719.788 406.163 719.788ZM430.344 698.924H427.144L416.552 714.7V717.836H426.6V722.86H430.344V717.836H434.088V714.444H430.344V698.924ZM426.568 705.804V714.444H420.744L426.568 705.804Z" fill="white"/>
<path d="M333.221 592.27H334.693V587.55H337.909C338.997 587.55 339.877 587.23 340.565 586.606C341.253 585.982 341.589 585.086 341.589 583.934C341.589 582.766 341.253 581.87 340.565 581.246C339.877 580.622 338.997 580.302 337.909 580.302H333.221V592.27ZM337.733 581.598C339.093 581.598 340.085 582.414 340.085 583.934C340.085 585.422 339.093 586.254 337.733 586.254H334.677V581.598H337.733ZM347.308 584.014C346.044 584.014 345.228 584.59 344.908 585.342V584.11H343.564V592.27H344.94V587.582C344.94 586.302 345.884 585.342 347.308 585.342V584.014ZM350.617 581.166C350.617 580.654 350.201 580.254 349.705 580.254C349.209 580.254 348.793 580.654 348.793 581.166C348.793 581.662 349.193 582.062 349.705 582.062C350.201 582.062 350.617 581.662 350.617 581.166ZM350.377 584.11H349.001V592.27H350.377V584.11ZM356.645 583.966C355.461 583.966 354.501 584.35 353.749 585.102C352.997 585.854 352.629 586.878 352.629 588.19C352.629 589.502 352.997 590.542 353.749 591.294C354.501 592.046 355.477 592.43 356.645 592.43C358.613 592.43 360.021 591.31 360.325 589.502L358.981 589.374C358.789 590.526 357.925 591.23 356.645 591.23C355.109 591.23 354.037 590.094 354.037 588.19C354.037 586.286 355.093 585.15 356.645 585.15C357.877 585.15 358.821 585.918 358.965 587.134L360.309 587.022C360.197 586.078 359.797 585.342 359.109 584.798C358.437 584.238 357.621 583.966 356.645 583.966ZM369.639 587.966C369.639 586.75 369.303 585.774 368.631 585.054C367.975 584.334 367.063 583.966 365.895 583.966C364.711 583.966 363.751 584.35 362.999 585.102C362.247 585.854 361.879 586.894 361.879 588.19C361.879 589.486 362.247 590.526 362.999 591.294C363.751 592.046 364.727 592.43 365.927 592.43C366.855 592.43 367.655 592.19 368.311 591.71C368.967 591.214 369.383 590.606 369.559 589.854L368.183 589.774C367.911 590.686 367.095 591.23 365.895 591.23C364.439 591.23 363.415 590.27 363.335 588.718H369.639V587.966ZM365.879 585.166C367.399 585.166 368.215 586.126 368.263 587.598H363.335C363.415 586.046 364.423 585.166 365.879 585.166Z" fill="white"/>
<path d="M568.691 263.368H566.759L563.903 267.974L561.033 263.368H559.101L563.077 269.626V273.84H564.729V269.626L568.691 263.368ZM574.819 270.074C574.819 268.982 574.511 268.114 573.909 267.484C573.307 266.854 572.481 266.532 571.459 266.532C570.395 266.532 569.527 266.868 568.869 267.54C568.211 268.198 567.875 269.108 567.875 270.256C567.875 271.404 568.211 272.314 568.883 272.986C569.555 273.644 570.423 273.98 571.501 273.98C572.313 273.98 573.027 273.756 573.629 273.322C574.231 272.888 574.609 272.342 574.749 271.684L573.167 271.6C572.957 272.286 572.397 272.622 571.459 272.622C570.353 272.622 569.611 271.922 569.541 270.844H574.819V270.074ZM571.445 267.876C572.579 267.876 573.195 268.548 573.237 269.612H569.555C569.625 268.506 570.381 267.876 571.445 267.876ZM579.24 266.532C578.386 266.532 577.686 266.784 577.168 267.302C576.65 267.806 576.384 268.394 576.384 269.066L577.966 269.122C577.966 268.436 578.414 267.904 579.254 267.904C580.108 267.904 580.528 268.408 580.528 269.402V269.612L578.82 269.71C577.07 269.808 576.188 270.536 576.188 271.88C576.188 273.21 577.126 273.98 578.582 273.98C579.324 273.98 579.982 273.714 580.528 273.196V273.84H582.11V269.374C582.11 267.54 581.088 266.532 579.24 266.532ZM580.542 271.082C580.542 272.132 579.898 272.664 578.848 272.664C578.134 272.664 577.77 272.398 577.77 271.852C577.77 271.278 578.19 270.97 579.044 270.928L580.542 270.83V271.082ZM587.876 266.574C586.854 266.574 586.182 266.938 585.832 267.666V266.658H584.306V273.84H585.874V269.934C585.874 268.87 586.658 268.1 587.876 268.1V266.574ZM592.894 266.532C591.9 266.532 591.2 266.896 590.794 267.61V266.658H589.31V273.84H590.878V269.738C590.878 268.73 591.55 267.988 592.544 267.988C593.496 267.988 594.112 268.66 594.112 269.724V273.84H595.694V269.514C595.694 268.604 595.428 267.876 594.91 267.344C594.392 266.798 593.72 266.532 592.894 266.532ZM598.344 271.964C597.798 271.964 597.35 272.412 597.35 272.986C597.35 273.532 597.798 273.98 598.344 273.98C598.904 273.98 599.366 273.532 599.366 272.986C599.366 272.412 598.904 271.964 598.344 271.964ZM604.162 262.892C602.482 262.892 601.418 263.942 601.418 265.664V266.658H600.06V268.016H601.418V273.84H602.986V268.016H604.75V266.658H602.986V265.622C602.986 264.782 603.532 264.264 604.33 264.264C604.456 264.264 604.61 264.278 604.778 264.292V262.934C604.596 262.906 604.386 262.892 604.162 262.892ZM606.178 263.48C605.8 263.858 605.8 264.474 606.178 264.866C606.57 265.244 607.186 265.244 607.578 264.866C607.97 264.474 607.97 263.858 607.578 263.48C607.186 263.088 606.57 263.088 606.178 263.48ZM607.662 266.658H606.094V273.84H607.662V266.658ZM613.511 266.532C612.517 266.532 611.817 266.896 611.411 267.61V266.658H609.927V273.84H611.495V269.738C611.495 268.73 612.167 267.988 613.161 267.988C614.113 267.988 614.729 268.66 614.729 269.724V273.84H616.311V269.514C616.311 268.604 616.045 267.876 615.527 267.344C615.009 266.798 614.337 266.532 613.511 266.532ZM621.117 266.532C620.263 266.532 619.563 266.784 619.045 267.302C618.527 267.806 618.261 268.394 618.261 269.066L619.843 269.122C619.843 268.436 620.291 267.904 621.131 267.904C621.985 267.904 622.405 268.408 622.405 269.402V269.612L620.697 269.71C618.947 269.808 618.065 270.536 618.065 271.88C618.065 273.21 619.003 273.98 620.459 273.98C621.201 273.98 621.859 273.714 622.405 273.196V273.84H623.987V269.374C623.987 267.54 622.965 266.532 621.117 266.532ZM622.419 271.082C622.419 272.132 621.775 272.664 620.725 272.664C620.011 272.664 619.647 272.398 619.647 271.852C619.647 271.278 620.067 270.97 620.921 270.928L622.419 270.83V271.082ZM629.767 266.532C628.773 266.532 628.073 266.896 627.667 267.61V266.658H626.183V273.84H627.751V269.738C627.751 268.73 628.423 267.988 629.417 267.988C630.369 267.988 630.985 268.66 630.985 269.724V273.84H632.567V269.514C632.567 268.604 632.301 267.876 631.783 267.344C631.265 266.798 630.593 266.532 629.767 266.532ZM637.919 266.532C636.855 266.532 635.987 266.868 635.315 267.526C634.657 268.184 634.321 269.094 634.321 270.256C634.321 271.404 634.657 272.314 635.329 272.986C636.001 273.644 636.869 273.98 637.919 273.98C639.669 273.98 640.957 272.958 641.237 271.334L639.697 271.194C639.543 272.09 638.885 272.622 637.919 272.622C636.743 272.622 635.917 271.726 635.917 270.256C635.917 268.758 636.729 267.876 637.919 267.876C638.871 267.876 639.571 268.45 639.683 269.388L641.223 269.248C640.985 267.568 639.669 266.532 637.919 266.532ZM649.441 270.074C649.441 268.982 649.133 268.114 648.531 267.484C647.929 266.854 647.103 266.532 646.081 266.532C645.017 266.532 644.149 266.868 643.491 267.54C642.833 268.198 642.497 269.108 642.497 270.256C642.497 271.404 642.833 272.314 643.505 272.986C644.177 273.644 645.045 273.98 646.123 273.98C646.935 273.98 647.649 273.756 648.251 273.322C648.853 272.888 649.231 272.342 649.371 271.684L647.789 271.6C647.579 272.286 647.019 272.622 646.081 272.622C644.975 272.622 644.233 271.922 644.163 270.844H649.441V270.074ZM646.067 267.876C647.201 267.876 647.817 268.548 647.859 269.612H644.177C644.247 268.506 645.003 267.876 646.067 267.876ZM653.567 266.532C651.845 266.532 650.837 267.4 650.837 268.702C650.837 269.388 651.047 269.85 651.551 270.172C651.817 270.326 652.069 270.438 652.307 270.522C652.545 270.606 652.895 270.704 653.329 270.802C653.959 270.956 654.365 271.082 654.575 271.208C654.785 271.334 654.883 271.53 654.883 271.81C654.883 272.328 654.393 272.622 653.665 272.622C652.811 272.622 652.349 272.272 652.265 271.586L650.697 271.684C650.865 273.126 651.943 273.98 653.637 273.98C655.387 273.98 656.451 273.126 656.451 271.684C656.451 270.494 655.653 270.004 653.973 269.57L653.147 269.374C652.937 269.318 652.895 269.29 652.741 269.234C652.517 269.108 652.405 268.94 652.405 268.674C652.405 268.142 652.783 267.876 653.525 267.876C654.281 267.876 654.687 268.212 654.757 268.898L656.325 268.814C656.171 267.47 655.205 266.532 653.567 266.532Z" fill="white"/>
<ellipse opacity="0.1" cx="412.367" cy="299.408" rx="80.5861" ry="89.2495" fill="white"/>
<path opacity="0.4" d="M425.997 258.84H398.744C397.352 258.84 396.18 260.138 396.18 261.68C396.18 263.221 397.352 264.519 398.744 264.519H410.685L415.813 272.065C416.949 273.728 417.095 273.972 419.22 273.972H432.846C434.238 273.972 435.594 274.175 436.912 274.58C437.059 275.31 437.132 276.041 437.132 276.811V278.231C437.132 279.773 438.304 281.071 439.696 281.071C441.088 281.071 442.26 279.773 442.26 278.231V276.771C442.187 266.872 434.934 258.84 425.997 258.84Z" fill="white"/>
<path d="M442.185 277.258C440.61 276 438.815 275.067 436.874 274.54C435.592 274.134 434.2 273.931 432.808 273.931H419.182C417.057 273.931 416.91 273.688 415.775 272.024L410.647 264.479C408.266 260.99 406.398 258.84 400.427 258.84H391.929C382.991 258.84 375.738 266.872 375.738 276.771V322.045C375.738 331.943 382.991 339.976 391.929 339.976H432.808C441.746 339.976 448.998 331.943 448.998 322.045V291.862C448.998 285.818 446.324 280.503 442.185 277.258ZM420.903 315.635H403.834C402.405 315.635 401.269 314.377 401.269 312.795C401.269 311.254 402.405 309.955 403.834 309.955H420.866C422.258 309.955 423.431 311.254 423.431 312.795C423.431 314.377 422.295 315.635 420.903 315.635Z" fill="white"/>
<g filter="url(#filter1_d_35_3064)">
<rect x="1141.3" y="120.909" width="912.088" height="855.984" rx="10" fill="black"/>
</g>
<path d="M1322.06 716.108C1322.06 714.156 1321.39 712.684 1320.08 711.724C1318.76 710.732 1316.68 709.9 1313.87 709.228C1311.88 708.748 1310.51 708.3 1309.71 707.852C1308.94 707.372 1308.56 706.604 1308.56 705.484C1308.56 703.34 1310.19 701.9 1313 701.9C1315.69 701.9 1317.45 703.372 1317.58 705.772L1321.45 705.548C1321.32 701.804 1318.7 699.276 1314.7 698.732V695.18H1311.69V698.668C1309.42 698.892 1307.66 699.628 1306.44 700.94C1305.26 702.22 1304.65 703.788 1304.65 705.612C1304.65 707.82 1305.42 709.356 1306.99 710.38C1308.62 711.404 1309.93 711.82 1312.46 712.46C1314.54 712.94 1316.01 713.452 1316.88 713.964C1317.74 714.444 1318.19 715.244 1318.19 716.364C1318.19 718.764 1316.33 719.884 1313.42 719.884C1310.38 719.884 1308.14 718.22 1307.98 715.692L1304.11 715.916C1304.24 719.916 1307.21 722.572 1311.69 723.084V726.636H1314.7V723.116C1319.08 722.732 1322.06 720.364 1322.06 716.108ZM1339.47 705.356C1339.47 701.1 1336.88 698.604 1332.4 698.604C1327.92 698.604 1325.3 701.324 1325.2 705.932L1329.01 706.156C1329.04 703.372 1330.23 701.996 1332.5 701.996C1334.51 701.996 1335.67 703.34 1335.67 705.516C1335.67 706.828 1335.41 707.948 1334.93 708.844C1334.45 709.74 1333.52 710.924 1332.15 712.364L1325.27 719.724V722.86H1339.7V719.468H1330.51L1334.96 714.7C1336.4 713.132 1337.52 711.628 1338.29 710.22C1339.09 708.78 1339.47 707.18 1339.47 705.356ZM1352.18 698.924L1343.92 710.252C1342.8 711.82 1342.23 713.516 1342.23 715.308C1342.23 717.676 1343 719.596 1344.53 721.036C1346.1 722.476 1348.05 723.18 1350.45 723.18C1352.82 723.18 1354.77 722.476 1356.31 721.036C1357.88 719.596 1358.64 717.676 1358.64 715.308C1358.64 712.972 1357.88 711.052 1356.34 709.612C1354.84 708.14 1352.88 707.372 1350.55 707.34L1356.72 698.924H1352.18ZM1350.45 719.788C1347.86 719.788 1346.1 717.996 1346.1 715.18C1346.1 713.996 1346.39 713.004 1347 712.204C1347.76 711.18 1348.92 710.668 1350.45 710.668C1353.04 710.668 1354.8 712.364 1354.8 715.18C1354.8 717.996 1353.01 719.788 1350.45 719.788ZM1363.59 718.572C1362.34 718.572 1361.32 719.596 1361.32 720.908C1361.32 722.156 1362.34 723.18 1363.59 723.18C1364.87 723.18 1365.93 722.156 1365.93 720.908C1365.93 719.596 1364.87 718.572 1363.59 718.572ZM1378.59 698.924L1370.33 710.252C1369.21 711.82 1368.63 713.516 1368.63 715.308C1368.63 717.676 1369.4 719.596 1370.94 721.036C1372.51 722.476 1374.46 723.18 1376.86 723.18C1379.23 723.18 1381.18 722.476 1382.71 721.036C1384.28 719.596 1385.05 717.676 1385.05 715.308C1385.05 712.972 1384.28 711.052 1382.75 709.612C1381.24 708.14 1379.29 707.372 1376.95 707.34L1383.13 698.924H1378.59ZM1376.86 719.788C1374.27 719.788 1372.51 717.996 1372.51 715.18C1372.51 713.996 1372.79 713.004 1373.4 712.204C1374.17 711.18 1375.32 710.668 1376.86 710.668C1379.45 710.668 1381.21 712.364 1381.21 715.18C1381.21 717.996 1379.42 719.788 1376.86 719.788ZM1401.04 698.924H1397.84L1387.25 714.7V717.836H1397.29V722.86H1401.04V717.836H1404.78V714.444H1401.04V698.924ZM1397.26 705.804V714.444H1391.44L1397.26 705.804Z" fill="white"/>
<path d="M1303.92 592.27H1305.39V587.55H1308.6C1309.69 587.55 1310.57 587.23 1311.26 586.606C1311.95 585.982 1312.28 585.086 1312.28 583.934C1312.28 582.766 1311.95 581.87 1311.26 581.246C1310.57 580.622 1309.69 580.302 1308.6 580.302H1303.92V592.27ZM1308.43 581.598C1309.79 581.598 1310.78 582.414 1310.78 583.934C1310.78 585.422 1309.79 586.254 1308.43 586.254H1305.37V581.598H1308.43ZM1318 584.014C1316.74 584.014 1315.92 584.59 1315.6 585.342V584.11H1314.26V592.27H1315.64V587.582C1315.64 586.302 1316.58 585.342 1318 585.342V584.014ZM1321.31 581.166C1321.31 580.654 1320.9 580.254 1320.4 580.254C1319.9 580.254 1319.49 580.654 1319.49 581.166C1319.49 581.662 1319.89 582.062 1320.4 582.062C1320.9 582.062 1321.31 581.662 1321.31 581.166ZM1321.07 584.11H1319.7V592.27H1321.07V584.11ZM1327.34 583.966C1326.16 583.966 1325.2 584.35 1324.44 585.102C1323.69 585.854 1323.32 586.878 1323.32 588.19C1323.32 589.502 1323.69 590.542 1324.44 591.294C1325.2 592.046 1326.17 592.43 1327.34 592.43C1329.31 592.43 1330.72 591.31 1331.02 589.502L1329.68 589.374C1329.48 590.526 1328.62 591.23 1327.34 591.23C1325.8 591.23 1324.73 590.094 1324.73 588.19C1324.73 586.286 1325.79 585.15 1327.34 585.15C1328.57 585.15 1329.52 585.918 1329.66 587.134L1331 587.022C1330.89 586.078 1330.49 585.342 1329.8 584.798C1329.13 584.238 1328.32 583.966 1327.34 583.966ZM1340.33 587.966C1340.33 586.75 1340 585.774 1339.33 585.054C1338.67 584.334 1337.76 583.966 1336.59 583.966C1335.41 583.966 1334.45 584.35 1333.69 585.102C1332.94 585.854 1332.57 586.894 1332.57 588.19C1332.57 589.486 1332.94 590.526 1333.69 591.294C1334.45 592.046 1335.42 592.43 1336.62 592.43C1337.55 592.43 1338.35 592.19 1339.01 591.71C1339.66 591.214 1340.08 590.606 1340.25 589.854L1338.88 589.774C1338.61 590.686 1337.79 591.23 1336.59 591.23C1335.13 591.23 1334.11 590.27 1334.03 588.718H1340.33V587.966ZM1336.57 585.166C1338.09 585.166 1338.91 586.126 1338.96 587.598H1334.03C1334.11 586.046 1335.12 585.166 1336.57 585.166Z" fill="white"/>
<path d="M1539.39 263.368H1537.45L1534.6 267.974L1531.73 263.368H1529.8L1533.77 269.626V273.84H1535.42V269.626L1539.39 263.368ZM1545.51 270.074C1545.51 268.982 1545.21 268.114 1544.6 267.484C1544 266.854 1543.18 266.532 1542.15 266.532C1541.09 266.532 1540.22 266.868 1539.56 267.54C1538.91 268.198 1538.57 269.108 1538.57 270.256C1538.57 271.404 1538.91 272.314 1539.58 272.986C1540.25 273.644 1541.12 273.98 1542.2 273.98C1543.01 273.98 1543.72 273.756 1544.32 273.322C1544.93 272.888 1545.3 272.342 1545.44 271.684L1543.86 271.6C1543.65 272.286 1543.09 272.622 1542.15 272.622C1541.05 272.622 1540.31 271.922 1540.24 270.844H1545.51V270.074ZM1542.14 267.876C1543.27 267.876 1543.89 268.548 1543.93 269.612H1540.25C1540.32 268.506 1541.08 267.876 1542.14 267.876ZM1549.94 266.532C1549.08 266.532 1548.38 266.784 1547.86 267.302C1547.35 267.806 1547.08 268.394 1547.08 269.066L1548.66 269.122C1548.66 268.436 1549.11 267.904 1549.95 267.904C1550.8 267.904 1551.22 268.408 1551.22 269.402V269.612L1549.52 269.71C1547.77 269.808 1546.88 270.536 1546.88 271.88C1546.88 273.21 1547.82 273.98 1549.28 273.98C1550.02 273.98 1550.68 273.714 1551.22 273.196V273.84H1552.81V269.374C1552.81 267.54 1551.78 266.532 1549.94 266.532ZM1551.24 271.082C1551.24 272.132 1550.59 272.664 1549.54 272.664C1548.83 272.664 1548.47 272.398 1548.47 271.852C1548.47 271.278 1548.89 270.97 1549.74 270.928L1551.24 270.83V271.082ZM1558.57 266.574C1557.55 266.574 1556.88 266.938 1556.53 267.666V266.658H1555V273.84H1556.57V269.934C1556.57 268.87 1557.35 268.1 1558.57 268.1V266.574ZM1563.59 266.532C1562.6 266.532 1561.9 266.896 1561.49 267.61V266.658H1560.01V273.84H1561.57V269.738C1561.57 268.73 1562.25 267.988 1563.24 267.988C1564.19 267.988 1564.81 268.66 1564.81 269.724V273.84H1566.39V269.514C1566.39 268.604 1566.12 267.876 1565.61 267.344C1565.09 266.798 1564.42 266.532 1563.59 266.532ZM1569.04 271.964C1568.49 271.964 1568.05 272.412 1568.05 272.986C1568.05 273.532 1568.49 273.98 1569.04 273.98C1569.6 273.98 1570.06 273.532 1570.06 272.986C1570.06 272.412 1569.6 271.964 1569.04 271.964ZM1574.86 262.892C1573.18 262.892 1572.11 263.942 1572.11 265.664V266.658H1570.75V268.016H1572.11V273.84H1573.68V268.016H1575.44V266.658H1573.68V265.622C1573.68 264.782 1574.23 264.264 1575.02 264.264C1575.15 264.264 1575.3 264.278 1575.47 264.292V262.934C1575.29 262.906 1575.08 262.892 1574.86 262.892ZM1576.87 263.48C1576.49 263.858 1576.49 264.474 1576.87 264.866C1577.26 265.244 1577.88 265.244 1578.27 264.866C1578.66 264.474 1578.66 263.858 1578.27 263.48C1577.88 263.088 1577.26 263.088 1576.87 263.48ZM1578.36 266.658H1576.79V273.84H1578.36V266.658ZM1584.21 266.532C1583.21 266.532 1582.51 266.896 1582.11 267.61V266.658H1580.62V273.84H1582.19V269.738C1582.19 268.73 1582.86 267.988 1583.86 267.988C1584.81 267.988 1585.42 268.66 1585.42 269.724V273.84H1587.01V269.514C1587.01 268.604 1586.74 267.876 1586.22 267.344C1585.7 266.798 1585.03 266.532 1584.21 266.532ZM1591.81 266.532C1590.96 266.532 1590.26 266.784 1589.74 267.302C1589.22 267.806 1588.96 268.394 1588.96 269.066L1590.54 269.122C1590.54 268.436 1590.99 267.904 1591.83 267.904C1592.68 267.904 1593.1 268.408 1593.1 269.402V269.612L1591.39 269.71C1589.64 269.808 1588.76 270.536 1588.76 271.88C1588.76 273.21 1589.7 273.98 1591.15 273.98C1591.9 273.98 1592.55 273.714 1593.1 273.196V273.84H1594.68V269.374C1594.68 267.54 1593.66 266.532 1591.81 266.532ZM1593.11 271.082C1593.11 272.132 1592.47 272.664 1591.42 272.664C1590.71 272.664 1590.34 272.398 1590.34 271.852C1590.34 271.278 1590.76 270.97 1591.62 270.928L1593.11 270.83V271.082ZM1600.46 266.532C1599.47 266.532 1598.77 266.896 1598.36 267.61V266.658H1596.88V273.84H1598.45V269.738C1598.45 268.73 1599.12 267.988 1600.11 267.988C1601.06 267.988 1601.68 268.66 1601.68 269.724V273.84H1603.26V269.514C1603.26 268.604 1603 267.876 1602.48 267.344C1601.96 266.798 1601.29 266.532 1600.46 266.532ZM1608.61 266.532C1607.55 266.532 1606.68 266.868 1606.01 267.526C1605.35 268.184 1605.02 269.094 1605.02 270.256C1605.02 271.404 1605.35 272.314 1606.02 272.986C1606.7 273.644 1607.56 273.98 1608.61 273.98C1610.36 273.98 1611.65 272.958 1611.93 271.334L1610.39 271.194C1610.24 272.09 1609.58 272.622 1608.61 272.622C1607.44 272.622 1606.61 271.726 1606.61 270.256C1606.61 268.758 1607.42 267.876 1608.61 267.876C1609.57 267.876 1610.27 268.45 1610.38 269.388L1611.92 269.248C1611.68 267.568 1610.36 266.532 1608.61 266.532ZM1620.14 270.074C1620.14 268.982 1619.83 268.114 1619.23 267.484C1618.62 266.854 1617.8 266.532 1616.78 266.532C1615.71 266.532 1614.84 266.868 1614.19 267.54C1613.53 268.198 1613.19 269.108 1613.19 270.256C1613.19 271.404 1613.53 272.314 1614.2 272.986C1614.87 273.644 1615.74 273.98 1616.82 273.98C1617.63 273.98 1618.34 273.756 1618.95 273.322C1619.55 272.888 1619.93 272.342 1620.07 271.684L1618.48 271.6C1618.27 272.286 1617.71 272.622 1616.78 272.622C1615.67 272.622 1614.93 271.922 1614.86 270.844H1620.14V270.074ZM1616.76 267.876C1617.9 267.876 1618.51 268.548 1618.55 269.612H1614.87C1614.94 268.506 1615.7 267.876 1616.76 267.876ZM1624.26 266.532C1622.54 266.532 1621.53 267.4 1621.53 268.702C1621.53 269.388 1621.74 269.85 1622.25 270.172C1622.51 270.326 1622.76 270.438 1623 270.522C1623.24 270.606 1623.59 270.704 1624.02 270.802C1624.65 270.956 1625.06 271.082 1625.27 271.208C1625.48 271.334 1625.58 271.53 1625.58 271.81C1625.58 272.328 1625.09 272.622 1624.36 272.622C1623.51 272.622 1623.04 272.272 1622.96 271.586L1621.39 271.684C1621.56 273.126 1622.64 273.98 1624.33 273.98C1626.08 273.98 1627.15 273.126 1627.15 271.684C1627.15 270.494 1626.35 270.004 1624.67 269.57L1623.84 269.374C1623.63 269.318 1623.59 269.29 1623.44 269.234C1623.21 269.108 1623.1 268.94 1623.1 268.674C1623.1 268.142 1623.48 267.876 1624.22 267.876C1624.98 267.876 1625.38 268.212 1625.45 268.898L1627.02 268.814C1626.87 267.47 1625.9 266.532 1624.26 266.532Z" fill="white"/>
<ellipse opacity="0.1" cx="1383.06" cy="299.408" rx="80.5861" ry="89.2495" fill="white"/>
<path opacity="0.4" d="M1396.69 258.84H1369.44C1368.05 258.84 1366.88 260.138 1366.88 261.68C1366.88 263.221 1368.05 264.519 1369.44 264.519H1381.38L1386.51 272.065C1387.64 273.728 1387.79 273.972 1389.92 273.972H1403.54C1404.93 273.972 1406.29 274.175 1407.61 274.58C1407.75 275.31 1407.83 276.041 1407.83 276.811V278.231C1407.83 279.773 1409 281.071 1410.39 281.071C1411.78 281.071 1412.96 279.773 1412.96 278.231V276.771C1412.88 266.872 1405.63 258.84 1396.69 258.84Z" fill="white"/>
<path d="M1412.88 277.258C1411.31 276 1409.51 275.067 1407.57 274.54C1406.29 274.134 1404.9 273.931 1403.5 273.931H1389.88C1387.75 273.931 1387.61 273.688 1386.47 272.024L1381.34 264.479C1378.96 260.99 1377.09 258.84 1371.12 258.84H1362.62C1353.69 258.84 1346.43 266.872 1346.43 276.771V322.045C1346.43 331.943 1353.69 339.976 1362.62 339.976H1403.5C1412.44 339.976 1419.69 331.943 1419.69 322.045V291.862C1419.69 285.818 1417.02 280.503 1412.88 277.258ZM1391.6 315.635H1374.53C1373.1 315.635 1371.96 314.377 1371.96 312.795C1371.96 311.254 1373.1 309.955 1374.53 309.955H1391.56C1392.95 309.955 1394.13 311.254 1394.13 312.795C1394.13 314.377 1392.99 315.635 1391.6 315.635Z" fill="white"/>
<g filter="url(#filter2_d_35_3064)">
<rect x="170.602" y="1041.8" width="1413.92" height="949.29" rx="10" fill="black"/>
</g>
<g opacity="0.2">
<rect x="351.117" y="1185.28" width="4.07819" height="569.094" fill="#B9C1D9"/>
<rect x="485.703" y="1185.28" width="4.07819" height="569.094" fill="#B9C1D9"/>
<rect x="620.273" y="1185.28" width="4.07819" height="569.094" fill="#B9C1D9"/>
<rect x="754.867" y="1185.28" width="4.07819" height="569.094" fill="#B9C1D9"/>
<rect x="889.438" y="1185.28" width="4.07819" height="569.094" fill="#B9C1D9"/>
<rect x="1024.02" y="1185.28" width="4.07819" height="569.094" fill="#B9C1D9"/>
<rect x="1158.59" y="1185.28" width="4.07819" height="569.094" fill="#B9C1D9"/>
<rect x="1293.18" y="1185.28" width="4.07819" height="569.094" fill="#B9C1D9"/>
<rect x="1428.2" y="1748.72" width="4.03527" height="1074.84" transform="rotate(90 1428.2 1748.72)" fill="#B9C1D9"/>
<rect x="1428.2" y="1599.42" width="4.03527" height="1074.84" transform="rotate(90 1428.2 1599.42)" fill="#B9C1D9"/>
<rect x="1428.2" y="1450.11" width="4.03527" height="1074.84" transform="rotate(90 1428.2 1450.11)" fill="#B9C1D9"/>
<rect x="1428.2" y="1300.81" width="4.03527" height="1074.84" transform="rotate(90 1428.2 1300.81)" fill="#B9C1D9"/>
<rect x="1428.2" y="1187.22" width="4.03527" height="1074.84" transform="rotate(90 1428.2 1187.22)" fill="#B9C1D9"/>
<rect x="1427.76" y="1185.28" width="4.07819" height="569.094" fill="#B9C1D9"/>
</g>
<path d="M316.5 1744.62C315.753 1744.62 315.159 1744.92 314.718 1745.53C314.286 1746.13 314.07 1746.97 314.07 1748.07C314.07 1749.17 314.286 1750.03 314.718 1750.63C315.159 1751.23 315.753 1751.53 316.5 1751.53C317.238 1751.53 317.823 1751.23 318.255 1750.63C318.696 1750.03 318.912 1749.17 318.912 1748.07C318.912 1746.97 318.696 1746.13 318.255 1745.53C317.823 1744.92 317.238 1744.62 316.5 1744.62ZM317.67 1746.05C317.949 1746.51 318.084 1747.18 318.084 1748.07C318.084 1748.96 317.949 1749.64 317.67 1750.1C317.4 1750.56 317.004 1750.79 316.491 1750.79C315.978 1750.79 315.582 1750.56 315.312 1750.1C315.042 1749.64 314.907 1748.96 314.907 1748.07C314.907 1747.18 315.042 1746.51 315.312 1746.05C315.582 1745.59 315.978 1745.35 316.491 1745.35C317.004 1745.35 317.4 1745.59 317.67 1746.05ZM320.942 1744.45H320.168V1751.44H320.942V1749.9L321.437 1749.41L323.147 1751.44H324.137L321.986 1748.85L323.921 1746.85H322.958L320.942 1748.86V1744.45Z" fill="#B9C1D9"/>
<path d="M316.855 1595.31C315.631 1595.31 314.902 1596.03 314.857 1597.22L315.667 1597.27C315.73 1596.48 316.144 1596.05 316.855 1596.05C317.539 1596.05 317.962 1596.45 317.962 1597.16C317.962 1597.85 317.476 1598.29 316.783 1598.29H316.144V1599.02H316.801C317.602 1599.02 318.133 1599.44 318.133 1600.22C318.133 1601.01 317.656 1601.49 316.873 1601.49C316.09 1601.49 315.649 1601.03 315.577 1600.2L314.749 1600.25C314.83 1601.48 315.577 1602.23 316.873 1602.23C317.503 1602.23 318.007 1602.05 318.385 1601.69C318.772 1601.33 318.961 1600.84 318.961 1600.24C318.961 1599.38 318.502 1598.81 317.827 1598.65C318.394 1598.44 318.79 1597.91 318.79 1597.16C318.79 1596.03 318.052 1595.31 316.855 1595.31ZM320.938 1595.14H320.164V1602.14H320.938V1600.6L321.433 1600.11L323.143 1602.14H324.133L321.982 1599.54L323.917 1597.55H322.954L320.938 1599.56V1595.14Z" fill="#B9C1D9"/>
<path d="M316.736 1448.53C316.637 1448.53 316.556 1448.53 316.511 1448.54L318.329 1446.1H317.357L314.936 1449.34C314.63 1449.75 314.477 1450.22 314.477 1450.74C314.477 1451.39 314.684 1451.91 315.107 1452.32C315.53 1452.72 316.079 1452.92 316.736 1452.92C317.384 1452.92 317.924 1452.72 318.347 1452.32C318.77 1451.91 318.986 1451.39 318.986 1450.74C318.986 1450.08 318.77 1449.55 318.347 1449.14C317.924 1448.74 317.384 1448.53 316.736 1448.53ZM316.736 1452.18C315.899 1452.18 315.305 1451.61 315.305 1450.71C315.305 1450.32 315.404 1450.01 315.602 1449.75C315.863 1449.42 316.241 1449.25 316.736 1449.25C317.564 1449.25 318.158 1449.82 318.158 1450.71C318.158 1451.6 317.564 1452.18 316.736 1452.18ZM320.938 1445.84H320.164V1452.83H320.938V1451.29L321.433 1450.81L323.143 1452.83H324.133L321.982 1450.24L323.917 1448.24H322.954L320.938 1450.26V1445.84Z" fill="#B9C1D9"/>
<path d="M316.7 1296.71C316.052 1296.71 315.512 1296.91 315.089 1297.31C314.666 1297.72 314.45 1298.24 314.45 1298.89C314.45 1299.55 314.666 1300.08 315.089 1300.49C315.512 1300.89 316.052 1301.1 316.7 1301.1C316.799 1301.1 316.88 1301.1 316.925 1301.09L315.107 1303.53H316.079L318.5 1300.29C318.806 1299.88 318.959 1299.41 318.959 1298.89C318.959 1298.24 318.743 1297.72 318.32 1297.31C317.897 1296.91 317.357 1296.71 316.7 1296.71ZM316.7 1300.38C315.872 1300.38 315.278 1299.81 315.278 1298.92C315.278 1298.03 315.872 1297.45 316.7 1297.45C317.537 1297.45 318.131 1298.02 318.131 1298.92C318.131 1299.31 318.032 1299.62 317.834 1299.88C317.573 1300.21 317.195 1300.38 316.7 1300.38ZM320.938 1296.54H320.164V1303.53H320.938V1301.99L321.433 1301.5L323.143 1303.53H324.133L321.982 1300.94L323.917 1298.94H322.954L320.938 1300.96V1296.54Z" fill="#B9C1D9"/>
<path d="M316.7 1171.4C316.052 1171.4 315.512 1171.6 315.089 1172C314.666 1172.41 314.45 1172.93 314.45 1173.59C314.45 1174.24 314.666 1174.77 315.089 1175.18C315.512 1175.58 316.052 1175.79 316.7 1175.79C316.799 1175.79 316.88 1175.79 316.925 1175.78L315.107 1178.22H316.079L318.5 1174.98C318.806 1174.57 318.959 1174.1 318.959 1173.59C318.959 1172.93 318.743 1172.41 318.32 1172C317.897 1171.6 317.357 1171.4 316.7 1171.4ZM316.7 1175.07C315.872 1175.07 315.278 1174.5 315.278 1173.61C315.278 1172.72 315.872 1172.14 316.7 1172.14C317.537 1172.14 318.131 1172.71 318.131 1173.61C318.131 1174 318.032 1174.32 317.834 1174.57C317.573 1174.9 317.195 1175.07 316.7 1175.07ZM320.938 1171.23H320.164V1178.22H320.938V1176.68L321.433 1176.2L323.143 1178.22H324.133L321.982 1175.63L323.917 1173.63H322.954L320.938 1175.65V1171.23Z" fill="#B9C1D9"/>
<path d="M415.144 1811.38H414.433L411.544 1816.87L408.655 1811.38H407.935V1818.11H408.763V1813.24L411.274 1818.06H411.823L414.325 1813.24V1818.11H415.144V1811.38ZM417.101 1814.09C416.66 1814.53 416.435 1815.1 416.435 1815.81C416.435 1816.52 416.66 1817.1 417.101 1817.54C417.551 1817.98 418.118 1818.2 418.793 1818.2C419.468 1818.2 420.035 1817.98 420.476 1817.54C420.926 1817.1 421.151 1816.52 421.151 1815.81C421.151 1815.1 420.926 1814.53 420.476 1814.09C420.035 1813.65 419.468 1813.44 418.793 1813.44C418.118 1813.44 417.551 1813.65 417.101 1814.09ZM419.918 1814.57C420.215 1814.88 420.368 1815.29 420.368 1815.81C420.368 1816.33 420.215 1816.75 419.918 1817.06C419.621 1817.37 419.252 1817.52 418.793 1817.52C418.334 1817.52 417.956 1817.37 417.659 1817.06C417.362 1816.75 417.218 1816.33 417.218 1815.81C417.218 1815.29 417.362 1814.88 417.659 1814.57C417.956 1814.26 418.334 1814.11 418.793 1814.11C419.252 1814.11 419.621 1814.26 419.918 1814.57ZM424.587 1813.44C423.903 1813.44 423.399 1813.76 423.156 1814.2V1813.52H422.418V1818.11H423.192V1815.43C423.192 1815.07 423.309 1814.77 423.534 1814.53C423.768 1814.28 424.065 1814.16 424.425 1814.16C425.118 1814.16 425.586 1814.66 425.586 1815.42V1818.11H426.369V1815.32C426.369 1814.75 426.198 1814.29 425.865 1813.95C425.532 1813.61 425.109 1813.44 424.587 1813.44Z" fill="#B9C1D9"/>
<path d="M413.541 1878.7H412.737L410.337 1880.53L410.877 1881.38L412.461 1880.17V1887.67H413.541V1878.7ZM418.114 1882.16C417.55 1882.16 417.034 1882.31 416.578 1882.6V1879.67H420.454V1878.7H415.498V1883.68H416.506C416.95 1883.32 417.454 1883.14 418.006 1883.14C419.026 1883.14 419.698 1883.86 419.698 1884.95C419.698 1886.05 419.074 1886.81 417.982 1886.81C416.938 1886.81 416.374 1886.21 416.278 1885.16L415.174 1885.22C415.282 1886.82 416.29 1887.79 417.97 1887.79C418.846 1887.79 419.53 1887.53 420.034 1887C420.538 1886.47 420.79 1885.78 420.79 1884.92C420.79 1884.07 420.538 1883.4 420.046 1882.91C419.554 1882.42 418.906 1882.16 418.114 1882.16Z" fill="#273052"/>
<path d="M551.838 1811.38H546.006V1812.1H548.508V1818.11H549.336V1812.1H551.838V1811.38ZM555.565 1813.52H554.791V1816.2C554.791 1816.91 554.341 1817.47 553.63 1817.47C552.946 1817.47 552.55 1817 552.55 1816.24V1813.52H551.776V1816.35C551.776 1816.9 551.929 1817.35 552.226 1817.69C552.532 1818.03 552.937 1818.2 553.45 1818.2C554.161 1818.2 554.638 1817.85 554.827 1817.42V1818.11H555.565V1813.52ZM561.189 1815.69C561.189 1815 561 1814.45 560.622 1814.05C560.253 1813.64 559.74 1813.44 559.083 1813.44C558.417 1813.44 557.877 1813.65 557.454 1814.08C557.031 1814.5 556.824 1815.08 556.824 1815.81C556.824 1816.54 557.031 1817.13 557.454 1817.56C557.877 1817.98 558.426 1818.2 559.101 1818.2C559.623 1818.2 560.073 1818.06 560.442 1817.79C560.811 1817.51 561.045 1817.17 561.144 1816.75L560.37 1816.7C560.217 1817.22 559.758 1817.52 559.083 1817.52C558.264 1817.52 557.688 1816.98 557.643 1816.11H561.189V1815.69ZM559.074 1814.11C559.929 1814.11 560.388 1814.65 560.415 1815.48H557.643C557.688 1814.61 558.255 1814.11 559.074 1814.11Z" fill="#B9C1D9"/>
<path d="M551.787 1878.7H550.983L548.583 1880.53L549.123 1881.38L550.707 1880.17V1887.67H551.787V1878.7ZM556.468 1881.94C556.336 1881.94 556.228 1881.94 556.168 1881.95L558.592 1878.7H557.296L554.068 1883.02C553.66 1883.57 553.456 1884.19 553.456 1884.88C553.456 1885.75 553.732 1886.45 554.296 1886.99C554.86 1887.53 555.592 1887.79 556.468 1887.79C557.332 1887.79 558.052 1887.53 558.616 1886.99C559.18 1886.45 559.468 1885.75 559.468 1884.88C559.468 1884 559.18 1883.29 558.616 1882.75C558.052 1882.21 557.332 1881.94 556.468 1881.94ZM556.468 1886.81C555.352 1886.81 554.56 1886.04 554.56 1884.84C554.56 1884.32 554.692 1883.9 554.956 1883.57C555.304 1883.12 555.808 1882.9 556.468 1882.9C557.572 1882.9 558.364 1883.65 558.364 1884.84C558.364 1886.03 557.572 1886.81 556.468 1886.81Z" fill="#273052"/>
<path d="M688.186 1811.38H687.304L685.486 1816.66L683.677 1811.38H683.002L681.202 1816.66L679.375 1811.38H678.484L680.842 1818.11H681.535L683.335 1812.89L685.144 1818.11H685.837L688.186 1811.38ZM692.498 1815.69C692.498 1815 692.309 1814.45 691.931 1814.05C691.562 1813.64 691.049 1813.44 690.392 1813.44C689.726 1813.44 689.186 1813.65 688.763 1814.08C688.34 1814.5 688.133 1815.08 688.133 1815.81C688.133 1816.54 688.34 1817.13 688.763 1817.56C689.186 1817.98 689.735 1818.2 690.41 1818.2C690.932 1818.2 691.382 1818.06 691.751 1817.79C692.12 1817.51 692.354 1817.17 692.453 1816.75L691.679 1816.7C691.526 1817.22 691.067 1817.52 690.392 1817.52C689.573 1817.52 688.997 1816.98 688.952 1816.11H692.498V1815.69ZM690.383 1814.11C691.238 1814.11 691.697 1814.65 691.724 1815.48H688.952C688.997 1814.61 689.564 1814.11 690.383 1814.11ZM698.022 1811.11H697.248V1814.21C696.987 1813.75 696.411 1813.44 695.664 1813.44C695.025 1813.44 694.494 1813.65 694.071 1814.08C693.657 1814.52 693.45 1815.09 693.45 1815.82C693.45 1816.55 693.657 1817.13 694.071 1817.56C694.494 1817.98 695.025 1818.2 695.664 1818.2C696.42 1818.2 697.014 1817.86 697.293 1817.36V1818.11H698.022V1811.11ZM695.772 1814.11C696.645 1814.11 697.248 1814.67 697.248 1815.68V1815.95C697.248 1816.96 696.645 1817.52 695.772 1817.52C694.872 1817.52 694.233 1816.89 694.233 1815.81C694.233 1814.74 694.872 1814.11 695.772 1814.11Z" fill="#B9C1D9"/>
<path d="M688.575 1878.7H687.771L685.371 1880.53L685.911 1881.38L687.495 1880.17V1887.67H688.575V1878.7ZM695.86 1878.7H689.956V1879.67H694.648L690.436 1887.67H691.648L695.86 1879.58V1878.7Z" fill="#273052"/>
<path d="M822.745 1811.38H816.913V1812.1H819.415V1818.11H820.243V1812.1H822.745V1811.38ZM823.678 1811.11V1818.11H824.452V1815.43C824.452 1815.07 824.569 1814.77 824.794 1814.53C825.028 1814.28 825.325 1814.16 825.685 1814.16C826.378 1814.16 826.846 1814.66 826.846 1815.42V1818.11H827.629V1815.32C827.629 1814.75 827.458 1814.29 827.125 1813.95C826.792 1813.61 826.369 1813.44 825.847 1813.44C825.19 1813.44 824.677 1813.75 824.452 1814.15V1811.11H823.678ZM832.854 1813.52H832.08V1816.2C832.08 1816.91 831.63 1817.47 830.919 1817.47C830.235 1817.47 829.839 1817 829.839 1816.24V1813.52H829.065V1816.35C829.065 1816.9 829.218 1817.35 829.515 1817.69C829.821 1818.03 830.226 1818.2 830.739 1818.2C831.45 1818.2 831.927 1817.85 832.116 1817.42V1818.11H832.854V1813.52Z" fill="#B9C1D9"/>
<path d="M821.379 1878.7H820.575L818.175 1880.53L818.715 1881.38L820.299 1880.17V1887.67H821.379V1878.7ZM826.072 1878.58C825.28 1878.58 824.632 1878.79 824.128 1879.22C823.624 1879.66 823.372 1880.24 823.372 1880.99C823.372 1881.91 823.852 1882.62 824.584 1882.94C823.72 1883.32 823.156 1884.11 823.156 1885.16C823.156 1885.97 823.432 1886.6 823.972 1887.08C824.524 1887.55 825.22 1887.79 826.072 1887.79C826.924 1887.79 827.632 1887.55 828.172 1887.08C828.724 1886.6 829 1885.97 829 1885.16C829 1884.1 828.424 1883.3 827.56 1882.93C828.28 1882.6 828.772 1881.9 828.772 1880.99C828.772 1880.26 828.52 1879.67 828.004 1879.24C827.5 1878.79 826.852 1878.58 826.072 1878.58ZM826.084 1879.56C827.008 1879.56 827.692 1880.12 827.692 1881.05C827.692 1881.95 827.008 1882.5 826.084 1882.5C825.136 1882.5 824.464 1881.95 824.464 1881.05C824.464 1880.12 825.136 1879.56 826.084 1879.56ZM827.38 1883.92C827.728 1884.22 827.896 1884.61 827.896 1885.13C827.896 1885.64 827.728 1886.05 827.38 1886.35C827.032 1886.65 826.6 1886.81 826.072 1886.81C825.544 1886.81 825.112 1886.65 824.764 1886.35C824.416 1886.05 824.248 1885.64 824.248 1885.13C824.248 1884.61 824.416 1884.22 824.764 1883.92C825.112 1883.62 825.544 1883.46 826.072 1883.46C826.6 1883.46 827.032 1883.62 827.38 1883.92Z" fill="#273052"/>
<path d="M956.047 1811.38H951.88V1818.11H952.708V1815.04H955.489V1814.31H952.708V1812.1H956.047V1811.38ZM959.145 1813.46C958.434 1813.46 957.975 1813.79 957.795 1814.21V1813.52H957.039V1818.11H957.813V1815.47C957.813 1814.75 958.344 1814.21 959.145 1814.21V1813.46ZM961.006 1811.86C961.006 1811.57 960.772 1811.35 960.493 1811.35C960.214 1811.35 959.98 1811.57 959.98 1811.86C959.98 1812.14 960.205 1812.37 960.493 1812.37C960.772 1812.37 961.006 1812.14 961.006 1811.86ZM960.871 1813.52H960.097V1818.11H960.871V1813.52Z" fill="#B9C1D9"/>
<path d="M952.584 1878.7H951.78L949.38 1880.53L949.92 1881.38L951.504 1880.17V1887.67H952.584V1878.7ZM957.217 1878.58C956.353 1878.58 955.633 1878.84 955.069 1879.38C954.505 1879.92 954.217 1880.62 954.217 1881.49C954.217 1882.37 954.505 1883.08 955.069 1883.62C955.633 1884.16 956.353 1884.43 957.217 1884.43C957.349 1884.43 957.457 1884.43 957.517 1884.42L955.093 1887.67H956.389L959.617 1883.35C960.025 1882.8 960.229 1882.18 960.229 1881.49C960.229 1880.62 959.941 1879.92 959.377 1879.38C958.813 1878.84 958.093 1878.58 957.217 1878.58ZM957.217 1883.47C956.113 1883.47 955.321 1882.72 955.321 1881.53C955.321 1880.34 956.113 1879.56 957.217 1879.56C958.333 1879.56 959.125 1880.33 959.125 1881.53C959.125 1882.04 958.993 1882.46 958.729 1882.8C958.381 1883.24 957.877 1883.47 957.217 1883.47Z" fill="#273052"/>
<path d="M1088.87 1811.29C1088.14 1811.29 1087.57 1811.47 1087.17 1811.83C1086.79 1812.19 1086.59 1812.64 1086.59 1813.19C1086.59 1813.81 1086.8 1814.23 1087.24 1814.51C1087.46 1814.64 1087.69 1814.75 1087.9 1814.83C1088.12 1814.9 1088.41 1814.98 1088.77 1815.07C1089.05 1815.13 1089.25 1815.18 1089.39 1815.23C1089.53 1815.26 1089.69 1815.32 1089.86 1815.39C1090.04 1815.46 1090.17 1815.53 1090.25 1815.61C1090.42 1815.76 1090.55 1816 1090.55 1816.32C1090.55 1817.1 1089.94 1817.48 1088.99 1817.48C1088.51 1817.48 1088.12 1817.36 1087.79 1817.13C1087.47 1816.89 1087.29 1816.58 1087.26 1816.19L1086.44 1816.24C1086.46 1816.85 1086.71 1817.32 1087.19 1817.68C1087.67 1818.03 1088.26 1818.2 1088.99 1818.2C1089.69 1818.2 1090.27 1818.04 1090.71 1817.71C1091.16 1817.38 1091.39 1816.89 1091.39 1816.25C1091.39 1815.68 1091.2 1815.27 1090.76 1814.99C1090.32 1814.71 1089.86 1814.55 1089.06 1814.36C1088.47 1814.23 1088.05 1814.09 1087.79 1813.94C1087.55 1813.79 1087.43 1813.54 1087.43 1813.17C1087.43 1812.48 1087.95 1812.01 1088.88 1812.01C1089.74 1812.01 1090.31 1812.46 1090.35 1813.21L1091.19 1813.16C1091.16 1812.57 1090.94 1812.12 1090.51 1811.79C1090.09 1811.46 1089.54 1811.29 1088.87 1811.29ZM1094.35 1813.44C1093.81 1813.44 1093.38 1813.6 1093.06 1813.92C1092.73 1814.25 1092.57 1814.62 1092.57 1815.04L1093.36 1815.07C1093.36 1814.54 1093.71 1814.12 1094.35 1814.12C1094.99 1814.12 1095.32 1814.49 1095.32 1815.24V1815.45L1094.13 1815.52C1093 1815.59 1092.45 1816.04 1092.45 1816.89C1092.45 1817.71 1093.04 1818.2 1093.95 1818.2C1094.51 1818.2 1094.97 1817.99 1095.32 1817.57V1818.11H1096.1V1815.22C1096.1 1814.08 1095.47 1813.44 1094.35 1813.44ZM1095.33 1816.26C1095.33 1817.13 1094.82 1817.53 1094.07 1817.53C1093.51 1817.53 1093.23 1817.32 1093.23 1816.87C1093.23 1816.43 1093.56 1816.19 1094.23 1816.15L1095.33 1816.07V1816.26ZM1099.39 1817.47C1098.85 1817.47 1098.58 1817.17 1098.58 1816.58L1098.6 1814.19H1099.84V1813.52H1098.6L1098.61 1811.93H1097.83L1097.82 1813.52H1096.96V1814.19H1097.82L1097.81 1816.73C1097.8 1817.7 1098.35 1818.17 1099.22 1818.17C1099.43 1818.17 1099.64 1818.15 1099.84 1818.12V1817.42C1099.66 1817.45 1099.51 1817.47 1099.39 1817.47Z" fill="#B9C1D9"/>
<path d="M1088.03 1878.59C1086.36 1878.59 1085.42 1879.58 1085.38 1881.3L1086.47 1881.36C1086.48 1880.21 1087.04 1879.56 1088.06 1879.56C1088.98 1879.56 1089.51 1880.17 1089.51 1881.14C1089.51 1881.68 1089.4 1882.16 1089.18 1882.56C1088.97 1882.96 1088.58 1883.44 1088.03 1884.01L1085.4 1886.78V1887.67H1090.72V1886.7H1086.9L1088.85 1884.66C1089.44 1884.05 1089.87 1883.48 1090.17 1882.94C1090.47 1882.4 1090.61 1881.78 1090.61 1881.1C1090.61 1879.52 1089.68 1878.59 1088.03 1878.59ZM1095.04 1878.58C1094.04 1878.58 1093.25 1878.98 1092.66 1879.79C1092.09 1880.59 1091.8 1881.72 1091.8 1883.18C1091.8 1884.65 1092.09 1885.79 1092.66 1886.59C1093.25 1887.4 1094.04 1887.79 1095.04 1887.79C1096.02 1887.79 1096.8 1887.4 1097.38 1886.59C1097.97 1885.79 1098.26 1884.65 1098.26 1883.18C1098.26 1881.72 1097.97 1880.59 1097.38 1879.79C1096.8 1878.98 1096.02 1878.58 1095.04 1878.58ZM1096.6 1880.48C1096.97 1881.1 1097.15 1882 1097.15 1883.18C1097.15 1884.37 1096.97 1885.27 1096.6 1885.88C1096.24 1886.5 1095.71 1886.81 1095.03 1886.81C1094.34 1886.81 1093.82 1886.5 1093.46 1885.88C1093.1 1885.27 1092.92 1884.37 1092.92 1883.18C1092.92 1882 1093.1 1881.1 1093.46 1880.48C1093.82 1879.87 1094.34 1879.56 1095.03 1879.56C1095.71 1879.56 1096.24 1879.87 1096.6 1880.48Z" fill="#273052"/>
<path d="M1224.21 1811.29C1223.48 1811.29 1222.91 1811.47 1222.52 1811.83C1222.13 1812.19 1221.93 1812.64 1221.93 1813.19C1221.93 1813.81 1222.14 1814.23 1222.58 1814.51C1222.8 1814.64 1223.03 1814.75 1223.24 1814.83C1223.46 1814.9 1223.75 1814.98 1224.11 1815.07C1224.39 1815.13 1224.59 1815.18 1224.73 1815.23C1224.87 1815.26 1225.04 1815.32 1225.21 1815.39C1225.39 1815.46 1225.51 1815.53 1225.59 1815.61C1225.76 1815.76 1225.89 1816 1225.89 1816.32C1225.89 1817.1 1225.28 1817.48 1224.33 1817.48C1223.86 1817.48 1223.46 1817.36 1223.14 1817.13C1222.81 1816.89 1222.63 1816.58 1222.61 1816.19L1221.78 1816.24C1221.8 1816.85 1222.06 1817.32 1222.53 1817.68C1223.01 1818.03 1223.6 1818.2 1224.33 1818.2C1225.04 1818.2 1225.61 1818.04 1226.05 1817.71C1226.5 1817.38 1226.73 1816.89 1226.73 1816.25C1226.73 1815.68 1226.54 1815.27 1226.1 1814.99C1225.67 1814.71 1225.21 1814.55 1224.41 1814.36C1223.81 1814.23 1223.39 1814.09 1223.14 1813.94C1222.89 1813.79 1222.77 1813.54 1222.77 1813.17C1222.77 1812.48 1223.29 1812.01 1224.23 1812.01C1225.08 1812.01 1225.65 1812.46 1225.69 1813.21L1226.53 1813.16C1226.5 1812.57 1226.28 1812.12 1225.85 1811.79C1225.43 1811.46 1224.88 1811.29 1224.21 1811.29ZM1231.72 1813.52H1230.94V1816.2C1230.94 1816.91 1230.49 1817.47 1229.78 1817.47C1229.1 1817.47 1228.7 1817 1228.7 1816.24V1813.52H1227.93V1816.35C1227.93 1816.9 1228.08 1817.35 1228.38 1817.69C1228.68 1818.03 1229.09 1818.2 1229.6 1818.2C1230.31 1818.2 1230.79 1817.85 1230.98 1817.42V1818.11H1231.72V1813.52ZM1235.45 1813.44C1234.76 1813.44 1234.26 1813.76 1234.02 1814.2V1813.52H1233.28V1818.11H1234.05V1815.43C1234.05 1815.07 1234.17 1814.77 1234.4 1814.53C1234.63 1814.28 1234.93 1814.16 1235.29 1814.16C1235.98 1814.16 1236.45 1814.66 1236.45 1815.42V1818.11H1237.23V1815.32C1237.23 1814.75 1237.06 1814.29 1236.73 1813.95C1236.39 1813.61 1235.97 1813.44 1235.45 1813.44Z" fill="#B9C1D9"/>
<path d="M1227.77 1878.59C1226.1 1878.59 1225.15 1879.58 1225.11 1881.3L1226.21 1881.36C1226.22 1880.21 1226.77 1879.56 1227.79 1879.56C1228.71 1879.56 1229.24 1880.17 1229.24 1881.14C1229.24 1881.68 1229.13 1882.16 1228.92 1882.56C1228.7 1882.96 1228.32 1883.44 1227.77 1884.01L1225.14 1886.78V1887.67H1230.45V1886.7H1226.64L1228.58 1884.66C1229.17 1884.05 1229.6 1883.48 1229.9 1882.94C1230.2 1882.4 1230.35 1881.78 1230.35 1881.1C1230.35 1879.52 1229.41 1878.59 1227.77 1878.59ZM1234.26 1878.7H1233.46L1231.06 1880.53L1231.6 1881.38L1233.18 1880.17V1887.67H1234.26V1878.7Z" fill="#273052"/>
<path d="M1358.81 1811.38H1358.1L1355.21 1816.87L1352.32 1811.38H1351.6V1818.11H1352.43V1813.24L1354.94 1818.06H1355.49L1357.99 1813.24V1818.11H1358.81V1811.38ZM1360.76 1814.09C1360.32 1814.53 1360.1 1815.1 1360.1 1815.81C1360.1 1816.52 1360.32 1817.1 1360.76 1817.54C1361.21 1817.98 1361.78 1818.2 1362.46 1818.2C1363.13 1818.2 1363.7 1817.98 1364.14 1817.54C1364.59 1817.1 1364.81 1816.52 1364.81 1815.81C1364.81 1815.1 1364.59 1814.53 1364.14 1814.09C1363.7 1813.65 1363.13 1813.44 1362.46 1813.44C1361.78 1813.44 1361.21 1813.65 1360.76 1814.09ZM1363.58 1814.57C1363.88 1814.88 1364.03 1815.29 1364.03 1815.81C1364.03 1816.33 1363.88 1816.75 1363.58 1817.06C1363.28 1817.37 1362.92 1817.52 1362.46 1817.52C1362 1817.52 1361.62 1817.37 1361.32 1817.06C1361.03 1816.75 1360.88 1816.33 1360.88 1815.81C1360.88 1815.29 1361.03 1814.88 1361.32 1814.57C1361.62 1814.26 1362 1814.11 1362.46 1814.11C1362.92 1814.11 1363.28 1814.26 1363.58 1814.57ZM1368.25 1813.44C1367.57 1813.44 1367.06 1813.76 1366.82 1814.2V1813.52H1366.08V1818.11H1366.86V1815.43C1366.86 1815.07 1366.97 1814.77 1367.2 1814.53C1367.43 1814.28 1367.73 1814.16 1368.09 1814.16C1368.78 1814.16 1369.25 1814.66 1369.25 1815.42V1818.11H1370.03V1815.32C1370.03 1814.75 1369.86 1814.29 1369.53 1813.95C1369.2 1813.61 1368.77 1813.44 1368.25 1813.44Z" fill="#B9C1D9"/>
<path d="M1358.31 1878.59C1356.64 1878.59 1355.69 1879.58 1355.66 1881.3L1356.75 1881.36C1356.76 1880.21 1357.31 1879.56 1358.33 1879.56C1359.26 1879.56 1359.78 1880.17 1359.78 1881.14C1359.78 1881.68 1359.68 1882.16 1359.46 1882.56C1359.24 1882.96 1358.86 1883.44 1358.31 1884.01L1355.68 1886.78V1887.67H1361V1886.7H1357.18L1359.12 1884.66C1359.71 1884.05 1360.14 1883.48 1360.44 1882.94C1360.74 1882.4 1360.89 1881.78 1360.89 1881.1C1360.89 1879.52 1359.95 1878.59 1358.31 1878.59ZM1364.74 1878.59C1363.07 1878.59 1362.13 1879.58 1362.09 1881.3L1363.18 1881.36C1363.19 1880.21 1363.75 1879.56 1364.77 1879.56C1365.69 1879.56 1366.22 1880.17 1366.22 1881.14C1366.22 1881.68 1366.11 1882.16 1365.89 1882.56C1365.68 1882.96 1365.29 1883.44 1364.74 1884.01L1362.11 1886.78V1887.67H1367.43V1886.7H1363.61L1365.56 1884.66C1366.15 1884.05 1366.58 1883.48 1366.88 1882.94C1367.18 1882.4 1367.32 1881.78 1367.32 1881.1C1367.32 1879.52 1366.39 1878.59 1364.74 1878.59Z" fill="#273052"/>
<path d="M395.42 1662.98H353.359V1747.72C353.359 1748.27 353.807 1748.72 354.359 1748.72H1427.2C1427.75 1748.72 1428.2 1748.27 1428.2 1747.72V1206.61L1380.32 1278.84C1379.84 1279.57 1378.72 1279.37 1378.51 1278.52L1356.29 1184.56C1356.18 1184.11 1355.78 1183.79 1355.32 1183.79H1294.31C1294.02 1183.79 1293.73 1183.92 1293.54 1184.15L1251.77 1234.5C1251.46 1234.87 1250.94 1234.97 1250.52 1234.74L1199.94 1207.22C1199.37 1206.91 1198.66 1207.22 1198.5 1207.85L1160.04 1358.47C1159.83 1359.3 1158.73 1359.49 1158.24 1358.78L1114.63 1293.7C1114.19 1293.05 1113.2 1293.14 1112.89 1293.86L1104.32 1313.74C1104.06 1314.36 1103.26 1314.54 1102.75 1314.1L1078.56 1293.04C1078.06 1292.61 1077.28 1292.77 1077 1293.36L1045.16 1359.87C1044.95 1360.31 1044.45 1360.53 1043.98 1360.4L1006.47 1349.52C1005.93 1349.36 1005.36 1349.68 1005.22 1350.24L966.262 1508.5C966.191 1508.79 965.994 1509.03 965.726 1509.16L908.077 1537.04C907.575 1537.28 906.971 1537.07 906.735 1536.56L865.507 1448.22C865.141 1447.44 864.024 1447.46 863.682 1448.25L845.059 1491.48C844.958 1491.71 844.772 1491.9 844.539 1492L806.011 1508.77C805.737 1508.89 805.531 1509.12 805.449 1509.41L782.787 1588.31C782.695 1588.63 782.451 1588.88 782.136 1588.99L730.551 1605.82C730.33 1605.9 730.141 1606.04 730.016 1606.24L694.943 1661.75C694.568 1662.34 693.712 1662.37 693.294 1661.81L665.283 1623.88C664.948 1623.43 664.303 1623.34 663.859 1623.69L583.384 1687.14C583.012 1687.44 582.486 1687.43 582.123 1687.13L553.908 1663.53C553.531 1663.21 552.981 1663.22 552.61 1663.54L527.32 1685.56C527.138 1685.71 526.905 1685.8 526.664 1685.8H475.074C474.778 1685.8 474.497 1685.67 474.307 1685.44L423.039 1624.08C422.609 1623.57 421.804 1623.62 421.436 1624.18L396.256 1662.53C396.071 1662.81 395.757 1662.98 395.42 1662.98Z" fill="url(#paint0_linear_35_3064)"/>
<path d="M359.758 1662.98H394.881C395.555 1662.98 396.183 1662.64 396.553 1662.08L420.697 1625.3C421.434 1624.18 423.044 1624.09 423.904 1625.12L474.008 1685.08C474.388 1685.54 474.95 1685.8 475.543 1685.8H526.29C526.773 1685.8 527.239 1685.63 527.603 1685.31L551.62 1664.41C552.501 1663.64 553.848 1663.79 554.542 1664.73L581.384 1701.07C582.105 1702.05 583.521 1702.16 584.389 1701.31L663.028 1624.65C663.897 1623.8 665.313 1623.92 666.033 1624.89L692.426 1660.63C693.262 1661.76 694.974 1661.7 695.725 1660.51L729.825 1606.54C730.074 1606.15 730.452 1605.86 730.895 1605.71L781.632 1589.15C782.263 1588.94 782.751 1588.44 782.934 1587.8L805.32 1509.86C805.484 1509.29 805.897 1508.82 806.444 1508.58L844.178 1492.16C844.644 1491.95 845.015 1491.58 845.216 1491.12L862.801 1450.3C863.484 1448.71 865.72 1448.68 866.45 1450.24L906.308 1535.64C906.779 1536.65 907.987 1537.08 908.991 1536.6L965.304 1509.37C965.84 1509.11 966.233 1508.62 966.375 1508.04L1004.98 1351.25C1005.25 1350.14 1006.38 1349.49 1007.48 1349.81L1043.17 1360.16C1044.11 1360.43 1045.11 1359.99 1045.53 1359.1L1076.43 1294.55C1077 1293.36 1078.55 1293.04 1079.55 1293.9L1101.72 1313.2C1102.74 1314.09 1104.33 1313.73 1104.87 1312.48L1112.16 1295.55C1112.79 1294.1 1114.78 1293.91 1115.66 1295.23L1157 1356.92C1157.96 1358.35 1160.17 1357.97 1160.6 1356.3L1198.18 1209.1C1198.5 1207.83 1199.93 1207.21 1201.07 1207.84L1249.8 1234.35C1250.64 1234.8 1251.69 1234.6 1252.3 1233.87L1293.25 1184.51C1293.63 1184.05 1294.19 1183.79 1294.78 1183.79H1354.53C1355.45 1183.79 1356.26 1184.43 1356.47 1185.33L1377.89 1275.86C1378.3 1277.62 1380.66 1277.97 1381.56 1276.4L1421.8 1206.61" stroke="#3B82F6" stroke-width="2" stroke-linecap="round"/>
<rect x="1643.14" y="1041.8" width="410.256" height="949.29" rx="10" fill="black"/>
<path d="M1708.75 1109.23H1707.37L1705.33 1112.52L1703.28 1109.23H1701.9L1704.74 1113.7V1116.71H1705.92V1113.7L1708.75 1109.23ZM1709.77 1109.31C1709.5 1109.58 1709.5 1110.02 1709.77 1110.3C1710.05 1110.57 1710.49 1110.57 1710.77 1110.3C1711.05 1110.02 1711.05 1109.58 1710.77 1109.31C1710.49 1109.03 1710.05 1109.03 1709.77 1109.31ZM1710.83 1111.58H1709.71V1116.71H1710.83V1111.58ZM1717.09 1114.02C1717.09 1113.24 1716.87 1112.62 1716.44 1112.17C1716.01 1111.72 1715.42 1111.49 1714.69 1111.49C1713.93 1111.49 1713.31 1111.73 1712.84 1112.21C1712.37 1112.68 1712.13 1113.33 1712.13 1114.15C1712.13 1114.97 1712.37 1115.62 1712.85 1116.1C1713.33 1116.57 1713.95 1116.81 1714.72 1116.81C1715.3 1116.81 1715.81 1116.65 1716.24 1116.34C1716.67 1116.03 1716.94 1115.64 1717.04 1115.17L1715.91 1115.11C1715.76 1115.6 1715.36 1115.84 1714.69 1115.84C1713.9 1115.84 1713.37 1115.34 1713.32 1114.57H1717.09V1114.02ZM1714.68 1112.45C1715.49 1112.45 1715.93 1112.93 1715.96 1113.69H1713.33C1713.38 1112.9 1713.92 1112.45 1714.68 1112.45ZM1719.51 1108.94H1718.39V1116.71H1719.51V1108.94ZM1726.03 1108.94H1724.91V1112.2C1724.62 1111.77 1724.01 1111.49 1723.28 1111.49C1722.55 1111.49 1721.96 1111.73 1721.5 1112.22C1721.04 1112.7 1720.81 1113.34 1720.81 1114.15C1720.81 1114.96 1721.04 1115.6 1721.5 1116.09C1721.96 1116.57 1722.55 1116.81 1723.28 1116.81C1724.05 1116.81 1724.68 1116.48 1724.97 1116V1116.71H1726.03V1108.94ZM1723.46 1112.45C1724.33 1112.45 1724.91 1113.02 1724.91 1114.01V1114.28C1724.91 1115.27 1724.33 1115.84 1723.46 1115.84C1722.57 1115.84 1721.95 1115.22 1721.95 1114.15C1721.95 1113.08 1722.57 1112.45 1723.46 1112.45ZM1734.72 1109.23H1730.02V1116.71H1731.21V1113.42H1734.11V1112.37H1731.21V1110.28H1734.72V1109.23ZM1737.4 1111.49C1736.79 1111.49 1736.29 1111.67 1735.92 1112.04C1735.55 1112.4 1735.36 1112.82 1735.36 1113.3L1736.49 1113.34C1736.49 1112.85 1736.81 1112.47 1737.41 1112.47C1738.02 1112.47 1738.32 1112.83 1738.32 1113.54V1113.69L1737.1 1113.76C1735.85 1113.83 1735.22 1114.35 1735.22 1115.31C1735.22 1116.26 1735.89 1116.81 1736.93 1116.81C1737.46 1116.81 1737.93 1116.62 1738.32 1116.25V1116.71H1739.45V1113.52C1739.45 1112.21 1738.72 1111.49 1737.4 1111.49ZM1738.33 1114.74C1738.33 1115.49 1737.87 1115.87 1737.12 1115.87C1736.61 1115.87 1736.35 1115.68 1736.35 1115.29C1736.35 1114.88 1736.65 1114.66 1737.26 1114.63L1738.33 1114.56V1114.74ZM1743.57 1111.52C1742.84 1111.52 1742.36 1111.78 1742.11 1112.3V1111.58H1741.02V1116.71H1742.14V1113.92C1742.14 1113.16 1742.7 1112.61 1743.57 1112.61V1111.52ZM1750.43 1111.49C1749.67 1111.49 1749.11 1111.8 1748.76 1112.42C1748.42 1111.8 1747.88 1111.49 1747.13 1111.49C1746.44 1111.49 1745.94 1111.75 1745.65 1112.26V1111.58H1744.59V1116.71H1745.71V1113.78C1745.71 1113.06 1746.19 1112.53 1746.88 1112.53C1747.49 1112.53 1747.91 1113.01 1747.91 1113.77V1116.71H1749.04V1113.62V1113.59C1749.11 1112.96 1749.52 1112.53 1750.15 1112.53C1750.83 1112.53 1751.22 1113 1751.22 1113.77V1116.71H1752.35V1113.6C1752.35 1112.97 1752.17 1112.46 1751.82 1112.07C1751.47 1111.68 1751 1111.49 1750.43 1111.49ZM1753.98 1109.31C1753.71 1109.58 1753.71 1110.02 1753.98 1110.3C1754.26 1110.57 1754.7 1110.57 1754.98 1110.3C1755.26 1110.02 1755.26 1109.58 1754.98 1109.31C1754.7 1109.03 1754.26 1109.03 1753.98 1109.31ZM1755.04 1111.58H1753.92V1116.71H1755.04V1111.58ZM1759.22 1111.49C1758.51 1111.49 1758.01 1111.75 1757.72 1112.26V1111.58H1756.66V1116.71H1757.78V1113.78C1757.78 1113.06 1758.26 1112.53 1758.97 1112.53C1759.65 1112.53 1760.09 1113.01 1760.09 1113.77V1116.71H1761.22V1113.62C1761.22 1112.97 1761.03 1112.45 1760.66 1112.07C1760.29 1111.68 1759.81 1111.49 1759.22 1111.49ZM1764.94 1111.49C1764.21 1111.49 1763.62 1111.73 1763.16 1112.22C1762.7 1112.7 1762.47 1113.34 1762.47 1114.15C1762.47 1114.96 1762.7 1115.6 1763.16 1116.09C1763.62 1116.57 1764.21 1116.81 1764.94 1116.81C1765.67 1116.81 1766.28 1116.53 1766.57 1116.1V1117.04C1766.57 1117.91 1766.01 1118.4 1765.14 1118.4C1764.38 1118.4 1763.83 1118.03 1763.74 1117.43L1762.62 1117.47C1762.83 1118.63 1763.7 1119.35 1765.17 1119.35C1765.94 1119.35 1766.55 1119.13 1767 1118.7C1767.46 1118.27 1767.69 1117.69 1767.69 1116.96V1111.58H1766.63V1112.3C1766.34 1111.82 1765.71 1111.49 1764.94 1111.49ZM1765.12 1112.46C1765.99 1112.46 1766.57 1113.03 1766.57 1114.02V1114.29C1766.57 1115.28 1765.99 1115.85 1765.12 1115.85C1764.23 1115.85 1763.61 1115.22 1763.61 1114.15C1763.61 1113.08 1764.23 1112.46 1765.12 1112.46Z" fill="white"/>
<rect x="1715.75" y="1229.41" width="24" height="2" rx="1" fill="#C4C4C4"/>
<rect x="1715.75" y="1234.41" width="10" height="2" rx="1" fill="#C4C4C4"/>
<rect x="1726.75" y="1234.41" width="14" height="2" rx="1" fill="#C4C4C4"/>
<circle cx="1706.75" cy="1233.41" r="5" fill="#C4C4C4"/>
<path d="M1769.42 1234.15C1769.42 1233.78 1769.3 1233.51 1769.05 1233.33C1768.8 1233.14 1768.41 1232.98 1767.89 1232.86C1767.51 1232.77 1767.26 1232.68 1767.11 1232.6C1766.96 1232.51 1766.89 1232.37 1766.89 1232.16C1766.89 1231.75 1767.2 1231.48 1767.72 1231.48C1768.23 1231.48 1768.56 1231.76 1768.58 1232.21L1769.31 1232.17C1769.28 1231.47 1768.79 1230.99 1768.04 1230.89V1230.22H1767.48V1230.88C1767.05 1230.92 1766.72 1231.06 1766.49 1231.3C1766.27 1231.54 1766.16 1231.84 1766.16 1232.18C1766.16 1232.59 1766.3 1232.88 1766.6 1233.07C1766.9 1233.27 1767.15 1233.34 1767.62 1233.46C1768.01 1233.55 1768.29 1233.65 1768.45 1233.75C1768.61 1233.84 1768.7 1233.99 1768.7 1234.2C1768.7 1234.65 1768.35 1234.86 1767.8 1234.86C1767.23 1234.86 1766.81 1234.54 1766.78 1234.07L1766.06 1234.11C1766.08 1234.86 1766.64 1235.36 1767.48 1235.46V1236.12H1768.04V1235.46C1768.86 1235.39 1769.42 1234.95 1769.42 1234.15ZM1772.69 1232.13C1772.69 1231.33 1772.2 1230.87 1771.36 1230.87C1770.52 1230.87 1770.03 1231.38 1770.01 1232.24L1770.73 1232.28C1770.73 1231.76 1770.95 1231.5 1771.38 1231.5C1771.76 1231.5 1771.97 1231.75 1771.97 1232.16C1771.97 1232.41 1771.93 1232.62 1771.84 1232.79C1771.75 1232.95 1771.57 1233.18 1771.31 1233.45L1770.02 1234.83V1235.41H1772.73V1234.78H1771.01L1771.84 1233.88C1772.11 1233.59 1772.32 1233.31 1772.47 1233.04C1772.62 1232.77 1772.69 1232.47 1772.69 1232.13ZM1773.62 1234.61C1773.38 1234.61 1773.19 1234.8 1773.19 1235.05C1773.19 1235.28 1773.38 1235.47 1773.62 1235.47C1773.86 1235.47 1774.06 1235.28 1774.06 1235.05C1774.06 1234.8 1773.86 1234.61 1773.62 1234.61ZM1777.89 1233.17C1777.89 1232.44 1777.74 1231.87 1777.44 1231.47C1777.15 1231.07 1776.75 1230.87 1776.24 1230.87C1775.74 1230.87 1775.34 1231.07 1775.04 1231.47C1774.74 1231.87 1774.59 1232.44 1774.59 1233.17C1774.59 1233.9 1774.74 1234.47 1775.04 1234.87C1775.34 1235.27 1775.74 1235.47 1776.24 1235.47C1776.74 1235.47 1777.14 1235.27 1777.44 1234.87C1777.74 1234.47 1777.89 1233.9 1777.89 1233.17ZM1776.24 1231.5C1776.86 1231.5 1777.17 1232.06 1777.17 1233.17C1777.17 1234.28 1776.86 1234.84 1776.24 1234.84C1775.62 1234.84 1775.31 1234.28 1775.31 1233.17C1775.31 1232.06 1775.62 1231.5 1776.24 1231.5ZM1781.17 1232.13C1781.17 1231.33 1780.68 1230.87 1779.84 1230.87C1779 1230.87 1778.51 1231.38 1778.49 1232.24L1779.2 1232.28C1779.21 1231.76 1779.43 1231.5 1779.86 1231.5C1780.24 1231.5 1780.45 1231.75 1780.45 1232.16C1780.45 1232.41 1780.4 1232.62 1780.31 1232.79C1780.22 1232.95 1780.05 1233.18 1779.79 1233.45L1778.5 1234.83V1235.41H1781.21V1234.78H1779.49L1780.32 1233.88C1780.59 1233.59 1780.8 1233.31 1780.94 1233.04C1781.09 1232.77 1781.17 1232.47 1781.17 1232.13Z" fill="#BEBEBE"/>
<rect x="1715.75" y="1253.41" width="24" height="2" rx="1" fill="#C4C4C4"/>
<rect x="1715.75" y="1258.41" width="10" height="2" rx="1" fill="#C4C4C4"/>
<rect x="1726.75" y="1258.41" width="14" height="2" rx="1" fill="#C4C4C4"/>
<circle cx="1706.75" cy="1257.41" r="5" fill="#C4C4C4"/>
<path d="M1769.42 1258.15C1769.42 1257.78 1769.3 1257.51 1769.05 1257.33C1768.8 1257.14 1768.41 1256.98 1767.89 1256.86C1767.51 1256.77 1767.26 1256.68 1767.11 1256.6C1766.96 1256.51 1766.89 1256.37 1766.89 1256.16C1766.89 1255.75 1767.2 1255.48 1767.72 1255.48C1768.23 1255.48 1768.56 1255.76 1768.58 1256.21L1769.31 1256.17C1769.28 1255.47 1768.79 1254.99 1768.04 1254.89V1254.22H1767.48V1254.88C1767.05 1254.92 1766.72 1255.06 1766.49 1255.3C1766.27 1255.54 1766.16 1255.84 1766.16 1256.18C1766.16 1256.59 1766.3 1256.88 1766.6 1257.07C1766.9 1257.27 1767.15 1257.34 1767.62 1257.46C1768.01 1257.55 1768.29 1257.65 1768.45 1257.75C1768.61 1257.84 1768.7 1257.99 1768.7 1258.2C1768.7 1258.65 1768.35 1258.86 1767.8 1258.86C1767.23 1258.86 1766.81 1258.54 1766.78 1258.07L1766.06 1258.11C1766.08 1258.86 1766.64 1259.36 1767.48 1259.46V1260.12H1768.04V1259.46C1768.86 1259.39 1769.42 1258.95 1769.42 1258.15ZM1772.69 1256.13C1772.69 1255.33 1772.2 1254.87 1771.36 1254.87C1770.52 1254.87 1770.03 1255.38 1770.01 1256.24L1770.73 1256.28C1770.73 1255.76 1770.95 1255.5 1771.38 1255.5C1771.76 1255.5 1771.97 1255.75 1771.97 1256.16C1771.97 1256.41 1771.93 1256.62 1771.84 1256.79C1771.75 1256.95 1771.57 1257.18 1771.31 1257.45L1770.02 1258.83V1259.41H1772.73V1258.78H1771.01L1771.84 1257.88C1772.11 1257.59 1772.32 1257.31 1772.47 1257.04C1772.62 1256.77 1772.69 1256.47 1772.69 1256.13ZM1773.62 1258.61C1773.38 1258.61 1773.19 1258.8 1773.19 1259.05C1773.19 1259.28 1773.38 1259.47 1773.62 1259.47C1773.86 1259.47 1774.06 1259.28 1774.06 1259.05C1774.06 1258.8 1773.86 1258.61 1773.62 1258.61ZM1777.89 1257.17C1777.89 1256.44 1777.74 1255.87 1777.44 1255.47C1777.15 1255.07 1776.75 1254.87 1776.24 1254.87C1775.74 1254.87 1775.34 1255.07 1775.04 1255.47C1774.74 1255.87 1774.59 1256.44 1774.59 1257.17C1774.59 1257.9 1774.74 1258.47 1775.04 1258.87C1775.34 1259.27 1775.74 1259.47 1776.24 1259.47C1776.74 1259.47 1777.14 1259.27 1777.44 1258.87C1777.74 1258.47 1777.89 1257.9 1777.89 1257.17ZM1776.24 1255.5C1776.86 1255.5 1777.17 1256.06 1777.17 1257.17C1777.17 1258.28 1776.86 1258.84 1776.24 1258.84C1775.62 1258.84 1775.31 1258.28 1775.31 1257.17C1775.31 1256.06 1775.62 1255.5 1776.24 1255.5ZM1781.17 1256.13C1781.17 1255.33 1780.68 1254.87 1779.84 1254.87C1779 1254.87 1778.51 1255.38 1778.49 1256.24L1779.2 1256.28C1779.21 1255.76 1779.43 1255.5 1779.86 1255.5C1780.24 1255.5 1780.45 1255.75 1780.45 1256.16C1780.45 1256.41 1780.4 1256.62 1780.31 1256.79C1780.22 1256.95 1780.05 1257.18 1779.79 1257.45L1778.5 1258.83V1259.41H1781.21V1258.78H1779.49L1780.32 1257.88C1780.59 1257.59 1780.8 1257.31 1780.94 1257.04C1781.09 1256.77 1781.17 1256.47 1781.17 1256.13Z" fill="#BEBEBE"/>
<rect x="1715.75" y="1277.41" width="24" height="2" rx="1" fill="#C4C4C4"/>
<rect x="1715.75" y="1282.41" width="10" height="2" rx="1" fill="#C4C4C4"/>
<rect x="1726.75" y="1282.41" width="14" height="2" rx="1" fill="#C4C4C4"/>
<circle cx="1706.75" cy="1281.41" r="5" fill="#C4C4C4"/>
<path d="M1769.42 1282.15C1769.42 1281.78 1769.3 1281.51 1769.05 1281.33C1768.8 1281.14 1768.41 1280.98 1767.89 1280.86C1767.51 1280.77 1767.26 1280.68 1767.11 1280.6C1766.96 1280.51 1766.89 1280.37 1766.89 1280.16C1766.89 1279.75 1767.2 1279.48 1767.72 1279.48C1768.23 1279.48 1768.56 1279.76 1768.58 1280.21L1769.31 1280.17C1769.28 1279.47 1768.79 1278.99 1768.04 1278.89V1278.22H1767.48V1278.88C1767.05 1278.92 1766.72 1279.06 1766.49 1279.3C1766.27 1279.54 1766.16 1279.84 1766.16 1280.18C1766.16 1280.59 1766.3 1280.88 1766.6 1281.07C1766.9 1281.27 1767.15 1281.34 1767.62 1281.46C1768.01 1281.55 1768.29 1281.65 1768.45 1281.75C1768.61 1281.84 1768.7 1281.99 1768.7 1282.2C1768.7 1282.65 1768.35 1282.86 1767.8 1282.86C1767.23 1282.86 1766.81 1282.54 1766.78 1282.07L1766.06 1282.11C1766.08 1282.86 1766.64 1283.36 1767.48 1283.46V1284.12H1768.04V1283.46C1768.86 1283.39 1769.42 1282.95 1769.42 1282.15ZM1772.69 1280.13C1772.69 1279.33 1772.2 1278.87 1771.36 1278.87C1770.52 1278.87 1770.03 1279.38 1770.01 1280.24L1770.73 1280.28C1770.73 1279.76 1770.95 1279.5 1771.38 1279.5C1771.76 1279.5 1771.97 1279.75 1771.97 1280.16C1771.97 1280.41 1771.93 1280.62 1771.84 1280.79C1771.75 1280.95 1771.57 1281.18 1771.31 1281.45L1770.02 1282.83V1283.41H1772.73V1282.78H1771.01L1771.84 1281.88C1772.11 1281.59 1772.32 1281.31 1772.47 1281.04C1772.62 1280.77 1772.69 1280.47 1772.69 1280.13ZM1773.62 1282.61C1773.38 1282.61 1773.19 1282.8 1773.19 1283.05C1773.19 1283.28 1773.38 1283.47 1773.62 1283.47C1773.86 1283.47 1774.06 1283.28 1774.06 1283.05C1774.06 1282.8 1773.86 1282.61 1773.62 1282.61ZM1777.89 1281.17C1777.89 1280.44 1777.74 1279.87 1777.44 1279.47C1777.15 1279.07 1776.75 1278.87 1776.24 1278.87C1775.74 1278.87 1775.34 1279.07 1775.04 1279.47C1774.74 1279.87 1774.59 1280.44 1774.59 1281.17C1774.59 1281.9 1774.74 1282.47 1775.04 1282.87C1775.34 1283.27 1775.74 1283.47 1776.24 1283.47C1776.74 1283.47 1777.14 1283.27 1777.44 1282.87C1777.74 1282.47 1777.89 1281.9 1777.89 1281.17ZM1776.24 1279.5C1776.86 1279.5 1777.17 1280.06 1777.17 1281.17C1777.17 1282.28 1776.86 1282.84 1776.24 1282.84C1775.62 1282.84 1775.31 1282.28 1775.31 1281.17C1775.31 1280.06 1775.62 1279.5 1776.24 1279.5ZM1781.17 1280.13C1781.17 1279.33 1780.68 1278.87 1779.84 1278.87C1779 1278.87 1778.51 1279.38 1778.49 1280.24L1779.2 1280.28C1779.21 1279.76 1779.43 1279.5 1779.86 1279.5C1780.24 1279.5 1780.45 1279.75 1780.45 1280.16C1780.45 1280.41 1780.4 1280.62 1780.31 1280.79C1780.22 1280.95 1780.05 1281.18 1779.79 1281.45L1778.5 1282.83V1283.41H1781.21V1282.78H1779.49L1780.32 1281.88C1780.59 1281.59 1780.8 1281.31 1780.94 1281.04C1781.09 1280.77 1781.17 1280.47 1781.17 1280.13Z" fill="#BEBEBE"/>
<rect x="1715.75" y="1301.41" width="24" height="2" rx="1" fill="#C4C4C4"/>
<rect x="1715.75" y="1306.41" width="10" height="2" rx="1" fill="#C4C4C4"/>
<rect x="1726.75" y="1306.41" width="12" height="2" rx="1" fill="#C4C4C4"/>
<circle cx="1706.75" cy="1305.41" r="5" fill="#C4C4C4"/>
<path d="M1769.42 1306.15C1769.42 1305.78 1769.3 1305.51 1769.05 1305.33C1768.8 1305.14 1768.41 1304.98 1767.89 1304.86C1767.51 1304.77 1767.26 1304.68 1767.11 1304.6C1766.96 1304.51 1766.89 1304.37 1766.89 1304.16C1766.89 1303.75 1767.2 1303.48 1767.72 1303.48C1768.23 1303.48 1768.56 1303.76 1768.58 1304.21L1769.31 1304.17C1769.28 1303.47 1768.79 1302.99 1768.04 1302.89V1302.22H1767.48V1302.88C1767.05 1302.92 1766.72 1303.06 1766.49 1303.3C1766.27 1303.54 1766.16 1303.84 1766.16 1304.18C1766.16 1304.59 1766.3 1304.88 1766.6 1305.07C1766.9 1305.27 1767.15 1305.34 1767.62 1305.46C1768.01 1305.55 1768.29 1305.65 1768.45 1305.75C1768.61 1305.84 1768.7 1305.99 1768.7 1306.2C1768.7 1306.65 1768.35 1306.86 1767.8 1306.86C1767.23 1306.86 1766.81 1306.54 1766.78 1306.07L1766.06 1306.11C1766.08 1306.86 1766.64 1307.36 1767.48 1307.46V1308.12H1768.04V1307.46C1768.86 1307.39 1769.42 1306.95 1769.42 1306.15ZM1772.69 1304.13C1772.69 1303.33 1772.2 1302.87 1771.36 1302.87C1770.52 1302.87 1770.03 1303.38 1770.01 1304.24L1770.73 1304.28C1770.73 1303.76 1770.95 1303.5 1771.38 1303.5C1771.76 1303.5 1771.97 1303.75 1771.97 1304.16C1771.97 1304.41 1771.93 1304.62 1771.84 1304.79C1771.75 1304.95 1771.57 1305.18 1771.31 1305.45L1770.02 1306.83V1307.41H1772.73V1306.78H1771.01L1771.84 1305.88C1772.11 1305.59 1772.32 1305.31 1772.47 1305.04C1772.62 1304.77 1772.69 1304.47 1772.69 1304.13ZM1773.62 1306.61C1773.38 1306.61 1773.19 1306.8 1773.19 1307.05C1773.19 1307.28 1773.38 1307.47 1773.62 1307.47C1773.86 1307.47 1774.06 1307.28 1774.06 1307.05C1774.06 1306.8 1773.86 1306.61 1773.62 1306.61ZM1777.89 1305.17C1777.89 1304.44 1777.74 1303.87 1777.44 1303.47C1777.15 1303.07 1776.75 1302.87 1776.24 1302.87C1775.74 1302.87 1775.34 1303.07 1775.04 1303.47C1774.74 1303.87 1774.59 1304.44 1774.59 1305.17C1774.59 1305.9 1774.74 1306.47 1775.04 1306.87C1775.34 1307.27 1775.74 1307.47 1776.24 1307.47C1776.74 1307.47 1777.14 1307.27 1777.44 1306.87C1777.74 1306.47 1777.89 1305.9 1777.89 1305.17ZM1776.24 1303.5C1776.86 1303.5 1777.17 1304.06 1777.17 1305.17C1777.17 1306.28 1776.86 1306.84 1776.24 1306.84C1775.62 1306.84 1775.31 1306.28 1775.31 1305.17C1775.31 1304.06 1775.62 1303.5 1776.24 1303.5ZM1781.17 1304.13C1781.17 1303.33 1780.68 1302.87 1779.84 1302.87C1779 1302.87 1778.51 1303.38 1778.49 1304.24L1779.2 1304.28C1779.21 1303.76 1779.43 1303.5 1779.86 1303.5C1780.24 1303.5 1780.45 1303.75 1780.45 1304.16C1780.45 1304.41 1780.4 1304.62 1780.31 1304.79C1780.22 1304.95 1780.05 1305.18 1779.79 1305.45L1778.5 1306.83V1307.41H1781.21V1306.78H1779.49L1780.32 1305.88C1780.59 1305.59 1780.8 1305.31 1780.94 1305.04C1781.09 1304.77 1781.17 1304.47 1781.17 1304.13Z" fill="#BEBEBE"/>
<rect x="1715.75" y="1325.41" width="24" height="2" rx="1" fill="#C4C4C4"/>
<rect x="1715.75" y="1330.41" width="10" height="2" rx="1" fill="#C4C4C4"/>
<rect x="1726.75" y="1330.41" width="14" height="2" rx="1" fill="#C4C4C4"/>
<circle cx="1706.75" cy="1329.41" r="5" fill="#C4C4C4"/>
<path d="M1769.42 1330.15C1769.42 1329.78 1769.3 1329.51 1769.05 1329.33C1768.8 1329.14 1768.41 1328.98 1767.89 1328.86C1767.51 1328.77 1767.26 1328.68 1767.11 1328.6C1766.96 1328.51 1766.89 1328.37 1766.89 1328.16C1766.89 1327.75 1767.2 1327.48 1767.72 1327.48C1768.23 1327.48 1768.56 1327.76 1768.58 1328.21L1769.31 1328.17C1769.28 1327.47 1768.79 1326.99 1768.04 1326.89V1326.22H1767.48V1326.88C1767.05 1326.92 1766.72 1327.06 1766.49 1327.3C1766.27 1327.54 1766.16 1327.84 1766.16 1328.18C1766.16 1328.59 1766.3 1328.88 1766.6 1329.07C1766.9 1329.27 1767.15 1329.34 1767.62 1329.46C1768.01 1329.55 1768.29 1329.65 1768.45 1329.75C1768.61 1329.84 1768.7 1329.99 1768.7 1330.2C1768.7 1330.65 1768.35 1330.86 1767.8 1330.86C1767.23 1330.86 1766.81 1330.54 1766.78 1330.07L1766.06 1330.11C1766.08 1330.86 1766.64 1331.36 1767.48 1331.46V1332.12H1768.04V1331.46C1768.86 1331.39 1769.42 1330.95 1769.42 1330.15ZM1772.69 1328.13C1772.69 1327.33 1772.2 1326.87 1771.36 1326.87C1770.52 1326.87 1770.03 1327.38 1770.01 1328.24L1770.73 1328.28C1770.73 1327.76 1770.95 1327.5 1771.38 1327.5C1771.76 1327.5 1771.97 1327.75 1771.97 1328.16C1771.97 1328.41 1771.93 1328.62 1771.84 1328.79C1771.75 1328.95 1771.57 1329.18 1771.31 1329.45L1770.02 1330.83V1331.41H1772.73V1330.78H1771.01L1771.84 1329.88C1772.11 1329.59 1772.32 1329.31 1772.47 1329.04C1772.62 1328.77 1772.69 1328.47 1772.69 1328.13ZM1773.62 1330.61C1773.38 1330.61 1773.19 1330.8 1773.19 1331.05C1773.19 1331.28 1773.38 1331.47 1773.62 1331.47C1773.86 1331.47 1774.06 1331.28 1774.06 1331.05C1774.06 1330.8 1773.86 1330.61 1773.62 1330.61ZM1777.89 1329.17C1777.89 1328.44 1777.74 1327.87 1777.44 1327.47C1777.15 1327.07 1776.75 1326.87 1776.24 1326.87C1775.74 1326.87 1775.34 1327.07 1775.04 1327.47C1774.74 1327.87 1774.59 1328.44 1774.59 1329.17C1774.59 1329.9 1774.74 1330.47 1775.04 1330.87C1775.34 1331.27 1775.74 1331.47 1776.24 1331.47C1776.74 1331.47 1777.14 1331.27 1777.44 1330.87C1777.74 1330.47 1777.89 1329.9 1777.89 1329.17ZM1776.24 1327.5C1776.86 1327.5 1777.17 1328.06 1777.17 1329.17C1777.17 1330.28 1776.86 1330.84 1776.24 1330.84C1775.62 1330.84 1775.31 1330.28 1775.31 1329.17C1775.31 1328.06 1775.62 1327.5 1776.24 1327.5ZM1781.17 1328.13C1781.17 1327.33 1780.68 1326.87 1779.84 1326.87C1779 1326.87 1778.51 1327.38 1778.49 1328.24L1779.2 1328.28C1779.21 1327.76 1779.43 1327.5 1779.86 1327.5C1780.24 1327.5 1780.45 1327.75 1780.45 1328.16C1780.45 1328.41 1780.4 1328.62 1780.31 1328.79C1780.22 1328.95 1780.05 1329.18 1779.79 1329.45L1778.5 1330.83V1331.41H1781.21V1330.78H1779.49L1780.32 1329.88C1780.59 1329.59 1780.8 1329.31 1780.94 1329.04C1781.09 1328.77 1781.17 1328.47 1781.17 1328.13Z" fill="#BEBEBE"/>
<rect x="1715.75" y="1349.41" width="24" height="2" rx="1" fill="#C4C4C4"/>
<rect x="1715.75" y="1354.41" width="10" height="2" rx="1" fill="#C4C4C4"/>
<rect x="1726.75" y="1354.41" width="14" height="2" rx="1" fill="#C4C4C4"/>
<circle cx="1706.75" cy="1353.41" r="5" fill="#C4C4C4"/>
<path d="M1769.42 1354.15C1769.42 1353.78 1769.3 1353.51 1769.05 1353.33C1768.8 1353.14 1768.41 1352.98 1767.89 1352.86C1767.51 1352.77 1767.26 1352.68 1767.11 1352.6C1766.96 1352.51 1766.89 1352.37 1766.89 1352.16C1766.89 1351.75 1767.2 1351.48 1767.72 1351.48C1768.23 1351.48 1768.56 1351.76 1768.58 1352.21L1769.31 1352.17C1769.28 1351.47 1768.79 1350.99 1768.04 1350.89V1350.22H1767.48V1350.88C1767.05 1350.92 1766.72 1351.06 1766.49 1351.3C1766.27 1351.54 1766.16 1351.84 1766.16 1352.18C1766.16 1352.59 1766.3 1352.88 1766.6 1353.07C1766.9 1353.27 1767.15 1353.34 1767.62 1353.46C1768.01 1353.55 1768.29 1353.65 1768.45 1353.75C1768.61 1353.84 1768.7 1353.99 1768.7 1354.2C1768.7 1354.65 1768.35 1354.86 1767.8 1354.86C1767.23 1354.86 1766.81 1354.54 1766.78 1354.07L1766.06 1354.11C1766.08 1354.86 1766.64 1355.36 1767.48 1355.46V1356.12H1768.04V1355.46C1768.86 1355.39 1769.42 1354.95 1769.42 1354.15ZM1772.69 1352.13C1772.69 1351.33 1772.2 1350.87 1771.36 1350.87C1770.52 1350.87 1770.03 1351.38 1770.01 1352.24L1770.73 1352.28C1770.73 1351.76 1770.95 1351.5 1771.38 1351.5C1771.76 1351.5 1771.97 1351.75 1771.97 1352.16C1771.97 1352.41 1771.93 1352.62 1771.84 1352.79C1771.75 1352.95 1771.57 1353.18 1771.31 1353.45L1770.02 1354.83V1355.41H1772.73V1354.78H1771.01L1771.84 1353.88C1772.11 1353.59 1772.32 1353.31 1772.47 1353.04C1772.62 1352.77 1772.69 1352.47 1772.69 1352.13ZM1773.62 1354.61C1773.38 1354.61 1773.19 1354.8 1773.19 1355.05C1773.19 1355.28 1773.38 1355.47 1773.62 1355.47C1773.86 1355.47 1774.06 1355.28 1774.06 1355.05C1774.06 1354.8 1773.86 1354.61 1773.62 1354.61ZM1777.89 1353.17C1777.89 1352.44 1777.74 1351.87 1777.44 1351.47C1777.15 1351.07 1776.75 1350.87 1776.24 1350.87C1775.74 1350.87 1775.34 1351.07 1775.04 1351.47C1774.74 1351.87 1774.59 1352.44 1774.59 1353.17C1774.59 1353.9 1774.74 1354.47 1775.04 1354.87C1775.34 1355.27 1775.74 1355.47 1776.24 1355.47C1776.74 1355.47 1777.14 1355.27 1777.44 1354.87C1777.74 1354.47 1777.89 1353.9 1777.89 1353.17ZM1776.24 1351.5C1776.86 1351.5 1777.17 1352.06 1777.17 1353.17C1777.17 1354.28 1776.86 1354.84 1776.24 1354.84C1775.62 1354.84 1775.31 1354.28 1775.31 1353.17C1775.31 1352.06 1775.62 1351.5 1776.24 1351.5ZM1781.17 1352.13C1781.17 1351.33 1780.68 1350.87 1779.84 1350.87C1779 1350.87 1778.51 1351.38 1778.49 1352.24L1779.2 1352.28C1779.21 1351.76 1779.43 1351.5 1779.86 1351.5C1780.24 1351.5 1780.45 1351.75 1780.45 1352.16C1780.45 1352.41 1780.4 1352.62 1780.31 1352.79C1780.22 1352.95 1780.05 1353.18 1779.79 1353.45L1778.5 1354.83V1355.41H1781.21V1354.78H1779.49L1780.32 1353.88C1780.59 1353.59 1780.8 1353.31 1780.94 1353.04C1781.09 1352.77 1781.17 1352.47 1781.17 1352.13Z" fill="#BEBEBE"/>
<rect x="1715.75" y="1373.41" width="24" height="2" rx="1" fill="#C4C4C4"/>
<rect x="1715.75" y="1378.41" width="10" height="2" rx="1" fill="#C4C4C4"/>
<rect x="1726.75" y="1378.41" width="14" height="2" rx="1" fill="#C4C4C4"/>
<circle cx="1706.75" cy="1377.41" r="5" fill="#C4C4C4"/>
<path d="M1769.42 1378.15C1769.42 1377.78 1769.3 1377.51 1769.05 1377.33C1768.8 1377.14 1768.41 1376.98 1767.89 1376.86C1767.51 1376.77 1767.26 1376.68 1767.11 1376.6C1766.96 1376.51 1766.89 1376.37 1766.89 1376.16C1766.89 1375.75 1767.2 1375.48 1767.72 1375.48C1768.23 1375.48 1768.56 1375.76 1768.58 1376.21L1769.31 1376.17C1769.28 1375.47 1768.79 1374.99 1768.04 1374.89V1374.22H1767.48V1374.88C1767.05 1374.92 1766.72 1375.06 1766.49 1375.3C1766.27 1375.54 1766.16 1375.84 1766.16 1376.18C1766.16 1376.59 1766.3 1376.88 1766.6 1377.07C1766.9 1377.27 1767.15 1377.34 1767.62 1377.46C1768.01 1377.55 1768.29 1377.65 1768.45 1377.75C1768.61 1377.84 1768.7 1377.99 1768.7 1378.2C1768.7 1378.65 1768.35 1378.86 1767.8 1378.86C1767.23 1378.86 1766.81 1378.54 1766.78 1378.07L1766.06 1378.11C1766.08 1378.86 1766.64 1379.36 1767.48 1379.46V1380.12H1768.04V1379.46C1768.86 1379.39 1769.42 1378.95 1769.42 1378.15ZM1772.69 1376.13C1772.69 1375.33 1772.2 1374.87 1771.36 1374.87C1770.52 1374.87 1770.03 1375.38 1770.01 1376.24L1770.73 1376.28C1770.73 1375.76 1770.95 1375.5 1771.38 1375.5C1771.76 1375.5 1771.97 1375.75 1771.97 1376.16C1771.97 1376.41 1771.93 1376.62 1771.84 1376.79C1771.75 1376.95 1771.57 1377.18 1771.31 1377.45L1770.02 1378.83V1379.41H1772.73V1378.78H1771.01L1771.84 1377.88C1772.11 1377.59 1772.32 1377.31 1772.47 1377.04C1772.62 1376.77 1772.69 1376.47 1772.69 1376.13ZM1773.62 1378.61C1773.38 1378.61 1773.19 1378.8 1773.19 1379.05C1773.19 1379.28 1773.38 1379.47 1773.62 1379.47C1773.86 1379.47 1774.06 1379.28 1774.06 1379.05C1774.06 1378.8 1773.86 1378.61 1773.62 1378.61ZM1777.89 1377.17C1777.89 1376.44 1777.74 1375.87 1777.44 1375.47C1777.15 1375.07 1776.75 1374.87 1776.24 1374.87C1775.74 1374.87 1775.34 1375.07 1775.04 1375.47C1774.74 1375.87 1774.59 1376.44 1774.59 1377.17C1774.59 1377.9 1774.74 1378.47 1775.04 1378.87C1775.34 1379.27 1775.74 1379.47 1776.24 1379.47C1776.74 1379.47 1777.14 1379.27 1777.44 1378.87C1777.74 1378.47 1777.89 1377.9 1777.89 1377.17ZM1776.24 1375.5C1776.86 1375.5 1777.17 1376.06 1777.17 1377.17C1777.17 1378.28 1776.86 1378.84 1776.24 1378.84C1775.62 1378.84 1775.31 1378.28 1775.31 1377.17C1775.31 1376.06 1775.62 1375.5 1776.24 1375.5ZM1781.17 1376.13C1781.17 1375.33 1780.68 1374.87 1779.84 1374.87C1779 1374.87 1778.51 1375.38 1778.49 1376.24L1779.2 1376.28C1779.21 1375.76 1779.43 1375.5 1779.86 1375.5C1780.24 1375.5 1780.45 1375.75 1780.45 1376.16C1780.45 1376.41 1780.4 1376.62 1780.31 1376.79C1780.22 1376.95 1780.05 1377.18 1779.79 1377.45L1778.5 1378.83V1379.41H1781.21V1378.78H1779.49L1780.32 1377.88C1780.59 1377.59 1780.8 1377.31 1780.94 1377.04C1781.09 1376.77 1781.17 1376.47 1781.17 1376.13Z" fill="#BEBEBE"/>
<rect x="1715.75" y="1397.41" width="24" height="2" rx="1" fill="#C4C4C4"/>
<rect x="1715.75" y="1402.41" width="10" height="2" rx="1" fill="#C4C4C4"/>
<rect x="1726.75" y="1402.41" width="14" height="2" rx="1" fill="#C4C4C4"/>
<circle cx="1706.75" cy="1401.41" r="5" fill="#C4C4C4"/>
<path d="M1769.42 1402.15C1769.42 1401.78 1769.3 1401.51 1769.05 1401.33C1768.8 1401.14 1768.41 1400.98 1767.89 1400.86C1767.51 1400.77 1767.26 1400.68 1767.11 1400.6C1766.96 1400.51 1766.89 1400.37 1766.89 1400.16C1766.89 1399.75 1767.2 1399.48 1767.72 1399.48C1768.23 1399.48 1768.56 1399.76 1768.58 1400.21L1769.31 1400.17C1769.28 1399.47 1768.79 1398.99 1768.04 1398.89V1398.22H1767.48V1398.88C1767.05 1398.92 1766.72 1399.06 1766.49 1399.3C1766.27 1399.54 1766.16 1399.84 1766.16 1400.18C1766.16 1400.59 1766.3 1400.88 1766.6 1401.07C1766.9 1401.27 1767.15 1401.34 1767.62 1401.46C1768.01 1401.55 1768.29 1401.65 1768.45 1401.75C1768.61 1401.84 1768.7 1401.99 1768.7 1402.2C1768.7 1402.65 1768.35 1402.86 1767.8 1402.86C1767.23 1402.86 1766.81 1402.54 1766.78 1402.07L1766.06 1402.11C1766.08 1402.86 1766.64 1403.36 1767.48 1403.46V1404.12H1768.04V1403.46C1768.86 1403.39 1769.42 1402.95 1769.42 1402.15ZM1772.69 1400.13C1772.69 1399.33 1772.2 1398.87 1771.36 1398.87C1770.52 1398.87 1770.03 1399.38 1770.01 1400.24L1770.73 1400.28C1770.73 1399.76 1770.95 1399.5 1771.38 1399.5C1771.76 1399.5 1771.97 1399.75 1771.97 1400.16C1771.97 1400.41 1771.93 1400.62 1771.84 1400.79C1771.75 1400.95 1771.57 1401.18 1771.31 1401.45L1770.02 1402.83V1403.41H1772.73V1402.78H1771.01L1771.84 1401.88C1772.11 1401.59 1772.32 1401.31 1772.47 1401.04C1772.62 1400.77 1772.69 1400.47 1772.69 1400.13ZM1773.62 1402.61C1773.38 1402.61 1773.19 1402.8 1773.19 1403.05C1773.19 1403.28 1773.38 1403.47 1773.62 1403.47C1773.86 1403.47 1774.06 1403.28 1774.06 1403.05C1774.06 1402.8 1773.86 1402.61 1773.62 1402.61ZM1777.89 1401.17C1777.89 1400.44 1777.74 1399.87 1777.44 1399.47C1777.15 1399.07 1776.75 1398.87 1776.24 1398.87C1775.74 1398.87 1775.34 1399.07 1775.04 1399.47C1774.74 1399.87 1774.59 1400.44 1774.59 1401.17C1774.59 1401.9 1774.74 1402.47 1775.04 1402.87C1775.34 1403.27 1775.74 1403.47 1776.24 1403.47C1776.74 1403.47 1777.14 1403.27 1777.44 1402.87C1777.74 1402.47 1777.89 1401.9 1777.89 1401.17ZM1776.24 1399.5C1776.86 1399.5 1777.17 1400.06 1777.17 1401.17C1777.17 1402.28 1776.86 1402.84 1776.24 1402.84C1775.62 1402.84 1775.31 1402.28 1775.31 1401.17C1775.31 1400.06 1775.62 1399.5 1776.24 1399.5ZM1781.17 1400.13C1781.17 1399.33 1780.68 1398.87 1779.84 1398.87C1779 1398.87 1778.51 1399.38 1778.49 1400.24L1779.2 1400.28C1779.21 1399.76 1779.43 1399.5 1779.86 1399.5C1780.24 1399.5 1780.45 1399.75 1780.45 1400.16C1780.45 1400.41 1780.4 1400.62 1780.31 1400.79C1780.22 1400.95 1780.05 1401.18 1779.79 1401.45L1778.5 1402.83V1403.41H1781.21V1402.78H1779.49L1780.32 1401.88C1780.59 1401.59 1780.8 1401.31 1780.94 1401.04C1781.09 1400.77 1781.17 1400.47 1781.17 1400.13Z" fill="#BEBEBE"/>
<defs>
<filter id="filter0_d_35_3064" x="0.609375" y="0.908691" width="1312.09" height="1255.98" filterUnits="userSpaceOnUse" color-interpolation-filters="sRGB">
<feFlood flood-opacity="0" result="BackgroundImageFix"/>
<feColorMatrix in="SourceAlpha" type="matrix" values="0 0 0 0 0 0 0 0 0 0 0 0 0 0 0 0 0 0 127 0" result="hardAlpha"/>
<feOffset dx="30" dy="80"/>
<feGaussianBlur stdDeviation="100"/>
<feComposite in2="hardAlpha" operator="out"/>
<feColorMatrix type="matrix" values="0 0 0 0 0 0 0 0 0 0 0 0 0 0 0 0 0 0 0.1 0"/>
<feBlend mode="normal" in2="BackgroundImageFix" result="effect1_dropShadow_35_3064"/>
<feBlend mode="normal" in="SourceGraphic" in2="effect1_dropShadow_35_3064" result="shape"/>
</filter>
<filter id="filter1_d_35_3064" x="971.305" y="0.908691" width="1312.09" height="1255.98" filterUnits="userSpaceOnUse" color-interpolation-filters="sRGB">
<feFlood flood-opacity="0" result="BackgroundImageFix"/>
<feColorMatrix in="SourceAlpha" type="matrix" values="0 0 0 0 0 0 0 0 0 0 0 0 0 0 0 0 0 0 127 0" result="hardAlpha"/>
<feOffset dx="30" dy="80"/>
<feGaussianBlur stdDeviation="100"/>
<feComposite in2="hardAlpha" operator="out"/>
<feColorMatrix type="matrix" values="0 0 0 0 0 0 0 0 0 0 0 0 0 0 0 0 0 0 0.1 0"/>
<feBlend mode="normal" in2="BackgroundImageFix" result="effect1_dropShadow_35_3064"/>
<feBlend mode="normal" in="SourceGraphic" in2="effect1_dropShadow_35_3064" result="shape"/>
</filter>
<filter id="filter2_d_35_3064" x="0.601562" y="921.801" width="1813.92" height="1349.29" filterUnits="userSpaceOnUse" color-interpolation-filters="sRGB">
<feFlood flood-opacity="0" result="BackgroundImageFix"/>
<feColorMatrix in="SourceAlpha" type="matrix" values="0 0 0 0 0 0 0 0 0 0 0 0 0 0 0 0 0 0 127 0" result="hardAlpha"/>
<feOffset dx="30" dy="80"/>
<feGaussianBlur stdDeviation="100"/>
<feComposite in2="hardAlpha" operator="out"/>
<feColorMatrix type="matrix" values="0 0 0 0 0 0 0 0 0 0 0 0 0 0 0 0 0 0 0.1 0"/>
<feBlend mode="normal" in2="BackgroundImageFix" result="effect1_dropShadow_35_3064"/>
<feBlend mode="normal" in="SourceGraphic" in2="effect1_dropShadow_35_3064" result="shape"/>
</filter>
<linearGradient id="paint0_linear_35_3064" x1="747.522" y1="723.343" x2="922.311" y2="1743.32" gradientUnits="userSpaceOnUse">
<stop stop-color="#EE6855"/>
<stop offset="1" stop-color="#FEF0EE" stop-opacity="0"/>
</linearGradient>
</defs>
</svg>
